<?xml version="1.0" encoding="utf-8"?>
<!-- Generator: Adobe Illustrator 16.0.0, SVG Export Plug-In . SVG Version: 6.00 Build 0)  -->
<!DOCTYPE svg PUBLIC "-//W3C//DTD SVG 1.1//EN" "http://www.w3.org/Graphics/SVG/1.1/DTD/svg11.dtd">
<svg version="1.1" id="Calque_1" xmlns="http://www.w3.org/2000/svg" xmlns:xlink="http://www.w3.org/1999/xlink" x="0px" y="0px"
	 width="304px" height="214px" viewBox="0 0 304 214" enable-background="new 0 0 304 214" xml:space="preserve">
<path d="M275.826,163.081c-4.478,0-8.642,1.352-12.105,3.667c-1.247-10.749-10.308-19.104-21.355-19.259
	c-0.422-0.951-0.792-1.829-1.019-2.451c-0.634-1.743-0.872-2.377-1.979-4.513c-1.107-2.141-5.064-8.31-6.489-10.764
	c-1.423-2.453-0.396-2.296-1.109-5.065c-0.711-2.77-3.242-7.122-4.826-8.626c-1.582-1.502-4.352-4.748-6.332-7.201
	c-1.85-2.292-7.927-13.18-8.702-14.572c0.221-0.233,0.74-0.929,1.897-2.683c2.61-3.954,2.61-13.054,1.979-16.063
	c-0.635-3.006-0.475-8.785,0.236-11.475c0.713-2.692,3.72-13.294,4.671-15.433c0.949-2.135,1.344,0,1.582,1.187
	c0.236,1.188,0.475,4.117,1.188,5.46c0.712,1.346,0.712,1.584,1.267,3.087c0.552,1.505,0.792,4.908,0.633,5.78
	c-0.159,0.868-0.792,0.631-1.425,1.582c-0.634,0.95,0.077,1.027,2.058,3.72c1.978,2.689,4.67,2.374,4.67,2.374
	c-0.08,1.583,3.561,2.453,4.745,1.899c1.188-0.558,5.066-1.741,5.779-2.372c0.711-0.634,1.425-2.854,2.77-6.414
	c1.346-3.562,1.661-8.544,2.138-11.95c0.474-3.402,1.423-6.962,2.057-9.496c0.633-2.53,1.346-14.641,1.346-14.641
	c4.274-3.956-0.079-10.21-0.713-11.396c-0.633-1.187-2.77-1.109-2.77-1.109l0.159-2.927c-1.211-0.569-2.733,1.288-3.029,1.67
	c-0.417-0.405-1.708-1.535-5.201-4.437c-7.045-5.858-20.262-4.669-21.764-4.355c-1.505,0.317-4.117,1.344-6.33,1.109
	c-2.218-0.238-4.987,0.395-4.987,0.395c0.713,0.475,1.662,0.711,1.662,0.711c-4.274,0.315-12.187,6.095-12.187,6.095
	c-3.01,1.347-5.225,1.265-5.225,1.265c0.95,0.632,1.425,0.953,1.425,0.953c-3.166,1.028-9.021,6.407-9.021,6.407
	c-3.482,2.139-6.254,2.852-6.254,2.852c0.556,1.029,0.872,1.342,0.872,1.342c-1.741,1.663-2.849,5.54-6.885,8.947
	c-4.037,3.4-10.604,1.342-10.604,1.342c0.552,4.984,2.373,6.093,2.611,6.093c0,0-3.641,2.295-8.707,3.56
	c-5.064,1.268-19.387,1.11-26.43-0.867c-7.043-1.979-12.742-2.773-26.04-3.01C86.786,43.26,75.627,53.549,75.627,53.549
	c-12.19-0.238-23.981,18.519-26.591,21.447c-2.614,2.93-7.835,11.475-8.546,13.85c-0.715,2.374-3.958,7.123-5.066,7.994
	c-1.107,0.869-3.56,3.72-6.805,8.229c-3.247,4.509-8.627,1.978-8.627,1.978c3.402,11.396,12.74,4.83,15.036,3.404
	c2.295-1.426,6.966-4.273,8.865-5.776C45.792,103.172,66.524,71.5,66.524,71.5l3.721,10.774c0,0,2.138,8.55,2.532,10.054
	c0.395,1.506,3.087,7.676,2.216,10.05c-0.871,2.376-3.245,8.786-7.993,10.528c-4.748,1.739-4.511,6.646-4.273,9.259
	c0.237,2.61-0.632,5.301-1.503,8.23c-0.673,2.265-1.537,6.606-2.442,9.632c-10.267,3.961-17.926,13.168-19.688,24.34
	c-2.307-0.83-4.793-1.286-7.387-1.286c-12.047,0-21.813,9.766-21.813,21.814c0,11.431,8.796,20.804,19.988,21.731v0.082h245.944
	c12.047,0,21.814-9.766,21.814-21.813C297.64,172.847,287.873,163.081,275.826,163.081z M109.755,157.016
	c-3.58,0-6.954,0.868-9.935,2.396c-4.139-12.475-15.894-21.479-29.758-21.479c-0.848,0-1.686,0.04-2.517,0.106
	c0.365-1.311,0.694-2.439,0.958-3.214c1.267-3.719,4.117-6.092,4.513-6.408c0.396-0.317,4.352-6.646,5.538-8.152
	c1.188-1.503,4.986-4.669,6.568-6.41c1.584-1.741,6.174-7.279,6.174-7.279c4.667,6.011,5.539,16.145,4.59,19.786
	c-0.949,3.64,1.899,6.881,4.827,9.179c2.927,2.295,7.518,6.409,8.625,7.914c1.108,1.503,4.749,5.146,7.044,7.358
	c2.295,2.218,3.72,4.669,5.065,6.808c0.605,0.961,1.803,2.081,3.067,2.994c-0.125,0.617-0.238,1.238-0.325,1.868
	C120.343,159.082,115.291,157.016,109.755,157.016z M127.668,151.909c-1.126-1.116-2.188-2.173-3.055-2.915
	c-2.215-1.9-8.309-9.104-10.207-11.398c-1.899-2.296-2.532-6.885-3.483-9.972c-0.949-3.085-0.792-5.144-0.473-7.993
	c0.315-2.848,0.157-10.922,0.711-15.194c0.554-4.27,0.158-7.281,0.95-8.153c0.791-0.869,5.224,0,6.966,0.32
	c1.739,0.315,6.566,2.372,14.481,6.013c7.912,3.641,22.475,4.751,22.475,4.751c8.469,0.553,17.253,0.078,17.253,0.078
	c-0.159,1.501,3.402,5.381,4.271,7.754c0.872,2.375,1.979,7.121,1.979,7.121s3.087,12.664,4.748,15.358
	c1.663,2.686-1.503,6.329-3.087,8.464c-0.321,0.434-0.783,0.883-1.317,1.329c-5.739-7.296-14.641-11.985-24.644-11.985
	C143.327,135.486,132.973,142.128,127.668,151.909z M220.606,165.352c-3.791-6.451-10.794-10.783-18.816-10.783
	c-6.169,0-11.734,2.564-15.704,6.682c-0.569-3.16-1.613-6.155-3.053-8.91c1.036-1.025,2.016-1.917,2.677-2.398
	c1.741-1.267,3.325-2.294,5.382-3.722c2.057-1.422,2.689-3.795,3.323-5.457c0.633-1.664,0.715-3.958,0.554-6.094
	c-0.157-2.137-0.711-7.598-0.711-10.843c0-3.246,0.396-11.95,0.477-13.06c0.077-1.108,2.293-3.957,3.798-4.115
	c1.503-0.155,7.597,5.385,10.288,7.755c2.69,2.376,11.236,10.21,13.532,12.348c2.295,2.138,3.403,4.431,4.195,6.886
	c0.79,2.454,4.192,7.679,5.459,10.841c0.622,1.555,1.702,3.069,2.696,4.275C227.477,151.348,222.013,157.638,220.606,165.352z"/>
</svg>
