<?xml version="1.0" encoding="utf-8"?>
<!-- Generator: Adobe Illustrator 16.0.0, SVG Export Plug-In . SVG Version: 6.00 Build 0)  -->
<!DOCTYPE svg PUBLIC "-//W3C//DTD SVG 1.1//EN" "http://www.w3.org/Graphics/SVG/1.1/DTD/svg11.dtd">
<svg version="1.1" id="Calque_1" xmlns="http://www.w3.org/2000/svg" xmlns:xlink="http://www.w3.org/1999/xlink" x="0px" y="0px"
	 width="558.14px" height="420.945px" viewBox="0 0 558.14 420.945" enable-background="new 0 0 558.14 420.945"
	 xml:space="preserve">
<g id="Calque_1_1_">
	<circle fill="#FFFFFF" cx="238.167" cy="215.743" r="192.299"/>
	<g>
		<path fill="#FAE07E" d="M76.43,320.324c0.951,1.479,1.928,2.943,2.917,4.396c1.331-1.549,2.663-3.109,3.998-4.695
			C80.913,319.864,78.614,319.972,76.43,320.324z"/>
		<path fill="#FAE07E" d="M114.174,362.361c-2.456-4.143-4.083-8.915-4.889-14.323c-0.806-5.405-0.903-11.104-0.288-17.083
			c-2.225-1.842-4.469-3.433-6.729-4.775c-2.263-1.34-4.469-2.433-6.614-3.277c-2.847,4.141-5.726,8.244-8.624,12.328
			c8.516,10.846,18.175,20.75,28.795,29.533C115.248,364.032,114.696,363.238,114.174,362.361z"/>
		<path fill="#FAE07E" d="M110.378,322.554c0.843-4.063,2.014-8.052,3.509-11.963c1.495-3.91,3.259-7.61,5.292-11.101
			c2.031-3.489,4.314-6.652,6.846-9.492c2.53-2.837,5.292-5.251,8.282-7.247c-2.838,0.615-5.656,1.898-8.455,3.853
			c-2.802,1.956-5.6,4.412-8.398,7.364c-2.8,2.951-5.579,6.289-8.34,10.008c-2.761,3.721-5.562,7.612-8.398,11.678
			c1.687,0.998,3.336,2.07,4.946,3.22C107.274,320.026,108.843,321.252,110.378,322.554z"/>
		<path fill="#FAE07E" d="M214.2,298.571c1.496-1.571,2.626-2.896,3.394-3.971c0.767-1.071,0.958-1.802,0.575-2.185
			c-0.459-0.307-1.207-0.058-2.242,0.746c-1.036,0.807-2.264,2.014-3.682,3.624c-1.42,1.61-2.991,3.529-4.717,5.752
			c-1.727,2.227-3.509,4.526-5.351,6.903c2.302-1.916,4.505-3.815,6.615-5.694C210.902,301.868,212.704,300.143,214.2,298.571z"/>
		<path fill="#FAE07E" d="M246.355,319.851c-1.688,0.271-3.396,0.864-5.12,1.785c-1.726,0.918-3.396,2.127-5.004,3.623
			c-1.61,1.495-2.989,3.203-4.143,5.119c-0.767,1.305-1.284,2.608-1.553,3.911c-0.27,1.306-0.287,2.456-0.058,3.451
			c0.23,0.997,0.767,1.802,1.609,2.417c0.844,0.613,1.956,0.918,3.337,0.918c3.221,0,6.401-1.686,9.547-5.061
			c3.146-3.375,6.06-7.938,8.744-13.689c-0.768-1.073-1.727-1.803-2.876-2.188C249.534,319.679,248.039,319.585,246.355,319.851z"/>
	</g>
	<g>
		<path fill="#FFE8AA" d="M400.382,317.228c-0.959,1.65-1.897,3.298-2.818,4.947c-0.646,1.164-1.283,2.287-1.915,3.394
			c21.744-31.121,34.51-68.979,34.51-109.824c0-106.034-85.957-191.991-191.99-191.991c-106.034,0-191.991,85.957-191.991,191.991
			c0,32.847,8.256,63.763,22.796,90.8c3.23-0.225,6.651-0.088,10.278,0.445c3.912,0.574,7.823,1.592,11.734,3.049
			c4.295-5.063,8.607-9.932,12.942-14.609c4.331-4.68,8.664-8.666,12.998-11.967c4.332-3.295,8.646-5.692,12.943-7.188
			c4.293-1.496,8.587-1.629,12.884-0.402c1.916,0.615,2.856,1.783,2.818,3.508c-0.039,1.728-1.361,3.242-3.969,4.545
			c-1.61,0.769-3.203,1.957-4.773,3.566c-1.573,1.608-3.05,3.549-4.431,5.809c-1.38,2.265-2.665,4.775-3.854,7.535
			c-1.188,2.762-2.242,5.715-3.163,8.859c-1.075,3.604-1.823,7.362-2.244,11.272c-0.422,3.912-0.557,7.748-0.4,11.506
			c0.151,3.759,0.593,7.345,1.322,10.756c0.729,3.412,1.706,6.498,2.934,9.261c1.226,2.76,2.704,5.082,4.43,6.959
			c1.726,1.879,3.661,3.125,5.81,3.739c1.61,0.459,2.396,1.132,2.357,2.013c-0.038,0.883-0.632,1.729-1.783,2.531
			c-1.148,0.807-2.702,1.438-4.658,1.899c-1.955,0.459-4.047,0.553-6.27,0.287c-1.721-0.209-3.45-0.732-5.19-1.559
			c32.307,24.694,72.676,39.375,116.479,39.375c54.773,0,104.188-22.939,139.168-59.734c-0.963-1.217-1.396-2.822-1.282-4.828
			c-2.303,2.687-4.68,4.678-7.132,5.98c-2.456,1.305-4.874,1.955-7.247,1.955c-3.605,0-5.927-1.304-6.962-3.912
			c-1.036-2.605-0.939-6.097,0.289-10.467c0.132-0.462,0.285-0.906,0.426-1.359c-0.601,0.221-1.202,0.416-1.808,0.553
			c-1.688,0.385-3.334,0.48-4.944,0.289c-1.613-0.191-3.069-0.633-4.373-1.324c-1.305,2.379-2.838,4.564-4.603,6.558
			c-1.766,1.996-3.682,3.721-5.752,5.178c-2.07,1.459-4.275,2.588-6.614,3.395c-2.339,0.806-4.7,1.207-7.075,1.207
			c-2.839,0-5.254-0.573-7.247-1.725c-1.997-1.15-3.511-2.703-4.544-4.658c-0.953-1.801-1.462-3.92-1.571-6.336
			c-2.215,2.449-4.523,4.59-6.939,6.394c-2.572,1.918-5.2,3.432-7.884,4.543c-2.685,1.112-5.29,1.668-7.821,1.668
			c-2.688,0-4.853-0.938-6.5-2.816c-1.649-1.879-2.416-4.662-2.301-8.344c0.015-0.459,0.045-0.935,0.091-1.422
			c-1.964,1.896-4.006,3.656-6.128,5.276c-2.765,2.111-5.506,3.854-8.228,5.234c-2.722,1.381-4.967,2.07-6.729,2.07
			c-2.531,0-4.681-0.535-6.444-1.609s-2.76-2.764-2.99-5.062c-1.688,1.764-3.682,3.315-5.98,4.657
			c-2.302,1.347-4.91,2.015-7.824,2.015c-2.989,0-5.482-0.824-7.477-2.476c-1.994-1.646-3.336-3.812-4.026-6.496
			c-0.541-2.102-0.628-4.416-0.274-6.938c-0.521,0.215-1.041,0.408-1.565,0.553c-1.535,0.422-3.068,0.574-4.602,0.461
			c-1.535-0.115-2.953-0.404-4.257-0.865c-1.459,2.304-3.089,4.414-4.89,6.33c-1.803,1.916-3.645,3.566-5.521,4.945
			c-1.881,1.381-3.76,2.473-5.638,3.279c-1.88,0.805-3.587,1.207-5.119,1.207c-2.686,0-4.967-0.938-6.846-2.816
			c-1.878-1.879-2.913-4.662-3.105-8.344c-0.026-0.516-0.027-1.055-0.014-1.607c-1.89,1.965-3.895,3.789-6.022,5.463
			c-2.688,2.111-5.408,3.854-8.168,5.234c-2.763,1.381-5.256,2.07-7.479,2.07c-3.683,0-5.793-1.609-6.328-4.83
			c-0.537-3.224,0.69-7.553,3.683-13c1.303-2.226,2.605-4.353,3.911-6.385c1.304-2.031,2.568-3.933,3.796-5.695
			c-1.995,1.305-4.084,2.186-6.27,2.646c-2.187,0.459-4.199,0.459-6.041,0c-1.074,2.07-2.301,3.912-3.681,5.521
			c-1.075,1.227-2.091,2.055-3.049,2.473c-0.959,0.422-1.688,0.479-2.187,0.174c-0.497-0.307-0.708-0.899-0.633-1.784
			c0.077-0.879,0.575-1.974,1.496-3.277c0.613-0.844,1.208-1.744,1.782-2.703c0.575-0.957,1.131-1.936,1.668-2.934
			c-1.229-1.228-1.938-2.685-2.128-4.373c-0.191-1.687-0.059-3.431,0.402-5.234c0.46-1.799,1.207-3.547,2.242-5.231
			c1.035-1.686,2.204-3.146,3.509-4.371c1.305-1.228,2.665-2.091,4.085-2.588c1.418-0.498,2.741-0.48,3.969,0.057
			c0.921,0.383,1.456,0.957,1.61,1.725c0.152,0.769,0.135,1.631-0.057,2.588c-0.193,0.962-0.52,1.978-0.979,3.05
			c-0.46,1.075-0.883,2.147-1.266,3.221c1.61,0.461,3.009,0.633,4.199,0.518c1.188-0.112,2.243-0.438,3.163-0.977
			c0.921-0.535,1.726-1.207,2.416-2.014c0.69-0.806,1.341-1.668,1.955-2.591c0.69-0.918,1.515-1.301,2.474-1.147
			c0.958,0.154,1.801,0.631,2.531,1.438c0.728,0.808,1.227,1.822,1.496,3.05c0.268,1.227,0.057,2.457-0.635,3.682
			c-0.075,0.076-0.113,0.154-0.113,0.229c-0.461,0.769-1.171,2.031-2.128,3.796c-0.96,1.766-1.977,3.606-3.05,5.522
			c-1.074,1.916-2.07,3.758-2.99,5.521c-0.921,1.768-1.573,3.03-1.956,3.799c-0.614,1.227-1.229,2.453-1.841,3.682
			c-0.614,1.228-1.094,2.318-1.438,3.277c-0.346,0.959-0.442,1.727-0.287,2.303c0.151,0.574,0.729,0.861,1.726,0.861
			c1.456,0,3.049-0.383,4.774-1.152c1.727-0.764,3.469-1.799,5.233-3.104c1.764-1.302,3.432-2.797,5.005-4.486
			c1.447-1.553,2.709-3.211,3.801-4.961c0.13-0.396,0.254-0.785,0.396-1.191c1.916-5.481,5.367-11.869,10.354-19.155
			c3.451-5.063,6.806-9.337,10.065-12.826c3.259-3.49,6.328-6.23,9.203-8.228c2.877-1.994,5.481-3.221,7.822-3.682
			c2.339-0.459,4.274-0.189,5.811,0.807c2.53,1.688,3.049,4.447,1.553,8.283c-1.495,3.836-4.889,8.168-10.181,13
			c-1.535,1.381-3.222,2.799-5.063,4.256c-1.842,1.457-3.702,2.916-5.58,4.371c-1.88,1.459-3.739,2.857-5.58,4.199
			c-1.84,1.344-3.526,2.588-5.062,3.738c-1.075,2.147-1.938,4.297-2.589,6.442c-0.651,2.148-1.035,4.084-1.149,5.81
			c-0.115,1.727,0.058,3.184,0.519,4.373c0.46,1.188,1.227,1.936,2.301,2.241c1.148,0.386,2.281,0.386,3.394,0
			c1.111-0.383,2.146-0.959,3.106-1.725c0.958-0.768,1.819-1.65,2.588-2.646c0.766-0.996,1.381-1.955,1.84-2.877
			c-1.764-1.228-2.895-2.914-3.393-5.063c-0.5-2.145-0.211-4.369,0.862-6.672c0.612-1.381,1.38-2.568,2.301-3.566
			c0.921-0.994,1.879-1.78,2.877-2.356c0.995-0.576,1.992-0.938,2.989-1.095c0.996-0.151,1.879-0.073,2.646,0.23
			c2.146,0.844,3.432,2.551,3.854,5.119c0.421,2.572-0.748,6.08-3.51,10.525c1.61,0.538,3.374,0.653,5.292,0.346
			c1.71-0.273,3.084-1.131,4.124-2.566c0.786-1.553,1.744-3.11,2.894-4.68c0.34-0.459,0.697-0.881,1.049-1.316
			c2.426-10.291,5.8-24.799,7.584-33.307c3.561-10.777,3.83-21.902,3.302-33.07c-0.171-3.631-0.3-7.272-0.728-10.91
			c-0.327-2.797-1.506-4.582-3.801-6c-3.738-2.313-7.473-4.612-11.639-6.102l0.02,0.023c-3.525-3.271-8.215-3.673-12.498-5.105
			c-9.466-3.169-18.145-0.865-26.345,3.9c-4.458,2.592-8.763,1.33-13.187,0.461c0,0,0,0-0.001,0
			c-2.623-0.418-5.261-0.24-7.891-0.142c-1.641,0.062-2.685,0.543-1.903,2.617c1.056,2.805,0.657,5.967,1.961,8.752
			c0.162,0.347,0.061,1.01-0.185,1.312c-0.424,0.52-1.173,0.278-1.512-0.07c-4.073-4.203-10.494-3.482-14.837-7.119
			c-1.088-0.91-1.478,0.023-1.688,0.914c-0.412,1.734-0.706,3.508-1.978,4.916c-1.4-4.695-4.56-8.578-6.04-13.236
			c-0.504-1.584-1.483-0.653-2.202-0.19c-2.102,1.354-4.156,2.781-6.79,4.559c0.705-3.33,1.284-6.115,1.892-8.895
			c0.137-0.628,0.659-1.316,0.208-1.868c-0.625-0.762-1.387-0.06-2.053,0.139c-2.767,0.821-5.519,1.688-8.494,2.606
			c0.489-2.653,1.998-4.771,3.253-6.833c1.569-2.576,0.78-2.955-1.639-2.86c-0.358,0.014-0.727-0.174-1.203-0.299
			c0.159-1.289,1.863-1.274,2.01-2.649c-2.376-0.931-5.089-0.439-7.823-1.328c2.577-2.522,5.409-4.501,8.583-6.784
			c-3.965-1.528-7.732-1.951-11.949-2.908c4.082-3.001,7.974-5.328,12.485-7.292c-0.775-0.666-1.348-1.157-2.271-1.95
			c5.086-1.957,10.028-2.925,15.684-3.162c-3.463-3.095-7.24-3.751-11.817-4.01c4.661-1.982,8.964-1.777,13.249-1.423
			c2.083,0.172,3.016,0.681,2.363-2.539c-0.569-2.81-0.55-6.081-0.408-9.287c1.773,1.904,3.432,3.769,5.573,5.106
			c0.828,0.52,1.734,0.641,2.313-0.048c0.697-0.831-0.322-1.308-0.812-1.781c-2.071-2.003-2.449-4.944-4.08-7.237
			c-1.021-1.437-1.474-1.437-2.402-0.281c-1.454,1.804-2.869,3.64-4.476,5.685c-0.91-4.016-1.391-7.856-1.306-11.794
			c0.063-2.978-0.079-3.005-2.935-1.308c0.782-6.212,1.73-12.068,5.626-17.896c-5.335,3.398-9.049,6.979-10.637,12.021
			c0.187-5.47,2.546-11.478,6.667-16.815c0.423-0.548,1.461-0.957,1-1.804c-0.394-0.722-1.375-0.374-2.098-0.508
			c-2.527-0.472-5.202,0.17-8.058-0.977c5.185-3.58,9.05-8.274,14.718-11.01c-2.453-1.067-4.729-0.18-6.931-0.479
			c-0.18-0.163-0.357-0.326-0.536-0.489c2.551-3.599,5.854-6.489,9.076-9.37c-0.56-1.174-1.939-0.334-2.585-1.592
			c5.363-3.137,10.563-6.595,17.762-6.938c-3.659-2.808-7.278-4.576-9.375-8.021c3.596,2.789,7.731,3.604,12.099,3.668
			c0.607,0.009,1.457,0.371,1.684-0.516c0.239-0.947-0.685-1.331-1.295-1.592c-2.059-0.872-4.141-1.666-6.125-3.35
			c5.274,0.317,9.284-2.749,13.867-3.944c4.611-1.202,4.525-1.409,2.654-5.982c-0.199-0.487-0.737-1.158-0.135-1.811
			c0.702-0.759,1.134-0.085,1.652,0.269c0.304,0.208,0.646,0.363,0.984,0.512c4.559,1.991,4.576,1.935,4.579-2.919
			c0.001-2.974,0.251-5.947,0.414-9.431c3.409,3.669,6.438,6.936,9.479,10.188c0.417,0.446,0.539,1.501,1.33,1.184
			c0.682-0.272,0.854-1.168,0.847-1.959c-0.016-1.453-0.848-2.864-0.235-4.724c2.078,2.762,3.521,1.783,5.003-0.383
			c1.3-1.898,3.166-3.376,4.001-5.633c1.267,0.692,0.862,1.926,1.604,2.584c3.018-4.979,7.607-8.589,11.825-13.772
			c0,4.046,0.079,7.287-0.035,10.521c-0.057,1.563,0.381,1.991,1.887,1.569c2.165-0.606,4.367-1.077,6.544-1.645
			c0.613-0.16,1.313-0.729,1.724,0.057c0.198,0.38-0.057,1.094-0.276,1.58c-1.278,2.818-1.158,2.989,1.946,3.032
			c1.233,0.017,3.193-0.688,2.416,1.943c-0.065,0.225,0.049,0.663,0.224,0.774c2.032,1.288,3.242,3.587,5.247,4.721
			c2.005,1.135,4.443,1.541,5.311,4.057c0.368,1.067,0.731,0.539,1.057,0.092c0.559-0.772,2.606,0.592,2.179-1.611
			c-0.326-1.677,0.589-1.771,1.792-1.096c2.739,1.538,4.34,0.983,5.669-2.182c1.183-2.818,2.88-5.398,3.643-9.18
			c0.732,1.456,0.236,2.704,1.59,2.921c1.736-2.68,3.537-5.462,5.712-8.819c0.824,3.301,1.491,5.97,2.23,8.933
			c3.899-2.777,7.765-5.288,12.794-7.091c-3.116,8.541-3.656,18.036-15.031,19.701c-0.652-0.505,1.083-1.592-0.006-2.614
			c-1.489,1.565-3.414,2.751-3.686,5.567c1.744-0.646,3.18-1.376,4.698-1.844c6.43-1.977,10.715,2.156,15.513,4.864
			c1.125,0.635,1.111,1.468-0.375,1.824c-2.382,0.568-4.758,1.158-7.127,1.768c-0.995,0.257-2.078,0.413-2.932,0.93
			c-1.097,0.664-2.586,1.585-2.449,2.829c0.114,1.034,1.932,0.664,2.915,1.112c2.98,1.358,5.613,0.643,8.573-0.579
			c3.97-1.636,8.287-2.43,12.456-3.586c0.193,0.214,0.387,0.43,0.579,0.645c-1.271,2.484-2.434,5.035-3.857,7.431
			c-0.828,1.396-0.874,2.025,0.834,2.564c3.969,1.252,7.711,3.009,11.036,5.561c0.273,0.209,0.479,0.505,0.646,1.05
			c-3.705-0.763-7.354-1.682-11.733-0.574c1.832,1.104,3.074,2.145,4.506,2.654c3.142,1.121,5.104,3.805,7.777,5.528
			c0.823,0.531,1.994,1.521-0.251,2.19c-1.699,0.505-0.229,1.709,0.154,2.031c2.521,2.122,3.797,5.135,5.729,7.664
			c0.715,0.937,1.581,1.844,1.243,3.192c0.012,0.002,0.023,0.005,0.035,0.008l-0.046,0.054c0.006-0.021,0.006-0.041,0.011-0.062
			c-3.374-0.767-6.751-1.516-10.119-2.307c-1.604-0.377-1.977,0.12-1.185,1.533c1.541,2.752,3.097,5.497,4.817,8.551
			c-3.187,0.106-5.687-2.146-8.607-2.037c-0.222,1.389,1.126,1.918,1.1,3.171c-2.477,0.496-4.334-1.62-6.683-1.609
			c-0.652,0.003-1.292-0.387-1.68,0.393c-0.442,0.894,0.339,1.1,0.883,1.438c3.59,2.234,7.149,4.472,10.334,7.325
			c1.063,0.954,2.982,2.091,4.387-0.436c1.409-2.538,2.773-5.55,4.824-7.169c1.942-1.534,2.225-3.346,3.268-5.637
			c0.98,4.478,3.564,7.493,5.973,11.345c1.21-3.709,2.241-6.875,3.336-10.229c1.813,1.979,2.437,4.62,4.175,6.939
			c0.437-1.097,0.823-2.065,1.516-3.804c1.315,5.672,5.665,9.707,4.134,15.591c-0.562,2.161,0.399,4.242,1.285,7.259
			c2.789-6.671,5.538-12.473,12.086-15.172c0.7,0.528-0.396,1.688,0.518,2.431c2.112-0.893,3.655-2.729,5.93-4.176
			c0.01,3.394-0.278,6.473-0.882,10.27c2.862-1.894,5.173-3.398,7.453-4.947c0.618-0.42,1.26-1.241,1.94-0.835
			c0.821,0.489,0.42,1.537,0.219,2.297c-0.696,2.626-0.84,5.368-1.963,7.919c-0.959,2.179-0.639,2.402,1.93,1.933
			c0.391,1.046-0.261,1.855-0.783,2.542c-1.135,1.485-1.443,2.988,0.08,4.2c3.166,2.518,2.387,6.383,3.646,9.925
			c4.782-6.351,11.855-5.58,19.016-6.695c-2.209,2.86-3.916,5.313-5.881,7.538c-1.579,1.789-0.934,2.193,0.994,2.483
			c1.162,0.175,2.485,0.058,3.604,1.258c-5.04,2.396-8.807,6.784-15.133,8.228c3.343,2.003,4.508,5.359,8.531,6.108
			c4.069,0.759,6.803,4.355,9.845,7.16c-0.833,1.148-2.089,0.381-2.976,1.084c0.667,1.769,2.693,2.176,3.737,3.568
			c0.371,0.495,1.245,0.785,0.893,1.57c-0.264,0.587-0.981,0.363-1.521,0.402c-2.528,0.184-5.057,0.365-7.851,0.567
			c1.087,2.621,3.421,3.99,5.034,5.942c0.577,0.698,1.825,1.37,1.476,2.209c-0.492,1.185-1.795,0.408-2.776,0.394
			c-3.203-0.052-6.396-0.16-9.398-0.992c-1.209,0.787,0.819,1.928-0.427,2.44c-0.92,0.382-1.807-0.291-2.678-0.618
			c-3.41-1.281-6.82-2.563-10.607-3.987c0.955,3.133,3.521,4.941,4.738,7.805c-3.529-0.354-5.806-2.549-8.154-4.367
			c-3.36-2.604-3.291-2.751-5.452,1.035c-0.651,1.142-1.246,2.316-1.908,3.451c-0.28,0.48-0.645,1.059-1.258,1
			c-0.681-0.066-0.649-0.826-0.815-1.311c-0.393-1.146-0.689-2.324-1.208-4.119c-0.594,1.983-0.468,3.387-0.328,4.801
			c0.063,0.639,0.221,1.426-0.495,1.756c-0.696,0.318-0.854-0.508-1.232-0.856c-2.128-1.966-4.262-3.923-6.573-6.046
			c0.053,0.466,0.037,0.718,0.113,0.937c0.388,1.119,1.969,2.156,1.184,3.246c-0.837,1.162-2.228,0.051-3.354-0.295
			c-1.443-0.443-1.603,0.475-1.574,1.53c0.05,1.968,0.115,3.935,0.195,5.898c0.037,0.932,0.255,1.889-0.741,2.799
			c-2.04-3.227-5.605-4.916-7.729-8.082c-1.041-1.555-2.504-2.514-4.535-1.828c-3.925-0.932-7.202,0.656-10.315,2.734
			c-1.083,0.723-1.974,1.854-3.443,0.84c0.113-0.25,0.238-0.494,0.339-0.75c1.061-2.67-0.017-4.658-2.775-5.287
			c-0.93-0.211-1.16,0.104-1.15,0.955c0.028,2.428,0.017,4.857,0.021,7.285c-0.46,1.508-1.438,2.891-1.127,4.588
			c-1.128,2.779-1.945,5.607-1.423,8.771c-1.198-1.634-2.312-3.279-4.245-4.031c-6.061,5.897-11.214,12.572-16.432,19.192
			c-0.926,1.175-0.731,2.496-0.365,3.767c0,0,1.607,21.697,4.084,39.19c0.14-0.012,0.286-0.026,0.424-0.036
			c1.071-0.074,1.916,0.021,2.53,0.289c0.61,0.27,0.957,0.768,1.033,1.495c0.077,0.729-0.269,1.783-1.033,3.164
			c-0.518,0.98-1.093,2.021-1.695,3.086c0.356,2.019,0.726,3.898,1.105,5.572c-1.265-0.387-2.525-0.684-3.784-0.93
			c-0.362,0.625-0.728,1.25-1.091,1.877c-0.961,1.65-1.88,3.24-2.762,4.772c-0.883,1.535-1.667,2.878-2.359,4.027
			c-0.689,1.228-1.342,2.435-1.956,3.623c-0.612,1.189-1.074,2.264-1.378,3.221c-0.31,0.961-0.387,1.744-0.23,2.359
			c0.153,0.615,0.729,0.92,1.727,0.92c1.38,0,2.949-0.383,4.716-1.152c1.764-0.764,3.526-1.799,5.291-3.104
			c1.765-1.301,3.435-2.797,5.005-4.486c1.514-1.623,2.829-3.358,3.953-5.198c0.12-0.318,0.231-0.63,0.358-0.953
			c2.146-5.482,5.714-11.869,10.699-19.156c0.844-1.226,1.784-2.646,2.819-4.256c1.034-1.609,2.165-3.258,3.393-4.947h-10.697
			c-0.921,0-1.4-0.266-1.438-0.805c-0.038-0.535,0.172-1.152,0.633-1.843c0.46-0.688,1.129-1.321,2.014-1.897
			c0.88-0.574,1.82-0.898,2.816-0.978c2.915-0.307,5.964-0.956,9.146-1.954c3.184-0.996,5.771-1.916,7.767-2.763
			c1.688-0.69,3.432-1.358,5.235-2.014c1.798-0.65,3.296-1.035,4.485-1.15c1.188-0.112,1.856,0.136,2.013,0.748
			c0.154,0.615-0.615,1.84-2.3,3.683l-0.462,0.573c3.911-0.534,7.535-1.014,10.873-1.438c3.334-0.42,5.809-0.824,7.417-1.207
			c1.229-0.23,2.016-0.135,2.361,0.285c0.344,0.424,0.361,1.057,0.057,1.899c-0.306,0.847-0.884,1.765-1.727,2.761
			c-0.846,0.998-1.822,1.955-2.934,2.877c-1.113,0.922-2.263,1.688-3.452,2.299c-1.188,0.617-2.282,0.922-3.276,0.922h-15.877
			c-1.919,2.684-3.853,5.465-5.81,8.342c-1.956,2.875-3.7,5.463-5.233,7.767c-1.688,2.53-3.185,5.231-4.487,8.106
			c-1.306,2.879-2.32,5.543-3.047,7.996c-0.73,2.457-1.151,4.586-1.268,6.385c-0.115,1.806,0.175,2.935,0.862,3.396
			c0.921,0.615,2.128,0.766,3.624,0.461c1.497-0.307,3.144-1.019,4.948-2.129c1.799-1.109,3.681-2.605,5.637-4.486
			c1.862-1.789,3.667-3.916,5.423-6.363c0.909-2.235,2.051-4.375,3.437-6.405c1.8-2.646,3.893-4.947,6.268-6.902
			c2.377-1.957,4.929-3.51,7.652-4.66c2.721-1.149,5.539-1.727,8.455-1.727c2.762,0,5.119,0.559,7.076,1.67
			c1.952,1.112,3.449,2.608,4.483,4.485c1.036,1.882,1.61,4.104,1.728,6.673c0.113,2.569-0.289,5.312-1.21,8.225
			c0.768,0.461,1.688,0.846,2.763,1.152c1.073,0.306,2.167,0.422,3.279,0.344c1.108-0.074,2.186-0.363,3.22-0.861
			c0.903-0.434,1.669-1.104,2.311-1.977c0.419-0.89,0.854-1.769,1.313-2.625c1.995-3.722,3.987-6.961,5.982-9.722
			c0.918-1.305,1.744-2.377,2.473-3.223c0.729-0.842,1.456-1.514,2.188-2.014c0.727-0.498,1.533-0.861,2.414-1.093
			c0.882-0.229,1.975-0.461,3.281-0.69c1.225-0.15,2.337-0.248,3.334-0.287c0.996-0.037,1.744,0.1,2.244,0.402
			c0.5,0.309,0.708,0.807,0.634,1.496c-0.077,0.688-0.575,1.688-1.496,2.991c-4.066,5.677-7.134,10.314-9.203,13.92
			c-2.072,3.605-3.452,6.423-4.142,8.455c-0.69,2.031-0.825,3.435-0.402,4.199c0.421,0.767,1.092,1.15,2.013,1.15
			c1.455,0,2.78-0.422,3.971-1.269c1.188-0.842,2.317-1.953,3.391-3.336c1.076-1.381,2.131-2.971,3.167-4.771
			c1.035-1.804,2.128-3.664,3.277-5.58c0.921-1.994,1.764-3.816,2.53-5.465c0.768-1.648,1.569-3.279,2.415-4.89
			c0.69-1.457,1.323-2.608,1.898-3.453c0.574-0.844,1.188-1.493,1.841-1.954c0.649-0.462,1.398-0.785,2.242-0.979
			c0.844-0.189,1.879-0.402,3.106-0.633c1.228-0.15,2.375-0.269,3.451-0.346c1.072-0.074,1.916,0.021,2.531,0.288
			c0.611,0.271,0.957,0.769,1.034,1.496c0.075,0.729-0.268,1.783-1.034,3.164C402.206,314.028,401.341,315.581,400.382,317.228z"/>
		<path fill="#FFE8AA" d="M206.715,173.784L206.715,173.784c2.249,0.357,4.285,0.358,4.498-2.691
			c-0.114-0.357-0.187-0.735-0.352-1.067c-0.728-1.465-2.32-1.469-3.42-1.296c-0.913,0.145-0.353,1.622-0.354,2.509
			C207.086,172.112,207.81,173.073,206.715,173.784z"/>
		<path fill="#FFE8AA" d="M174.668,221.378c-0.846-2.188-2.156-2.851-4.157-1.138c-0.699,0.599-1.559,1.021-2.373,1.475
			c-1.024,0.571-0.506,1.203-0.127,1.846c3.617-0.093,6.521,2.195,9.88,2.967C177.644,224.296,175.416,223.311,174.668,221.378z"/>
		<path fill="#FFE8AA" d="M252.248,170.943c-0.811-1.323-1.604-2.657-2.281-3.78c-2.268,2.646-3.938,5.561-4.802,8.888
			c-0.011,0.044-0.501-0.037-0.768-0.06c-0.56-1.327-1.117-2.654-1.677-3.98c-0.09-1.389-0.698-2.575-1.271-3.857
			c-1.108,0.944-0.652,2.51-1.694,3.187c-1.19-0.401-1.012-1.817-2-2.227c-0.316,1.087,0.117,2.322-0.854,3.212
			c-1.205-0.513-1.293-2.311-2.928-2.459c-0.529,2.867,0.026,5.835-1.31,8.808c-2.624-3.125-5.067-6.034-7.809-9.299
			c-1.15,5.174-2.185,9.634-2.094,14.261l0,0c1.421,3.21,3.771,5.76,6.02,8.37c4.145,4.811,9.721,8.138,13.694,13.137
			c0.434,0.546,0.932,0.585,1.235-0.188c0.057-1.689-1.199-2.723-2.105-3.843c-1.396-1.721-0.049-1.72,1.036-1.988
			c1.918,0.441,3.76,1.696,5.826,0.547c0.654,1.127,1.788,1.152,2.708,0.764c1.063-0.449,0.266-1.443,0.207-2.212
			c-0.248-3.352-1.013-6.682-0.712-10.589c2.08,3.155,4.859,4.687,7.183,6.721c1.548,1.354,4.626,0.813,5.674-0.854
			c0.33-0.529,0.208-0.909-0.191-1.202c-3.814-2.793-4.855-8.105-9.354-10.286c-0.424-0.205-1.179-0.74-0.435-1.233
			c2.511-1.662-0.104-2.366-0.665-3.271c-0.534-0.863-2.076-0.909-2.25-2.277C254.3,174.293,254.298,174.294,252.248,170.943z"/>
		<path fill="#FFE8AA" d="M264.582,238.08c-2.302,1.586-5.029,2.756-6.88,5.008h-0.001c0.167,3.367,0.787,6.674,1.578,9.933
			c0.293,1.202,0.056,3.438,1.768,3.225c1.394-0.174,2.197-2.088,2.542-3.687c0.097-0.45-0.016-0.944,0.078-1.396
			c0.755-3.621-0.646-7.652,2.064-10.902C265.379,239.431,266.349,236.864,264.582,238.08z"/>
		<path fill="#FFE8AA" d="M176.932,229.147c0.146-0.841-1.063-1.156-1.791-1.529c-1.328-0.688-2.674-1.369-4.256-1.082
			c0.92,1.455,2.265,2.459,3.651,3.412C175.38,229.74,176.719,230.373,176.932,229.147z"/>
		<path fill="#FFE8AA" d="M171.936,231.067c0.395,0.051,0.791,0.131,1.188,0.252C172.727,231.198,172.33,231.117,171.936,231.067z"
			/>
		<path fill="#FFE8AA" d="M257.87,225.796c0.106,1.244-0.798,2.365-0.451,3.644c1.52-1.066,3.039-2.134,4.847-3.4
			C260.589,225.556,259.246,225.485,257.87,225.796z"/>
		<path fill="#FFE8AA" d="M173.91,231.442c-0.107,0.006-0.229-0.002-0.358-0.023C173.682,231.44,173.802,231.448,173.91,231.442z"/>
		<path fill="#FFE8AA" d="M183.542,227.261c4.298-2.149,8.542-4.419,13.563-4.435c0.993-0.003,1.459-0.667,1.13-1.974
			c-1.173-4.653-3.516-8.192-8.284-9.726c-1.266,0.313-0.65,1.088-0.4,1.731c1.222,3.148,1.994,6.466,4.185,9.97
			c-4.054-1.414-7.18-3.025-10.272-4.703c-0.629-0.34-1.489-1.174-1.68,0.088c-0.471,3.104-1.817,6.137-0.98,9.378
			C181.728,227.601,182.656,227.705,183.542,227.261z"/>
		<path fill="#FFE8AA" d="M191.802,209.364c-0.662,0.231-1.229,0.563-1.579,1.122C190.573,209.926,191.141,209.596,191.802,209.364
			c2.211,0.898,4.481,3.377,6.523-0.245C196.679,207.455,194.412,207.54,191.802,209.364z"/>
		<path fill="#FFE8AA" d="M178.385,226.865c-0.091-0.127-0.19-0.228-0.308-0.285C178.195,226.638,178.295,226.739,178.385,226.865z"
			/>
		<path fill="#FFE8AA" d="M206.641,223.701c4.712,1.154,9.49,2.003,14.134,3.474c3.466,1.099,7.019,1.937,10.562,2.765
			c2.617,0.61,5.203-0.646,5.404-2.64c0.912-9.034-0.341-17.574-6.181-24.938c-3.063-3.858-6.198-7.656-9.302-11.482
			c-3.744,1.722-7.486,3.444-11.524,5.302c4.363,4.162,6.711,9.544,11.416,13.775c-4.102-0.667-7.641-1.085-11.097-1.87
			c-1.781-0.405-1.918,0.147-1.775,1.599c0.289,2.955,0.163,5.945,1.181,9.511c-3.824-2.428-6.591-5.027-9.429-7.535
			C198.614,216.746,202.262,222.628,206.641,223.701z"/>
		<path fill="#FFE8AA" d="M179.463,228.429c-0.49-0.162-0.711-1.062-1.077-1.563C178.752,227.367,178.972,228.267,179.463,228.429z"
			/>
		<path fill="#FFE8AA" d="M217.757,177.233c-0.688-2.415-2.105-4.465-3.301-6.628C213.528,175.059,214.009,176.027,217.757,177.233z
			"/>
		<path fill="#FFE8AA" d="M201.897,175.933L201.897,175.933c-1.221-1.09-2.44-2.182-3.662-3.273
			C197.527,176.934,197.823,177.198,201.897,175.933z"/>
		<path fill="#FFE8AA" d="M206.01,173.822c-1.113-0.066-1.941-0.73-2.703-1.443C204.069,173.09,204.897,173.755,206.01,173.822z"/>
		<path fill="#FFE8AA" d="M211.556,184.175c-0.718,0.376-1.61,0.521-1.984,1.76c3.518,0.906,7.01,1.805,10.501,2.703
			c-2.757-5.28-6.488-9.414-12.617-10.728c-0.091,1.243-0.192,2.523,1.274,3.081c0.777,0.295,1.615,0.443,2.436,0.615
			c0.831,0.174,1.818,0.268,1.95,1.267C213.248,183.875,212.176,183.851,211.556,184.175z"/>
	</g>
</g>
<g id="Calque_2">
	
		<radialGradient id="SVGID_1_" cx="496.0286" cy="249.9529" r="178.3775" gradientTransform="matrix(1 0 0 -1 -257.5996 461.9897)" gradientUnits="userSpaceOnUse">
		<stop  offset="0" style="stop-color:#FFFFFF"/>
		<stop  offset="1" style="stop-color:#F6F6F6;stop-opacity:0"/>
	</radialGradient>
	<path fill="url(#SVGID_1_)" d="M289.513,30.388l-51.344,185.355l85.783-172.136C313.024,38.151,301.506,33.703,289.513,30.388z"/>
	<g opacity="0.6">
		
			<radialGradient id="SVGID_2_" cx="493.1262" cy="247.2209" r="204.0025" gradientTransform="matrix(1 0 0 -1 -257.5996 461.9897)" gradientUnits="userSpaceOnUse">
			<stop  offset="0.0693" style="stop-color:#FFFFFF"/>
			<stop  offset="0.5998" style="stop-color:#FDFDFD;stop-opacity:0.43"/>
			<stop  offset="0.9885" style="stop-color:#F6F6F6;stop-opacity:0.0124"/>
			<stop  offset="1" style="stop-color:#F6F6F6;stop-opacity:0"/>
		</radialGradient>
		<path fill="url(#SVGID_2_)" d="M422.591,270.335c3.444-11.651,5.815-23.761,6.996-36.219l-191.418-18.374L422.591,270.335z"/>
		
			<radialGradient id="SVGID_3_" cx="493.1282" cy="247.2205" r="204.0021" gradientTransform="matrix(1 0 0 -1 -257.5996 461.9897)" gradientUnits="userSpaceOnUse">
			<stop  offset="0.0693" style="stop-color:#FFFFFF"/>
			<stop  offset="0.5998" style="stop-color:#FDFDFD;stop-opacity:0.43"/>
			<stop  offset="0.9885" style="stop-color:#F6F6F6;stop-opacity:0.0124"/>
			<stop  offset="1" style="stop-color:#F6F6F6;stop-opacity:0"/>
		</radialGradient>
		<path fill="url(#SVGID_3_)" d="M349.797,59.148L238.17,215.743L377.63,83.351C369.156,74.428,359.836,66.318,349.797,59.148z"/>
		
			<radialGradient id="SVGID_4_" cx="493.1282" cy="247.2209" r="204.0016" gradientTransform="matrix(1 0 0 -1 -257.5996 461.9897)" gradientUnits="userSpaceOnUse">
			<stop  offset="0.0693" style="stop-color:#FFFFFF"/>
			<stop  offset="0.5998" style="stop-color:#FDFDFD;stop-opacity:0.43"/>
			<stop  offset="0.9885" style="stop-color:#F6F6F6;stop-opacity:0.0124"/>
			<stop  offset="1" style="stop-color:#F6F6F6;stop-opacity:0"/>
		</radialGradient>
		<path fill="url(#SVGID_4_)" d="M414.536,139.019c-4.95-11.36-10.963-22.15-17.918-32.244L238.17,215.743L414.536,139.019z"/>
		
			<radialGradient id="SVGID_5_" cx="493.1262" cy="247.2209" r="204.0023" gradientTransform="matrix(1 0 0 -1 -257.5996 461.9897)" gradientUnits="userSpaceOnUse">
			<stop  offset="0.0693" style="stop-color:#FFFFFF"/>
			<stop  offset="0.5998" style="stop-color:#FDFDFD;stop-opacity:0.43"/>
			<stop  offset="0.9885" style="stop-color:#F6F6F6;stop-opacity:0.0124"/>
			<stop  offset="1" style="stop-color:#F6F6F6;stop-opacity:0"/>
		</radialGradient>
		<path fill="url(#SVGID_5_)" d="M430.097,203.97c-0.756-12.506-2.692-24.693-5.728-36.441l-186.2,48.215L430.097,203.97z"/>
		
			<radialGradient id="SVGID_6_" cx="493.1282" cy="247.2209" r="204.0001" gradientTransform="matrix(1 0 0 -1 -257.5996 461.9897)" gradientUnits="userSpaceOnUse">
			<stop  offset="0.0693" style="stop-color:#FFFFFF"/>
			<stop  offset="0.5998" style="stop-color:#FDFDFD;stop-opacity:0.43"/>
			<stop  offset="0.9885" style="stop-color:#F6F6F6;stop-opacity:0.0124"/>
			<stop  offset="1" style="stop-color:#F6F6F6;stop-opacity:0"/>
		</radialGradient>
		<path fill="url(#SVGID_6_)" d="M392.772,330.1c7.304-9.854,13.686-20.432,19.021-31.604L238.17,215.744L392.772,330.1z"/>
		
			<radialGradient id="SVGID_7_" cx="493.1262" cy="247.2209" r="204.0033" gradientTransform="matrix(1 0 0 -1 -257.5996 461.9897)" gradientUnits="userSpaceOnUse">
			<stop  offset="0.0693" style="stop-color:#FFFFFF"/>
			<stop  offset="0.5998" style="stop-color:#FDFDFD;stop-opacity:0.43"/>
			<stop  offset="0.9885" style="stop-color:#F6F6F6;stop-opacity:0.0124"/>
			<stop  offset="1" style="stop-color:#F6F6F6;stop-opacity:0"/>
		</radialGradient>
		<path fill="url(#SVGID_7_)" d="M238.17,215.743l21.733-191.069c-7.137-0.803-14.386-1.23-21.736-1.23
			c-5.097,0-10.146,0.202-15.143,0.592L238.17,215.743z"/>
		
			<radialGradient id="SVGID_8_" cx="493.1262" cy="247.2209" r="204.0036" gradientTransform="matrix(1 0 0 -1 -257.5996 461.9897)" gradientUnits="userSpaceOnUse">
			<stop  offset="0.0693" style="stop-color:#FFFFFF"/>
			<stop  offset="0.5998" style="stop-color:#FDFDFD;stop-opacity:0.43"/>
			<stop  offset="0.9885" style="stop-color:#F6F6F6;stop-opacity:0.0124"/>
			<stop  offset="1" style="stop-color:#F6F6F6;stop-opacity:0"/>
		</radialGradient>
		<path fill="url(#SVGID_8_)" d="M158.356,40.746l79.813,174.997L193.236,28.735C181.123,31.635,169.455,35.675,158.356,40.746z"/>
		
			<radialGradient id="SVGID_9_" cx="493.1262" cy="247.2209" r="204.0031" gradientTransform="matrix(1 0 0 -1 -257.5996 461.9897)" gradientUnits="userSpaceOnUse">
			<stop  offset="0.0693" style="stop-color:#FFFFFF"/>
			<stop  offset="0.5998" style="stop-color:#FDFDFD;stop-opacity:0.43"/>
			<stop  offset="0.9885" style="stop-color:#F6F6F6;stop-opacity:0.0124"/>
			<stop  offset="1" style="stop-color:#F6F6F6;stop-opacity:0"/>
		</radialGradient>
		<path fill="url(#SVGID_9_)" d="M103.352,78.635l134.817,137.108L131.997,55.4C121.711,62.225,112.12,70.012,103.352,78.635z"/>
		
			<radialGradient id="SVGID_10_" cx="493.1262" cy="247.2214" r="204.0025" gradientTransform="matrix(1 0 0 -1 -257.5996 461.9897)" gradientUnits="userSpaceOnUse">
			<stop  offset="0.0693" style="stop-color:#FFFFFF"/>
			<stop  offset="0.5998" style="stop-color:#FDFDFD;stop-opacity:0.43"/>
			<stop  offset="0.9885" style="stop-color:#F6F6F6;stop-opacity:0.0124"/>
			<stop  offset="1" style="stop-color:#F6F6F6;stop-opacity:0"/>
		</radialGradient>
		<path fill="url(#SVGID_10_)" d="M64.542,132.992l173.627,82.751L83.564,101.385C76.26,111.241,69.878,121.818,64.542,132.992z"/>
		
			<radialGradient id="SVGID_11_" cx="493.1282" cy="247.2214" r="204.0025" gradientTransform="matrix(1 0 0 -1 -257.5996 461.9897)" gradientUnits="userSpaceOnUse">
			<stop  offset="0.0693" style="stop-color:#FFFFFF"/>
			<stop  offset="0.5998" style="stop-color:#FDFDFD;stop-opacity:0.43"/>
			<stop  offset="0.9885" style="stop-color:#F6F6F6;stop-opacity:0.0124"/>
			<stop  offset="1" style="stop-color:#F6F6F6;stop-opacity:0"/>
		</radialGradient>
		<path fill="url(#SVGID_11_)" d="M46.747,197.371l191.423,18.373L53.743,161.152C50.299,172.802,47.927,184.912,46.747,197.371z"/>
		
			<radialGradient id="SVGID_12_" cx="493.1262" cy="247.2209" r="204.0023" gradientTransform="matrix(1 0 0 -1 -257.5996 461.9897)" gradientUnits="userSpaceOnUse">
			<stop  offset="0.0693" style="stop-color:#FFFFFF"/>
			<stop  offset="0.5998" style="stop-color:#FDFDFD;stop-opacity:0.43"/>
			<stop  offset="0.9885" style="stop-color:#F6F6F6;stop-opacity:0.0124"/>
			<stop  offset="1" style="stop-color:#F6F6F6;stop-opacity:0"/>
		</radialGradient>
		<path fill="url(#SVGID_12_)" d="M51.965,263.96l186.204-48.217L46.239,227.521C46.994,240.027,48.932,252.212,51.965,263.96z"/>
		
			<radialGradient id="SVGID_13_" cx="493.1262" cy="247.2209" r="204.0023" gradientTransform="matrix(1 0 0 -1 -257.5996 461.9897)" gradientUnits="userSpaceOnUse">
			<stop  offset="0.0693" style="stop-color:#FFFFFF"/>
			<stop  offset="0.5998" style="stop-color:#FDFDFD;stop-opacity:0.43"/>
			<stop  offset="0.9885" style="stop-color:#F6F6F6;stop-opacity:0.0124"/>
			<stop  offset="1" style="stop-color:#F6F6F6;stop-opacity:0"/>
		</radialGradient>
		<path fill="url(#SVGID_13_)" d="M79.718,324.714l158.451-108.971L61.8,292.469C66.75,303.831,72.764,314.621,79.718,324.714z"/>
		
			<radialGradient id="SVGID_14_" cx="493.1262" cy="247.2209" r="204.0025" gradientTransform="matrix(1 0 0 -1 -257.5996 461.9897)" gradientUnits="userSpaceOnUse">
			<stop  offset="0.0693" style="stop-color:#FFFFFF"/>
			<stop  offset="0.5998" style="stop-color:#FDFDFD;stop-opacity:0.43"/>
			<stop  offset="0.9885" style="stop-color:#F6F6F6;stop-opacity:0.0124"/>
			<stop  offset="1" style="stop-color:#F6F6F6;stop-opacity:0"/>
		</radialGradient>
		<path fill="url(#SVGID_14_)" d="M98.707,348.137c8.474,8.923,17.794,17.033,27.834,24.203l111.628-156.597L98.707,348.137z"/>
		
			<radialGradient id="SVGID_15_" cx="493.1282" cy="247.2209" r="204.0027" gradientTransform="matrix(1 0 0 -1 -257.5996 461.9897)" gradientUnits="userSpaceOnUse">
			<stop  offset="0.0693" style="stop-color:#FFFFFF"/>
			<stop  offset="0.5998" style="stop-color:#FDFDFD;stop-opacity:0.43"/>
			<stop  offset="0.9885" style="stop-color:#F6F6F6;stop-opacity:0.0124"/>
			<stop  offset="1" style="stop-color:#F6F6F6;stop-opacity:0"/>
		</radialGradient>
		<path fill="url(#SVGID_15_)" d="M186.827,401.099l51.343-185.355L152.386,387.88C163.316,393.337,174.835,397.785,186.827,401.099
			z"/>
		
			<radialGradient id="SVGID_16_" cx="493.1282" cy="247.2209" r="204.0018" gradientTransform="matrix(1 0 0 -1 -257.5996 461.9897)" gradientUnits="userSpaceOnUse">
			<stop  offset="0.0693" style="stop-color:#FFFFFF"/>
			<stop  offset="0.5998" style="stop-color:#FDFDFD;stop-opacity:0.43"/>
			<stop  offset="0.9885" style="stop-color:#F6F6F6;stop-opacity:0.0124"/>
			<stop  offset="1" style="stop-color:#F6F6F6;stop-opacity:0"/>
		</radialGradient>
		<path fill="url(#SVGID_16_)" d="M238.167,408.041c5.098,0,10.148-0.202,15.147-0.592l-15.146-191.707l-21.733,191.069
			C223.571,407.615,230.819,408.041,238.167,408.041z"/>
		
			<radialGradient id="SVGID_17_" cx="493.1282" cy="247.2209" r="203.9972" gradientTransform="matrix(1 0 0 -1 -257.5996 461.9897)" gradientUnits="userSpaceOnUse">
			<stop  offset="0.0693" style="stop-color:#FFFFFF"/>
			<stop  offset="0.5998" style="stop-color:#FDFDFD;stop-opacity:0.43"/>
			<stop  offset="0.9885" style="stop-color:#F6F6F6;stop-opacity:0.0124"/>
			<stop  offset="1" style="stop-color:#F6F6F6;stop-opacity:0"/>
		</radialGradient>
		<path fill="url(#SVGID_17_)" d="M238.17,215.743l44.933,187.006c12.112-2.9,23.78-6.94,34.881-12.012L238.17,215.743z"/>
		
			<radialGradient id="SVGID_18_" cx="493.1282" cy="247.2209" r="204.0031" gradientTransform="matrix(1 0 0 -1 -257.5996 461.9897)" gradientUnits="userSpaceOnUse">
			<stop  offset="0.0693" style="stop-color:#FFFFFF"/>
			<stop  offset="0.5998" style="stop-color:#FDFDFD;stop-opacity:0.43"/>
			<stop  offset="0.9885" style="stop-color:#F6F6F6;stop-opacity:0.0124"/>
			<stop  offset="1" style="stop-color:#F6F6F6;stop-opacity:0"/>
		</radialGradient>
		<path fill="url(#SVGID_18_)" d="M238.17,215.743l106.183,160.359c10.391-6.866,19.974-14.653,28.669-23.217L238.17,215.743z"/>
	</g>
</g>
<g id="Calque_4">
</g>
<g id="Calque_3">
	<g>
		<g id="vatz3E_1_">
			<g>
				<path fill="#6E4927" d="M287.37,246.769c-1.128,2.779-1.945,5.607-1.422,8.771c-1.199-1.633-2.313-3.279-4.246-4.031
					c-3.374-2.94-4.289-2.561-6.544,0.771c-1.411,2.086-1.159,4.918-3.359,6.625c-2.058-4.287-4.063-8.468-6.066-12.646
					c-0.354-0.828,0.617-3.396-1.149-2.18c-2.302,1.586-5.029,2.756-6.88,5.008c-1.777,0.365-2.38,2.56-4.635,2.81
					c1.05-5.685,1.331-11.404,4.352-16.457c1.52-1.066,3.039-2.134,4.847-3.4c-1.677-0.482-3.021-0.555-4.396-0.242
					c-2.412-0.901-4.985-0.715-7.54-1.063c-0.045-1.07,0.51-1.67,1.315-2.279c2.573-1.939,2.426-1.838-0.101-3.98
					c-2.377-2.015-5.317-3.35-7.494-5.99c2.247-0.349,4.331,0.293,6.402-0.603c-2.354-2.418-4.547-4.672-6.741-6.926
					c0.057-1.689-1.199-2.723-2.105-3.842c-1.396-1.722-0.048-1.721,1.036-1.989c1.918,0.441,3.76,1.696,5.826,0.547
					c0.654,1.127,1.788,1.152,2.708,0.764c1.063-0.449,0.266-1.443,0.207-2.212c-0.248-3.352-1.013-6.682-0.712-10.589
					c2.08,3.155,4.859,4.688,7.183,6.721c1.548,1.354,4.626,0.813,5.674-0.854c0.331-0.529,0.208-0.909-0.191-1.202
					c-3.814-2.793-4.855-8.105-9.354-10.286c-0.425-0.205-1.18-0.74-0.436-1.233c2.511-1.662-0.104-2.366-0.665-3.271
					c-0.534-0.863-2.076-0.909-2.25-2.277c3.668-0.936,3.666-0.935,1.615-4.286c-0.811-1.323-1.604-2.657-2.281-3.78
					c-2.268,2.646-3.938,5.561-4.802,8.888c-0.011,0.044-0.501-0.037-0.768-0.06c-0.56-1.327-1.117-2.654-1.677-3.98
					c-0.09-1.389-0.698-2.575-1.271-3.857c-1.108,0.944-0.652,2.51-1.694,3.187c-1.19-0.401-1.012-1.817-2-2.227
					c-0.316,1.087,0.117,2.322-0.854,3.212c-1.205-0.513-1.293-2.311-2.928-2.459c-0.529,2.867,0.026,5.835-1.31,8.808
					c-2.624-3.125-5.067-6.034-7.809-9.299c-1.15,5.175-2.185,9.635-2.094,14.262c-1.805-2.028-2.917-4.597-5.005-6.403
					c-0.688-2.415-2.105-4.465-3.301-6.628c-0.084-0.556-0.203-1.211-0.808-1.301c-0.688-0.102-0.801,0.661-0.904,1.108
					c-0.201,0.854-0.219,1.753-0.316,2.675c-1.215-0.297-1.107-1.205-1.215-1.994c-0.114-0.357-0.187-0.735-0.352-1.067
					c-0.728-1.465-2.32-1.469-3.42-1.296c-0.913,0.145-0.353,1.622-0.354,2.509c-0.002,0.875,0.723,1.835-0.372,2.547
					c-1.979,0.312-3.114-1.188-4.303-2.25c-3.183-2.845-6.706-4.843-10.738-6.378c-4.096-1.561-6.894-2.674-6.305-8.714
					c0.208-2.136-0.291-4.324,0.479-6.428c0.161-0.438,0.227-1.014-0.203-1.295c-0.543-0.355-1.251-0.119-1.503,0.357
					c-1.104,2.087-3.031,2.977-5.959,3.55c3.975,1.824,4.093,4.671,4.122,7.679c0.025,2.418,0.832,4.701,3.196,5.814
					c3.274,1.541,6.586,3.073,10.024,4.158c1.476,0.466,2.119,1.229,2.706,2.38c-0.708,4.274-0.412,4.54,3.662,3.273
					c1.853,0.659,3.706,1.318,5.559,1.979c-0.091,1.242-0.192,2.523,1.274,3.081c0.777,0.295,1.615,0.443,2.436,0.615
					c0.831,0.173,1.818,0.268,1.95,1.267c0.133,1.002-0.938,0.978-1.56,1.302c-0.718,0.376-1.61,0.521-1.984,1.76
					c3.518,0.906,7.01,1.804,10.501,2.703c0.665,0.605,0.95,1.411,1.188,2.242c-3.744,1.722-7.486,3.444-11.524,5.302
					c4.363,4.162,6.711,9.544,11.416,13.775c-4.102-0.667-7.641-1.085-11.097-1.87c-1.781-0.405-1.918,0.147-1.775,1.599
					c0.289,2.955,0.163,5.945,1.181,9.51c-3.825-2.428-6.592-5.027-9.43-7.535c0.472-3.939,3.849-6.629,4.649-10.487
					c-2.427-0.079-3.301,1.604-3.646,3.32c-0.39,1.938-1.293,3.382-2.707,4.624c-1.646-1.664-3.914-1.579-6.523,0.244
					c-0.882,0.311-1.598,0.795-1.852,1.765c-1.266,0.313-0.65,1.088-0.4,1.731c1.222,3.148,1.994,6.465,4.185,9.969
					c-4.053-1.414-7.18-3.025-10.272-4.703c-0.629-0.34-1.488-1.174-1.68,0.088c-0.471,3.105-1.817,6.138-0.98,9.378
					c-1.98,2.408-1.844-0.977-2.91-1.063c-0.247-2.23-2.476-3.216-3.224-5.148c-0.846-2.188-2.156-2.85-4.157-1.139
					c-0.699,0.6-1.559,1.021-2.373,1.475c-1.024,0.572-0.506,1.203-0.127,1.846c0.101,1.822,2.455,1.461,2.875,2.976
					c0.921,1.455,2.265,2.459,3.652,3.412c0.333,1.287-0.185,1.744-1.414,1.371c-1.547-0.47-3.066-0.375-4.592,0.063
					c-2.623-0.418-5.26-0.24-7.89-0.141c-1.642,0.061-2.686,0.543-1.904,2.617c1.056,2.805,0.658,5.967,1.961,8.752
					c0.162,0.346,0.061,1.01-0.184,1.311c-0.425,0.521-1.174,0.279-1.513-0.07c-4.073-4.202-10.494-3.481-14.837-7.118
					c-1.088-0.91-1.477,0.022-1.688,0.913c-0.412,1.734-0.706,3.509-1.979,4.916c-1.399-4.694-4.559-8.577-6.04-13.235
					c-0.504-1.584-1.482-0.654-2.202-0.191c-2.102,1.355-4.155,2.781-6.79,4.56c0.705-3.33,1.284-6.115,1.892-8.896
					c0.137-0.629,0.66-1.315,0.208-1.867c-0.625-0.762-1.386-0.059-2.052,0.14c-2.768,0.819-5.52,1.688-8.494,2.604
					c0.488-2.651,1.998-4.771,3.253-6.834c1.568-2.576,0.779-2.955-1.64-2.86c-0.358,0.015-0.727-0.174-1.202-0.299
					c0.158-1.289,1.862-1.273,2.01-2.648c-2.376-0.932-5.089-0.44-7.824-1.328c2.577-2.523,5.409-4.501,8.583-6.784
					c-3.965-1.529-7.732-1.952-11.949-2.909c4.082-3.001,7.975-5.328,12.485-7.292c-0.775-0.666-1.347-1.157-2.271-1.95
					c5.086-1.957,10.028-2.925,15.685-3.162c-3.463-3.095-7.241-3.751-11.818-4.01c4.661-1.981,8.964-1.777,13.249-1.423
					c2.083,0.172,3.017,0.681,2.363-2.539c-0.569-2.809-0.549-6.081-0.408-9.287c1.774,1.905,3.432,3.77,5.573,5.107
					c0.829,0.519,1.734,0.64,2.313-0.048c0.697-0.831-0.321-1.309-0.812-1.781c-2.071-2.003-2.449-4.945-4.08-7.238
					c-1.021-1.436-1.473-1.436-2.402-0.281c-1.454,1.805-2.869,3.641-4.476,5.686c-0.91-4.017-1.391-7.857-1.305-11.794
					c0.063-2.979-0.079-3.005-2.936-1.309c0.782-6.212,1.731-12.067,5.626-17.896c-5.335,3.397-9.049,6.979-10.637,12.021
					c0.187-5.47,2.546-11.477,6.667-16.814c0.423-0.548,1.461-0.957,1-1.805c-0.394-0.722-1.375-0.373-2.097-0.508
					c-2.528-0.472-5.202,0.17-8.059-0.976c5.186-3.581,9.05-8.275,14.718-11.01c-2.452-1.068-4.729-0.181-6.931-0.479
					c-0.179-0.163-0.357-0.326-0.536-0.489c2.551-3.599,5.854-6.488,9.076-9.37c-0.559-1.174-1.939-0.334-2.585-1.592
					c5.364-3.137,10.563-6.595,17.762-6.937c-3.659-2.809-7.277-4.577-9.375-8.021c3.597,2.789,7.731,3.605,12.1,3.668
					c0.606,0.01,1.457,0.371,1.683-0.516c0.24-0.947-0.684-1.331-1.295-1.591c-2.058-0.872-4.14-1.666-6.125-3.351
					c5.275,0.317,9.285-2.749,13.868-3.943c4.61-1.202,4.524-1.409,2.653-5.983c-0.198-0.487-0.736-1.158-0.135-1.81
					c0.702-0.76,1.134-0.085,1.652,0.268c0.304,0.208,0.646,0.364,0.985,0.512c4.558,1.991,4.575,1.936,4.578-2.919
					c0.001-2.974,0.251-5.946,0.414-9.431c3.409,3.669,6.438,6.936,9.479,10.188c0.417,0.446,0.54,1.501,1.331,1.185
					c0.681-0.273,0.853-1.168,0.846-1.959c-0.015-1.454-0.847-2.865-0.235-4.725c2.078,2.763,3.521,1.783,5.003-0.383
					c1.301-1.897,3.166-3.376,4.002-5.633c1.266,0.693,0.861,1.926,1.604,2.584c3.018-4.978,7.608-8.589,11.825-13.771
					c0,4.046,0.08,7.286-0.035,10.52c-0.056,1.563,0.381,1.992,1.887,1.57c2.165-0.607,4.367-1.077,6.544-1.646
					c0.613-0.16,1.313-0.729,1.725,0.058c0.197,0.38-0.058,1.094-0.277,1.58c-1.278,2.817-1.158,2.988,1.947,3.031
					c1.232,0.018,3.192-0.687,2.416,1.943c-0.066,0.225,0.048,0.664,0.223,0.775c2.032,1.287,3.242,3.587,5.247,4.721
					s4.444,1.541,5.311,4.056c0.368,1.068,0.731,0.539,1.057,0.092c0.559-0.771,2.606,0.593,2.179-1.61
					c-0.326-1.677,0.589-1.771,1.792-1.097c2.739,1.538,4.34,0.983,5.669-2.182c1.184-2.818,2.88-5.397,3.644-9.179
					c0.731,1.456,0.235,2.704,1.589,2.921c1.736-2.68,3.537-5.462,5.713-8.82c0.823,3.301,1.49,5.97,2.229,8.934
					c3.9-2.778,7.765-5.288,12.794-7.092c-3.116,8.541-3.656,18.036-15.031,19.701c-0.651-0.505,1.083-1.592-0.006-2.614
					c-1.488,1.565-3.414,2.752-3.686,5.567c1.745-0.645,3.18-1.376,4.699-1.843c6.429-1.978,10.715,2.156,15.512,4.864
					c1.125,0.635,1.112,1.468-0.375,1.823c-2.381,0.568-4.757,1.158-7.127,1.769c-0.995,0.256-2.078,0.413-2.932,0.929
					c-1.097,0.664-2.586,1.585-2.448,2.829c0.113,1.035,1.931,0.664,2.915,1.113c2.979,1.357,5.612,0.642,8.572-0.579
					c3.971-1.636,8.287-2.43,12.456-3.586c0.193,0.214,0.388,0.429,0.579,0.644c-1.271,2.485-2.434,5.035-3.856,7.432
					c-0.829,1.396-0.874,2.024,0.834,2.563c3.968,1.252,7.711,3.009,11.036,5.562c0.272,0.209,0.479,0.505,0.646,1.05
					c-3.705-0.764-7.354-1.683-11.733-0.575c1.832,1.104,3.074,2.145,4.507,2.655c3.141,1.121,5.103,3.804,7.776,5.527
					c0.823,0.531,1.994,1.522-0.251,2.19c-1.698,0.505-0.229,1.709,0.154,2.032c2.521,2.122,3.797,5.134,5.729,7.664
					c0.728,0.949,1.615,1.869,1.232,3.254l0.046-0.055c-3.386-0.769-6.773-1.52-10.154-2.313c-1.604-0.377-1.977,0.12-1.185,1.533
					c1.541,2.752,3.097,5.497,4.818,8.551c-3.188,0.105-5.688-2.146-8.608-2.038c-0.222,1.389,1.126,1.918,1.1,3.171
					c-2.477,0.496-4.334-1.62-6.683-1.609c-0.652,0.004-1.292-0.387-1.68,0.394c-0.442,0.893,0.339,1.099,0.883,1.438
					c3.59,2.234,7.15,4.473,10.334,7.325c1.063,0.954,2.983,2.091,4.387-0.435c1.409-2.538,2.773-5.55,4.824-7.169
					c1.943-1.534,2.225-3.347,3.268-5.638c0.98,4.479,3.564,7.493,5.973,11.346c1.21-3.709,2.242-6.875,3.336-10.229
					c1.813,1.979,2.437,4.62,4.175,6.94c0.437-1.098,0.823-2.066,1.516-3.805c1.315,5.673,5.665,9.707,4.135,15.592
					c-0.563,2.161,0.398,4.241,1.284,7.259c2.789-6.671,5.538-12.473,12.086-15.172c0.7,0.527-0.396,1.687,0.518,2.43
					c2.113-0.892,3.656-2.729,5.93-4.175c0.01,3.393-0.277,6.472-0.882,10.269c2.862-1.893,5.173-3.397,7.453-4.946
					c0.618-0.42,1.26-1.241,1.941-0.835c0.82,0.488,0.42,1.536,0.218,2.297c-0.696,2.626-0.839,5.368-1.962,7.919
					c-0.959,2.178-0.64,2.401,1.929,1.932c0.391,1.046-0.26,1.856-0.783,2.542c-1.135,1.486-1.442,2.989,0.08,4.2
					c3.166,2.518,2.387,6.383,3.646,9.925c4.781-6.35,11.854-5.58,19.015-6.695c-2.209,2.86-3.916,5.313-5.881,7.538
					c-1.579,1.789-0.934,2.193,0.995,2.483c1.162,0.175,2.484,0.058,3.604,1.258c-5.04,2.396-8.807,6.784-15.133,8.229
					c3.343,2.003,4.508,5.358,8.532,6.107c4.068,0.759,6.802,4.356,9.844,7.16c-0.833,1.149-2.089,0.381-2.975,1.084
					c0.667,1.77,2.692,2.176,3.736,3.569c0.371,0.495,1.245,0.785,0.894,1.569c-0.265,0.588-0.982,0.363-1.522,0.402
					c-2.528,0.185-5.057,0.366-7.851,0.568c1.087,2.62,3.421,3.989,5.035,5.942c0.576,0.696,1.824,1.368,1.475,2.209
					c-0.492,1.184-1.795,0.407-2.776,0.393c-3.202-0.051-6.396-0.16-9.398-0.992c-1.209,0.787,0.819,1.929-0.426,2.441
					c-0.921,0.381-1.808-0.291-2.679-0.619c-3.41-1.281-6.819-2.563-10.606-3.986c0.955,3.134,3.521,4.941,4.737,7.806
					c-3.529-0.355-5.806-2.55-8.154-4.367c-3.36-2.605-3.291-2.752-5.452,1.035c-0.651,1.141-1.246,2.315-1.908,3.45
					c-0.28,0.48-0.644,1.06-1.258,1c-0.68-0.065-0.649-0.825-0.815-1.311c-0.393-1.146-0.689-2.324-1.208-4.119
					c-0.594,1.984-0.468,3.387-0.327,4.801c0.062,0.64,0.22,1.427-0.495,1.757c-0.697,0.317-0.854-0.509-1.233-0.857
					c-2.128-1.965-4.262-3.922-6.573-6.045c0.054,0.465,0.037,0.717,0.113,0.936c0.388,1.119,1.969,2.156,1.184,3.246
					c-0.837,1.162-2.228,0.051-3.354-0.295c-1.443-0.442-1.603,0.476-1.574,1.531c0.05,1.967,0.115,3.934,0.195,5.897
					c0.038,0.933,0.255,1.89-0.741,2.8c-2.04-3.228-5.605-4.916-7.728-8.082c-1.041-1.556-2.505-2.515-4.535-1.828
					c-3.925-0.933-7.203,0.656-10.316,2.733c-1.083,0.724-1.974,1.854-3.442,0.841c0.112-0.25,0.237-0.494,0.339-0.75
					c1.06-2.67-0.018-4.658-2.776-5.287c-0.929-0.211-1.16,0.104-1.15,0.955c0.028,2.428,0.017,4.856,0.021,7.284
					C288.037,243.69,287.058,245.073,287.37,246.769z"/>
			</g>
		</g>
		<g id="vatz3E_2_">
			<g>
				<path fill="#89BE37" d="M278.37,241.769c-1.128,2.779-1.945,5.607-1.422,8.771c-1.199-1.633-2.313-3.279-4.246-4.031
					c-3.374-2.94-4.289-2.561-6.544,0.771c-1.411,2.086-1.159,4.918-3.359,6.625c-2.058-4.287-4.063-8.468-6.066-12.646
					c-0.354-0.828,0.617-3.396-1.149-2.18c-2.302,1.586-5.029,2.756-6.88,5.008c-1.777,0.365-2.38,2.56-4.634,2.81
					c1.049-5.685,1.331-11.404,4.351-16.457c1.52-1.066,3.039-2.134,4.847-3.4c-1.677-0.482-3.021-0.555-4.396-0.242
					c-2.412-0.901-4.985-0.715-7.54-1.063c-0.045-1.071,0.51-1.669,1.316-2.279c2.572-1.94,2.425-1.839-0.102-3.98
					c-2.377-2.015-5.317-3.35-7.494-5.99c2.247-0.349,4.331,0.293,6.402-0.603c-2.354-2.418-4.547-4.672-6.741-6.926
					c0.057-1.689-1.199-2.723-2.105-3.842c-1.396-1.722-0.048-1.721,1.036-1.989c1.918,0.441,3.76,1.696,5.826,0.547
					c0.654,1.127,1.788,1.152,2.708,0.764c1.063-0.449,0.266-1.443,0.207-2.212c-0.248-3.352-1.013-6.682-0.712-10.589
					c2.08,3.155,4.859,4.688,7.183,6.721c1.548,1.354,4.626,0.813,5.674-0.854c0.331-0.529,0.208-0.909-0.191-1.202
					c-3.814-2.793-4.855-8.105-9.354-10.286c-0.424-0.205-1.18-0.74-0.436-1.233c2.512-1.662-0.104-2.366-0.665-3.271
					c-0.533-0.863-2.075-0.909-2.25-2.277c3.668-0.936,3.666-0.935,1.615-4.286c-0.81-1.323-1.604-2.657-2.281-3.78
					c-2.268,2.646-3.938,5.561-4.802,8.888c-0.011,0.044-0.501-0.037-0.768-0.06c-0.56-1.327-1.117-2.654-1.677-3.98
					c-0.09-1.389-0.698-2.575-1.271-3.857c-1.108,0.944-0.652,2.51-1.694,3.187c-1.19-0.401-1.012-1.817-2-2.227
					c-0.316,1.087,0.117,2.322-0.854,3.212c-1.205-0.513-1.293-2.311-2.928-2.459c-0.529,2.867,0.026,5.835-1.31,8.808
					c-2.624-3.125-5.067-6.034-7.809-9.299c-1.15,5.175-2.185,9.635-2.094,14.262c-1.805-2.028-2.917-4.597-5.005-6.403
					c-0.688-2.415-2.105-4.465-3.301-6.628c-0.084-0.556-0.203-1.211-0.808-1.301c-0.688-0.102-0.801,0.661-0.904,1.108
					c-0.201,0.854-0.219,1.753-0.316,2.675c-1.215-0.297-1.107-1.205-1.215-1.994c-0.113-0.357-0.187-0.735-0.352-1.067
					c-0.728-1.465-2.32-1.469-3.42-1.296c-0.913,0.145-0.353,1.622-0.354,2.509c-0.002,0.875,0.723,1.835-0.372,2.547
					c-1.979,0.312-3.114-1.188-4.303-2.25c-3.183-2.845-6.706-4.843-10.738-6.378c-4.096-1.561-6.894-2.674-6.305-8.714
					c0.208-2.136-0.291-4.324,0.48-6.428c0.16-0.438,0.226-1.014-0.204-1.295c-0.543-0.355-1.251-0.119-1.503,0.357
					c-1.104,2.087-3.031,2.977-5.959,3.55c3.975,1.824,4.093,4.671,4.122,7.679c0.025,2.418,0.832,4.701,3.196,5.814
					c3.274,1.541,6.586,3.073,10.024,4.158c1.476,0.466,2.119,1.229,2.706,2.38c-0.708,4.274-0.412,4.54,3.662,3.273
					c1.853,0.659,3.706,1.318,5.559,1.979c-0.091,1.242-0.192,2.523,1.274,3.081c0.777,0.295,1.615,0.443,2.436,0.615
					c0.831,0.173,1.818,0.268,1.95,1.267c0.133,1.002-0.938,0.978-1.56,1.302c-0.718,0.376-1.61,0.521-1.984,1.76
					c3.518,0.906,7.01,1.804,10.501,2.703c0.665,0.605,0.95,1.411,1.188,2.242c-3.744,1.722-7.486,3.444-11.524,5.302
					c4.363,4.162,6.711,9.544,11.416,13.775c-4.102-0.667-7.641-1.085-11.097-1.87c-1.781-0.405-1.918,0.147-1.775,1.599
					c0.289,2.955,0.163,5.945,1.181,9.51c-3.825-2.428-6.592-5.027-9.43-7.535c0.472-3.939,3.849-6.629,4.649-10.487
					c-2.427-0.079-3.301,1.604-3.646,3.32c-0.39,1.938-1.293,3.382-2.707,4.624c-1.646-1.664-3.914-1.579-6.523,0.244
					c-0.882,0.311-1.598,0.795-1.852,1.765c-1.266,0.313-0.65,1.088-0.4,1.731c1.222,3.148,1.994,6.466,4.185,9.97
					c-4.053-1.414-7.18-3.025-10.272-4.703c-0.629-0.34-1.488-1.174-1.68,0.088c-0.471,3.104-1.817,6.138-0.98,9.378
					c-1.98,2.408-1.844-0.977-2.91-1.063c-0.247-2.23-2.476-3.216-3.224-5.149c-0.846-2.188-2.156-2.851-4.157-1.138
					c-0.699,0.599-1.559,1.021-2.373,1.475c-1.024,0.571-0.506,1.203-0.127,1.846c0.101,1.822,2.455,1.46,2.875,2.975
					c0.921,1.455,2.265,2.459,3.652,3.412c0.333,1.287-0.185,1.744-1.414,1.371c-1.547-0.47-3.066-0.375-4.592,0.063
					c-2.623-0.418-5.26-0.24-7.89-0.141c-1.642,0.061-2.686,0.543-1.904,2.617c1.056,2.805,0.658,5.967,1.961,8.752
					c0.162,0.346,0.061,1.01-0.184,1.311c-0.425,0.521-1.174,0.279-1.513-0.07c-4.073-4.202-10.494-3.481-14.837-7.118
					c-1.088-0.91-1.477,0.022-1.688,0.914c-0.412,1.733-0.706,3.508-1.979,4.915c-1.399-4.694-4.559-8.577-6.04-13.235
					c-0.504-1.584-1.482-0.654-2.202-0.191c-2.102,1.355-4.155,2.781-6.79,4.56c0.705-3.33,1.284-6.115,1.892-8.896
					c0.137-0.629,0.66-1.315,0.208-1.868c-0.625-0.761-1.386-0.059-2.052,0.14c-2.768,0.82-5.52,1.688-8.494,2.605
					c0.488-2.652,1.998-4.771,3.253-6.833c1.568-2.576,0.779-2.955-1.64-2.86c-0.358,0.015-0.727-0.174-1.202-0.299
					c0.158-1.289,1.862-1.273,2.01-2.648c-2.376-0.932-5.089-0.44-7.824-1.328c2.577-2.523,5.409-4.501,8.583-6.784
					c-3.965-1.529-7.732-1.952-11.949-2.909c4.082-3.001,7.975-5.328,12.485-7.292c-0.775-0.666-1.347-1.157-2.271-1.95
					c5.086-1.957,10.028-2.925,15.685-3.162c-3.463-3.095-7.241-3.751-11.818-4.01c4.661-1.981,8.964-1.776,13.249-1.423
					c2.083,0.172,3.017,0.681,2.363-2.539c-0.569-2.809-0.549-6.081-0.408-9.287c1.774,1.905,3.432,3.77,5.573,5.107
					c0.829,0.519,1.734,0.64,2.313-0.048c0.697-0.831-0.321-1.309-0.812-1.781c-2.071-2.003-2.449-4.945-4.08-7.238
					c-1.021-1.436-1.473-1.436-2.402-0.281c-1.454,1.805-2.869,3.641-4.476,5.686c-0.91-4.017-1.391-7.857-1.305-11.794
					c0.063-2.979-0.079-3.005-2.936-1.309c0.782-6.212,1.731-12.067,5.626-17.896c-5.335,3.397-9.049,6.979-10.637,12.021
					c0.187-5.47,2.546-11.477,6.667-16.814c0.423-0.548,1.461-0.957,1-1.804c-0.394-0.723-1.375-0.374-2.097-0.509
					c-2.528-0.472-5.202,0.17-8.059-0.976c5.186-3.581,9.05-8.275,14.718-11.01c-2.452-1.068-4.729-0.181-6.931-0.479
					c-0.179-0.163-0.357-0.326-0.536-0.489c2.551-3.599,5.854-6.488,9.076-9.369c-0.559-1.175-1.939-0.335-2.585-1.593
					c5.364-3.137,10.563-6.595,17.762-6.937c-3.659-2.809-7.277-4.577-9.375-8.021c3.597,2.789,7.731,3.605,12.1,3.668
					c0.606,0.01,1.457,0.371,1.683-0.516c0.24-0.947-0.684-1.331-1.295-1.591c-2.058-0.872-4.14-1.666-6.125-3.351
					c5.275,0.317,9.285-2.749,13.868-3.943c4.61-1.202,4.524-1.409,2.653-5.983c-0.198-0.487-0.736-1.158-0.135-1.81
					c0.702-0.76,1.134-0.085,1.652,0.268c0.304,0.208,0.646,0.364,0.985,0.512c4.558,1.991,4.575,1.936,4.578-2.919
					c0.001-2.974,0.251-5.946,0.414-9.431c3.409,3.669,6.438,6.936,9.479,10.188c0.417,0.446,0.54,1.502,1.331,1.185
					c0.681-0.273,0.853-1.168,0.846-1.959c-0.015-1.454-0.847-2.865-0.235-4.725c2.078,2.763,3.521,1.783,5.003-0.383
					c1.301-1.897,3.166-3.376,4.002-5.633c1.266,0.693,0.861,1.926,1.604,2.584c3.018-4.978,7.608-8.589,11.825-13.771
					c0,4.046,0.08,7.286-0.035,10.52c-0.056,1.563,0.381,1.992,1.887,1.57c2.165-0.607,4.367-1.077,6.544-1.646
					c0.613-0.16,1.313-0.729,1.725,0.058c0.197,0.38-0.058,1.094-0.277,1.58c-1.278,2.817-1.158,2.988,1.947,3.031
					c1.232,0.018,3.192-0.687,2.416,1.943c-0.066,0.225,0.048,0.664,0.223,0.775c2.032,1.287,3.242,3.587,5.247,4.721
					s4.444,1.541,5.311,4.056c0.368,1.068,0.731,0.539,1.057,0.092c0.559-0.771,2.606,0.593,2.179-1.61
					c-0.326-1.677,0.589-1.771,1.792-1.097c2.739,1.538,4.34,0.983,5.669-2.182c1.184-2.818,2.88-5.397,3.644-9.179
					c0.731,1.456,0.235,2.704,1.59,2.921c1.735-2.68,3.537-5.462,5.712-8.82c0.824,3.301,1.491,5.971,2.229,8.934
					c3.9-2.778,7.765-5.288,12.794-7.092c-3.116,8.541-3.656,18.036-15.03,19.701c-0.652-0.505,1.083-1.592-0.006-2.613
					c-1.489,1.564-3.414,2.751-3.687,5.566c1.745-0.645,3.18-1.376,4.699-1.843c6.429-1.978,10.715,2.156,15.512,4.864
					c1.125,0.635,1.112,1.468-0.375,1.823c-2.381,0.568-4.757,1.158-7.127,1.769c-0.995,0.256-2.078,0.413-2.932,0.929
					c-1.097,0.664-2.586,1.585-2.448,2.829c0.113,1.035,1.931,0.664,2.915,1.113c2.979,1.357,5.612,0.642,8.572-0.579
					c3.971-1.636,8.287-2.43,12.456-3.586c0.193,0.214,0.388,0.429,0.579,0.644c-1.271,2.485-2.434,5.035-3.856,7.432
					c-0.829,1.396-0.874,2.024,0.834,2.563c3.968,1.252,7.711,3.009,11.036,5.562c0.272,0.209,0.479,0.505,0.646,1.05
					c-3.705-0.764-7.354-1.683-11.733-0.575c1.832,1.104,3.074,2.145,4.507,2.655c3.141,1.121,5.103,3.804,7.776,5.527
					c0.823,0.531,1.994,1.522-0.251,2.19c-1.698,0.505-0.229,1.709,0.154,2.032c2.521,2.122,3.797,5.134,5.729,7.664
					c0.728,0.949,1.615,1.87,1.232,3.254l0.046-0.055c-3.386-0.769-6.773-1.52-10.154-2.313c-1.604-0.377-1.977,0.12-1.185,1.533
					c1.541,2.752,3.097,5.497,4.818,8.551c-3.188,0.105-5.688-2.146-8.608-2.038c-0.222,1.389,1.126,1.918,1.1,3.171
					c-2.477,0.496-4.334-1.62-6.683-1.608c-0.652,0.003-1.292-0.388-1.68,0.393c-0.442,0.893,0.339,1.099,0.883,1.438
					c3.59,2.234,7.15,4.473,10.334,7.325c1.063,0.954,2.983,2.091,4.387-0.435c1.409-2.538,2.773-5.55,4.824-7.169
					c1.943-1.534,2.225-3.347,3.268-5.638c0.98,4.479,3.564,7.493,5.973,11.346c1.21-3.709,2.242-6.875,3.336-10.229
					c1.813,1.979,2.437,4.62,4.175,6.94c0.437-1.097,0.823-2.066,1.516-3.804c1.315,5.672,5.665,9.707,4.135,15.591
					c-0.563,2.161,0.398,4.242,1.284,7.259c2.789-6.671,5.538-12.473,12.086-15.172c0.7,0.528-0.396,1.687,0.518,2.43
					c2.113-0.892,3.656-2.729,5.93-4.175c0.01,3.393-0.277,6.472-0.882,10.269c2.862-1.893,5.173-3.397,7.453-4.946
					c0.618-0.42,1.26-1.241,1.941-0.835c0.82,0.488,0.42,1.537,0.218,2.297c-0.696,2.626-0.839,5.368-1.962,7.919
					c-0.959,2.178-0.64,2.402,1.929,1.932c0.391,1.046-0.26,1.856-0.783,2.542c-1.135,1.486-1.442,2.989,0.08,4.2
					c3.166,2.518,2.387,6.383,3.646,9.925c4.781-6.35,11.854-5.58,19.015-6.694c-2.209,2.859-3.916,5.312-5.881,7.537
					c-1.579,1.789-0.934,2.193,0.995,2.483c1.162,0.175,2.484,0.058,3.604,1.258c-5.04,2.396-8.807,6.784-15.133,8.229
					c3.343,2.003,4.508,5.358,8.532,6.107c4.068,0.76,6.802,4.356,9.844,7.16c-0.833,1.149-2.089,0.381-2.975,1.084
					c0.667,1.77,2.692,2.176,3.736,3.569c0.371,0.495,1.245,0.785,0.894,1.57c-0.265,0.587-0.982,0.362-1.522,0.401
					c-2.528,0.185-5.057,0.366-7.851,0.568c1.087,2.621,3.421,3.99,5.035,5.942c0.576,0.697,1.824,1.369,1.475,2.209
					c-0.492,1.184-1.795,0.407-2.776,0.393c-3.202-0.051-6.396-0.16-9.398-0.992c-1.209,0.787,0.819,1.929-0.426,2.441
					c-0.921,0.381-1.808-0.291-2.679-0.619c-3.41-1.281-6.819-2.562-10.606-3.987c0.955,3.134,3.521,4.942,4.737,7.806
					c-3.529-0.355-5.806-2.55-8.154-4.367c-3.36-2.605-3.291-2.751-5.452,1.035c-0.651,1.141-1.246,2.315-1.908,3.451
					c-0.28,0.479-0.644,1.059-1.258,1c-0.68-0.066-0.649-0.826-0.815-1.312c-0.393-1.146-0.689-2.324-1.208-4.119
					c-0.594,1.984-0.468,3.387-0.327,4.801c0.062,0.64,0.22,1.427-0.495,1.757c-0.697,0.317-0.854-0.509-1.233-0.857
					c-2.128-1.965-4.262-3.922-6.573-6.045c0.054,0.465,0.037,0.717,0.113,0.936c0.388,1.119,1.969,2.156,1.184,3.246
					c-0.837,1.162-2.228,0.051-3.354-0.295c-1.443-0.442-1.603,0.476-1.574,1.531c0.05,1.967,0.115,3.934,0.195,5.898
					c0.038,0.932,0.255,1.889-0.741,2.799c-2.04-3.228-5.605-4.916-7.728-8.082c-1.041-1.556-2.505-2.515-4.535-1.828
					c-3.925-0.933-7.203,0.656-10.316,2.733c-1.083,0.724-1.974,1.854-3.442,0.841c0.112-0.25,0.237-0.494,0.339-0.75
					c1.06-2.67-0.018-4.658-2.776-5.287c-0.929-0.211-1.16,0.104-1.15,0.955c0.028,2.428,0.017,4.856,0.021,7.285
					C279.037,238.69,278.058,240.073,278.37,241.769z"/>
			</g>
		</g>
		<path fill="#6E4927" d="M233.407,294.185c3.561-10.776,3.83-21.901,3.302-33.069c-0.171-3.631-0.3-7.273-0.727-10.91
			c-0.328-2.797-1.506-4.582-3.802-6c-3.738-2.314-7.473-4.613-11.639-6.103l0.021,0.023c-3.526-3.271-8.216-3.672-12.498-5.104
			c-9.467-3.171-18.146-0.865-26.346,3.899c-4.459,2.592-8.765,1.328-13.188,0.459c1.525-0.438,3.047-0.531,4.594-0.062
			c1.229,0.373,1.747-0.084,1.411-1.371c0.843-0.209,2.185,0.426,2.396-0.801c0.146-0.841-1.063-1.156-1.791-1.529
			c-1.328-0.688-2.674-1.369-4.256-1.082c-0.42-1.514-2.774-1.152-2.875-2.976c3.617-0.092,6.521,2.195,9.88,2.968
			c1.067,0.088,0.931,3.473,2.908,1.063c0.928,0.01,1.856,0.113,2.743-0.33c4.298-2.149,8.542-4.42,13.563-4.436
			c0.993-0.002,1.459-0.666,1.13-1.973c-1.173-4.653-3.516-8.192-8.284-9.727c0.254-0.97,0.97-1.454,1.852-1.765
			c2.211,0.899,4.481,3.378,6.523-0.244c1.414-1.242,2.317-2.687,2.707-4.624c0.346-1.714,1.22-3.398,3.646-3.32
			c-0.802,3.858-4.179,6.548-4.647,10.486c-1.419,5.083,2.229,10.967,6.609,12.04c4.712,1.153,9.49,2.004,14.134,3.475
			c3.466,1.099,7.019,1.937,10.562,2.765c2.617,0.61,5.203-0.646,5.404-2.64c0.912-9.034-0.341-17.574-6.181-24.938
			c-3.063-3.857-6.198-7.655-9.302-11.481c-0.236-0.831-0.521-1.637-1.188-2.242c-2.757-5.28-6.488-9.414-12.617-10.728
			c-1.853-0.66-3.706-1.318-5.558-1.978c-1.221-1.091-2.441-2.183-3.663-3.274c-0.587-1.151-1.23-1.914-2.706-2.379
			c-3.438-1.086-6.75-2.619-10.024-4.159c-2.364-1.113-3.171-3.396-3.196-5.814c-0.029-3.008-0.147-5.854-4.122-7.679
			c2.928-0.574,4.855-1.463,5.959-3.55c0.252-0.478,0.96-0.714,1.503-0.357c0.43,0.281,0.364,0.857,0.204,1.295
			c-0.771,2.104-0.272,4.292-0.48,6.429c-0.589,6.039,2.209,7.153,6.305,8.713c4.032,1.536,7.557,3.534,10.738,6.378
			c1.188,1.061,2.322,2.562,4.302,2.25c2.25,0.357,4.286,0.358,4.499-2.691c0.106,0.789,0,1.697,1.215,1.994
			c0.099-0.922,0.115-1.82,0.316-2.675c0.104-0.447,0.218-1.21,0.904-1.108c0.604,0.089,0.724,0.745,0.808,1.301
			c-0.93,4.454-0.447,5.423,3.301,6.628c2.088,1.807,3.2,4.375,5.005,6.402c1.422,3.21,3.771,5.76,6.02,8.37
			c4.145,4.811,9.721,8.138,13.694,13.137c0.434,0.546,0.932,0.585,1.235-0.188c2.194,2.254,4.389,4.508,6.741,6.926
			c-2.071,0.896-4.155,0.254-6.402,0.603c2.177,2.641,5.117,3.976,7.494,5.99c2.525,2.143,2.674,2.041,0.101,3.98
			c-0.807,0.609-1.36,1.209-1.315,2.279c2.555,0.35,5.128,0.162,7.541,1.062c0.108,1.244-0.798,2.367-0.451,3.646
			c-3.021,5.053-3.302,10.772-4.352,16.457c2.255-0.25,2.856-2.443,4.634-2.812c0.167,3.367,0.787,6.674,1.578,9.935
			c0.293,1.202,0.056,3.438,1.768,3.225c1.394-0.174,2.197-2.088,2.542-3.687c0.097-0.45-0.016-0.944,0.078-1.396
			c0.755-3.621-0.646-7.652,2.064-10.902c2.006,4.179,4.01,8.357,6.066,12.646c2.2-1.707,1.948-4.539,3.359-6.625
			c2.255-3.332,3.17-3.713,6.544-0.771c-6.061,5.898-11.213,12.572-16.432,19.193c-0.926,1.174-0.731,2.496-0.364,3.766
			c0,0,1.691,34.398,5.463,50.986c-24.496-7.471-47.378,13.969-47.378,13.969S230.424,308.412,233.407,294.185z"/>
	</g>
	<g>
		<g>
			<path fill="#6E4927" d="M115.174,374.361c-2.456-4.143-4.083-8.915-4.889-14.323c-0.806-5.405-0.903-11.104-0.288-17.083
				c-2.225-1.842-4.469-3.433-6.729-4.775c-2.263-1.34-4.469-2.433-6.614-3.277c-3.376,4.91-6.788,9.777-10.239,14.61
				c-3.452,4.831-7,9.28-10.642,13.346c-3.645,4.063-7.361,7.551-11.158,10.468c-3.796,2.914-7.69,4.908-11.678,5.982
				c-2.915,0.765-5.483,0.956-7.708,0.575c-2.226-0.386-4.124-1.133-5.694-2.245c-1.572-1.111-2.801-2.377-3.681-3.796
				c-0.884-1.42-1.401-2.76-1.554-4.025c-0.154-1.266,0.037-2.282,0.574-3.05c0.536-0.767,1.419-0.997,2.646-0.688
				c3.682,0.844,7.42,0.439,11.217-1.209s7.649-4.082,11.562-7.306c3.911-3.221,7.881-7.074,11.906-11.561
				c4.027-4.487,8.071-9.146,12.138-13.978c-3.452-0.23-6.654,0.058-9.605,0.861c-2.953,0.807-5.521,1.898-7.708,3.279
				c-2.187,1.379-3.969,2.952-5.351,4.717c-1.38,1.764-2.225,3.489-2.53,5.176c-0.385,1.688-1.018,2.646-1.897,2.875
				c-0.882,0.232-1.823-0.058-2.818-0.859c-0.997-0.809-1.938-2.016-2.818-3.625c-0.882-1.609-1.516-3.395-1.897-5.352
				c-0.386-1.956-0.386-3.985,0-6.097c0.382-2.108,1.34-4.084,2.876-5.924c1.842-2.226,4.199-3.949,7.074-5.177
				c2.877-1.228,6.041-1.993,9.491-2.303c3.451-0.304,7.133-0.172,11.043,0.403c3.913,0.575,7.824,1.593,11.734,3.049
				c4.295-5.062,8.608-9.931,12.942-14.607c4.332-4.682,8.665-8.667,12.999-11.968c4.332-3.295,8.646-5.693,12.943-7.188
				c4.293-1.496,8.587-1.629,12.884-0.402c1.916,0.615,2.856,1.783,2.818,3.508c-0.039,1.728-1.362,3.242-3.97,4.544
				c-1.609,0.77-3.203,1.957-4.772,3.567c-1.573,1.609-3.049,3.549-4.431,5.809c-1.38,2.265-2.666,4.775-3.854,7.535
				c-1.19,2.762-2.243,5.715-3.164,8.858c-1.075,3.605-1.823,7.363-2.244,11.273c-0.422,3.912-0.557,7.747-0.401,11.506
				c0.152,3.758,0.593,7.345,1.322,10.757c0.729,3.412,1.706,6.498,2.934,9.26c1.226,2.76,2.704,5.081,4.43,6.959
				c1.725,1.879,3.661,3.124,5.809,3.74c1.611,0.458,2.396,1.13,2.358,2.011c-0.039,0.883-0.632,1.729-1.784,2.531
				c-1.148,0.807-2.703,1.438-4.659,1.899c-1.955,0.459-4.045,0.555-6.269,0.288c-2.226-0.271-4.469-1.056-6.73-2.358
				C118.836,379.269,116.861,377.198,115.174,374.361z M111.378,334.554c0.843-4.063,2.014-8.052,3.509-11.963
				c1.495-3.91,3.259-7.611,5.292-11.101c2.031-3.489,4.314-6.652,6.846-9.492c2.53-2.837,5.292-5.251,8.282-7.247
				c-2.838,0.615-5.656,1.898-8.455,3.853c-2.802,1.956-5.6,4.412-8.398,7.364c-2.8,2.951-5.579,6.289-8.34,10.008
				c-2.761,3.721-5.562,7.612-8.398,11.678c1.687,0.998,3.336,2.07,4.946,3.22C108.274,332.026,109.843,333.252,111.378,334.554z"/>
			<path fill="#6E4927" d="M156.704,323.165c1.61,0.46,3.009,0.632,4.199,0.518c1.188-0.113,2.243-0.439,3.163-0.978
				c0.921-0.535,1.726-1.207,2.417-2.014c0.69-0.805,1.34-1.668,1.955-2.589c0.69-0.919,1.514-1.303,2.474-1.148
				c0.958,0.153,1.801,0.631,2.531,1.438c0.728,0.807,1.226,1.821,1.496,3.05c0.268,1.227,0.057,2.456-0.634,3.681
				c-0.076,0.077-0.114,0.154-0.114,0.231c-0.46,0.767-1.17,2.03-2.127,3.795c-0.96,1.765-1.977,3.605-3.05,5.521
				c-1.074,1.917-2.07,3.759-2.99,5.521c-0.92,1.768-1.573,3.03-1.956,3.798c-0.614,1.227-1.228,2.454-1.84,3.682
				c-0.615,1.228-1.094,2.319-1.438,3.277c-0.346,0.96-0.443,1.727-0.288,2.303c0.152,0.574,0.729,0.862,1.726,0.862
				c1.456,0,3.048-0.384,4.774-1.152c1.727-0.764,3.469-1.8,5.233-3.104c1.764-1.303,3.432-2.798,5.005-4.487
				c1.571-1.686,2.933-3.487,4.084-5.405c0.766-1.227,1.553-2.052,2.358-2.475c0.806-0.421,1.476-0.479,2.014-0.172
				c0.535,0.307,0.843,0.9,0.92,1.781c0.076,0.885-0.23,1.977-0.92,3.28c-1.305,2.377-3.106,4.853-5.407,7.419
				c-2.301,2.571-4.795,4.91-7.478,7.02c-2.688,2.109-5.408,3.854-8.168,5.233c-2.763,1.381-5.256,2.07-7.479,2.07
				c-3.682,0-5.792-1.61-6.328-4.831c-0.537-3.222,0.691-7.553,3.683-13c1.303-2.224,2.606-4.352,3.911-6.385
				c1.304-2.03,2.569-3.932,3.797-5.694c-1.995,1.304-4.084,2.186-6.27,2.646c-2.187,0.459-4.199,0.459-6.041,0
				c-1.075,2.068-2.301,3.911-3.681,5.521c-1.075,1.228-2.091,2.054-3.049,2.473c-0.959,0.423-1.687,0.479-2.186,0.175
				c-0.498-0.308-0.708-0.901-0.633-1.785c0.077-0.879,0.575-1.974,1.496-3.277c0.613-0.844,1.208-1.745,1.783-2.703
				s1.13-1.937,1.668-2.934c-1.229-1.229-1.938-2.685-2.128-4.373c-0.191-1.686-0.058-3.43,0.402-5.234
				c0.46-1.8,1.208-3.547,2.243-5.232s2.204-3.145,3.509-4.371c1.304-1.228,2.665-2.09,4.084-2.588
				c1.418-0.498,2.741-0.48,3.969,0.057c0.921,0.384,1.456,0.958,1.61,1.727c0.152,0.767,0.133,1.631-0.057,2.588
				c-0.193,0.961-0.519,1.977-0.979,3.049C157.509,321.021,157.086,322.093,156.704,323.165z"/>
			<path fill="#6E4927" d="M227.568,342.378c-1.306,1.766-2.703,3.164-4.199,4.199s-3.011,1.764-4.544,2.185
				c-1.536,0.423-3.069,0.575-4.603,0.461c-1.534-0.113-2.952-0.402-4.256-0.863c-1.458,2.303-3.088,4.413-4.889,6.33
				c-1.803,1.916-3.646,3.564-5.522,4.943c-1.88,1.381-3.759,2.475-5.637,3.28c-1.88,0.804-3.586,1.207-5.119,1.207
				c-2.686,0-4.966-0.938-6.845-2.817c-1.878-1.879-2.914-4.661-3.106-8.343c-0.189-3.68,0.674-8.262,2.589-13.744
				c1.917-5.482,5.368-11.87,10.354-19.156c3.451-5.062,6.806-9.337,10.066-12.826c3.259-3.489,6.327-6.229,9.202-8.227
				c2.877-1.994,5.482-3.221,7.823-3.682c2.339-0.46,4.274-0.189,5.811,0.807c2.53,1.688,3.049,4.447,1.553,8.283
				c-1.496,3.835-4.889,8.167-10.181,12.999c-1.535,1.381-3.222,2.799-5.062,4.256c-1.842,1.458-3.702,2.916-5.58,4.372
				c-1.88,1.459-3.739,2.855-5.58,4.198c-1.84,1.345-3.526,2.589-5.062,3.738c-1.075,2.147-1.938,4.298-2.588,6.442
				c-0.652,2.148-1.035,4.084-1.149,5.811c-0.116,1.727,0.058,3.183,0.519,4.371c0.46,1.189,1.226,1.938,2.301,2.242
				c1.148,0.387,2.281,0.387,3.394,0c1.111-0.383,2.146-0.958,3.106-1.725c0.958-0.768,1.819-1.649,2.588-2.646
				c0.765-0.997,1.381-1.956,1.84-2.877c-1.764-1.227-2.895-2.914-3.393-5.062c-0.5-2.146-0.211-4.37,0.862-6.672
				c0.612-1.381,1.38-2.568,2.3-3.566c0.921-0.995,1.879-1.782,2.877-2.356c0.995-0.577,1.993-0.938,2.99-1.095
				c0.996-0.152,1.879-0.075,2.646,0.23c2.146,0.844,3.431,2.551,3.854,5.119c0.421,2.57-0.748,6.08-3.509,10.524
				c1.61,0.538,3.374,0.654,5.292,0.347c1.916-0.308,3.412-1.342,4.487-3.105c0.765-1.227,1.609-2.031,2.531-2.417
				c0.921-0.383,1.667-0.421,2.243-0.114c0.575,0.31,0.881,0.903,0.919,1.785C228.927,340.097,228.488,341.153,227.568,342.378z
				 M219.168,304.415c-0.459-0.307-1.207-0.058-2.242,0.746c-1.036,0.807-2.264,2.014-3.682,3.624
				c-1.42,1.61-2.991,3.529-4.717,5.752c-1.727,2.227-3.51,4.526-5.351,6.903c2.302-1.916,4.505-3.815,6.615-5.694
				c2.108-1.879,3.911-3.604,5.407-5.177c1.496-1.571,2.626-2.896,3.394-3.971C219.36,305.529,219.551,304.798,219.168,304.415z"/>
			<path fill="#6E4927" d="M272.895,325.582c-0.77,1.457-1.631,3.012-2.59,4.658c-0.959,1.649-1.918,3.298-2.875,4.948
				c-0.961,1.648-1.88,3.239-2.762,4.772c-0.883,1.535-1.667,2.877-2.359,4.026c-0.689,1.227-1.342,2.434-1.956,3.624
				c-0.612,1.188-1.074,2.263-1.378,3.221c-0.31,0.96-0.387,1.744-0.23,2.359c0.153,0.613,0.729,0.92,1.727,0.92
				c1.38,0,2.949-0.383,4.716-1.152c1.764-0.764,3.526-1.8,5.291-3.104c1.765-1.303,3.435-2.797,5.005-4.487
				c1.57-1.685,2.935-3.487,4.086-5.405c0.763-1.227,1.552-2.052,2.356-2.475c0.806-0.421,1.475-0.479,2.013-0.172
				c0.534,0.307,0.845,0.9,0.921,1.781c0.075,0.885-0.229,1.977-0.921,3.28c-1.305,2.377-3.201,4.853-5.694,7.419
				c-2.492,2.571-5.118,4.91-7.878,7.02c-2.765,2.109-5.507,3.854-8.228,5.233c-2.722,1.381-4.967,2.07-6.729,2.07
				c-2.531,0-4.681-0.535-6.444-1.61c-1.765-1.072-2.76-2.763-2.991-5.062c-1.688,1.764-3.681,3.315-5.98,4.658
				c-2.301,1.345-4.91,2.014-7.824,2.014c-2.989,0-5.482-0.824-7.477-2.475c-1.994-1.646-3.336-3.813-4.026-6.497
				c-0.69-2.687-0.651-5.715,0.116-9.09c0.767-3.375,2.416-6.786,4.946-10.238c2.375-3.221,5.062-5.886,8.054-7.996
				c2.989-2.108,5.98-3.584,8.972-4.428c2.992-0.845,5.868-1.017,8.627-0.519c2.762,0.5,5.137,1.745,7.134,3.737
				c0.613-1.072,1.168-1.936,1.67-2.587c0.497-0.65,1.053-1.168,1.667-1.554c0.612-0.384,1.323-0.67,2.126-0.863
				c0.809-0.189,1.784-0.403,2.937-0.633c1.227-0.151,2.376-0.27,3.452-0.347c1.071-0.073,1.916,0.021,2.53,0.288
				c0.61,0.271,0.957,0.769,1.033,1.497C274.006,323.149,273.66,324.202,272.895,325.582z M236.425,353.076
				c3.221,0,6.401-1.686,9.547-5.061c3.146-3.375,6.06-7.938,8.744-13.689c-0.768-1.073-1.727-1.803-2.876-2.188
				c-1.307-0.46-2.802-0.554-4.485-0.288c-1.688,0.271-3.396,0.864-5.12,1.785c-1.726,0.918-3.396,2.127-5.004,3.623
				c-1.61,1.495-2.989,3.203-4.143,5.119c-0.767,1.305-1.284,2.608-1.553,3.911c-0.27,1.306-0.287,2.456-0.058,3.451
				c0.23,0.997,0.767,1.802,1.609,2.417C233.932,352.773,235.044,353.076,236.425,353.076z"/>
			<path fill="#6E4927" d="M315.917,302.458c3.911-0.535,7.535-1.015,10.873-1.438c3.334-0.421,5.809-0.823,7.417-1.207
				c1.229-0.23,2.016-0.135,2.36,0.285c0.345,0.424,0.362,1.057,0.058,1.899c-0.307,0.846-0.884,1.764-1.727,2.761
				c-0.846,0.997-1.822,1.955-2.934,2.876c-1.113,0.922-2.263,1.688-3.452,2.3c-1.188,0.617-2.282,0.922-3.276,0.922H309.36
				c-1.919,2.685-3.853,5.465-5.81,8.342c-1.956,2.875-3.7,5.464-5.233,7.766c-1.688,2.531-3.185,5.233-4.487,8.108
				c-1.306,2.878-2.32,5.542-3.047,7.996c-0.73,2.456-1.151,4.585-1.268,6.385c-0.115,1.804,0.175,2.934,0.862,3.394
				c0.921,0.615,2.128,0.768,3.624,0.461c1.497-0.306,3.144-1.017,4.948-2.128c1.799-1.109,3.681-2.604,5.637-4.486
				c1.957-1.88,3.853-4.121,5.693-6.729c0.765-1.227,1.571-2.031,2.418-2.417c0.842-0.383,1.53-0.438,2.068-0.172
				c0.537,0.27,0.822,0.844,0.862,1.725c0.036,0.884-0.325,1.977-1.093,3.28c-1.839,3.146-3.932,6.038-6.271,8.686
				c-2.341,2.646-4.793,4.93-7.359,6.846c-2.572,1.919-5.2,3.433-7.884,4.544c-2.685,1.112-5.291,1.668-7.821,1.668
				c-2.688,0-4.853-0.938-6.5-2.817c-1.649-1.879-2.416-4.661-2.302-8.343c0.115-3.68,1.246-8.262,3.394-13.744
				c2.146-5.482,5.714-11.87,10.699-19.156c0.844-1.226,1.783-2.646,2.819-4.256c1.034-1.609,2.165-3.259,3.393-4.948h-10.696
				c-0.921,0-1.4-0.266-1.438-0.804c-0.038-0.535,0.172-1.151,0.633-1.842c0.46-0.689,1.129-1.322,2.014-1.898
				c0.88-0.573,1.82-0.898,2.816-0.977c2.915-0.307,5.964-0.958,9.146-1.955c3.184-0.996,5.771-1.917,7.767-2.763
				c1.688-0.69,3.432-1.359,5.235-2.015c1.798-0.649,3.296-1.034,4.485-1.148c1.188-0.114,1.856,0.134,2.013,0.748
				c0.154,0.615-0.615,1.839-2.3,3.682L315.917,302.458z"/>
			<path fill="#6E4927" d="M335.821,320.634c2.762,0,5.119,0.559,7.076,1.67c1.952,1.112,3.449,2.608,4.483,4.485
				c1.036,1.881,1.61,4.104,1.728,6.672c0.113,2.571-0.289,5.313-1.21,8.226c0.768,0.462,1.688,0.847,2.763,1.152
				c1.073,0.307,2.167,0.421,3.279,0.343c1.108-0.073,2.186-0.362,3.22-0.859c1.036-0.498,1.898-1.285,2.59-2.359
				c0.767-1.227,1.609-2.031,2.53-2.417c0.921-0.383,1.668-0.421,2.243-0.114c0.574,0.31,0.878,0.903,0.919,1.785
				c0.04,0.881-0.4,1.937-1.32,3.162c-1.382,1.917-2.897,3.394-4.544,4.428c-1.651,1.036-3.318,1.747-5.007,2.128
				c-1.688,0.387-3.334,0.48-4.943,0.289c-1.613-0.19-3.069-0.633-4.373-1.323c-1.305,2.379-2.838,4.563-4.604,6.558
				c-1.765,1.996-3.681,3.721-5.752,5.177c-2.069,1.459-4.274,2.589-6.613,3.396c-2.34,0.804-4.7,1.206-7.075,1.206
				c-2.839,0-5.254-0.574-7.247-1.726c-1.997-1.149-3.511-2.703-4.544-4.658c-1.036-1.956-1.572-4.275-1.61-6.962
				c-0.039-2.683,0.44-5.521,1.438-8.512c0.997-2.99,2.396-5.811,4.197-8.456c1.801-2.646,3.894-4.946,6.269-6.901
				c2.377-1.956,4.929-3.51,7.652-4.659C330.086,321.209,332.905,320.634,335.821,320.634z M327.422,352.158
				c2.685,0,5.156-0.864,7.421-2.589c2.26-1.728,4.044-3.932,5.35-6.615c-1.076-1.381-1.822-2.742-2.243-4.084
				c-0.424-1.341-0.672-2.626-0.749-3.855c-0.076-1.225,0.021-2.355,0.29-3.392c0.267-1.036,0.554-1.974,0.86-2.82
				c-0.384-0.15-0.825-0.266-1.322-0.343c-0.499-0.078-1.019-0.117-1.553-0.117c-3.221,0-6.062,1.152-8.516,3.452
				c-2.452,2.302-4.255,5.103-5.404,8.396c-1.076,3.3-1.15,6.116-0.229,8.457C322.244,350.988,324.275,352.158,327.422,352.158z"/>
			<path fill="#6E4927" d="M381.836,325.582c-4.066,5.676-7.134,10.315-9.203,13.92c-2.072,3.605-3.452,6.423-4.142,8.456
				c-0.69,2.031-0.825,3.433-0.402,4.199c0.421,0.766,1.092,1.148,2.013,1.148c1.455,0,2.78-0.421,3.971-1.267
				c1.188-0.842,2.317-1.954,3.391-3.336c1.076-1.381,2.131-2.972,3.167-4.772c1.035-1.803,2.128-3.664,3.277-5.58
				c0.921-1.994,1.764-3.814,2.53-5.465c0.768-1.646,1.569-3.277,2.415-4.888c0.69-1.457,1.323-2.609,1.898-3.453
				c0.574-0.844,1.188-1.495,1.841-1.955c0.649-0.461,1.398-0.785,2.242-0.979c0.844-0.189,1.879-0.403,3.106-0.634
				c1.228-0.15,2.375-0.269,3.451-0.346c1.072-0.074,1.916,0.021,2.531,0.288c0.611,0.271,0.957,0.768,1.034,1.497
				c0.075,0.729-0.268,1.782-1.034,3.163c-0.767,1.457-1.631,3.012-2.59,4.658c-0.959,1.649-1.897,3.298-2.818,4.947
				c-0.918,1.649-1.821,3.24-2.703,4.773c-0.882,1.535-1.667,2.877-2.355,4.026c-0.692,1.227-1.344,2.434-1.957,3.624
				c-0.614,1.188-1.092,2.263-1.438,3.221c-0.346,0.96-0.423,1.744-0.229,2.359c0.189,0.613,0.747,0.92,1.667,0.92
				c1.457,0,3.05-0.384,4.772-1.152c1.727-0.764,3.471-1.8,5.233-3.104c1.765-1.303,3.452-2.798,5.062-4.487
				c1.61-1.686,2.992-3.487,4.143-5.405c0.767-1.227,1.554-2.052,2.359-2.475c0.805-0.421,1.477-0.479,2.013-0.172
				s0.842,0.9,0.923,1.781c0.075,0.885-0.271,1.977-1.036,3.28c-1.307,2.377-3.187,4.853-5.637,7.419
				c-2.456,2.571-5.082,4.91-7.883,7.02s-5.541,3.854-8.225,5.233c-2.688,1.381-4.946,2.07-6.788,2.07
				c-2.686,0-4.967-0.632-6.845-1.898c-1.88-1.265-2.743-3.276-2.588-6.038c-2.303,2.687-4.68,4.68-7.132,5.98
				c-2.456,1.306-4.874,1.956-7.247,1.956c-3.605,0-5.927-1.304-6.962-3.912c-1.036-2.605-0.939-6.096,0.289-10.468
				c1.227-4.293,2.837-8.301,4.829-12.021c1.995-3.721,3.987-6.961,5.982-9.72c0.918-1.306,1.744-2.378,2.473-3.224
				c0.729-0.843,1.456-1.515,2.188-2.014c0.727-0.498,1.533-0.861,2.414-1.093c0.882-0.229,1.975-0.461,3.281-0.69
				c1.225-0.15,2.337-0.248,3.334-0.287c0.996-0.037,1.744,0.1,2.244,0.402c0.5,0.309,0.708,0.807,0.634,1.496
				C383.255,323.281,382.756,324.279,381.836,325.582z"/>
		</g>
		<g>
			<path fill="#89BE37" d="M111.174,368.361c-2.456-4.143-4.083-8.915-4.889-14.323c-0.806-5.405-0.903-11.104-0.288-17.083
				c-2.225-1.842-4.469-3.433-6.729-4.775c-2.263-1.34-4.469-2.433-6.614-3.277c-3.376,4.91-6.788,9.777-10.239,14.61
				c-3.452,4.831-7,9.28-10.642,13.346c-3.645,4.063-7.361,7.551-11.158,10.468c-3.796,2.914-7.69,4.908-11.678,5.982
				c-2.915,0.765-5.483,0.956-7.708,0.575c-2.226-0.386-4.124-1.133-5.694-2.245c-1.572-1.111-2.801-2.377-3.681-3.796
				c-0.884-1.42-1.401-2.76-1.554-4.025c-0.154-1.266,0.037-2.282,0.574-3.05c0.536-0.767,1.419-0.997,2.646-0.688
				c3.682,0.844,7.42,0.439,11.217-1.209s7.649-4.082,11.562-7.306c3.911-3.221,7.881-7.074,11.906-11.561
				c4.027-4.487,8.071-9.146,12.138-13.978c-3.452-0.23-6.654,0.058-9.605,0.861c-2.953,0.807-5.521,1.898-7.708,3.279
				c-2.187,1.379-3.969,2.952-5.351,4.717c-1.38,1.764-2.225,3.489-2.53,5.176c-0.385,1.688-1.018,2.646-1.897,2.875
				c-0.882,0.232-1.823-0.058-2.818-0.859c-0.997-0.809-1.938-2.016-2.818-3.625c-0.882-1.609-1.516-3.395-1.897-5.352
				c-0.386-1.956-0.386-3.985,0-6.097c0.382-2.108,1.34-4.084,2.876-5.924c1.842-2.226,4.199-3.949,7.074-5.177
				c2.877-1.228,6.041-1.993,9.491-2.303c3.451-0.304,7.133-0.172,11.043,0.403c3.913,0.575,7.824,1.593,11.734,3.049
				c4.295-5.062,8.608-9.931,12.942-14.607c4.332-4.682,8.665-8.667,12.999-11.968c4.332-3.295,8.646-5.693,12.943-7.188
				c4.293-1.496,8.587-1.629,12.884-0.402c1.916,0.615,2.856,1.783,2.818,3.508c-0.039,1.728-1.362,3.242-3.97,4.544
				c-1.609,0.77-3.203,1.957-4.772,3.567c-1.573,1.609-3.049,3.549-4.431,5.809c-1.38,2.265-2.666,4.775-3.854,7.535
				c-1.19,2.762-2.243,5.715-3.164,8.858c-1.075,3.605-1.823,7.363-2.244,11.273c-0.422,3.912-0.557,7.747-0.401,11.506
				c0.152,3.758,0.593,7.345,1.322,10.757c0.729,3.412,1.706,6.498,2.934,9.26c1.226,2.76,2.704,5.081,4.43,6.959
				c1.725,1.879,3.661,3.124,5.809,3.74c1.611,0.458,2.396,1.13,2.358,2.011c-0.039,0.883-0.632,1.729-1.784,2.531
				c-1.148,0.807-2.703,1.438-4.659,1.899c-1.955,0.459-4.045,0.555-6.269,0.288c-2.226-0.271-4.469-1.056-6.73-2.358
				C114.836,373.269,112.861,371.198,111.174,368.361z M107.378,328.554c0.843-4.063,2.014-8.052,3.509-11.963
				c1.495-3.91,3.259-7.61,5.292-11.101c2.031-3.489,4.314-6.652,6.846-9.492c2.53-2.837,5.292-5.251,8.282-7.247
				c-2.838,0.615-5.656,1.898-8.455,3.853c-2.802,1.956-5.6,4.412-8.398,7.364c-2.8,2.951-5.579,6.289-8.34,10.008
				c-2.761,3.721-5.562,7.612-8.398,11.678c1.687,0.998,3.336,2.07,4.946,3.22C104.274,326.026,105.843,327.252,107.378,328.554z"/>
			<path fill="#89BE37" d="M152.704,317.165c1.61,0.46,3.009,0.632,4.199,0.518c1.188-0.113,2.243-0.439,3.163-0.978
				c0.921-0.535,1.726-1.207,2.417-2.014c0.69-0.805,1.34-1.668,1.955-2.59c0.69-0.918,1.514-1.302,2.474-1.147
				c0.958,0.153,1.801,0.631,2.531,1.438c0.728,0.807,1.226,1.821,1.496,3.05c0.268,1.227,0.057,2.456-0.634,3.681
				c-0.076,0.077-0.114,0.154-0.114,0.23c-0.46,0.768-1.17,2.031-2.127,3.796c-0.96,1.765-1.977,3.605-3.05,5.521
				c-1.074,1.917-2.07,3.759-2.99,5.521c-0.92,1.768-1.573,3.03-1.956,3.798c-0.614,1.227-1.228,2.454-1.84,3.682
				c-0.615,1.227-1.094,2.319-1.438,3.277c-0.346,0.96-0.443,1.727-0.288,2.303c0.152,0.574,0.729,0.862,1.726,0.862
				c1.456,0,3.048-0.384,4.774-1.152c1.727-0.764,3.469-1.8,5.233-3.104c1.764-1.303,3.432-2.798,5.005-4.487
				c1.571-1.686,2.933-3.487,4.084-5.405c0.766-1.227,1.553-2.052,2.358-2.475c0.806-0.421,1.476-0.479,2.014-0.172
				c0.535,0.307,0.843,0.9,0.92,1.781c0.076,0.885-0.23,1.977-0.92,3.28c-1.305,2.377-3.106,4.853-5.407,7.419
				c-2.301,2.571-4.795,4.91-7.478,7.02c-2.688,2.109-5.408,3.854-8.168,5.233c-2.763,1.381-5.256,2.07-7.479,2.07
				c-3.682,0-5.792-1.61-6.328-4.831c-0.537-3.222,0.691-7.553,3.683-13c1.303-2.224,2.606-4.352,3.911-6.385
				c1.304-2.03,2.569-3.932,3.797-5.694c-1.995,1.304-4.084,2.185-6.27,2.646c-2.187,0.459-4.199,0.459-6.041,0
				c-1.075,2.068-2.301,3.911-3.681,5.521c-1.075,1.227-2.091,2.054-3.049,2.473c-0.959,0.423-1.687,0.479-2.186,0.175
				c-0.498-0.308-0.708-0.901-0.633-1.785c0.077-0.879,0.575-1.975,1.496-3.277c0.613-0.844,1.208-1.745,1.783-2.703
				s1.13-1.937,1.668-2.934c-1.229-1.229-1.938-2.685-2.128-4.373c-0.191-1.687-0.058-3.43,0.402-5.234
				c0.46-1.8,1.208-3.547,2.243-5.232s2.204-3.145,3.509-4.371c1.304-1.228,2.665-2.09,4.084-2.588
				c1.418-0.498,2.741-0.48,3.969,0.057c0.921,0.384,1.456,0.958,1.61,1.726c0.152,0.768,0.133,1.632-0.057,2.589
				c-0.193,0.961-0.519,1.977-0.979,3.049C153.509,315.021,153.086,316.093,152.704,317.165z"/>
			<path fill="#89BE37" d="M223.568,336.378c-1.306,1.766-2.703,3.164-4.199,4.199s-3.011,1.764-4.544,2.185
				c-1.536,0.423-3.069,0.575-4.603,0.461c-1.534-0.113-2.952-0.402-4.256-0.863c-1.458,2.303-3.088,4.413-4.889,6.33
				c-1.803,1.916-3.646,3.564-5.522,4.943c-1.88,1.381-3.759,2.475-5.637,3.28c-1.88,0.804-3.586,1.207-5.119,1.207
				c-2.686,0-4.966-0.938-6.845-2.817c-1.878-1.879-2.914-4.661-3.106-8.343c-0.189-3.68,0.674-8.262,2.589-13.744
				c1.917-5.482,5.368-11.87,10.354-19.156c3.451-5.062,6.806-9.337,10.066-12.826c3.259-3.489,6.328-6.229,9.203-8.227
				c2.876-1.994,5.481-3.221,7.822-3.682c2.339-0.46,4.274-0.189,5.811,0.807c2.53,1.688,3.049,4.447,1.553,8.283
				c-1.496,3.835-4.889,8.167-10.181,12.999c-1.535,1.381-3.222,2.799-5.062,4.256c-1.842,1.458-3.702,2.916-5.58,4.372
				c-1.88,1.459-3.738,2.855-5.58,4.198c-1.84,1.345-3.526,2.589-5.062,3.738c-1.075,2.147-1.938,4.298-2.588,6.442
				c-0.652,2.148-1.035,4.084-1.149,5.811c-0.116,1.727,0.058,3.183,0.519,4.371c0.46,1.189,1.226,1.938,2.301,2.242
				c1.148,0.387,2.281,0.387,3.394,0c1.111-0.383,2.146-0.958,3.106-1.725c0.958-0.768,1.82-1.649,2.588-2.646
				c0.765-0.997,1.381-1.956,1.84-2.877c-1.764-1.227-2.895-2.914-3.393-5.062c-0.5-2.146-0.211-4.37,0.862-6.672
				c0.612-1.381,1.38-2.568,2.3-3.566c0.921-0.995,1.879-1.782,2.877-2.356c0.995-0.577,1.993-0.938,2.99-1.095
				c0.996-0.152,1.879-0.075,2.646,0.23c2.146,0.844,3.431,2.551,3.854,5.119c0.421,2.57-0.748,6.08-3.509,10.524
				c1.61,0.538,3.374,0.654,5.292,0.347c1.916-0.308,3.412-1.342,4.487-3.105c0.765-1.227,1.609-2.031,2.531-2.417
				c0.921-0.383,1.667-0.421,2.243-0.114c0.575,0.31,0.881,0.903,0.919,1.785C224.927,334.097,224.488,335.153,223.568,336.378z
				 M215.168,298.415c-0.459-0.307-1.207-0.058-2.242,0.746c-1.036,0.807-2.264,2.014-3.682,3.624
				c-1.42,1.61-2.991,3.529-4.717,5.752c-1.727,2.227-3.509,4.526-5.351,6.903c2.302-1.916,4.505-3.815,6.615-5.694
				c2.108-1.879,3.911-3.604,5.407-5.177c1.496-1.571,2.626-2.896,3.394-3.971C215.36,299.529,215.551,298.798,215.168,298.415z"/>
			<path fill="#89BE37" d="M268.895,319.582c-0.77,1.457-1.631,3.012-2.59,4.658c-0.959,1.649-1.918,3.298-2.875,4.948
				c-0.961,1.648-1.88,3.239-2.762,4.772c-0.883,1.535-1.667,2.877-2.359,4.026c-0.689,1.227-1.342,2.434-1.956,3.624
				c-0.612,1.188-1.074,2.263-1.378,3.221c-0.31,0.96-0.387,1.744-0.23,2.359c0.153,0.613,0.729,0.92,1.727,0.92
				c1.38,0,2.949-0.383,4.716-1.152c1.764-0.764,3.526-1.8,5.291-3.104c1.765-1.303,3.435-2.797,5.005-4.487
				c1.57-1.685,2.935-3.487,4.086-5.405c0.763-1.227,1.552-2.052,2.356-2.475c0.806-0.421,1.475-0.479,2.013-0.172
				c0.534,0.307,0.845,0.9,0.921,1.781c0.075,0.885-0.229,1.977-0.921,3.28c-1.305,2.377-3.201,4.853-5.694,7.419
				c-2.492,2.571-5.118,4.91-7.878,7.02c-2.765,2.109-5.507,3.854-8.228,5.233c-2.722,1.381-4.967,2.07-6.729,2.07
				c-2.531,0-4.68-0.535-6.444-1.61c-1.765-1.072-2.76-2.763-2.991-5.062c-1.688,1.764-3.681,3.315-5.98,4.658
				c-2.301,1.345-4.91,2.014-7.824,2.014c-2.989,0-5.482-0.824-7.477-2.475c-1.994-1.646-3.336-3.813-4.026-6.497
				c-0.69-2.687-0.651-5.715,0.116-9.09c0.767-3.375,2.416-6.786,4.946-10.238c2.375-3.221,5.062-5.886,8.054-7.996
				c2.989-2.108,5.98-3.584,8.972-4.428c2.992-0.845,5.868-1.017,8.627-0.519c2.762,0.5,5.137,1.745,7.134,3.737
				c0.613-1.072,1.168-1.936,1.67-2.587c0.497-0.65,1.053-1.168,1.667-1.554c0.612-0.384,1.323-0.67,2.126-0.863
				c0.809-0.189,1.784-0.403,2.937-0.633c1.227-0.151,2.376-0.27,3.452-0.347c1.071-0.073,1.916,0.021,2.53,0.288
				c0.61,0.271,0.957,0.769,1.033,1.497C270.006,317.149,269.66,318.202,268.895,319.582z M232.425,347.076
				c3.221,0,6.401-1.686,9.547-5.061c3.146-3.375,6.06-7.938,8.744-13.689c-0.768-1.073-1.727-1.803-2.876-2.188
				c-1.307-0.46-2.802-0.554-4.485-0.288c-1.688,0.271-3.396,0.864-5.12,1.785c-1.726,0.918-3.396,2.127-5.004,3.623
				c-1.61,1.495-2.989,3.203-4.143,5.119c-0.767,1.305-1.284,2.608-1.553,3.911c-0.27,1.306-0.287,2.456-0.058,3.451
				c0.23,0.997,0.767,1.802,1.609,2.417C229.932,346.773,231.044,347.076,232.425,347.076z"/>
			<path fill="#89BE37" d="M311.917,296.458c3.911-0.535,7.535-1.015,10.873-1.438c3.334-0.421,5.809-0.823,7.417-1.207
				c1.229-0.23,2.016-0.135,2.36,0.285c0.345,0.424,0.362,1.057,0.058,1.899c-0.307,0.846-0.884,1.764-1.727,2.761
				c-0.846,0.997-1.822,1.955-2.934,2.876c-1.113,0.922-2.263,1.688-3.452,2.3c-1.188,0.617-2.282,0.922-3.276,0.922H305.36
				c-1.919,2.685-3.853,5.465-5.81,8.342c-1.956,2.875-3.7,5.464-5.233,7.766c-1.688,2.531-3.185,5.233-4.487,8.108
				c-1.306,2.878-2.32,5.542-3.047,7.996c-0.73,2.456-1.151,4.585-1.268,6.385c-0.115,1.804,0.175,2.934,0.862,3.394
				c0.921,0.615,2.128,0.768,3.624,0.461c1.497-0.306,3.144-1.017,4.948-2.128c1.799-1.109,3.681-2.604,5.637-4.486
				c1.957-1.88,3.853-4.121,5.693-6.729c0.765-1.227,1.571-2.031,2.418-2.417c0.842-0.383,1.53-0.438,2.068-0.172
				c0.537,0.271,0.822,0.844,0.862,1.725c0.036,0.885-0.325,1.977-1.093,3.28c-1.839,3.146-3.932,6.038-6.271,8.687
				c-2.341,2.646-4.793,4.929-7.359,6.845c-2.572,1.919-5.2,3.433-7.884,4.544c-2.685,1.113-5.291,1.668-7.821,1.668
				c-2.688,0-4.853-0.938-6.5-2.817c-1.649-1.879-2.416-4.661-2.302-8.343c0.115-3.68,1.246-8.262,3.394-13.744
				c2.146-5.482,5.714-11.87,10.699-19.156c0.844-1.226,1.783-2.646,2.819-4.256c1.034-1.609,2.165-3.259,3.393-4.947h-10.696
				c-0.921,0-1.4-0.267-1.438-0.805c-0.038-0.535,0.172-1.151,0.633-1.842c0.46-0.688,1.129-1.322,2.014-1.898
				c0.88-0.573,1.82-0.898,2.816-0.977c2.915-0.307,5.964-0.958,9.146-1.955c3.184-0.996,5.771-1.917,7.767-2.763
				c1.688-0.69,3.432-1.359,5.235-2.015c1.798-0.649,3.296-1.034,4.485-1.148c1.188-0.114,1.856,0.134,2.013,0.748
				c0.154,0.615-0.615,1.839-2.3,3.682L311.917,296.458z"/>
			<path fill="#89BE37" d="M331.821,314.634c2.762,0,5.119,0.559,7.076,1.67c1.952,1.112,3.449,2.608,4.483,4.485
				c1.036,1.881,1.61,4.104,1.728,6.672c0.113,2.571-0.289,5.313-1.21,8.226c0.768,0.462,1.688,0.847,2.763,1.152
				c1.073,0.307,2.167,0.421,3.279,0.343c1.108-0.073,2.186-0.362,3.22-0.859c1.036-0.498,1.898-1.285,2.59-2.359
				c0.767-1.227,1.609-2.031,2.53-2.417c0.921-0.383,1.668-0.421,2.243-0.114c0.574,0.31,0.878,0.903,0.919,1.785
				c0.04,0.881-0.4,1.937-1.32,3.162c-1.382,1.917-2.897,3.394-4.544,4.428c-1.651,1.036-3.318,1.747-5.007,2.128
				c-1.688,0.387-3.334,0.48-4.943,0.289c-1.613-0.19-3.069-0.633-4.373-1.323c-1.305,2.379-2.838,4.563-4.604,6.558
				c-1.765,1.996-3.681,3.721-5.752,5.177c-2.069,1.459-4.274,2.589-6.613,3.396c-2.34,0.804-4.7,1.206-7.075,1.206
				c-2.839,0-5.254-0.574-7.247-1.726c-1.997-1.149-3.511-2.703-4.544-4.658c-1.036-1.956-1.572-4.275-1.61-6.962
				c-0.039-2.683,0.44-5.521,1.438-8.512c0.997-2.99,2.396-5.811,4.197-8.456c1.801-2.646,3.894-4.946,6.269-6.901
				c2.377-1.956,4.929-3.51,7.652-4.659C326.086,315.209,328.905,314.634,331.821,314.634z M323.422,346.158
				c2.685,0,5.156-0.864,7.421-2.589c2.26-1.728,4.044-3.932,5.35-6.615c-1.076-1.381-1.822-2.742-2.243-4.084
				c-0.424-1.341-0.672-2.626-0.749-3.855c-0.076-1.225,0.021-2.355,0.29-3.392c0.267-1.036,0.554-1.974,0.86-2.82
				c-0.384-0.15-0.825-0.266-1.322-0.343c-0.499-0.078-1.019-0.117-1.553-0.117c-3.221,0-6.062,1.152-8.516,3.452
				c-2.452,2.302-4.255,5.103-5.404,8.396c-1.076,3.3-1.15,6.116-0.229,8.457C318.244,344.988,320.275,346.158,323.422,346.158z"/>
			<path fill="#89BE37" d="M377.836,319.582c-4.066,5.676-7.134,10.315-9.203,13.92c-2.072,3.605-3.452,6.423-4.142,8.456
				c-0.69,2.031-0.825,3.433-0.402,4.199c0.421,0.766,1.092,1.148,2.013,1.148c1.455,0,2.78-0.421,3.971-1.267
				c1.188-0.842,2.317-1.954,3.391-3.336c1.076-1.381,2.131-2.972,3.167-4.772c1.035-1.803,2.128-3.664,3.277-5.58
				c0.921-1.994,1.764-3.814,2.53-5.465c0.768-1.646,1.569-3.277,2.415-4.888c0.69-1.457,1.323-2.609,1.898-3.453
				c0.574-0.844,1.188-1.495,1.841-1.955c0.649-0.461,1.398-0.785,2.242-0.979c0.844-0.189,1.879-0.403,3.106-0.634
				c1.228-0.15,2.375-0.269,3.451-0.346c1.072-0.074,1.916,0.021,2.531,0.288c0.611,0.271,0.957,0.768,1.034,1.497
				c0.075,0.729-0.268,1.782-1.034,3.163c-0.767,1.457-1.631,3.012-2.59,4.658c-0.959,1.649-1.897,3.298-2.818,4.947
				c-0.918,1.649-1.821,3.24-2.703,4.773c-0.882,1.535-1.667,2.877-2.355,4.026c-0.692,1.227-1.344,2.434-1.957,3.624
				c-0.614,1.188-1.092,2.263-1.438,3.221c-0.346,0.96-0.423,1.744-0.229,2.359c0.189,0.613,0.747,0.92,1.667,0.92
				c1.457,0,3.05-0.384,4.772-1.152c1.727-0.764,3.471-1.8,5.233-3.104c1.765-1.303,3.452-2.798,5.062-4.487
				c1.61-1.686,2.992-3.487,4.143-5.405c0.767-1.227,1.554-2.052,2.359-2.475c0.805-0.421,1.477-0.479,2.013-0.172
				s0.842,0.9,0.923,1.781c0.075,0.885-0.271,1.977-1.036,3.28c-1.307,2.377-3.187,4.853-5.637,7.419
				c-2.456,2.571-5.082,4.91-7.883,7.02s-5.541,3.854-8.225,5.233c-2.688,1.381-4.946,2.07-6.788,2.07
				c-2.686,0-4.967-0.632-6.845-1.898c-1.88-1.265-2.743-3.276-2.588-6.038c-2.303,2.687-4.68,4.68-7.132,5.98
				c-2.456,1.306-4.874,1.956-7.247,1.956c-3.605,0-5.927-1.304-6.962-3.912c-1.036-2.605-0.939-6.096,0.289-10.468
				c1.227-4.293,2.837-8.301,4.829-12.021c1.995-3.721,3.987-6.961,5.982-9.72c0.918-1.306,1.744-2.378,2.473-3.224
				c0.729-0.843,1.456-1.515,2.188-2.014c0.727-0.498,1.533-0.861,2.414-1.093c0.882-0.229,1.975-0.461,3.281-0.69
				c1.225-0.15,2.337-0.248,3.334-0.287c0.996-0.037,1.744,0.1,2.244,0.402c0.5,0.309,0.708,0.807,0.634,1.496
				C379.255,317.281,378.756,318.279,377.836,319.582z"/>
		</g>
	</g>
	
	<g>
		<path fill="#6E4927" d="M411.217,357.429c0-1.219,0.432-2.262,1.298-3.127c0.864-0.865,1.889-1.298,3.067-1.298
			c1.219,0,2.262,0.433,3.127,1.298s1.299,1.908,1.299,3.127c0,1.181-0.434,2.203-1.299,3.067c-0.865,0.866-1.908,1.299-3.127,1.299
			c-1.18,0-2.203-0.433-3.067-1.299C411.649,359.632,411.217,358.61,411.217,357.429z"/>
		<path fill="#6E4927" d="M452.547,340.85c0.825,0.236,1.543,0.324,2.153,0.267c0.608-0.061,1.149-0.228,1.622-0.502
			s0.885-0.619,1.238-1.032c0.354-0.413,0.688-0.854,1.003-1.327c0.354-0.473,0.776-0.669,1.27-0.591
			c0.491,0.08,0.924,0.325,1.298,0.738c0.373,0.413,0.629,0.935,0.768,1.563c0.138,0.629,0.029,1.259-0.324,1.888
			c-0.197,0.354-0.541,0.983-1.032,1.889c-0.492,0.904-1.014,1.857-1.563,2.86c-0.552,1.005-1.082,1.978-1.593,2.922
			c-0.512,0.943-0.866,1.612-1.062,2.006c-0.315,0.63-0.63,1.26-0.943,1.889c-0.315,0.629-0.561,1.189-0.738,1.681
			c-0.177,0.492-0.227,0.887-0.146,1.182s0.374,0.441,0.886,0.441c0.746,0,1.563-0.195,2.448-0.59
			c0.885-0.393,1.778-0.924,2.685-1.594c0.904-0.668,1.76-1.436,2.566-2.301c0.806-0.864,1.504-1.789,2.095-2.772
			c0.393-0.629,0.796-1.052,1.209-1.269c0.413-0.216,0.757-0.245,1.032-0.089c0.274,0.156,0.433,0.463,0.473,0.915
			c0.038,0.451-0.118,1.013-0.473,1.681c-0.669,1.22-1.593,2.488-2.772,3.806c-1.18,1.318-2.459,2.519-3.835,3.601
			c-1.378,1.082-2.772,1.977-4.188,2.685s-2.694,1.063-3.835,1.063c-1.889,0-2.971-0.826-3.245-2.479
			c-0.275-1.652,0.354-3.874,1.889-6.667c0.668-1.141,1.336-2.231,2.006-3.274c0.668-1.041,1.317-2.016,1.947-2.921
			c-0.905,0.591-1.879,1.023-2.921,1.299c-1.043,0.274-2.017,0.335-2.921,0.177l-0.53,0.768c-1.378,2.124-2.754,3.806-4.131,5.044
			c-1.377,1.239-2.665,1.938-3.864,2.096c-1.2,0.156-2.242-0.274-3.127-1.299c-0.885-1.021-1.504-2.714-1.857-5.073
			c-0.552,0.708-1.082,1.85-1.594,3.422c-0.512,1.574-1.062,3.245-1.651,5.016c-0.395,1.18-0.905,2.271-1.534,3.274
			s-1.671,1.778-3.127,2.33c-0.59,0.235-1.219,0.48-1.888,0.736c-0.669,0.257-1.239,0.374-1.712,0.354
			c-0.472-0.021-0.767-0.246-0.885-0.679c-0.118-0.435,0.1-1.221,0.648-2.36c0.512-1.102,1.142-2.518,1.889-4.248
			s1.593-3.628,2.537-5.693c0.943-2.063,1.985-4.248,3.127-6.549c1.14-2.301,2.369-4.572,3.688-6.813
			c1.316-2.242,2.702-4.396,4.158-6.461c1.455-2.064,2.988-3.902,4.603-5.517c1.021-1.021,2.024-1.721,3.01-2.095
			c0.982-0.374,1.848-0.481,2.596-0.324c0.746,0.157,1.348,0.541,1.801,1.15c0.45,0.609,0.657,1.367,0.618,2.271
			c-0.04,0.708-0.314,1.583-0.825,2.625c-0.513,1.043-1.181,2.185-2.007,3.422c-0.825,1.239-1.761,2.528-2.803,3.865
			s-2.095,2.625-3.156,3.864s-2.074,2.409-3.038,3.511c-0.965,1.103-1.8,2.025-2.508,2.772c0.746,1.102,1.476,1.869,2.184,2.301
			c0.708,0.434,1.426,0.59,2.152,0.473c0.729-0.118,1.484-0.48,2.271-1.092c0.787-0.608,1.632-1.406,2.537-2.39
			c-0.708-0.864-0.975-1.978-0.796-3.333c0.177-1.357,0.608-2.626,1.298-3.807c0.688-1.181,1.534-2.113,2.537-2.803
			c1.003-0.688,1.977-0.835,2.92-0.442c0.473,0.197,0.738,0.442,0.797,0.737s0.029,0.641-0.089,1.032
			c-0.118,0.394-0.306,0.817-0.562,1.269C452.968,339.798,452.743,340.299,452.547,340.85z M439.035,342.562
			c0.511-0.591,1.16-1.357,1.946-2.302c0.786-0.943,1.604-1.946,2.448-3.009c0.846-1.062,1.683-2.144,2.508-3.245
			c0.826-1.101,1.555-2.114,2.184-3.039c0.629-0.924,1.102-1.72,1.416-2.39c0.313-0.668,0.394-1.102,0.235-1.298
			c-0.314-0.354-0.876-0.138-1.682,0.648c-0.807,0.787-1.721,1.929-2.743,3.422c-1.022,1.495-2.095,3.235-3.216,5.223
			C441.011,338.559,439.979,340.555,439.035,342.562z"/>
	</g>
	<g>
		<path fill="#89BE37" d="M409.217,355.429c0-1.219,0.432-2.262,1.298-3.127c0.864-0.865,1.889-1.298,3.067-1.298
			c1.219,0,2.262,0.433,3.127,1.298s1.299,1.908,1.299,3.127c0,1.181-0.434,2.203-1.299,3.067c-0.865,0.866-1.908,1.299-3.127,1.299
			c-1.18,0-2.203-0.433-3.067-1.299C409.649,357.632,409.217,356.61,409.217,355.429z"/>
		<path fill="#89BE37" d="M450.547,338.85c0.825,0.236,1.543,0.324,2.153,0.267c0.608-0.061,1.149-0.228,1.622-0.502
			s0.885-0.619,1.238-1.032c0.354-0.413,0.688-0.854,1.003-1.327c0.354-0.473,0.776-0.669,1.27-0.591
			c0.491,0.08,0.924,0.325,1.298,0.738c0.373,0.413,0.629,0.935,0.768,1.563c0.138,0.629,0.029,1.259-0.324,1.888
			c-0.197,0.354-0.541,0.983-1.032,1.889c-0.492,0.904-1.014,1.857-1.563,2.86c-0.552,1.005-1.082,1.978-1.593,2.922
			c-0.512,0.943-0.866,1.612-1.062,2.006c-0.315,0.63-0.63,1.26-0.943,1.889c-0.315,0.629-0.561,1.189-0.738,1.681
			c-0.177,0.492-0.227,0.887-0.146,1.182s0.374,0.441,0.886,0.441c0.746,0,1.563-0.195,2.448-0.59
			c0.885-0.393,1.778-0.924,2.685-1.594c0.904-0.668,1.76-1.436,2.566-2.301c0.806-0.864,1.504-1.789,2.095-2.772
			c0.393-0.629,0.796-1.052,1.209-1.269c0.413-0.216,0.757-0.245,1.032-0.089c0.274,0.156,0.433,0.463,0.473,0.915
			c0.038,0.451-0.118,1.013-0.473,1.681c-0.669,1.22-1.593,2.488-2.772,3.806c-1.18,1.318-2.459,2.519-3.835,3.601
			c-1.378,1.082-2.772,1.977-4.188,2.685s-2.694,1.063-3.835,1.063c-1.889,0-2.971-0.826-3.245-2.479
			c-0.275-1.652,0.354-3.874,1.889-6.667c0.668-1.141,1.336-2.231,2.006-3.274c0.668-1.041,1.317-2.016,1.947-2.921
			c-0.905,0.591-1.879,1.023-2.921,1.299c-1.043,0.274-2.017,0.335-2.921,0.177l-0.53,0.768c-1.378,2.124-2.754,3.806-4.131,5.044
			c-1.377,1.239-2.665,1.938-3.864,2.096c-1.2,0.156-2.242-0.274-3.127-1.299c-0.885-1.021-1.504-2.714-1.857-5.073
			c-0.552,0.708-1.082,1.85-1.594,3.422c-0.512,1.574-1.062,3.245-1.651,5.016c-0.395,1.18-0.905,2.271-1.534,3.274
			s-1.671,1.778-3.127,2.33c-0.59,0.235-1.219,0.48-1.888,0.736c-0.669,0.257-1.239,0.374-1.712,0.354
			c-0.472-0.021-0.767-0.246-0.885-0.679c-0.118-0.435,0.1-1.221,0.648-2.36c0.512-1.102,1.142-2.518,1.889-4.248
			s1.593-3.628,2.537-5.693c0.943-2.063,1.985-4.248,3.127-6.549c1.14-2.301,2.369-4.572,3.688-6.813
			c1.316-2.242,2.702-4.396,4.158-6.461c1.455-2.064,2.988-3.902,4.603-5.517c1.021-1.021,2.024-1.721,3.01-2.095
			c0.982-0.374,1.848-0.481,2.596-0.324c0.746,0.157,1.348,0.541,1.801,1.15c0.45,0.609,0.657,1.367,0.618,2.271
			c-0.04,0.708-0.314,1.583-0.825,2.625c-0.513,1.043-1.181,2.185-2.007,3.422c-0.825,1.239-1.761,2.528-2.803,3.865
			s-2.095,2.625-3.156,3.864s-2.074,2.409-3.038,3.511c-0.965,1.103-1.8,2.025-2.508,2.772c0.746,1.102,1.476,1.869,2.184,2.301
			c0.708,0.434,1.426,0.59,2.152,0.473c0.729-0.118,1.484-0.48,2.271-1.092c0.787-0.608,1.632-1.406,2.537-2.39
			c-0.708-0.864-0.975-1.978-0.796-3.333c0.177-1.357,0.608-2.626,1.298-3.807c0.688-1.181,1.534-2.113,2.537-2.803
			c1.003-0.688,1.977-0.835,2.92-0.442c0.473,0.197,0.738,0.442,0.797,0.737s0.029,0.641-0.089,1.032
			c-0.118,0.394-0.306,0.817-0.562,1.269C450.968,337.798,450.743,338.299,450.547,338.85z M437.035,340.562
			c0.511-0.591,1.16-1.357,1.946-2.302c0.786-0.943,1.604-1.946,2.448-3.009c0.846-1.062,1.683-2.144,2.508-3.245
			c0.826-1.101,1.555-2.114,2.184-3.039c0.629-0.924,1.102-1.72,1.416-2.39c0.313-0.668,0.394-1.102,0.235-1.298
			c-0.314-0.354-0.876-0.138-1.682,0.648c-0.807,0.787-1.721,1.929-2.743,3.422c-1.022,1.495-2.095,3.235-3.216,5.223
			C439.011,336.559,437.979,338.555,437.035,340.562z"/>
	</g>
</g>
</svg>
