<?xml version="1.0" encoding="utf-8"?>
<!-- Generator: Adobe Illustrator 18.1.0, SVG Export Plug-In . SVG Version: 6.00 Build 0)  -->
<svg version="1.1" id="Calque_1" xmlns="http://www.w3.org/2000/svg" xmlns:xlink="http://www.w3.org/1999/xlink" x="0px" y="0px"
	 viewBox="-18 210.9 1117 298.9" enable-background="new -18 210.9 1117 298.9" xml:space="preserve">
<g id="Calque_4">
</g>
<g>
	<g id="vatz3E_1_">
		<g>
			<path fill="#6E4927" d="M174.7,407.8c-1.1,2.8-1.9,5.6-1.4,8.8c-1.2-1.6-2.3-3.3-4.2-4c-3.4-2.9-4.3-2.6-6.5,0.8
				c-1.4,2.1-1.2,4.9-3.4,6.6c-2.1-4.3-4.1-8.5-6.1-12.6c-0.4-0.8,0.6-3.4-1.1-2.2c-2.3,1.6-5,2.8-6.9,5c-1.8,0.4-2.4,2.6-4.6,2.8
				c1.1-5.7,1.3-11.4,4.4-16.5c1.5-1.1,3-2.1,4.8-3.4c-1.7-0.5-3-0.6-4.4-0.2c-2.4-0.9-5-0.7-7.5-1.1c0-1.1,0.5-1.7,1.3-2.3
				c2.6-1.9,2.4-1.8-0.1-4c-2.4-2-5.3-3.4-7.5-6c2.2-0.3,4.3,0.3,6.4-0.6c-2.4-2.4-4.5-4.7-6.7-6.9c0.1-1.7-1.2-2.7-2.1-3.8
				c-1.4-1.7,0-1.7,1-2c1.9,0.4,3.8,1.7,5.8,0.5c0.7,1.1,1.8,1.2,2.7,0.8c1.1-0.4,0.3-1.4,0.2-2.2c-0.2-3.4-1-6.7-0.7-10.6
				c2.1,3.2,4.9,4.7,7.2,6.7c1.5,1.4,4.6,0.8,5.7-0.9c0.3-0.5,0.2-0.9-0.2-1.2c-3.8-2.8-4.9-8.1-9.4-10.3c-0.4-0.2-1.2-0.7-0.4-1.2
				c2.5-1.7-0.1-2.4-0.7-3.3c-0.5-0.9-2.1-0.9-2.3-2.3c3.7-0.9,3.7-0.9,1.6-4.3c-0.8-1.3-1.6-2.7-2.3-3.8c-2.3,2.6-3.9,5.6-4.8,8.9
				c0,0-0.5,0-0.8-0.1c-0.6-1.3-1.1-2.7-1.7-4c-0.1-1.4-0.7-2.6-1.3-3.9c-1.1,0.9-0.7,2.5-1.7,3.2c-1.2-0.4-1-1.8-2-2.2
				c-0.3,1.1,0.1,2.3-0.9,3.2c-1.2-0.5-1.3-2.3-2.9-2.5c-0.5,2.9,0,5.8-1.3,8.8c-2.6-3.1-5.1-6-7.8-9.3c-1.1,5.2-2.2,9.6-2.1,14.3
				c-1.8-2-2.9-4.6-5-6.4c-0.7-2.4-2.1-4.5-3.3-6.6c-0.1-0.6-0.2-1.2-0.8-1.3c-0.7-0.1-0.8,0.7-0.9,1.1c-0.2,0.9-0.2,1.8-0.3,2.7
				c-1.2-0.3-1.1-1.2-1.2-2c-0.1-0.4-0.2-0.7-0.4-1.1c-0.7-1.5-2.3-1.5-3.4-1.3c-0.9,0.1-0.4,1.6-0.4,2.5c0,0.9,0.7,1.8-0.4,2.5
				c-2,0.3-3.1-1.2-4.3-2.3c-3.2-2.8-6.7-4.8-10.7-6.4c-4.1-1.6-6.9-2.7-6.3-8.7c0.2-2.1-0.3-4.3,0.5-6.4c0.2-0.4,0.2-1-0.2-1.3
				c-0.5-0.4-1.3-0.1-1.5,0.4c-1.1,2.1-3,3-6,3.5c4,1.8,4.1,4.7,4.1,7.7c0,2.4,0.8,4.7,3.2,5.8c3.3,1.5,6.6,3.1,10,4.2
				c1.5,0.5,2.1,1.2,2.7,2.4c-0.7,4.3-0.4,4.5,3.7,3.3c1.9,0.7,3.7,1.3,5.6,2c-0.1,1.2-0.2,2.5,1.3,3.1c0.8,0.3,1.6,0.4,2.4,0.6
				c0.8,0.2,1.8,0.3,1.9,1.3c0.1,1-0.9,1-1.6,1.3c-0.7,0.4-1.6,0.5-2,1.8c3.5,0.9,7,1.8,10.5,2.7c0.7,0.6,0.9,1.4,1.2,2.2
				c-3.7,1.7-7.5,3.4-11.5,5.3c4.4,4.2,6.7,9.5,11.4,13.8c-4.1-0.7-7.6-1.1-11.1-1.9c-1.8-0.4-1.9,0.1-1.8,1.6
				c0.3,3,0.2,5.9,1.2,9.5c-3.8-2.4-6.6-5-9.4-7.5c0.5-3.9,3.8-6.6,4.6-10.5c-2.4-0.1-3.3,1.6-3.6,3.3c-0.4,1.9-1.3,3.4-2.7,4.6
				c-1.6-1.7-3.9-1.6-6.5,0.2c-0.9,0.3-1.6,0.8-1.9,1.8c-1.3,0.3-0.6,1.1-0.4,1.7c1.2,3.1,2,6.5,4.2,10c-4.1-1.4-7.2-3-10.3-4.7
				c-0.6-0.3-1.5-1.2-1.7,0.1c-0.5,3.1-1.8,6.1-1,9.4c-2,2.4-1.8-1-2.9-1.1c-0.2-2.2-2.5-3.2-3.2-5.1c-0.8-2.2-2.2-2.9-4.2-1.1
				c-0.7,0.6-1.6,1-2.4,1.5c-1,0.6-0.5,1.2-0.1,1.8c0.1,1.8,2.5,1.5,2.9,3c0.9,1.5,2.3,2.5,3.7,3.4c0.3,1.3-0.2,1.7-1.4,1.4
				c-1.5-0.5-3.1-0.4-4.6,0.1c-2.6-0.4-5.3-0.2-7.9-0.1c-1.6,0.1-2.7,0.5-1.9,2.6c1.1,2.8,0.7,6,2,8.8c0.2,0.3,0.1,1-0.2,1.3
				c-0.4,0.5-1.2,0.3-1.5-0.1c-4.1-4.2-10.5-3.5-14.8-7.1c-1.1-0.9-1.5,0-1.7,0.9c-0.4,1.7-0.7,3.5-2,4.9c-1.4-4.7-4.6-8.6-6-13.2
				c-0.5-1.6-1.5-0.7-2.2-0.2c-2.1,1.4-4.2,2.8-6.8,4.6c0.7-3.3,1.3-6.1,1.9-8.9c0.1-0.6,0.7-1.3,0.2-1.9c-0.6-0.8-1.4-0.1-2.1,0.1
				c-2.8,0.8-5.5,1.7-8.5,2.6c0.5-2.7,2-4.8,3.3-6.8c1.6-2.6,0.8-3-1.6-2.9c-0.4,0-0.7-0.2-1.2-0.3c0.2-1.3,1.9-1.3,2-2.6
				c-2.4-0.9-5.1-0.4-7.8-1.3c2.6-2.5,5.4-4.5,8.6-6.8c-4-1.5-7.7-2-11.9-2.9c4.1-3,8-5.3,12.5-7.3c-0.8-0.7-1.3-1.2-2.3-1.9
				c5.1-2,10-2.9,15.7-3.2c-3.5-3.1-7.2-3.8-11.8-4c4.7-2,9-1.8,13.2-1.4c2.1,0.2,3,0.7,2.4-2.5c-0.6-2.8-0.5-6.1-0.4-9.3
				c1.8,1.9,3.4,3.8,5.6,5.1c0.8,0.5,1.7,0.6,2.3,0c0.7-0.8-0.3-1.3-0.8-1.8c-2.1-2-2.4-4.9-4.1-7.2c-1-1.4-1.5-1.4-2.4-0.3
				c-1.5,1.8-2.9,3.6-4.5,5.7c-0.9-4-1.4-7.9-1.3-11.8c0.1-3-0.1-3-2.9-1.3c0.8-6.2,1.7-12.1,5.6-17.9c-5.3,3.4-9,7-10.6,12
				c0.2-5.5,2.5-11.5,6.7-16.8c0.4-0.5,1.5-1,1-1.8c-0.4-0.7-1.4-0.4-2.1-0.5c-2.5-0.5-5.2,0.2-8.1-1c5.2-3.6,9-8.3,14.7-11
				c-2.5-1.1-4.7-0.2-6.9-0.5c-0.2-0.2-0.4-0.3-0.5-0.5c2.6-3.6,5.9-6.5,9.1-9.4c-0.6-1.2-1.9-0.3-2.6-1.6
				c5.4-3.1,10.6-6.6,17.8-6.9c-3.7-2.8-7.3-4.6-9.4-8c3.6,2.8,7.7,3.6,12.1,3.7c0.6,0,1.5,0.4,1.7-0.5c0.2-0.9-0.7-1.3-1.3-1.6
				c-2.1-0.9-4.1-1.7-6.1-3.4c5.3,0.3,9.3-2.7,13.9-3.9c4.6-1.2,4.5-1.4,2.7-6c-0.2-0.5-0.7-1.2-0.1-1.8c0.7-0.8,1.1-0.1,1.7,0.3
				c0.3,0.2,0.6,0.4,1,0.5c4.6,2,4.6,1.9,4.6-2.9c0-3,0.3-5.9,0.4-9.4c3.4,3.7,6.4,6.9,9.5,10.2c0.4,0.4,0.5,1.5,1.3,1.2
				c0.7-0.3,0.9-1.2,0.8-2c0-1.5-0.8-2.9-0.2-4.7c2.1,2.8,3.5,1.8,5-0.4c1.3-1.9,3.2-3.4,4-5.6c1.3,0.7,0.9,1.9,1.6,2.6
				c3-5,7.6-8.6,11.8-13.8c0,4,0.1,7.3,0,10.5c-0.1,1.6,0.4,2,1.9,1.6c2.2-0.6,4.4-1.1,6.5-1.6c0.6-0.2,1.3-0.7,1.7,0.1
				c0.2,0.4-0.1,1.1-0.3,1.6c-1.3,2.8-1.2,3,1.9,3c1.2,0,3.2-0.7,2.4,1.9c-0.1,0.2,0,0.7,0.2,0.8c2,1.3,3.2,3.6,5.2,4.7
				s4.4,1.5,5.3,4.1c0.4,1.1,0.7,0.5,1.1,0.1c0.6-0.8,2.6,0.6,2.2-1.6c-0.3-1.7,0.6-1.8,1.8-1.1c2.7,1.5,4.3,1,5.7-2.2
				c1.2-2.8,2.9-5.4,3.6-9.2c0.7,1.5,0.2,2.7,1.6,2.9c1.7-2.7,3.5-5.5,5.7-8.8c0.8,3.3,1.5,6,2.2,8.9c3.9-2.8,7.8-5.3,12.8-7.1
				c-3.1,8.5-3.7,18-15,19.7c-0.7-0.5,1.1-1.6,0-2.6c-1.5,1.6-3.4,2.8-3.7,5.6c1.7-0.6,3.2-1.4,4.7-1.8c6.4-2,10.7,2.2,15.5,4.9
				c1.1,0.6,1.1,1.5-0.4,1.8c-2.4,0.6-4.8,1.2-7.1,1.8c-1,0.3-2.1,0.4-2.9,0.9c-1.1,0.7-2.6,1.6-2.4,2.8c0.1,1,1.9,0.7,2.9,1.1
				c3,1.4,5.6,0.6,8.6-0.6c4-1.6,8.3-2.4,12.5-3.6c0.2,0.2,0.4,0.4,0.6,0.6c-1.3,2.5-2.4,5-3.9,7.4c-0.8,1.4-0.9,2,0.8,2.6
				c4,1.3,7.7,3,11,5.6c0.3,0.2,0.5,0.5,0.6,1c-3.7-0.8-7.4-1.7-11.7-0.6c1.8,1.1,3.1,2.1,4.5,2.7c3.1,1.1,5.1,3.8,7.8,5.5
				c0.8,0.5,2,1.5-0.3,2.2c-1.7,0.5-0.2,1.7,0.2,2c2.5,2.1,3.8,5.1,5.7,7.7c0.7,0.9,1.6,1.9,1.2,3.3l0-0.1
				c-3.4-0.8-6.8-1.5-10.2-2.3c-1.6-0.4-2,0.1-1.2,1.5c1.5,2.8,3.1,5.5,4.8,8.6c-3.2,0.1-5.7-2.1-8.6-2c-0.2,1.4,1.1,1.9,1.1,3.2
				c-2.5,0.5-4.3-1.6-6.7-1.6c-0.7,0-1.3-0.4-1.7,0.4c-0.4,0.9,0.3,1.1,0.9,1.4c3.6,2.2,7.1,4.5,10.3,7.3c1.1,1,3,2.1,4.4-0.4
				c1.4-2.5,2.8-5.5,4.8-7.2c1.9-1.5,2.2-3.3,3.3-5.6c1,4.5,3.6,7.5,6,11.3c1.2-3.7,2.2-6.9,3.3-10.2c1.8,2,2.4,4.6,4.2,6.9
				c0.4-1.1,0.8-2.1,1.5-3.8c1.3,5.7,5.7,9.7,4.1,15.6c-0.6,2.2,0.4,4.2,1.3,7.3c2.8-6.7,5.5-12.5,12.1-15.2
				c0.7,0.5-0.4,1.7,0.5,2.4c2.1-0.9,3.7-2.7,5.9-4.2c0,3.4-0.3,6.5-0.9,10.3c2.9-1.9,5.2-3.4,7.5-4.9c0.6-0.4,1.3-1.2,1.9-0.8
				c0.8,0.5,0.4,1.5,0.2,2.3c-0.7,2.6-0.8,5.4-2,7.9c-1,2.2-0.6,2.4,1.9,1.9c0.4,1-0.3,1.9-0.8,2.5c-1.1,1.5-1.4,3,0.1,4.2
				c3.2,2.5,2.4,6.4,3.6,9.9c4.8-6.4,11.9-5.6,19-6.7c-2.2,2.9-3.9,5.3-5.9,7.5c-1.6,1.8-0.9,2.2,1,2.5c1.2,0.2,2.5,0.1,3.6,1.3
				c-5,2.4-8.8,6.8-15.1,8.2c3.3,2,4.5,5.4,8.5,6.1c4.1,0.8,6.8,4.4,9.8,7.2c-0.8,1.1-2.1,0.4-3,1.1c0.7,1.8,2.7,2.2,3.7,3.6
				c0.4,0.5,1.2,0.8,0.9,1.6c-0.3,0.6-1,0.4-1.5,0.4c-2.5,0.2-5.1,0.4-7.9,0.6c1.1,2.6,3.4,4,5,5.9c0.6,0.7,1.8,1.4,1.5,2.2
				c-0.5,1.2-1.8,0.4-2.8,0.4c-3.2-0.1-6.4-0.2-9.4-1c-1.2,0.8,0.8,1.9-0.4,2.4c-0.9,0.4-1.8-0.3-2.7-0.6c-3.4-1.3-6.8-2.6-10.6-4
				c1,3.1,3.5,4.9,4.7,7.8c-3.5-0.4-5.8-2.5-8.2-4.4c-3.4-2.6-3.3-2.8-5.5,1c-0.7,1.1-1.2,2.3-1.9,3.5c-0.3,0.5-0.6,1.1-1.3,1
				c-0.7-0.1-0.6-0.8-0.8-1.3c-0.4-1.1-0.7-2.3-1.2-4.1c-0.6,2-0.5,3.4-0.3,4.8c0.1,0.6,0.2,1.4-0.5,1.8c-0.7,0.3-0.9-0.5-1.2-0.9
				c-2.1-2-4.3-3.9-6.6-6c0.1,0.5,0,0.7,0.1,0.9c0.4,1.1,2,2.2,1.2,3.2c-0.8,1.2-2.2,0.1-3.4-0.3c-1.4-0.4-1.6,0.5-1.6,1.5
				c0,2,0.1,3.9,0.2,5.9c0,0.9,0.3,1.9-0.7,2.8c-2-3.2-5.6-4.9-7.7-8.1c-1-1.6-2.5-2.5-4.5-1.8c-3.9-0.9-7.2,0.7-10.3,2.7
				c-1.1,0.7-2,1.9-3.4,0.8c0.1-0.3,0.2-0.5,0.3-0.8c1.1-2.7,0-4.7-2.8-5.3c-0.9-0.2-1.2,0.1-1.1,1c0,2.4,0,4.9,0,7.3
				C175.3,404.7,174.3,406.1,174.7,407.8z"/>
		</g>
	</g>
	<g id="vatz3E_2_">
		<g>
			<path fill="#89BE37" d="M165.7,402.8c-1.1,2.8-1.9,5.6-1.4,8.8c-1.2-1.6-2.3-3.3-4.2-4c-3.4-2.9-4.3-2.6-6.5,0.8
				c-1.4,2.1-1.2,4.9-3.4,6.6c-2.1-4.3-4.1-8.5-6.1-12.6c-0.4-0.8,0.6-3.4-1.1-2.2c-2.3,1.6-5,2.8-6.9,5c-1.8,0.4-2.4,2.6-4.6,2.8
				c1-5.7,1.3-11.4,4.4-16.5c1.5-1.1,3-2.1,4.8-3.4c-1.7-0.5-3-0.6-4.4-0.2c-2.4-0.9-5-0.7-7.5-1.1c0-1.1,0.5-1.7,1.3-2.3
				c2.6-1.9,2.4-1.8-0.1-4c-2.4-2-5.3-3.4-7.5-6c2.2-0.3,4.3,0.3,6.4-0.6c-2.4-2.4-4.5-4.7-6.7-6.9c0.1-1.7-1.2-2.7-2.1-3.8
				c-1.4-1.7,0-1.7,1-2c1.9,0.4,3.8,1.7,5.8,0.5c0.7,1.1,1.8,1.2,2.7,0.8c1.1-0.4,0.3-1.4,0.2-2.2c-0.2-3.4-1-6.7-0.7-10.6
				c2.1,3.2,4.9,4.7,7.2,6.7c1.5,1.4,4.6,0.8,5.7-0.9c0.3-0.5,0.2-0.9-0.2-1.2c-3.8-2.8-4.9-8.1-9.4-10.3c-0.4-0.2-1.2-0.7-0.4-1.2
				c2.5-1.7-0.1-2.4-0.7-3.3c-0.5-0.9-2.1-0.9-2.3-2.3c3.7-0.9,3.7-0.9,1.6-4.3c-0.8-1.3-1.6-2.7-2.3-3.8c-2.3,2.6-3.9,5.6-4.8,8.9
				c0,0-0.5,0-0.8-0.1c-0.6-1.3-1.1-2.7-1.7-4c-0.1-1.4-0.7-2.6-1.3-3.9c-1.1,0.9-0.7,2.5-1.7,3.2c-1.2-0.4-1-1.8-2-2.2
				c-0.3,1.1,0.1,2.3-0.9,3.2c-1.2-0.5-1.3-2.3-2.9-2.5c-0.5,2.9,0,5.8-1.3,8.8c-2.6-3.1-5.1-6-7.8-9.3c-1.1,5.2-2.2,9.6-2.1,14.3
				c-1.8-2-2.9-4.6-5-6.4c-0.7-2.4-2.1-4.5-3.3-6.6c-0.1-0.6-0.2-1.2-0.8-1.3c-0.7-0.1-0.8,0.7-0.9,1.1c-0.2,0.9-0.2,1.8-0.3,2.7
				c-1.2-0.3-1.1-1.2-1.2-2c-0.1-0.4-0.2-0.7-0.4-1.1c-0.7-1.5-2.3-1.5-3.4-1.3c-0.9,0.1-0.4,1.6-0.4,2.5c0,0.9,0.7,1.8-0.4,2.5
				c-2,0.3-3.1-1.2-4.3-2.3c-3.2-2.8-6.7-4.8-10.7-6.4c-4.1-1.6-6.9-2.7-6.3-8.7c0.2-2.1-0.3-4.3,0.5-6.4c0.2-0.4,0.2-1-0.2-1.3
				c-0.5-0.4-1.3-0.1-1.5,0.4c-1.1,2.1-3,3-6,3.6c4,1.8,4.1,4.7,4.1,7.7c0,2.4,0.8,4.7,3.2,5.8c3.3,1.5,6.6,3.1,10,4.2
				c1.5,0.5,2.1,1.2,2.7,2.4c-0.7,4.3-0.4,4.5,3.7,3.3c1.9,0.7,3.7,1.3,5.6,2c-0.1,1.2-0.2,2.5,1.3,3.1c0.8,0.3,1.6,0.4,2.4,0.6
				c0.8,0.2,1.8,0.3,1.9,1.3c0.1,1-0.9,1-1.6,1.3c-0.7,0.4-1.6,0.5-2,1.8c3.5,0.9,7,1.8,10.5,2.7c0.7,0.6,0.9,1.4,1.2,2.2
				c-3.7,1.7-7.5,3.4-11.5,5.3c4.4,4.2,6.7,9.5,11.4,13.8c-4.1-0.7-7.6-1.1-11.1-1.9c-1.8-0.4-1.9,0.1-1.8,1.6
				c0.3,3,0.2,5.9,1.2,9.5c-3.8-2.4-6.6-5-9.4-7.5c0.5-3.9,3.8-6.6,4.6-10.5c-2.4-0.1-3.3,1.6-3.6,3.3c-0.4,1.9-1.3,3.4-2.7,4.6
				c-1.6-1.7-3.9-1.6-6.5,0.2c-0.9,0.3-1.6,0.8-1.9,1.8c-1.3,0.3-0.6,1.1-0.4,1.7c1.2,3.1,2,6.5,4.2,10c-4.1-1.4-7.2-3-10.3-4.7
				c-0.6-0.3-1.5-1.2-1.7,0.1c-0.5,3.1-1.8,6.1-1,9.4c-2,2.4-1.8-1-2.9-1.1c-0.2-2.2-2.5-3.2-3.2-5.1c-0.8-2.2-2.2-2.9-4.2-1.1
				c-0.7,0.6-1.6,1-2.4,1.5c-1,0.6-0.5,1.2-0.1,1.8c0.1,1.8,2.5,1.5,2.9,3c0.9,1.5,2.3,2.5,3.7,3.4c0.3,1.3-0.2,1.7-1.4,1.4
				c-1.5-0.5-3.1-0.4-4.6,0.1c-2.6-0.4-5.3-0.2-7.9-0.1c-1.6,0.1-2.7,0.5-1.9,2.6c1.1,2.8,0.7,6,2,8.8c0.2,0.3,0.1,1-0.2,1.3
				c-0.4,0.5-1.2,0.3-1.5-0.1c-4.1-4.2-10.5-3.5-14.8-7.1c-1.1-0.9-1.5,0-1.7,0.9c-0.4,1.7-0.7,3.5-2,4.9c-1.4-4.7-4.6-8.6-6-13.2
				c-0.5-1.6-1.5-0.7-2.2-0.2c-2.1,1.4-4.2,2.8-6.8,4.6c0.7-3.3,1.3-6.1,1.9-8.9c0.1-0.6,0.7-1.3,0.2-1.9c-0.6-0.8-1.4-0.1-2.1,0.1
				c-2.8,0.8-5.5,1.7-8.5,2.6c0.5-2.7,2-4.8,3.3-6.8c1.6-2.6,0.8-3-1.6-2.9c-0.4,0-0.7-0.2-1.2-0.3c0.2-1.3,1.9-1.3,2-2.6
				c-2.4-0.9-5.1-0.4-7.8-1.3c2.6-2.5,5.4-4.5,8.6-6.8c-4-1.5-7.7-2-11.9-2.9c4.1-3,8-5.3,12.5-7.3c-0.8-0.7-1.3-1.2-2.3-1.9
				c5.1-2,10-2.9,15.7-3.2c-3.5-3.1-7.2-3.8-11.8-4c4.7-2,9-1.8,13.2-1.4c2.1,0.2,3,0.7,2.4-2.5c-0.6-2.8-0.5-6.1-0.4-9.3
				c1.8,1.9,3.4,3.8,5.6,5.1c0.8,0.5,1.7,0.6,2.3,0c0.7-0.8-0.3-1.3-0.8-1.8c-2.1-2-2.4-4.9-4.1-7.2c-1-1.4-1.5-1.4-2.4-0.3
				c-1.5,1.8-2.9,3.6-4.5,5.7c-0.9-4-1.4-7.9-1.3-11.8c0.1-3-0.1-3-2.9-1.3c0.8-6.2,1.7-12.1,5.6-17.9c-5.3,3.4-9,7-10.6,12
				c0.2-5.5,2.5-11.5,6.7-16.8c0.4-0.5,1.5-1,1-1.8c-0.4-0.7-1.4-0.4-2.1-0.5c-2.5-0.5-5.2,0.2-8.1-1c5.2-3.6,9.1-8.3,14.7-11
				c-2.5-1.1-4.7-0.2-6.9-0.5c-0.2-0.2-0.4-0.3-0.5-0.5c2.6-3.6,5.9-6.5,9.1-9.4c-0.6-1.2-1.9-0.3-2.6-1.6
				c5.4-3.1,10.6-6.6,17.8-6.9c-3.7-2.8-7.3-4.6-9.4-8c3.6,2.8,7.7,3.6,12.1,3.7c0.6,0,1.5,0.4,1.7-0.5c0.2-0.9-0.7-1.3-1.3-1.6
				c-2.1-0.9-4.1-1.7-6.1-3.4c5.3,0.3,9.3-2.7,13.9-3.9c4.6-1.2,4.5-1.4,2.7-6c-0.2-0.5-0.7-1.2-0.1-1.8c0.7-0.8,1.1-0.1,1.7,0.3
				c0.3,0.2,0.6,0.4,1,0.5c4.6,2,4.6,1.9,4.6-2.9c0-3,0.3-5.9,0.4-9.4c3.4,3.7,6.4,6.9,9.5,10.2c0.4,0.4,0.5,1.5,1.3,1.2
				c0.7-0.3,0.9-1.2,0.8-2c0-1.5-0.8-2.9-0.2-4.7c2.1,2.8,3.5,1.8,5-0.4c1.3-1.9,3.2-3.4,4-5.6c1.3,0.7,0.9,1.9,1.6,2.6
				c3-5,7.6-8.6,11.8-13.8c0,4,0.1,7.3,0,10.5c-0.1,1.6,0.4,2,1.9,1.6c2.2-0.6,4.4-1.1,6.5-1.6c0.6-0.2,1.3-0.7,1.7,0.1
				c0.2,0.4-0.1,1.1-0.3,1.6c-1.3,2.8-1.2,3,1.9,3c1.2,0,3.2-0.7,2.4,1.9c-0.1,0.2,0,0.7,0.2,0.8c2,1.3,3.2,3.6,5.2,4.7
				s4.4,1.5,5.3,4.1c0.4,1.1,0.7,0.5,1.1,0.1c0.6-0.8,2.6,0.6,2.2-1.6c-0.3-1.7,0.6-1.8,1.8-1.1c2.7,1.5,4.3,1,5.7-2.2
				c1.2-2.8,2.9-5.4,3.6-9.2c0.7,1.5,0.2,2.7,1.6,2.9c1.7-2.7,3.5-5.5,5.7-8.8c0.8,3.3,1.5,6,2.2,8.9c3.9-2.8,7.8-5.3,12.8-7.1
				c-3.1,8.5-3.7,18-15,19.7c-0.7-0.5,1.1-1.6,0-2.6c-1.5,1.6-3.4,2.8-3.7,5.6c1.7-0.6,3.2-1.4,4.7-1.8c6.4-2,10.7,2.2,15.5,4.9
				c1.1,0.6,1.1,1.5-0.4,1.8c-2.4,0.6-4.8,1.2-7.1,1.8c-1,0.3-2.1,0.4-2.9,0.9c-1.1,0.7-2.6,1.6-2.4,2.8c0.1,1,1.9,0.7,2.9,1.1
				c3,1.4,5.6,0.6,8.6-0.6c4-1.6,8.3-2.4,12.5-3.6c0.2,0.2,0.4,0.4,0.6,0.6c-1.3,2.5-2.4,5-3.9,7.4c-0.8,1.4-0.9,2,0.8,2.6
				c4,1.3,7.7,3,11,5.6c0.3,0.2,0.5,0.5,0.6,1.1c-3.7-0.8-7.4-1.7-11.7-0.6c1.8,1.1,3.1,2.1,4.5,2.7c3.1,1.1,5.1,3.8,7.8,5.5
				c0.8,0.5,2,1.5-0.3,2.2c-1.7,0.5-0.2,1.7,0.2,2c2.5,2.1,3.8,5.1,5.7,7.7c0.7,0.9,1.6,1.9,1.2,3.3l0-0.1
				c-3.4-0.8-6.8-1.5-10.2-2.3c-1.6-0.4-2,0.1-1.2,1.5c1.5,2.8,3.1,5.5,4.8,8.6c-3.2,0.1-5.7-2.1-8.6-2c-0.2,1.4,1.1,1.9,1.1,3.2
				c-2.5,0.5-4.3-1.6-6.7-1.6c-0.7,0-1.3-0.4-1.7,0.4c-0.4,0.9,0.3,1.1,0.9,1.4c3.6,2.2,7.1,4.5,10.3,7.3c1.1,1,3,2.1,4.4-0.4
				c1.4-2.5,2.8-5.6,4.8-7.2c1.9-1.5,2.2-3.3,3.3-5.6c1,4.5,3.6,7.5,6,11.3c1.2-3.7,2.2-6.9,3.3-10.2c1.8,2,2.4,4.6,4.2,6.9
				c0.4-1.1,0.8-2.1,1.5-3.8c1.3,5.7,5.7,9.7,4.1,15.6c-0.6,2.2,0.4,4.2,1.3,7.3c2.8-6.7,5.5-12.5,12.1-15.2
				c0.7,0.5-0.4,1.7,0.5,2.4c2.1-0.9,3.7-2.7,5.9-4.2c0,3.4-0.3,6.5-0.9,10.3c2.9-1.9,5.2-3.4,7.5-4.9c0.6-0.4,1.3-1.2,1.9-0.8
				c0.8,0.5,0.4,1.5,0.2,2.3c-0.7,2.6-0.8,5.4-2,7.9c-1,2.2-0.6,2.4,1.9,1.9c0.4,1-0.3,1.9-0.8,2.5c-1.1,1.5-1.4,3,0.1,4.2
				c3.2,2.5,2.4,6.4,3.6,9.9c4.8-6.4,11.9-5.6,19-6.7c-2.2,2.9-3.9,5.3-5.9,7.5c-1.6,1.8-0.9,2.2,1,2.5c1.2,0.2,2.5,0.1,3.6,1.3
				c-5,2.4-8.8,6.8-15.1,8.2c3.3,2,4.5,5.4,8.5,6.1c4.1,0.8,6.8,4.4,9.8,7.2c-0.8,1.1-2.1,0.4-3,1.1c0.7,1.8,2.7,2.2,3.7,3.6
				c0.4,0.5,1.2,0.8,0.9,1.6c-0.3,0.6-1,0.4-1.5,0.4c-2.5,0.2-5.1,0.4-7.9,0.6c1.1,2.6,3.4,4,5,5.9c0.6,0.7,1.8,1.4,1.5,2.2
				c-0.5,1.2-1.8,0.4-2.8,0.4c-3.2-0.1-6.4-0.2-9.4-1c-1.2,0.8,0.8,1.9-0.4,2.4c-0.9,0.4-1.8-0.3-2.7-0.6c-3.4-1.3-6.8-2.6-10.6-4
				c1,3.1,3.5,4.9,4.7,7.8c-3.5-0.4-5.8-2.5-8.2-4.4c-3.4-2.6-3.3-2.8-5.5,1c-0.7,1.1-1.2,2.3-1.9,3.5c-0.3,0.5-0.6,1.1-1.3,1
				c-0.7-0.1-0.6-0.8-0.8-1.3c-0.4-1.1-0.7-2.3-1.2-4.1c-0.6,2-0.5,3.4-0.3,4.8c0.1,0.6,0.2,1.4-0.5,1.8c-0.7,0.3-0.9-0.5-1.2-0.9
				c-2.1-2-4.3-3.9-6.6-6c0.1,0.5,0,0.7,0.1,0.9c0.4,1.1,2,2.2,1.2,3.2c-0.8,1.2-2.2,0.1-3.4-0.3c-1.4-0.4-1.6,0.5-1.6,1.5
				c0,2,0.1,3.9,0.2,5.9c0,0.9,0.3,1.9-0.7,2.8c-2-3.2-5.6-4.9-7.7-8.1c-1-1.6-2.5-2.5-4.5-1.8c-3.9-0.9-7.2,0.7-10.3,2.7
				c-1.1,0.7-2,1.9-3.4,0.8c0.1-0.3,0.2-0.5,0.3-0.8c1.1-2.7,0-4.7-2.8-5.3c-0.9-0.2-1.2,0.1-1.1,1c0,2.4,0,4.9,0,7.3
				C166.3,399.7,165.3,401.1,165.7,402.8z"/>
		</g>
	</g>
	<path fill="#6E4927" d="M120.7,455.2c3.6-10.8,3.8-21.9,3.3-33.1c-0.2-3.6-0.3-7.3-0.7-10.9c-0.3-2.8-1.5-4.6-3.8-6
		c-3.7-2.3-7.5-4.6-11.6-6.1l0,0c-3.5-3.3-8.2-3.7-12.5-5.1c-9.5-3.2-18.1-0.9-26.3,3.9c-4.5,2.6-8.8,1.3-13.2,0.5
		c1.5-0.4,3-0.5,4.6-0.1c1.2,0.4,1.7-0.1,1.4-1.4c0.8-0.2,2.2,0.4,2.4-0.8c0.1-0.8-1.1-1.2-1.8-1.5c-1.3-0.7-2.7-1.4-4.3-1.1
		c-0.4-1.5-2.8-1.2-2.9-3c3.6-0.1,6.5,2.2,9.9,3c1.1,0.1,0.9,3.5,2.9,1.1c0.9,0,1.9,0.1,2.7-0.3c4.3-2.1,8.5-4.4,13.6-4.4
		c1,0,1.5-0.7,1.1-2c-1.2-4.7-3.5-8.2-8.3-9.7c0.3-1,1-1.5,1.9-1.8c2.2,0.9,4.5,3.4,6.5-0.2c1.4-1.2,2.3-2.7,2.7-4.6
		c0.3-1.7,1.2-3.4,3.6-3.3c-0.8,3.9-4.2,6.5-4.6,10.5c-1.4,5.1,2.2,11,6.6,12c4.7,1.2,9.5,2,14.1,3.5c3.5,1.1,7,1.9,10.6,2.8
		c2.6,0.6,5.2-0.6,5.4-2.6c0.9-9-0.3-17.6-6.2-24.9c-3.1-3.9-6.2-7.7-9.3-11.5c-0.2-0.8-0.5-1.6-1.2-2.2c-2.8-5.3-6.5-9.4-12.6-10.7
		c-1.9-0.7-3.7-1.3-5.6-2c-1.2-1.1-2.4-2.2-3.7-3.3c-0.6-1.2-1.2-1.9-2.7-2.4c-3.4-1.1-6.8-2.6-10-4.2c-2.4-1.1-3.2-3.4-3.2-5.8
		c0-3-0.1-5.9-4.1-7.7c2.9-0.6,4.9-1.5,6-3.6c0.3-0.5,1-0.7,1.5-0.4c0.4,0.3,0.4,0.9,0.2,1.3c-0.8,2.1-0.3,4.3-0.5,6.4
		c-0.6,6,2.2,7.2,6.3,8.7c4,1.5,7.6,3.5,10.7,6.4c1.2,1.1,2.3,2.6,4.3,2.3c2.3,0.4,4.3,0.4,4.5-2.7c0.1,0.8,0,1.7,1.2,2
		c0.1-0.9,0.1-1.8,0.3-2.7c0.1-0.4,0.2-1.2,0.9-1.1c0.6,0.1,0.7,0.7,0.8,1.3c-0.9,4.5-0.4,5.4,3.3,6.6c2.1,1.8,3.2,4.4,5,6.4
		c1.4,3.2,3.8,5.8,6,8.4c4.1,4.8,9.7,8.1,13.7,13.1c0.4,0.5,0.9,0.6,1.2-0.2c2.2,2.3,4.4,4.5,6.7,6.9c-2.1,0.9-4.2,0.3-6.4,0.6
		c2.2,2.6,5.1,4,7.5,6c2.5,2.1,2.7,2,0.1,4c-0.8,0.6-1.4,1.2-1.3,2.3c2.6,0.4,5.1,0.2,7.5,1.1c0.1,1.2-0.8,2.4-0.5,3.6
		c-3,5.1-3.3,10.8-4.4,16.5c2.3-0.3,2.9-2.4,4.6-2.8c0.2,3.4,0.8,6.7,1.6,9.9c0.3,1.2,0.1,3.4,1.8,3.2c1.4-0.2,2.2-2.1,2.5-3.7
		c0.1-0.5,0-0.9,0.1-1.4c0.8-3.6-0.6-7.7,2.1-10.9c2,4.2,4,8.4,6.1,12.6c2.2-1.7,1.9-4.5,3.4-6.6c2.3-3.3,3.2-3.7,6.5-0.8
		c-6.1,5.9-11.2,12.6-16.4,19.2c-0.9,1.2-0.7,2.5-0.4,3.8c0,0,1.7,34.4,5.5,51c-24.5-7.5-47.4,14-47.4,14S117.7,469.5,120.7,455.2z"
		/>
</g>
<g>
	<g>
		<g>
			<path fill="#6E4927" d="M434.2,439.1c-4.6-7.8-7.6-16.7-9.2-26.8c-1.5-10.1-1.7-20.8-0.5-32c-4.2-3.4-8.4-6.4-12.6-8.9
				c-4.2-2.5-8.4-4.6-12.4-6.1c-6.3,9.2-12.7,18.3-19.2,27.4c-6.5,9-13.1,17.4-19.9,25c-6.8,7.6-13.8,14.1-20.9,19.6
				c-7.1,5.5-14.4,9.2-21.9,11.2c-5.5,1.4-10.3,1.8-14.4,1.1c-4.2-0.7-7.7-2.1-10.7-4.2c-2.9-2.1-5.2-4.5-6.9-7.1
				c-1.7-2.7-2.6-5.2-2.9-7.5c-0.3-2.4,0.1-4.3,1.1-5.7c1-1.4,2.7-1.9,5-1.3c6.9,1.6,13.9,0.8,21-2.3c7.1-3.1,14.3-7.6,21.6-13.7
				c7.3-6,14.8-13.2,22.3-21.6c7.5-8.4,15.1-17.1,22.7-26.2c-6.5-0.4-12.5,0.1-18,1.6c-5.5,1.5-10.3,3.6-14.4,6.1
				c-4.1,2.6-7.4,5.5-10,8.8c-2.6,3.3-4.2,6.5-4.7,9.7c-0.7,3.2-1.9,5-3.6,5.4c-1.7,0.4-3.4-0.1-5.3-1.6c-1.9-1.5-3.6-3.8-5.3-6.8
				c-1.7-3-2.8-6.4-3.6-10c-0.7-3.7-0.7-7.5,0-11.4c0.7-3.9,2.5-7.6,5.4-11.1c3.4-4.2,7.9-7.4,13.2-9.7c5.4-2.3,11.3-3.7,17.8-4.3
				c6.5-0.6,13.4-0.3,20.7,0.8c7.3,1.1,14.6,3,22,5.7c8-9.5,16.1-18.6,24.2-27.3c8.1-8.8,16.2-16.2,24.3-22.4
				c8.1-6.2,16.2-10.7,24.2-13.5c8-2.8,16.1-3,24.1-0.8c3.6,1.2,5.3,3.3,5.3,6.6c-0.1,3.2-2.6,6.1-7.4,8.5c-3,1.4-6,3.7-8.9,6.7
				c-2.9,3-5.7,6.6-8.3,10.9c-2.6,4.2-5,8.9-7.2,14.1c-2.2,5.2-4.2,10.7-5.9,16.6c-2,6.7-3.4,13.8-4.2,21.1
				c-0.8,7.3-1,14.5-0.8,21.5c0.3,7,1.1,13.8,2.5,20.1s3.2,12.2,5.5,17.3c2.3,5.2,5.1,9.5,8.3,13c3.2,3.5,6.9,5.8,10.9,7
				c3,0.9,4.5,2.1,4.4,3.8c-0.1,1.7-1.2,3.2-3.3,4.7c-2.1,1.5-5.1,2.7-8.7,3.6c-3.7,0.9-7.6,1-11.7,0.5c-4.2-0.5-8.4-2-12.6-4.4
				C441.1,448.3,437.4,444.4,434.2,439.1z M427.1,364.6c1.6-7.6,3.8-15.1,6.6-22.4c2.8-7.3,6.1-14.2,9.9-20.8
				c3.8-6.5,8.1-12.5,12.8-17.8c4.7-5.3,9.9-9.8,15.5-13.6c-5.3,1.2-10.6,3.6-15.8,7.2c-5.2,3.7-10.5,8.3-15.7,13.8
				c-5.2,5.5-10.4,11.8-15.6,18.7c-5.2,7-10.4,14.3-15.7,21.9c3.2,1.9,6.2,3.9,9.3,6C421.3,359.9,424.3,362.2,427.1,364.6z"/>
			<path fill="#6E4927" d="M512,343.3c3,0.9,5.6,1.2,7.9,1c2.2-0.2,4.2-0.8,5.9-1.8c1.7-1,3.2-2.3,4.5-3.8c1.3-1.5,2.5-3.1,3.7-4.8
				c1.3-1.7,2.8-2.4,4.6-2.1c1.8,0.3,3.4,1.2,4.7,2.7c1.4,1.5,2.3,3.4,2.8,5.7c0.5,2.3,0.1,4.6-1.2,6.9c-0.1,0.1-0.2,0.3-0.2,0.4
				c-0.9,1.4-2.2,3.8-4,7.1c-1.8,3.3-3.7,6.7-5.7,10.3c-2,3.6-3.9,7-5.6,10.3c-1.7,3.3-2.9,5.7-3.7,7.1c-1.1,2.3-2.3,4.6-3.4,6.9
				c-1.2,2.3-2,4.3-2.7,6.1c-0.6,1.8-0.8,3.2-0.5,4.3c0.3,1.1,1.4,1.6,3.2,1.6c2.7,0,5.7-0.7,8.9-2.2c3.2-1.4,6.5-3.4,9.8-5.8
				c3.3-2.4,6.4-5.2,9.4-8.4c2.9-3.2,5.5-6.5,7.6-10.1c1.4-2.3,2.9-3.8,4.4-4.6c1.5-0.8,2.8-0.9,3.8-0.3c1,0.6,1.6,1.7,1.7,3.3
				c0.1,1.7-0.4,3.7-1.7,6.1c-2.4,4.5-5.8,9.1-10.1,13.9c-4.3,4.8-9,9.2-14,13.1c-5,3.9-10.1,7.2-15.3,9.8c-5.2,2.6-9.8,3.9-14,3.9
				c-6.9,0-10.8-3-11.8-9c-1-6,1.3-14.1,6.9-24.3c2.4-4.2,4.9-8.1,7.3-12c2.4-3.8,4.8-7.4,7.1-10.7c-3.7,2.4-7.6,4.1-11.7,5
				c-4.1,0.9-7.9,0.9-11.3,0c-2,3.9-4.3,7.3-6.9,10.3c-2,2.3-3.9,3.8-5.7,4.6c-1.8,0.8-3.2,0.9-4.1,0.3c-0.9-0.6-1.3-1.7-1.2-3.3
				c0.1-1.6,1.1-3.7,2.8-6.1c1.1-1.6,2.3-3.3,3.3-5.1c1.1-1.8,2.1-3.6,3.1-5.5c-2.3-2.3-3.6-5-4-8.2c-0.4-3.2-0.1-6.4,0.8-9.8
				c0.9-3.4,2.3-6.6,4.2-9.8c1.9-3.2,4.1-5.9,6.6-8.2c2.4-2.3,5-3.9,7.6-4.8c2.7-0.9,5.1-0.9,7.4,0.1c1.7,0.7,2.7,1.8,3,3.2
				c0.3,1.4,0.2,3.1-0.1,4.8c-0.4,1.8-1,3.7-1.8,5.7C513.5,339.3,512.7,341.3,512,343.3z"/>
			<path fill="#6E4927" d="M644.7,379.2c-2.4,3.3-5.1,5.9-7.9,7.9c-2.8,1.9-5.6,3.3-8.5,4.1c-2.9,0.8-5.7,1.1-8.6,0.9
				c-2.9-0.2-5.5-0.8-8-1.6c-2.7,4.3-5.8,8.3-9.2,11.9c-3.4,3.6-6.8,6.7-10.3,9.3c-3.5,2.6-7,4.6-10.6,6.1c-3.5,1.5-6.7,2.3-9.6,2.3
				c-5,0-9.3-1.8-12.8-5.3c-3.5-3.5-5.5-8.7-5.8-15.6c-0.4-6.9,1.3-15.5,4.8-25.7c3.6-10.3,10.1-22.2,19.4-35.9
				c6.5-9.5,12.7-17.5,18.8-24c6.1-6.5,11.8-11.7,17.2-15.4c5.4-3.7,10.3-6,14.6-6.9c4.4-0.9,8-0.4,10.9,1.5
				c4.7,3.2,5.7,8.3,2.9,15.5c-2.8,7.2-9.2,15.3-19.1,24.3c-2.9,2.6-6,5.2-9.5,8c-3.4,2.7-6.9,5.5-10.4,8.2c-3.5,2.7-7,5.3-10.4,7.9
				c-3.4,2.5-6.6,4.8-9.5,7c-2,4-3.6,8-4.8,12.1c-1.2,4-1.9,7.6-2.2,10.9c-0.2,3.2,0.1,6,1,8.2c0.9,2.2,2.3,3.6,4.3,4.2
				c2.1,0.7,4.3,0.7,6.4,0c2.1-0.7,4-1.8,5.8-3.2c1.8-1.4,3.4-3.1,4.8-5c1.4-1.9,2.6-3.7,3.4-5.4c-3.3-2.3-5.4-5.5-6.4-9.5
				c-0.9-4-0.4-8.2,1.6-12.5c1.1-2.6,2.6-4.8,4.3-6.7c1.7-1.9,3.5-3.3,5.4-4.4c1.9-1.1,3.7-1.8,5.6-2.1c1.9-0.3,3.5-0.1,5,0.4
				c4,1.6,6.4,4.8,7.2,9.6c0.8,4.8-1.4,11.4-6.6,19.7c3,1,6.3,1.2,9.9,0.6c3.6-0.6,6.4-2.5,8.4-5.8c1.4-2.3,3-3.8,4.7-4.5
				c1.7-0.7,3.1-0.8,4.2-0.2c1.1,0.6,1.6,1.7,1.7,3.3C647.2,375,646.4,377,644.7,379.2z M628.9,308.2c-0.9-0.6-2.3-0.1-4.2,1.4
				c-1.9,1.5-4.2,3.8-6.9,6.8c-2.7,3-5.6,6.6-8.8,10.8c-3.2,4.2-6.6,8.5-10,12.9c4.3-3.6,8.4-7.1,12.4-10.7
				c3.9-3.5,7.3-6.7,10.1-9.7c2.8-2.9,4.9-5.4,6.4-7.4C629.3,310.3,629.7,308.9,628.9,308.2z"/>
			<path fill="#6E4927" d="M729.5,347.8c-1.4,2.7-3.1,5.6-4.8,8.7c-1.8,3.1-3.6,6.2-5.4,9.3c-1.8,3.1-3.5,6.1-5.2,8.9
				c-1.7,2.9-3.1,5.4-4.4,7.5c-1.3,2.3-2.5,4.6-3.7,6.8c-1.1,2.2-2,4.2-2.6,6c-0.6,1.8-0.7,3.3-0.4,4.4c0.3,1.1,1.4,1.7,3.2,1.7
				c2.6,0,5.5-0.7,8.8-2.2c3.3-1.4,6.6-3.4,9.9-5.8c3.3-2.4,6.4-5.2,9.4-8.4c2.9-3.2,5.5-6.5,7.7-10.1c1.4-2.3,2.9-3.8,4.4-4.6
				c1.5-0.8,2.8-0.9,3.8-0.3c1,0.6,1.6,1.7,1.7,3.3c0.1,1.7-0.4,3.7-1.7,6.1c-2.4,4.5-6,9.1-10.7,13.9c-4.7,4.8-9.6,9.2-14.7,13.1
				c-5.2,3.9-10.3,7.2-15.4,9.8c-5.1,2.6-9.3,3.9-12.6,3.9c-4.7,0-8.8-1-12.1-3c-3.3-2-5.2-5.2-5.6-9.5c-3.2,3.3-6.9,6.2-11.2,8.7
				c-4.3,2.5-9.2,3.8-14.6,3.8c-5.6,0-10.3-1.5-14-4.6c-3.7-3.1-6.2-7.1-7.5-12.2c-1.3-5-1.2-10.7,0.2-17c1.4-6.3,4.5-12.7,9.3-19.2
				c4.4-6,9.5-11,15.1-15c5.6-3.9,11.2-6.7,16.8-8.3c5.6-1.6,11-1.9,16.2-1c5.2,0.9,9.6,3.3,13.4,7c1.1-2,2.2-3.6,3.1-4.8
				c0.9-1.2,2-2.2,3.1-2.9c1.1-0.7,2.5-1.3,4-1.6c1.5-0.4,3.3-0.8,5.5-1.2c2.3-0.3,4.4-0.5,6.5-0.6c2-0.1,3.6,0,4.7,0.5
				c1.1,0.5,1.8,1.4,1.9,2.8C731.6,343.2,731,345.2,729.5,347.8z M661.3,399.3c6,0,12-3.2,17.9-9.5c5.9-6.3,11.3-14.9,16.4-25.6
				c-1.4-2-3.2-3.4-5.4-4.1c-2.4-0.9-5.2-1-8.4-0.5c-3.2,0.5-6.4,1.6-9.6,3.3c-3.2,1.7-6.4,4-9.4,6.8c-3,2.8-5.6,6-7.8,9.6
				c-1.4,2.4-2.4,4.9-2.9,7.3c-0.5,2.4-0.5,4.6-0.1,6.5c0.4,1.9,1.4,3.4,3,4.5C656.6,398.7,658.7,399.3,661.3,399.3z"/>
			<path fill="#6E4927" d="M810.1,304.5c7.3-1,14.1-1.9,20.4-2.7c6.2-0.8,10.9-1.5,13.9-2.3c2.3-0.4,3.8-0.3,4.4,0.5
				c0.6,0.8,0.7,2,0.1,3.6c-0.6,1.6-1.7,3.3-3.2,5.2c-1.6,1.9-3.4,3.7-5.5,5.4c-2.1,1.7-4.2,3.2-6.5,4.3c-2.2,1.2-4.3,1.7-6.1,1.7
				h-29.7c-3.6,5-7.2,10.2-10.9,15.6c-3.7,5.4-6.9,10.2-9.8,14.5c-3.2,4.7-6,9.8-8.4,15.2c-2.4,5.4-4.3,10.4-5.7,15
				c-1.4,4.6-2.2,8.6-2.4,12c-0.2,3.4,0.3,5.5,1.6,6.4c1.7,1.2,4,1.4,6.8,0.9c2.8-0.6,5.9-1.9,9.3-4c3.4-2.1,6.9-4.9,10.6-8.4
				c3.7-3.5,7.2-7.7,10.7-12.6c1.4-2.3,2.9-3.8,4.5-4.5c1.6-0.7,2.9-0.8,3.9-0.3c1,0.5,1.5,1.6,1.6,3.2c0.1,1.7-0.6,3.7-2,6.1
				c-3.4,5.9-7.4,11.3-11.7,16.3c-4.4,5-9,9.2-13.8,12.8c-4.8,3.6-9.7,6.4-14.8,8.5c-5,2.1-9.9,3.1-14.6,3.1c-5,0-9.1-1.8-12.2-5.3
				c-3.1-3.5-4.5-8.7-4.3-15.6c0.2-6.9,2.3-15.5,6.4-25.7c4-10.3,10.7-22.2,20-35.9c1.6-2.3,3.3-5,5.3-8c1.9-3,4.1-6.1,6.4-9.3h-20
				c-1.7,0-2.6-0.5-2.7-1.5c-0.1-1,0.3-2.2,1.2-3.4c0.9-1.3,2.1-2.5,3.8-3.6c1.6-1.1,3.4-1.7,5.3-1.8c5.5-0.6,11.2-1.8,17.1-3.7
				c6-1.9,10.8-3.6,14.5-5.2c3.2-1.3,6.4-2.5,9.8-3.8c3.4-1.2,6.2-1.9,8.4-2.1c2.2-0.2,3.5,0.3,3.8,1.4c0.3,1.2-1.2,3.4-4.3,6.9
				L810.1,304.5z"/>
			<path fill="#6E4927" d="M847.4,338.5c5.2,0,9.6,1,13.2,3.1c3.7,2.1,6.5,4.9,8.4,8.4c1.9,3.5,3,7.7,3.2,12.5
				c0.2,4.8-0.5,9.9-2.3,15.4c1.4,0.9,3.2,1.6,5.2,2.2c2,0.6,4.1,0.8,6.1,0.6c2.1-0.1,4.1-0.7,6-1.6c1.9-0.9,3.6-2.4,4.8-4.4
				c1.4-2.3,3-3.8,4.7-4.5c1.7-0.7,3.1-0.8,4.2-0.2c1.1,0.6,1.6,1.7,1.7,3.3c0.1,1.6-0.7,3.6-2.5,5.9c-2.6,3.6-5.4,6.4-8.5,8.3
				c-3.1,1.9-6.2,3.3-9.4,4c-3.2,0.7-6.2,0.9-9.3,0.5c-3-0.4-5.7-1.2-8.2-2.5c-2.4,4.5-5.3,8.5-8.6,12.3c-3.3,3.7-6.9,7-10.8,9.7
				c-3.9,2.7-8,4.8-12.4,6.4c-4.4,1.5-8.8,2.3-13.2,2.3c-5.3,0-9.8-1.1-13.6-3.2c-3.7-2.2-6.6-5.1-8.5-8.7c-1.9-3.7-2.9-8-3-13
				c-0.1-5,0.8-10.3,2.7-15.9c1.9-5.6,4.5-10.9,7.9-15.8c3.4-5,7.3-9.3,11.7-12.9c4.5-3.7,9.2-6.6,14.3-8.7
				C836.6,339.6,841.9,338.5,847.4,338.5z M831.6,397.6c5,0,9.7-1.6,13.9-4.8c4.2-3.2,7.6-7.4,10-12.4c-2-2.6-3.4-5.1-4.2-7.6
				c-0.8-2.5-1.3-4.9-1.4-7.2c-0.1-2.3,0-4.4,0.5-6.4c0.5-1.9,1-3.7,1.6-5.3c-0.7-0.3-1.5-0.5-2.5-0.6c-0.9-0.1-1.9-0.2-2.9-0.2
				c-6,0-11.3,2.2-15.9,6.5c-4.6,4.3-8,9.6-10.1,15.7c-2,6.2-2.2,11.5-0.4,15.8C821.9,395.4,825.7,397.6,831.6,397.6z"/>
			<path fill="#6E4927" d="M933.5,347.8c-7.6,10.6-13.4,19.3-17.2,26.1c-3.9,6.7-6.5,12-7.8,15.8c-1.3,3.8-1.5,6.4-0.8,7.9
				c0.8,1.4,2,2.1,3.8,2.1c2.7,0,5.2-0.8,7.4-2.4c2.2-1.6,4.3-3.7,6.3-6.2c2-2.6,4-5.6,5.9-8.9c1.9-3.4,4-6.9,6.1-10.4
				c1.7-3.7,3.3-7.1,4.7-10.2c1.4-3.1,2.9-6.1,4.5-9.2c1.3-2.7,2.5-4.9,3.6-6.5c1.1-1.6,2.2-2.8,3.4-3.7c1.2-0.9,2.6-1.5,4.2-1.8
				c1.6-0.4,3.5-0.8,5.8-1.2c2.3-0.3,4.4-0.5,6.5-0.6c2-0.1,3.6,0,4.7,0.5c1.1,0.5,1.8,1.4,1.9,2.8c0.1,1.4-0.5,3.3-1.9,5.9
				c-1.4,2.7-3.1,5.6-4.8,8.7c-1.8,3.1-3.6,6.2-5.3,9.3c-1.7,3.1-3.4,6.1-5.1,8.9c-1.7,2.9-3.1,5.4-4.4,7.5
				c-1.3,2.3-2.5,4.6-3.7,6.8c-1.1,2.2-2,4.2-2.7,6c-0.6,1.8-0.8,3.3-0.4,4.4c0.4,1.1,1.4,1.7,3.1,1.7c2.7,0,5.7-0.7,8.9-2.2
				c3.2-1.4,6.5-3.4,9.8-5.8c3.3-2.4,6.5-5.2,9.5-8.4c3-3.2,5.6-6.5,7.8-10.1c1.4-2.3,2.9-3.8,4.4-4.6c1.5-0.8,2.8-0.9,3.8-0.3
				s1.6,1.7,1.7,3.3c0.1,1.7-0.5,3.7-1.9,6.1c-2.4,4.5-6,9.1-10.6,13.9c-4.6,4.8-9.5,9.2-14.8,13.1s-10.4,7.2-15.4,9.8
				c-5,2.6-9.3,3.9-12.7,3.9c-5,0-9.3-1.2-12.8-3.6c-3.5-2.4-5.1-6.1-4.8-11.3c-4.3,5-8.8,8.8-13.4,11.2c-4.6,2.4-9.1,3.7-13.6,3.7
				c-6.7,0-11.1-2.4-13-7.3c-1.9-4.9-1.8-11.4,0.5-19.6c2.3-8,5.3-15.5,9-22.5c3.7-7,7.5-13,11.2-18.2c1.7-2.4,3.3-4.5,4.6-6
				c1.4-1.6,2.7-2.8,4.1-3.8c1.4-0.9,2.9-1.6,4.5-2c1.7-0.4,3.7-0.9,6.1-1.3c2.3-0.3,4.4-0.5,6.2-0.5c1.9-0.1,3.3,0.2,4.2,0.8
				c0.9,0.6,1.3,1.5,1.2,2.8C936.2,343.5,935.2,345.4,933.5,347.8z"/>
		</g>
		<g>
			<path fill="#89BE37" d="M426.8,427.9c-4.6-7.8-7.6-16.7-9.2-26.8c-1.5-10.1-1.7-20.8-0.5-32c-4.2-3.4-8.4-6.4-12.6-8.9
				c-4.2-2.5-8.4-4.6-12.4-6.1c-6.3,9.2-12.7,18.3-19.2,27.4c-6.5,9-13.1,17.4-19.9,25c-6.8,7.6-13.8,14.1-20.9,19.6
				c-7.1,5.5-14.4,9.2-21.9,11.2c-5.5,1.4-10.3,1.8-14.4,1.1c-4.2-0.7-7.7-2.1-10.7-4.2c-2.9-2.1-5.2-4.5-6.9-7.1
				c-1.7-2.7-2.6-5.2-2.9-7.5c-0.3-2.4,0.1-4.3,1.1-5.7c1-1.4,2.7-1.9,5-1.3c6.9,1.6,13.9,0.8,21-2.3c7.1-3.1,14.3-7.6,21.6-13.7
				c7.3-6,14.8-13.2,22.3-21.6c7.5-8.4,15.1-17.1,22.7-26.2c-6.5-0.4-12.5,0.1-18,1.6c-5.5,1.5-10.3,3.6-14.4,6.1
				c-4.1,2.6-7.4,5.5-10,8.8c-2.6,3.3-4.2,6.5-4.7,9.7c-0.7,3.2-1.9,5-3.6,5.4c-1.7,0.4-3.4-0.1-5.3-1.6c-1.9-1.5-3.6-3.8-5.3-6.8
				c-1.7-3-2.8-6.4-3.6-10c-0.7-3.7-0.7-7.5,0-11.4c0.7-3.9,2.5-7.6,5.4-11.1c3.4-4.2,7.9-7.4,13.2-9.7c5.4-2.3,11.3-3.7,17.8-4.3
				c6.5-0.6,13.4-0.3,20.7,0.8c7.3,1.1,14.6,3,22,5.7c8-9.5,16.1-18.6,24.2-27.3c8.1-8.8,16.2-16.2,24.3-22.4
				c8.1-6.2,16.2-10.7,24.2-13.5c8-2.8,16.1-3,24.1-0.8c3.6,1.2,5.3,3.3,5.3,6.6c-0.1,3.2-2.6,6.1-7.4,8.5c-3,1.4-6,3.7-8.9,6.7
				c-2.9,3-5.7,6.6-8.3,10.9c-2.6,4.2-5,8.9-7.2,14.1c-2.2,5.2-4.2,10.7-5.9,16.6c-2,6.7-3.4,13.8-4.2,21.1
				c-0.8,7.3-1,14.5-0.8,21.5c0.3,7,1.1,13.8,2.5,20.1c1.4,6.4,3.2,12.2,5.5,17.3c2.3,5.2,5.1,9.5,8.3,13c3.2,3.5,6.9,5.8,10.9,7
				c3,0.9,4.5,2.1,4.4,3.8c-0.1,1.7-1.2,3.2-3.3,4.7c-2.1,1.5-5.1,2.7-8.7,3.6c-3.7,0.9-7.6,1-11.7,0.5c-4.2-0.5-8.4-2-12.6-4.4
				C433.6,437.1,429.9,433.2,426.8,427.9z M419.6,353.4c1.6-7.6,3.8-15.1,6.6-22.4c2.8-7.3,6.1-14.2,9.9-20.8
				c3.8-6.5,8.1-12.5,12.8-17.8c4.7-5.3,9.9-9.8,15.5-13.6c-5.3,1.2-10.6,3.6-15.8,7.2c-5.2,3.7-10.5,8.3-15.7,13.8
				c-5.2,5.5-10.4,11.8-15.6,18.7c-5.2,7-10.4,14.3-15.7,21.9c3.2,1.9,6.2,3.9,9.3,6C413.8,348.6,416.8,350.9,419.6,353.4z"/>
			<path fill="#89BE37" d="M504.5,332c3,0.9,5.6,1.2,7.9,1c2.2-0.2,4.2-0.8,5.9-1.8c1.7-1,3.2-2.3,4.5-3.8c1.3-1.5,2.5-3.1,3.7-4.8
				c1.3-1.7,2.8-2.4,4.6-2.1c1.8,0.3,3.4,1.2,4.7,2.7c1.4,1.5,2.3,3.4,2.8,5.7c0.5,2.3,0.1,4.6-1.2,6.9c-0.1,0.1-0.2,0.3-0.2,0.4
				c-0.9,1.4-2.2,3.8-4,7.1c-1.8,3.3-3.7,6.7-5.7,10.3c-2,3.6-3.9,7-5.6,10.3c-1.7,3.3-2.9,5.7-3.7,7.1c-1.1,2.3-2.3,4.6-3.4,6.9
				c-1.2,2.3-2,4.3-2.7,6.1c-0.6,1.8-0.8,3.2-0.5,4.3c0.3,1.1,1.4,1.6,3.2,1.6c2.7,0,5.7-0.7,8.9-2.2c3.2-1.4,6.5-3.4,9.8-5.8
				c3.3-2.4,6.4-5.2,9.4-8.4c2.9-3.2,5.5-6.5,7.6-10.1c1.4-2.3,2.9-3.8,4.4-4.6c1.5-0.8,2.8-0.9,3.8-0.3c1,0.6,1.6,1.7,1.7,3.3
				c0.1,1.7-0.4,3.7-1.7,6.1c-2.4,4.5-5.8,9.1-10.1,13.9c-4.3,4.8-9,9.2-14,13.1c-5,3.9-10.1,7.2-15.3,9.8c-5.2,2.6-9.8,3.9-14,3.9
				c-6.9,0-10.8-3-11.8-9c-1-6,1.3-14.1,6.9-24.3c2.4-4.2,4.9-8.1,7.3-12c2.4-3.8,4.8-7.4,7.1-10.7c-3.7,2.4-7.6,4.1-11.7,5
				c-4.1,0.9-7.9,0.9-11.3,0c-2,3.9-4.3,7.3-6.9,10.3c-2,2.3-3.9,3.8-5.7,4.6c-1.8,0.8-3.2,0.9-4.1,0.3c-0.9-0.6-1.3-1.7-1.2-3.3
				c0.1-1.6,1.1-3.7,2.8-6.1c1.1-1.6,2.3-3.3,3.3-5.1s2.1-3.6,3.1-5.5c-2.3-2.3-3.6-5-4-8.2c-0.4-3.2-0.1-6.4,0.8-9.8
				c0.9-3.4,2.3-6.6,4.2-9.8s4.1-5.9,6.6-8.2c2.4-2.3,5-3.9,7.6-4.8c2.7-0.9,5.1-0.9,7.4,0.1c1.7,0.7,2.7,1.8,3,3.2
				c0.3,1.4,0.2,3.1-0.1,4.8c-0.4,1.8-1,3.7-1.8,5.7C506,328,505.2,330,504.5,332z"/>
			<path fill="#89BE37" d="M637.2,368c-2.4,3.3-5.1,5.9-7.9,7.9c-2.8,1.9-5.6,3.3-8.5,4.1c-2.9,0.8-5.7,1.1-8.6,0.9
				c-2.9-0.2-5.5-0.8-8-1.6c-2.7,4.3-5.8,8.3-9.2,11.9c-3.4,3.6-6.8,6.7-10.3,9.3c-3.5,2.6-7,4.6-10.6,6.1c-3.5,1.5-6.7,2.3-9.6,2.3
				c-5,0-9.3-1.8-12.8-5.3c-3.5-3.5-5.5-8.7-5.8-15.6c-0.4-6.9,1.3-15.5,4.8-25.7c3.6-10.3,10.1-22.2,19.4-35.9
				c6.5-9.5,12.7-17.5,18.8-24c6.1-6.5,11.8-11.7,17.2-15.4c5.4-3.7,10.3-6,14.6-6.9c4.4-0.9,8-0.4,10.9,1.5
				c4.7,3.2,5.7,8.3,2.9,15.5c-2.8,7.2-9.2,15.3-19.1,24.3c-2.9,2.6-6,5.2-9.5,8c-3.4,2.7-6.9,5.5-10.4,8.2c-3.5,2.7-7,5.3-10.4,7.9
				c-3.4,2.5-6.6,4.8-9.5,7c-2,4-3.6,8-4.8,12.1c-1.2,4-1.9,7.6-2.2,10.9c-0.2,3.2,0.1,6,1,8.2c0.9,2.2,2.3,3.6,4.3,4.2
				c2.1,0.7,4.3,0.7,6.4,0c2.1-0.7,4-1.8,5.8-3.2c1.8-1.4,3.4-3.1,4.8-5c1.4-1.9,2.6-3.7,3.4-5.4c-3.3-2.3-5.4-5.5-6.4-9.5
				c-0.9-4-0.4-8.2,1.6-12.5c1.1-2.6,2.6-4.8,4.3-6.7c1.7-1.9,3.5-3.3,5.4-4.4c1.9-1.1,3.7-1.8,5.6-2.1c1.9-0.3,3.5-0.1,5,0.4
				c4,1.6,6.4,4.8,7.2,9.6c0.8,4.8-1.4,11.4-6.6,19.7c3,1,6.3,1.2,9.9,0.6c3.6-0.6,6.4-2.5,8.4-5.8c1.4-2.3,3-3.8,4.7-4.5
				c1.7-0.7,3.1-0.8,4.2-0.2c1.1,0.6,1.6,1.7,1.7,3.3C639.7,363.7,638.9,365.7,637.2,368z M621.5,296.9c-0.9-0.6-2.3-0.1-4.2,1.4
				c-1.9,1.5-4.2,3.8-6.9,6.8c-2.7,3-5.6,6.6-8.8,10.8c-3.2,4.2-6.6,8.5-10,12.9c4.3-3.6,8.4-7.1,12.4-10.7
				c3.9-3.5,7.3-6.7,10.1-9.7c2.8-2.9,4.9-5.4,6.4-7.4C621.8,299,622.2,297.7,621.5,296.9z"/>
			<path fill="#89BE37" d="M722.1,336.6c-1.4,2.7-3.1,5.6-4.8,8.7c-1.8,3.1-3.6,6.2-5.4,9.3c-1.8,3.1-3.5,6.1-5.2,8.9
				c-1.7,2.9-3.1,5.4-4.4,7.5c-1.3,2.3-2.5,4.6-3.7,6.8c-1.1,2.2-2,4.2-2.6,6c-0.6,1.8-0.7,3.3-0.4,4.4c0.3,1.1,1.4,1.7,3.2,1.7
				c2.6,0,5.5-0.7,8.8-2.2c3.3-1.4,6.6-3.4,9.9-5.8c3.3-2.4,6.4-5.2,9.4-8.4c2.9-3.2,5.5-6.5,7.7-10.1c1.4-2.3,2.9-3.8,4.4-4.6
				c1.5-0.8,2.8-0.9,3.8-0.3c1,0.6,1.6,1.7,1.7,3.3c0.1,1.7-0.4,3.7-1.7,6.1c-2.4,4.5-6,9.1-10.7,13.9c-4.7,4.8-9.6,9.2-14.7,13.1
				c-5.2,3.9-10.3,7.2-15.4,9.8c-5.1,2.6-9.3,3.9-12.6,3.9c-4.7,0-8.8-1-12.1-3c-3.3-2-5.2-5.2-5.6-9.5c-3.2,3.3-6.9,6.2-11.2,8.7
				c-4.3,2.5-9.2,3.8-14.6,3.8c-5.6,0-10.3-1.5-14-4.6c-3.7-3.1-6.2-7.1-7.5-12.2c-1.3-5-1.2-10.7,0.2-17s4.5-12.7,9.3-19.2
				c4.4-6,9.5-11,15.1-15c5.6-3.9,11.2-6.7,16.8-8.3c5.6-1.6,11-1.9,16.2-1c5.2,0.9,9.6,3.3,13.4,7c1.1-2,2.2-3.6,3.1-4.8
				c0.9-1.2,2-2.2,3.1-2.9c1.1-0.7,2.5-1.3,4-1.6c1.5-0.4,3.3-0.8,5.5-1.2c2.3-0.3,4.4-0.5,6.5-0.6c2-0.1,3.6,0,4.7,0.5
				c1.1,0.5,1.8,1.4,1.9,2.8C724.1,332,723.5,334,722.1,336.6z M653.8,388c6,0,12-3.2,17.9-9.5c5.9-6.3,11.3-14.9,16.4-25.6
				c-1.4-2-3.2-3.4-5.4-4.1c-2.4-0.9-5.2-1-8.4-0.5c-3.2,0.5-6.4,1.6-9.6,3.3c-3.2,1.7-6.4,4-9.4,6.8c-3,2.8-5.6,6-7.8,9.6
				c-1.4,2.4-2.4,4.9-2.9,7.3c-0.5,2.4-0.5,4.6-0.1,6.5c0.4,1.9,1.4,3.4,3,4.5C649.1,387.5,651.2,388,653.8,388z"/>
			<path fill="#89BE37" d="M802.6,293.3c7.3-1,14.1-1.9,20.4-2.7c6.2-0.8,10.9-1.5,13.9-2.3c2.3-0.4,3.8-0.3,4.4,0.5
				c0.6,0.8,0.7,2,0.1,3.6c-0.6,1.6-1.7,3.3-3.2,5.2c-1.6,1.9-3.4,3.7-5.5,5.4c-2.1,1.7-4.2,3.2-6.5,4.3c-2.2,1.2-4.3,1.7-6.1,1.7
				h-29.7c-3.6,5-7.2,10.2-10.9,15.6c-3.7,5.4-6.9,10.2-9.8,14.5c-3.2,4.7-6,9.8-8.4,15.2c-2.4,5.4-4.3,10.4-5.7,15
				c-1.4,4.6-2.2,8.6-2.4,12c-0.2,3.4,0.3,5.5,1.6,6.4c1.7,1.2,4,1.4,6.8,0.9c2.8-0.6,5.9-1.9,9.3-4c3.4-2.1,6.9-4.9,10.6-8.4
				c3.7-3.5,7.2-7.7,10.7-12.6c1.4-2.3,2.9-3.8,4.5-4.5c1.6-0.7,2.9-0.8,3.9-0.3c1,0.5,1.5,1.6,1.6,3.2c0.1,1.7-0.6,3.7-2,6.1
				c-3.4,5.9-7.4,11.3-11.7,16.3c-4.4,5-9,9.2-13.8,12.8c-4.8,3.6-9.7,6.4-14.8,8.5c-5,2.1-9.9,3.1-14.6,3.1c-5,0-9.1-1.8-12.2-5.3
				c-3.1-3.5-4.5-8.7-4.3-15.6c0.2-6.9,2.3-15.5,6.4-25.7c4-10.3,10.7-22.2,20-35.9c1.6-2.3,3.3-5,5.3-8c1.9-3,4.1-6.1,6.4-9.3h-20
				c-1.7,0-2.6-0.5-2.7-1.5c-0.1-1,0.3-2.2,1.2-3.4c0.9-1.3,2.1-2.5,3.8-3.6c1.6-1.1,3.4-1.7,5.3-1.8c5.5-0.6,11.2-1.8,17.1-3.7
				c6-1.9,10.8-3.6,14.5-5.2c3.2-1.3,6.4-2.5,9.8-3.8c3.4-1.2,6.2-1.9,8.4-2.1c2.2-0.2,3.5,0.3,3.8,1.4c0.3,1.2-1.2,3.4-4.3,6.9
				L802.6,293.3z"/>
			<path fill="#89BE37" d="M839.9,327.3c5.2,0,9.6,1,13.2,3.1c3.7,2.1,6.5,4.9,8.4,8.4c1.9,3.5,3,7.7,3.2,12.5
				c0.2,4.8-0.5,9.9-2.3,15.4c1.4,0.9,3.2,1.6,5.2,2.2c2,0.6,4.1,0.8,6.1,0.6c2.1-0.1,4.1-0.7,6-1.6c1.9-0.9,3.6-2.4,4.8-4.4
				c1.4-2.3,3-3.8,4.7-4.5c1.7-0.7,3.1-0.8,4.2-0.2c1.1,0.6,1.6,1.7,1.7,3.3c0.1,1.6-0.7,3.6-2.5,5.9c-2.6,3.6-5.4,6.4-8.5,8.3
				c-3.1,1.9-6.2,3.3-9.4,4c-3.2,0.7-6.2,0.9-9.3,0.5c-3-0.4-5.7-1.2-8.2-2.5c-2.4,4.5-5.3,8.5-8.6,12.3c-3.3,3.7-6.9,7-10.8,9.7
				c-3.9,2.7-8,4.8-12.4,6.4c-4.4,1.5-8.8,2.3-13.2,2.3c-5.3,0-9.8-1.1-13.6-3.2c-3.7-2.2-6.6-5.1-8.5-8.7c-1.9-3.7-2.9-8-3-13
				c-0.1-5,0.8-10.3,2.7-15.9c1.9-5.6,4.5-10.9,7.9-15.8c3.4-5,7.3-9.3,11.7-12.9c4.5-3.7,9.2-6.6,14.3-8.7
				C829.1,328.4,834.4,327.3,839.9,327.3z M824.1,386.3c5,0,9.7-1.6,13.9-4.8c4.2-3.2,7.6-7.4,10-12.4c-2-2.6-3.4-5.1-4.2-7.6
				c-0.8-2.5-1.3-4.9-1.4-7.2c-0.1-2.3,0-4.4,0.5-6.4c0.5-1.9,1-3.7,1.6-5.3c-0.7-0.3-1.5-0.5-2.5-0.6c-0.9-0.1-1.9-0.2-2.9-0.2
				c-6,0-11.3,2.2-15.9,6.5c-4.6,4.3-8,9.6-10.1,15.7c-2,6.2-2.2,11.5-0.4,15.8C814.4,384.1,818.2,386.3,824.1,386.3z"/>
			<path fill="#89BE37" d="M926,336.6c-7.6,10.6-13.4,19.3-17.2,26.1c-3.9,6.7-6.5,12-7.8,15.8c-1.3,3.8-1.5,6.4-0.8,7.9
				c0.8,1.4,2,2.1,3.8,2.1c2.7,0,5.2-0.8,7.4-2.4c2.2-1.6,4.3-3.7,6.3-6.2c2-2.6,4-5.6,5.9-8.9c1.9-3.4,4-6.9,6.1-10.4
				c1.7-3.7,3.3-7.1,4.7-10.2c1.4-3.1,2.9-6.1,4.5-9.2c1.3-2.7,2.5-4.9,3.6-6.5c1.1-1.6,2.2-2.8,3.4-3.7c1.2-0.9,2.6-1.5,4.2-1.8
				c1.6-0.4,3.5-0.8,5.8-1.2c2.3-0.3,4.4-0.5,6.5-0.6c2-0.1,3.6,0,4.7,0.5c1.1,0.5,1.8,1.4,1.9,2.8c0.1,1.4-0.5,3.3-1.9,5.9
				c-1.4,2.7-3.1,5.6-4.8,8.7c-1.8,3.1-3.6,6.2-5.3,9.3c-1.7,3.1-3.4,6.1-5.1,8.9c-1.7,2.9-3.1,5.4-4.4,7.5
				c-1.3,2.3-2.5,4.6-3.7,6.8c-1.1,2.2-2,4.2-2.7,6c-0.6,1.8-0.8,3.3-0.4,4.4c0.4,1.1,1.4,1.7,3.1,1.7c2.7,0,5.7-0.7,8.9-2.2
				c3.2-1.4,6.5-3.4,9.8-5.8c3.3-2.4,6.5-5.2,9.5-8.4c3-3.2,5.6-6.5,7.8-10.1c1.4-2.3,2.9-3.8,4.4-4.6c1.5-0.8,2.8-0.9,3.8-0.3
				c1,0.6,1.6,1.7,1.7,3.3c0.1,1.7-0.5,3.7-1.9,6.1c-2.4,4.5-6,9.1-10.6,13.9c-4.6,4.8-9.5,9.2-14.8,13.1c-5.2,4-10.4,7.2-15.4,9.8
				c-5,2.6-9.3,3.9-12.7,3.9c-5,0-9.3-1.2-12.8-3.6c-3.5-2.4-5.1-6.1-4.8-11.3c-4.3,5-8.8,8.8-13.4,11.2c-4.6,2.4-9.1,3.7-13.6,3.7
				c-6.7,0-11.1-2.4-13-7.3c-1.9-4.9-1.8-11.4,0.5-19.6c2.3-8,5.3-15.5,9-22.5c3.7-7,7.5-13,11.2-18.2c1.7-2.4,3.3-4.5,4.6-6
				c1.4-1.6,2.7-2.8,4.1-3.8c1.4-0.9,2.9-1.6,4.5-2c1.7-0.4,3.7-0.9,6.1-1.3c2.3-0.3,4.4-0.5,6.2-0.5c1.9-0.1,3.3,0.2,4.2,0.8
				c0.9,0.6,1.3,1.5,1.2,2.8C928.7,332.3,927.7,334.1,926,336.6z"/>
		</g>
	</g>
	<g>
		<path fill="#6E4927" d="M988.5,407.4c0-2.3,0.8-4.2,2.4-5.9c1.6-1.6,3.5-2.4,5.7-2.4c2.3,0,4.2,0.8,5.9,2.4
			c1.6,1.6,2.4,3.6,2.4,5.9c0,2.2-0.8,4.1-2.4,5.7c-1.6,1.6-3.6,2.4-5.9,2.4c-2.2,0-4.1-0.8-5.7-2.4
			C989.3,411.6,988.5,409.6,988.5,407.4z"/>
		<path fill="#6E4927" d="M1065.9,376.4c1.5,0.4,2.9,0.6,4,0.5c1.1-0.1,2.2-0.4,3-0.9s1.7-1.2,2.3-1.9c0.7-0.8,1.3-1.6,1.9-2.5
			c0.7-0.9,1.5-1.3,2.4-1.1c0.9,0.1,1.7,0.6,2.4,1.4c0.7,0.8,1.2,1.8,1.4,2.9c0.3,1.2,0.1,2.4-0.6,3.5c-0.4,0.7-1,1.8-1.9,3.5
			c-0.9,1.7-1.9,3.5-2.9,5.4c-1,1.9-2,3.7-3,5.5c-1,1.8-1.6,3-2,3.8c-0.6,1.2-1.2,2.4-1.8,3.5c-0.6,1.2-1.1,2.2-1.4,3.1
			c-0.3,0.9-0.4,1.7-0.3,2.2c0.2,0.6,0.7,0.8,1.7,0.8c1.4,0,2.9-0.4,4.6-1.1c1.7-0.7,3.3-1.7,5-3c1.7-1.3,3.3-2.7,4.8-4.3
			c1.5-1.6,2.8-3.3,3.9-5.2c0.7-1.2,1.5-2,2.3-2.4c0.8-0.4,1.4-0.5,1.9-0.2c0.5,0.3,0.8,0.9,0.9,1.7c0.1,0.8-0.2,1.9-0.9,3.1
			c-1.3,2.3-3,4.7-5.2,7.1c-2.2,2.5-4.6,4.7-7.2,6.7c-2.6,2-5.2,3.7-7.8,5s-5,2-7.2,2c-3.5,0-5.6-1.5-6.1-4.6
			c-0.5-3.1,0.7-7.3,3.5-12.5c1.3-2.1,2.5-4.2,3.8-6.1c1.3-1.9,2.5-3.8,3.6-5.5c-1.7,1.1-3.5,1.9-5.5,2.4c-2,0.5-3.8,0.6-5.5,0.3
			l-1,1.4c-2.6,4-5.2,7.1-7.7,9.4c-2.6,2.3-5,3.6-7.2,3.9c-2.2,0.3-4.2-0.5-5.9-2.4c-1.7-1.9-2.8-5.1-3.5-9.5c-1,1.3-2,3.5-3,6.4
			c-1,2.9-2,6.1-3.1,9.4c-0.7,2.2-1.7,4.3-2.9,6.1c-1.2,1.9-3.1,3.3-5.9,4.4c-1.1,0.4-2.3,0.9-3.5,1.4c-1.3,0.5-2.3,0.7-3.2,0.7
			c-0.9,0-1.4-0.5-1.7-1.3c-0.2-0.8,0.2-2.3,1.2-4.4c1-2.1,2.1-4.7,3.5-8c1.4-3.2,3-6.8,4.7-10.7c1.8-3.9,3.7-8,5.9-12.3
			c2.1-4.3,4.4-8.6,6.9-12.8c2.5-4.2,5.1-8.2,7.8-12.1c2.7-3.9,5.6-7.3,8.6-10.3c1.9-1.9,3.8-3.2,5.6-3.9c1.8-0.7,3.5-0.9,4.9-0.6
			c1.4,0.3,2.5,1,3.4,2.2c0.8,1.1,1.2,2.6,1.2,4.3c-0.1,1.3-0.6,3-1.5,4.9c-1,2-2.2,4.1-3.8,6.4c-1.5,2.3-3.3,4.7-5.2,7.2
			c-2,2.5-3.9,4.9-5.9,7.2c-2,2.3-3.9,4.5-5.7,6.6c-1.8,2.1-3.4,3.8-4.7,5.2c1.4,2.1,2.8,3.5,4.1,4.3c1.3,0.8,2.7,1.1,4,0.9
			c1.4-0.2,2.8-0.9,4.3-2c1.5-1.1,3.1-2.6,4.7-4.5c-1.3-1.6-1.8-3.7-1.5-6.2c0.3-2.5,1.1-4.9,2.4-7.1c1.3-2.2,2.9-4,4.7-5.2
			c1.9-1.3,3.7-1.6,5.5-0.8c0.9,0.4,1.4,0.8,1.5,1.4c0.1,0.6,0.1,1.2-0.2,1.9c-0.2,0.7-0.6,1.5-1.1,2.4
			C1066.7,374.4,1066.3,375.4,1065.9,376.4z M1040.6,379.6c1-1.1,2.2-2.5,3.6-4.3c1.5-1.8,3-3.6,4.6-5.6c1.6-2,3.2-4,4.7-6.1
			c1.5-2.1,2.9-4,4.1-5.7c1.2-1.7,2.1-3.2,2.7-4.5c0.6-1.3,0.7-2.1,0.4-2.4c-0.6-0.7-1.6-0.3-3.1,1.2c-1.5,1.5-3.2,3.6-5.1,6.4
			c-1.9,2.8-3.9,6.1-6,9.8C1044.3,372.1,1042.4,375.8,1040.6,379.6z"/>
	</g>
	<g>
		<path fill="#89BE37" d="M984.8,403.7c0-2.3,0.8-4.2,2.4-5.9c1.6-1.6,3.5-2.4,5.7-2.4c2.3,0,4.2,0.8,5.9,2.4
			c1.6,1.6,2.4,3.6,2.4,5.9c0,2.2-0.8,4.1-2.4,5.7c-1.6,1.6-3.6,2.4-5.9,2.4c-2.2,0-4.1-0.8-5.7-2.4
			C985.6,407.8,984.8,405.9,984.8,403.7z"/>
		<path fill="#89BE37" d="M1062.1,372.6c1.5,0.4,2.9,0.6,4,0.5c1.1-0.1,2.2-0.4,3-0.9s1.7-1.2,2.3-1.9c0.7-0.8,1.3-1.6,1.9-2.5
			c0.7-0.9,1.5-1.3,2.4-1.1c0.9,0.1,1.7,0.6,2.4,1.4c0.7,0.8,1.2,1.8,1.4,2.9c0.3,1.2,0.1,2.4-0.6,3.5c-0.4,0.7-1,1.8-1.9,3.5
			c-0.9,1.7-1.9,3.5-2.9,5.4c-1,1.9-2,3.7-3,5.5c-1,1.8-1.6,3-2,3.8c-0.6,1.2-1.2,2.4-1.8,3.5c-0.6,1.2-1.1,2.2-1.4,3.1
			s-0.4,1.7-0.3,2.2s0.7,0.8,1.7,0.8c1.4,0,2.9-0.4,4.6-1.1c1.7-0.7,3.3-1.7,5-3c1.7-1.3,3.3-2.7,4.8-4.3c1.5-1.6,2.8-3.3,3.9-5.2
			c0.7-1.2,1.5-2,2.3-2.4c0.8-0.4,1.4-0.5,1.9-0.2c0.5,0.3,0.8,0.9,0.9,1.7c0.1,0.8-0.2,1.9-0.9,3.1c-1.3,2.3-3,4.7-5.2,7.1
			c-2.2,2.5-4.6,4.7-7.2,6.7c-2.6,2-5.2,3.7-7.8,5s-5,2-7.2,2c-3.5,0-5.6-1.5-6.1-4.6c-0.5-3.1,0.7-7.3,3.5-12.5
			c1.3-2.1,2.5-4.2,3.8-6.1c1.3-1.9,2.5-3.8,3.6-5.5c-1.7,1.1-3.5,1.9-5.5,2.4c-2,0.5-3.8,0.6-5.5,0.3l-1,1.4
			c-2.6,4-5.2,7.1-7.7,9.4c-2.6,2.3-5,3.6-7.2,3.9c-2.2,0.3-4.2-0.5-5.9-2.4c-1.7-1.9-2.8-5.1-3.5-9.5c-1,1.3-2,3.5-3,6.4
			c-1,2.9-2,6.1-3.1,9.4c-0.7,2.2-1.7,4.3-2.9,6.1c-1.2,1.9-3.1,3.3-5.9,4.4c-1.1,0.4-2.3,0.9-3.5,1.4c-1.3,0.5-2.3,0.7-3.2,0.7
			c-0.9,0-1.4-0.5-1.7-1.3c-0.2-0.8,0.2-2.3,1.2-4.4c1-2.1,2.1-4.7,3.5-8c1.4-3.2,3-6.8,4.7-10.7c1.8-3.9,3.7-8,5.9-12.3
			c2.1-4.3,4.4-8.6,6.9-12.8c2.5-4.2,5.1-8.2,7.8-12.1c2.7-3.9,5.6-7.3,8.6-10.3c1.9-1.9,3.8-3.2,5.6-3.9c1.8-0.7,3.5-0.9,4.9-0.6
			c1.4,0.3,2.5,1,3.4,2.2c0.8,1.1,1.2,2.6,1.2,4.3c-0.1,1.3-0.6,3-1.5,4.9c-1,2-2.2,4.1-3.8,6.4c-1.5,2.3-3.3,4.7-5.2,7.2
			s-3.9,4.9-5.9,7.2c-2,2.3-3.9,4.5-5.7,6.6c-1.8,2.1-3.4,3.8-4.7,5.2c1.4,2.1,2.8,3.5,4.1,4.3c1.3,0.8,2.7,1.1,4,0.9
			c1.4-0.2,2.8-0.9,4.3-2c1.5-1.1,3.1-2.6,4.7-4.5c-1.3-1.6-1.8-3.7-1.5-6.2c0.3-2.5,1.1-4.9,2.4-7.1c1.3-2.2,2.9-4,4.7-5.2
			c1.9-1.3,3.7-1.6,5.5-0.8c0.9,0.4,1.4,0.8,1.5,1.4c0.1,0.6,0.1,1.2-0.2,1.9c-0.2,0.7-0.6,1.5-1.1,2.4
			C1062.9,370.7,1062.5,371.6,1062.1,372.6z M1036.9,375.8c1-1.1,2.2-2.5,3.6-4.3c1.5-1.8,3-3.6,4.6-5.6c1.6-2,3.2-4,4.7-6.1
			c1.5-2.1,2.9-4,4.1-5.7c1.2-1.7,2.1-3.2,2.7-4.5c0.6-1.3,0.7-2.1,0.4-2.4c-0.6-0.7-1.6-0.3-3.1,1.2c-1.5,1.5-3.2,3.6-5.1,6.4
			c-1.9,2.8-3.9,6.1-6,9.8C1040.6,368.4,1038.6,372.1,1036.9,375.8z"/>
	</g>
</g>
</svg>
