<?xml version="1.0" encoding="utf-8"?>
<!-- Generator: Adobe Illustrator 16.0.0, SVG Export Plug-In . SVG Version: 6.00 Build 0)  -->
<!DOCTYPE svg PUBLIC "-//W3C//DTD SVG 1.1//EN" "http://www.w3.org/Graphics/SVG/1.1/DTD/svg11.dtd">
<svg version="1.1" id="Calque_1" xmlns="http://www.w3.org/2000/svg" xmlns:xlink="http://www.w3.org/1999/xlink" x="0px" y="0px"
	 width="215.587px" height="190px" viewBox="0 0 215.587 190" enable-background="new 0 0 215.587 190" xml:space="preserve">
<g>
	<g>
		<g>
			<path fill="#132249" d="M152.061,63.407c-0.943-0.154-2.963-0.923-3.73-1.366c-0.77-0.442-3.578-1.191-4.75-1.21
				c-1.174-0.02-3.674,0.691-4.691,0.884c-1.02,0.192-1.463-0.078-2.828-0.289c-1.365-0.212-5.884-1.475-10.242-2.192
				s-7.947-1.18-11.793-1.077s-5.437-0.461-9.128-0.41c-3.692,0.051-5.179,0.819-6.871,0.41c-1.692-0.41-3.128-0.718-5.127-0.718
				c-2,0-4.41,0.154-5.077,0.461c-0.667,0.308-0.41,0.615-1.743,0.666c-1.333,0.052-2.564-0.205-3.691,0.154
				c-1.128,0.359-2.205,0.41-3.23,0.513c-1.026,0.103-1.334,0.103-1.334,0.103l-0.153,0.128c0,0-0.308-0.898-0.308-1.898
				c0-0.999,0-2.076-0.18-3.307c-0.179-1.23-0.333-1.616-0.82-2.153c-0.487-0.539-0.641-0.487-0.564-1.154
				c0.077-0.667,0.256-1.539-0.154-1.897c-0.41-0.359-0.795-0.411-1.026-0.872c-0.23-0.461-0.461-1.282-0.794-2.051
				c-0.333-0.77-0.18-1.077-0.795-1.513c-0.615-0.436-1.308-0.898-1.846-1.23c-0.538-0.333-1.589-0.898-2.23-0.898
				c-0.641,0-0.487-0.41-0.975-0.435c-0.487-0.026-1.923,0.128-2.385,0.333c-0.461,0.206-0.641,0.411-1.205,0.923
				s-0.539,0.257-1.154,0.744c-0.615,0.487-0.667,0.846-0.692,1.205c-0.025,0.359-0.128,0.769-0.744,1.256
				c-0.615,0.487-0.718,0.308-1.153,0.641c-0.436,0.333-2.231,1.82-1.744,4.974c0.487,3.154,1.359,3.589,1.974,4.589
				c0.616,1,1.795,2,2.384,2.923s1.436,2.052,2.103,2.667c0.667,0.615,1.103,1.127,1.667,1.435c0.563,0.308,0.82-0.256,1.076,0.462
				c0.257,0.717,0.257,1.46,0.257,1.743c0,0.281-0.128,0.077-0.359,0.794c-0.231,0.718-1.154,2.153-1.59,2.589
				s-0.487,0.667-0.692,0.744c0,0-0.872-0.744-1.385-0.77c-0.512-0.025-3.153-0.205-3.82-0.359
				c-0.667-0.153-3.205-0.769-4.589,0.026c-1.385,0.795-2.154,1.179-3.743,1.872c-1.59,0.692-6.154,2.333-7.563,3.358
				c-1.41,1.026-2.948,2.897-4.18,3.975c-1.23,1.076-3.769,3.179-2.435,5.743c1.333,2.563,5.333,1.872,7.563,1.538
				c2.23-0.333,7.422-1.153,9.499-1.884c2.077-0.73,5.308-2.192,7.769-0.461c2.46,1.73,4.307,2.961,4.576,3.73
				s-0.346,1.077,1.077,1.346c1.422,0.27,0.769,0.5,1.845,1.269c1.077,0.77,2.577,2.077,3.346,3.385
				c0.77,1.308,1.27,2.269,2.846,3.076s2.308,1.769,1.961,2.885c-0.346,1.115-0.346,1.422,0.5,2.384
				c0.846,0.961,0.846,1.077,0.769,1.961c-0.077,0.884-0.192,0.077-0.077,0.884c0.115,0.808,1.038,0.347,0.577,1.039
				c-0.462,0.692-1.77,2.692-1.461,5.692c0.307,3,1.115,4.577,2.114,7.883c1,3.308,1.847,3.501,1.847,4.808
				c0,1.308-0.461,1.692,0.346,2.846c0.808,1.154,1.154,1,1.116,2.192c-0.039,1.192,0.077,1.653,0.384,2.96
				c0.308,1.309,0,3.309,1.039,4.77c0,0-0.616-0.691-3-1c-2.384-0.308-3.423-0.385-4.845-0.538c-1.423-0.153-5.423-1-6.346-1.385
				c-0.923-0.384-1.692-0.769-1.692-1.999c0-1.231,0.385-2.462,0.269-4.192c-0.115-1.729-0.308-3.114-2.999-3.114
				c-2.693,0-4.308,0.537-5.115,1.307s-1.615,2.115-2.538,2.692c-0.923,0.577-2.577,0.077-3.5,0.653
				c-0.923,0.577-5.423,3.115-6,6.73c-0.577,3.615,1.769,4.653,2.73,4.653s4.076-0.769,4.692-1.192
				c0.615-0.424,1.038-0.038,1.884,0.27c0.846,0.307,1.846,0.923,3.23,1.038c1.384,0.115,2,0,2.461-0.461
				c0.461-0.462,0.539-0.731,0.539-0.731s1.422,0.692,3.807,1.654c2.385,0.961,5.922,2.999,5.922,2.999s-1.922,0.347-4.076,1.039
				c-2.153,0.692-3.577,0.962-4.307,0.615s-3.653-1.153-4.615-1.23c-0.961-0.077-3.23-0.347-3.5,0.808
				c-0.269,1.153-0.039,3.346-0.039,5.191s-0.077,3-0.269,4.308c-0.192,1.308,1.333,9.55,2.41,9.857
				c1.077,0.308,2.461,0.974,2.667-0.308c0.205-1.282-0.205-1.691,0.256-2.308c0.461-0.615,0.666-0.615,0.821-1.486
				c0.153-0.873,0.05-1.692,0.563-1.796c0.513-0.103,1.436-1.179,3.025-2.307s2.102-1.641,2.769-2.153
				c0.667-0.513,0.872-0.821,0.564-0.872s0.872-0.667,1.897-1.333c1.025-0.667,3.846-1.23,4.974-1.846
				c1.128-0.615,3.949-1.847,4.871-1.743c0.923,0.102,3.025,1.743,4.308,2.512c1.282,0.77,4.871,2.41,7.487,1.437
				c2.614-0.976,4.819-2.718,5.076-4s0.667-3.846,0.667-3.846s3.23-0.206,4.461-1.847s2.052-2.256,1.846-5.896
				c-0.205-3.641-0.154-5.743-0.154-9.281s0.052-4.922-0.41-7.947c-0.461-3.026-1.179-4.564-2-7.179s-1.436-3.641-1.025-4.153
				c0.41-0.513,0.922-1.128,0.154-2.974c-0.77-1.846-1.641-1.949-2-4.307c-0.358-2.359-0.974-4.051-2.051-8.82
				c-1.077-4.769-1.025-3.845-2.051-6.614s-0.718-3.077-0.975-5.692c-0.257-2.615-1.23-4.563-2-6.102
				c-0.769-1.539-0.667-1.692-0.82-3.128c-0.154-1.435-0.308-2.872-0.154-3.487c0.154-0.615,0.923-0.615,3.794-0.461
				c2.872,0.154,3.846-0.153,7.333-0.461c3.487-0.308,6.307-0.358,8.871-0.358c2.564,0,4.975,0.615,7.436,0.563
				c2.461-0.051,7.436-0.461,9.846-0.461c2.409,0,5.178-0.103,6.307,0.461c1.127,0.564,2.514,1.795,4.256,2.051
				s3.025,0.513,3.846,0.154c0.82-0.359,0.436-0.359,1.09-0.975c0.654-0.615,0.691-0.922,0.346-1.192
				c-0.346-0.269-0.809-0.346-1.307,0.077c-0.502,0.423-0.887,0.539-1.154,0.154c-0.27-0.384,0.385-0.693,0.691-1
				c0.309-0.308,1.424-0.5,2.615-0.423c1.193,0.077,3.039,0.404,3.654,0.673s1.096-0.134,1.135-0.481
				c0.037-0.346,0.537-0.538,0.596-0.846C152.924,63.888,153.002,63.561,152.061,63.407z M57.146,74.195
				c-1.658,0.199-1.971,0.625-2.026,0.739c-0.004,0.011-0.013,0.03-0.013,0.03s0.004-0.012,0.013-0.03
				c0.064-0.153,0.551-1.288,0.911-1.431c0.384-0.154,0.5-0.577,1-0.154c0.5,0.422,0.692,0.346,1.269,0.538
				c0.285,0.095,0.588,0.152,0.823,0.186c0.3,0.013,0.408,0.045,0.408,0.045s-0.168-0.01-0.408-0.045
				C58.777,74.059,58.175,74.071,57.146,74.195z"/>
		</g>
	</g>
</g>
<circle fill="#132249" cx="116.333" cy="17.7" r="8.615"/>
<g>
	<path fill="#005B96" d="M44.945,170.34c-1.92,0.6-3.72,1.2-5.64,1.8c-1.92,0.479-3.36,1.2-5.28,1.2c-0.96,0-2.76-1.56-3.12-1.8
		c-0.36-0.48-0.6-0.96-0.84-1.44c-0.72-0.96-1.439-2.16-1.92-2.4c0,0-1.32-0.48-3.24-1.32c-1.56-0.6-2.4-0.84-3.959-1.56
		c-0.72-0.36-1.8-0.72-2.04-0.96c-0.36-0.84-1.68-1.2-2.04-1.92c-1.56-3.12-2.64-6.36-3.48-9.72c-0.72-2.52-0.72-5.04-1.08-7.44
		c-0.48-3.6-0.72-7.199-0.84-10.799c-0.24-7.44-0.24-15.359,1.56-22.679c0.36-1.92,0.6-3.6,0.96-5.28c0.72-3,1.44-5.879,2.4-8.759
		c1.56-5.4,3.84-10.68,5.28-16.2c0.24-1.2,1.56-0.36,2.28,0c0,0,0.36,0,5.52,1.8c2.4,0.479,5.88,1.68,6.359,1.68
		c0.6,0.12,0.96,0.48,1.56,0.6c1.56,0.6,2.52,4.68,3.12,6.12c0.96,2.64,1.92,5.4,2.76,8.16c1.56,4.92,2.64,9.959,3.96,15.12
		c0.6,2.76,1.8,5.279,2.52,8.04c0.12,0.6,0.479,1.08,0.479,1.92c0,0.84-0.96,1.44-1.56,1.44c-0.6,0-1.68-0.24-1.8-0.36
		c0,0,0.12-0.12-5.64-2.04c-1.8-0.12-4.2-1.68-4.56-1.8c-0.48-0.24-1.08-1.2-1.32-1.8c-1.56-2.64-2.16-6.12-2.76-9
		c-0.72-3-1.2-6.12-2.28-9c-3.36,9.72-4.92,19.919-5.16,30.119c-0.24,5.4,0.36,10.439,1.08,15.839c0.24,2.64,0.6,5.16,1.32,7.68
		c0.36,1.2,0.72,2.4,0.96,3.6c0.48,1.08,0.12,0.72,1.08,0.72c0,0,0,0,5.399-1.56c3-1.32,3.6-1.32,7.8-2.76
		c0.6-0.24,6.12-1.92,6.12-1.32c0.36,0.12,3.36,3.959,3.24,4.08c0,0.48,2.64,3,3.84,4.56c0.48,0.6,1.44,1.92,1.56,2.16
		c0.96,0.96-0.48,2.04-1.32,2.16C52.385,167.58,48.665,169.02,44.945,170.34z"/>
	<path fill="#005B96" d="M148.14,86.223c0.36,0.36,2.28,2.64,2.64,2.88c0.72,0.6,0.72,0.6,0.72,0.6c0.36,0.96,1.8,1.68,1.92,2.52
		c0.48,3.6-1.32,7.56-2.16,10.919c-0.84,3.48-1.8,6.96-2.88,10.44c-2.04,7.199-3.72,14.399-5.64,21.719
		c-1.92,7.56-2.88,14.04-5.04,22.919c-0.96,4.08-1.56,6.24-2.4,10.32c-0.36,1.68-0.48,3.12-2.04,4.2c-0.6,0.48-1.08,0.84-1.8,0.84
		c-0.84,0-2.04-0.96-2.4-1.56c-0.12-0.48-1.32-0.48-1.56-0.84c-0.36-0.6-1.08-0.24-1.44-0.6c-0.48-0.48-3.36-1.8-3.84-2.4
		c-0.48-0.48-1.32-1.2-1.68-1.2c-0.36-0.12-0.6-0.6-0.96-0.72c-0.24-0.24-0.72-1.44-0.96-1.8c-0.84-2.28-3-13.2-3.72-16.8
		c0,0-0.12-2.76-6.12-34.198c-2.16-11.52-5.52-26.639-6.12-28.919c0-0.24-0.72-3.84,0.48-3.72c0.48,0.12,0.6-0.36,1.08,0.12
		c0,0.12,0.48,0.36,0.72,0.479c0.6,0.12,0.48,0,0.48,0c0.48,0.12,3.72,2.16,4.08,2.4c1.08,0.96,2.52,1.08,3.6,1.8
		c0.48,0.24,2.28,0.84,2.64,1.44c1.32,1.32,1.56,4.44,1.8,6.12c1.08,5.28,2.04,10.439,2.88,15.6
		c1.92,10.799,3.84,21.599,5.88,32.398c0.24,1.32,0.48,2.52,0.6,3.96c1.2-4.44,2.04-8.76,3.12-13.08c0.96-3.84,2.04-7.56,2.76-11.28
		c2.04-8.759,4.56-17.519,6.96-26.159c0.72-2.52,1.2-4.92,1.92-7.32c0.24-0.72,0.96-4.08,1.2-4.68c0.6-1.32,2.28,0.6,2.52,0.84
		c0.12,0.24,0.84,0.6,0.96,0.84C146.58,85.263,147.78,85.624,148.14,86.223z"/>
	<path fill="#005B96" d="M154.502,161.22c-0.48-0.48-0.96-3.479-1.08-4.08c-0.72-9.48-0.96-18.959-0.84-28.439
		c0.12-10.8,0-21.839,0.6-32.759c0-1.32,0.24-2.64,0.24-4.08c0-0.72,0-1.32,0-2.04c0-0.96,0.24-0.6-0.36-1.08
		c-0.24-0.36-0.36-0.48-0.36-0.48c-0.24-0.48-0.48-0.84-0.36-1.2s0.48-0.84,0.48-0.84c0.6-0.12,0.72,0.12,0.72-0.6
		c0-1.08,0-1.8-0.12-2.88c0-0.6,0.96-1.92,1.68-1.08c0.6,0.84,1.2,0.96,2.28,1.68c1.68,1.2,9.479-1.92,10.56-2.16
		c1.08-0.36,6-1.8,10.439-2.4c0.84-0.12,1.68-0.36,2.64-0.36c0.84,0,1.08,0.48,1.68,0.6c0.12,0.12,3.12,2.52,3.12,2.399
		c1.32,0.12,4.68,3.12,5.16,3.6c0.24-0.12,6.12,4.32,5.88,5.52c-0.48,0.96-0.48,1.2-1.08,1.8c-1.08,2.04-2.04,4.08-3,6.12
		c-3.48,6.959-6.6,14.16-9.959,21.239c-0.12,0.48-0.36,0.84,0,0.72c3-0.24,4.44,1.32,6.6,3c1.08,0.84,2.28,1.56,3.48,2.4
		c1.08,0.6,2.4,1.2,3.479,1.92c4.44,3.48,2.28,10.439,1.32,15c-1.56,6.479-3.48,12.719-5.04,18.959
		c-1.08,4.08-3.84,12.36-8.879,12.36c-1.8,1.68-6.84-2.16-9.72-3.48c-2.76-1.2-5.52-2.4-7.919-4.44c0,0,0.12,0.48-0.48,0.84
		c-0.36,0.36-0.6,0.72-1.2,0.72c-0.84,0-2.28-1.08-2.28-1.56c-0.24,0.24-5.52-3-5.76-3.24
		C155.942,162.541,155.222,161.82,154.502,161.22z M168.181,117.422c1.2-2.64,2.52-5.16,3.84-7.68c3-6.24,5.76-12.36,8.52-18.6
		c-3.36,0.72-6.84,1.44-9.96,2.64c-1.56,0.6-3,0.96-4.439,1.56c-0.48,0.24-0.72,0.72-0.84,1.2c-0.24,9.479-0.36,18.839-0.6,28.319
		C165.421,122.222,167.102,119.822,168.181,117.422z M164.941,139.861c-0.12,3.48-0.12,6.959,0.12,10.439
		c0.12,1.08,0.12,2.04,0.24,3.12c0,0.48,8.64,10.92,9,11.4c0.72,0.6,1.32,1.08,1.68,0.72c0.6-0.84,1.2-2.16,1.8-3.24
		c1.32-2.76,2.04-5.76,2.88-8.64c0.84-3.24,1.92-6.36,2.64-9.479c0,0,1.08-3.6,2.64-11.16c-2.16,1.08-2.52,1.56-2.52,1.56
		c-1.32,0.84-3.24,2.52-4.08,3.6c-0.6,0.6-5.64,5.64-6.12,5.88c-0.24,0.24-0.96,0.24-1.44,0
		C170.221,144.061,166.261,140.221,164.941,139.861z"/>
</g>
</svg>
