<?xml version="1.0" encoding="utf-8"?>
<!-- Generator: Adobe Illustrator 16.0.0, SVG Export Plug-In . SVG Version: 6.00 Build 0)  -->
<!DOCTYPE svg PUBLIC "-//W3C//DTD SVG 1.1//EN" "http://www.w3.org/Graphics/SVG/1.1/DTD/svg11.dtd">
<svg version="1.1" id="Calque_1" xmlns="http://www.w3.org/2000/svg" xmlns:xlink="http://www.w3.org/1999/xlink" x="0px" y="0px"
	 width="204px" height="174px" viewBox="0 0 204 174" enable-background="new 0 0 204 174" xml:space="preserve">
<g>
	<g>
		<g>
			<path fill="#132249" d="M148.061,58.407c-0.943-0.154-2.963-0.923-3.73-1.366c-0.77-0.442-3.578-1.191-4.75-1.21
				c-1.174-0.02-3.674,0.691-4.691,0.884c-1.02,0.192-1.463-0.078-2.828-0.289c-1.365-0.212-5.884-1.475-10.242-2.192
				s-7.947-1.18-11.793-1.077s-5.437-0.461-9.128-0.41c-3.692,0.051-5.179,0.819-6.871,0.41c-1.692-0.41-3.128-0.718-5.127-0.718
				c-2,0-4.41,0.154-5.077,0.461c-0.667,0.308-0.41,0.615-1.743,0.666c-1.333,0.052-2.564-0.205-3.691,0.154
				c-1.128,0.359-2.205,0.41-3.23,0.513c-1.026,0.103-1.334,0.103-1.334,0.103l-0.153,0.128c0,0-0.308-0.898-0.308-1.898
				c0-0.999,0-2.076-0.18-3.307c-0.179-1.23-0.333-1.616-0.82-2.153c-0.487-0.539-0.641-0.487-0.564-1.154
				c0.077-0.667,0.256-1.539-0.154-1.897c-0.41-0.359-0.795-0.411-1.026-0.872c-0.23-0.461-0.461-1.282-0.794-2.051
				c-0.333-0.77-0.18-1.077-0.795-1.513c-0.615-0.436-1.308-0.898-1.846-1.23c-0.538-0.333-1.589-0.898-2.23-0.898
				c-0.641,0-0.487-0.41-0.975-0.435c-0.487-0.026-1.923,0.128-2.385,0.333c-0.461,0.206-0.641,0.411-1.205,0.923
				s-0.539,0.257-1.154,0.744c-0.615,0.487-0.667,0.846-0.692,1.205c-0.025,0.359-0.128,0.769-0.744,1.256
				c-0.615,0.487-0.718,0.308-1.153,0.641c-0.436,0.333-2.231,1.82-1.744,4.974c0.487,3.154,1.359,3.589,1.974,4.589
				c0.616,1,1.795,2,2.384,2.923s1.436,2.052,2.103,2.667c0.667,0.615,1.103,1.127,1.667,1.435c0.563,0.308,0.82-0.256,1.076,0.462
				c0.257,0.717,0.257,1.46,0.257,1.743c0,0.281-0.128,0.077-0.359,0.794c-0.231,0.718-1.154,2.153-1.59,2.589
				s-0.487,0.667-0.692,0.744c0,0-0.872-0.744-1.385-0.77c-0.512-0.025-3.153-0.205-3.82-0.359
				c-0.667-0.153-3.205-0.769-4.589,0.026c-1.385,0.795-2.154,1.179-3.743,1.872c-1.59,0.692-6.154,2.333-7.563,3.358
				c-1.41,1.026-2.948,2.897-4.18,3.975c-1.23,1.076-3.769,3.179-2.435,5.743c1.333,2.563,5.333,1.872,7.563,1.538
				c2.23-0.333,7.422-1.153,9.499-1.884c2.077-0.73,5.308-2.192,7.769-0.461c2.46,1.73,4.307,2.961,4.576,3.73
				s-0.346,1.077,1.077,1.346c1.422,0.27,0.769,0.5,1.845,1.269c1.077,0.77,2.577,2.077,3.346,3.385
				c0.77,1.308,1.27,2.269,2.846,3.076s2.308,1.769,1.961,2.885c-0.346,1.115-0.346,1.422,0.5,2.384
				c0.846,0.961,0.846,1.077,0.769,1.961c-0.077,0.884-0.192,0.077-0.077,0.884c0.115,0.808,1.038,0.347,0.577,1.039
				c-0.462,0.692-1.77,2.692-1.461,5.692c0.307,3,1.115,4.577,2.114,7.883c1,3.308,1.847,3.501,1.847,4.808
				c0,1.308-0.461,1.692,0.346,2.846c0.808,1.154,1.154,1,1.116,2.192c-0.039,1.192,0.077,1.653,0.384,2.96
				c0.308,1.309,0,3.309,1.039,4.77c0,0-0.616-0.691-3-1c-2.384-0.308-3.423-0.385-4.845-0.538c-1.423-0.153-5.423-1-6.346-1.385
				c-0.923-0.384-1.692-0.769-1.692-1.999c0-1.231,0.385-2.462,0.269-4.192c-0.115-1.729-0.308-3.114-2.999-3.114
				c-2.693,0-4.308,0.537-5.115,1.307s-1.615,2.115-2.538,2.692c-0.923,0.577-2.577,0.077-3.5,0.653
				c-0.923,0.577-5.423,3.115-6,6.73c-0.577,3.615,1.769,4.653,2.73,4.653s4.076-0.769,4.692-1.192
				c0.615-0.424,1.038-0.038,1.884,0.27c0.846,0.307,1.846,0.923,3.23,1.038c1.384,0.115,2,0,2.461-0.461
				c0.461-0.462,0.539-0.731,0.539-0.731s1.422,0.692,3.807,1.654c2.385,0.961,5.922,2.999,5.922,2.999s-1.922,0.347-4.076,1.039
				c-2.153,0.692-3.577,0.962-4.307,0.615s-3.653-1.153-4.615-1.23c-0.961-0.077-3.23-0.347-3.5,0.808
				c-0.269,1.153-0.039,3.346-0.039,5.191s-0.077,3-0.269,4.308c-0.192,1.308,1.333,9.55,2.41,9.857
				c1.077,0.308,2.461,0.974,2.667-0.308c0.205-1.282-0.205-1.691,0.256-2.308c0.461-0.615,0.666-0.615,0.821-1.486
				c0.153-0.873,0.05-1.692,0.563-1.796c0.513-0.103,1.436-1.179,3.025-2.307s2.102-1.641,2.769-2.153
				c0.667-0.513,0.872-0.821,0.564-0.872s0.872-0.667,1.897-1.333c1.025-0.667,3.846-1.23,4.974-1.846
				c1.128-0.615,3.949-1.847,4.871-1.743c0.923,0.102,3.025,1.743,4.308,2.512c1.282,0.77,4.871,2.41,7.487,1.437
				c2.614-0.976,4.819-2.718,5.076-4s0.667-3.846,0.667-3.846s3.23-0.206,4.461-1.847s2.052-2.256,1.846-5.896
				c-0.205-3.641-0.154-5.743-0.154-9.281s0.052-4.922-0.41-7.947c-0.461-3.026-1.179-4.564-2-7.179s-1.436-3.641-1.025-4.153
				c0.41-0.513,0.922-1.128,0.154-2.974c-0.77-1.846-1.641-1.949-2-4.307c-0.358-2.359-0.974-4.051-2.051-8.82
				c-1.077-4.769-1.025-3.845-2.051-6.614s-0.718-3.077-0.975-5.692c-0.257-2.615-1.23-4.563-2-6.102
				c-0.769-1.539-0.667-1.692-0.82-3.128c-0.154-1.435-0.308-2.872-0.154-3.487c0.154-0.615,0.923-0.615,3.794-0.461
				c2.872,0.154,3.846-0.153,7.333-0.461c3.487-0.308,6.307-0.358,8.871-0.358c2.564,0,4.975,0.615,7.436,0.563
				c2.461-0.051,7.436-0.461,9.846-0.461c2.409,0,5.178-0.103,6.307,0.461c1.127,0.564,2.514,1.795,4.256,2.051
				s3.025,0.513,3.846,0.154c0.82-0.359,0.436-0.359,1.09-0.975c0.654-0.615,0.691-0.922,0.346-1.192
				c-0.346-0.269-0.809-0.346-1.307,0.077c-0.502,0.423-0.887,0.539-1.154,0.154c-0.27-0.384,0.385-0.693,0.691-1
				c0.309-0.308,1.424-0.5,2.615-0.423c1.193,0.077,3.039,0.404,3.654,0.673s1.096-0.134,1.135-0.481
				c0.037-0.346,0.537-0.538,0.596-0.846C148.924,58.888,149.002,58.561,148.061,58.407z M53.146,69.195
				c-1.658,0.199-1.971,0.625-2.026,0.739c-0.004,0.011-0.013,0.03-0.013,0.03s0.004-0.012,0.013-0.03
				c0.064-0.153,0.551-1.288,0.911-1.431c0.384-0.154,0.5-0.577,1-0.154c0.5,0.422,0.692,0.346,1.269,0.538
				c0.285,0.095,0.588,0.152,0.823,0.186c0.3,0.013,0.408,0.045,0.408,0.045s-0.168-0.01-0.408-0.045
				C54.777,69.059,54.175,69.071,53.146,69.195z"/>
		</g>
	</g>
</g>
<circle fill="#132249" cx="112.333" cy="12.7" r="8.615"/>
<rect x="7.586" y="37.054" fill="none" width="204" height="186.981"/>
<text transform="matrix(1 0 0 1 7.5864 192.8188)" fill="#005B96" font-family="'BarataDisplayBetaVersion'" font-size="120">c  vb</text>
</svg>
