<?xml version="1.0" standalone="no"?>
<!DOCTYPE svg PUBLIC "-//W3C//DTD SVG 1.1//EN" "http://www.w3.org/Graphics/SVG/1.1/DTD/svg11.dtd" >
<svg>
<metadata>
Created by FontForge 20090622 at Mon Jan  4 20:01:22 2016
 By www
Copyright &#194;&#169; 1992-1995 Microsoft Corp. All Rights Reserved. &#194;&#169; 1990-1991 Type Solutions, Inc. All Rights Reserved.
</metadata>
<defs>
<font id="Wingdings-Regular" horiz-adv-x="1825" >
  <font-face 
    font-family="Wingdings"
    font-weight="400"
    font-stretch="normal"
    units-per-em="2048"
    panose-1="5 0 0 0 0 0 0 0 0 0"
    ascent="1638"
    descent="-410"
    x-height="1159"
    cap-height="1604"
    bbox="0 -432 2783 1841"
    underline-thickness="100"
    underline-position="-150"
    unicode-range="U+001D-U+FB02"
  />
<missing-glyph horiz-adv-x="1024" 
d="M128 0v1480h768v-1480h-768zM256 128h512v1224h-512v-1224z" />
    <glyph glyph-name=".notdef" horiz-adv-x="1024" 
d="M128 0v1480h768v-1480h-768zM256 128h512v1224h-512v-1224z" />
    <glyph glyph-name=".notdef" horiz-adv-x="1024" 
d="M128 0v1480h768v-1480h-768zM256 128h512v1224h-512v-1224z" />
    <glyph glyph-name=".notdef" horiz-adv-x="1024" 
d="M128 0v1480h768v-1480h-768zM256 128h512v1224h-512v-1224z" />
    <glyph glyph-name=".notdef" horiz-adv-x="1024" 
d="M128 0v1480h768v-1480h-768zM256 128h512v1224h-512v-1224z" />
    <glyph glyph-name=".notdef" horiz-adv-x="1024" 
d="M128 0v1480h768v-1480h-768zM256 128h512v1224h-512v-1224z" />
    <glyph glyph-name=".notdef" horiz-adv-x="1024" 
d="M128 0v1480h768v-1480h-768zM256 128h512v1224h-512v-1224z" />
    <glyph glyph-name=".notdef" horiz-adv-x="1024" 
d="M128 0v1480h768v-1480h-768zM256 128h512v1224h-512v-1224z" />
    <glyph glyph-name=".notdef" horiz-adv-x="1024" 
d="M128 0v1480h768v-1480h-768zM256 128h512v1224h-512v-1224z" />
    <glyph glyph-name=".notdef" horiz-adv-x="1024" 
d="M128 0v1480h768v-1480h-768zM256 128h512v1224h-512v-1224z" />
    <glyph glyph-name=".notdef" horiz-adv-x="1024" 
d="M128 0v1480h768v-1480h-768zM256 128h512v1224h-512v-1224z" />
    <glyph glyph-name=".notdef" horiz-adv-x="1024" 
d="M128 0v1480h768v-1480h-768zM256 128h512v1224h-512v-1224z" />
    <glyph glyph-name=".notdef" horiz-adv-x="1024" 
d="M128 0v1480h768v-1480h-768zM256 128h512v1224h-512v-1224z" />
    <glyph glyph-name=".notdef" horiz-adv-x="1024" 
d="M128 0v1480h768v-1480h-768zM256 128h512v1224h-512v-1224z" />
    <glyph glyph-name=".notdef" horiz-adv-x="1024" 
d="M128 0v1480h768v-1480h-768zM256 128h512v1224h-512v-1224z" />
    <glyph glyph-name=".notdef" horiz-adv-x="1024" 
d="M128 0v1480h768v-1480h-768zM256 128h512v1224h-512v-1224z" />
    <glyph glyph-name=".notdef" horiz-adv-x="1024" 
d="M128 0v1480h768v-1480h-768zM256 128h512v1224h-512v-1224z" />
    <glyph glyph-name=".notdef" horiz-adv-x="1024" 
d="M128 0v1480h768v-1480h-768zM256 128h512v1224h-512v-1224z" />
    <glyph glyph-name=".notdef" horiz-adv-x="1024" 
d="M128 0v1480h768v-1480h-768zM256 128h512v1224h-512v-1224z" />
    <glyph glyph-name=".notdef" horiz-adv-x="1024" 
d="M128 0v1480h768v-1480h-768zM256 128h512v1224h-512v-1224z" />
    <glyph glyph-name=".notdef" horiz-adv-x="1024" 
d="M128 0v1480h768v-1480h-768zM256 128h512v1224h-512v-1224z" />
    <glyph glyph-name=".notdef" unicode="&#xa;" horiz-adv-x="1024" 
d="M128 0v1480h768v-1480h-768zM256 128h512v1224h-512v-1224z" />
    <glyph glyph-name=".notdef" horiz-adv-x="1024" 
d="M128 0v1480h768v-1480h-768zM256 128h512v1224h-512v-1224z" />
    <glyph glyph-name=".notdef" horiz-adv-x="1024" 
d="M128 0v1480h768v-1480h-768zM256 128h512v1224h-512v-1224z" />
    <glyph glyph-name=".notdef" horiz-adv-x="1024" 
d="M128 0v1480h768v-1480h-768zM256 128h512v1224h-512v-1224z" />
    <glyph glyph-name=".notdef" horiz-adv-x="1024" 
d="M128 0v1480h768v-1480h-768zM256 128h512v1224h-512v-1224z" />
    <glyph glyph-name=".notdef" horiz-adv-x="1024" 
d="M128 0v1480h768v-1480h-768zM256 128h512v1224h-512v-1224z" />
    <glyph glyph-name=".notdef" horiz-adv-x="1024" 
d="M128 0v1480h768v-1480h-768zM256 128h512v1224h-512v-1224z" />
    <glyph glyph-name=".notdef" horiz-adv-x="1024" 
d="M128 0v1480h768v-1480h-768zM256 128h512v1224h-512v-1224z" />
    <glyph glyph-name="uni001D" horiz-adv-x="0" 
 />
    <glyph glyph-name="uni001D" unicode="&#xd;" horiz-adv-x="0" 
 />
    <glyph glyph-name="uni001D" horiz-adv-x="0" 
 />
    <glyph glyph-name="uni001D" horiz-adv-x="0" 
 />
    <glyph glyph-name="glyph2" horiz-adv-x="1536" 
 />
    <glyph glyph-name="space" unicode=" " horiz-adv-x="2048" 
 />
    <glyph glyph-name="space" unicode="&#x9;" horiz-adv-x="2048" 
 />
    <glyph glyph-name="pencil" unicode="!" horiz-adv-x="2110" 
d="M74 -37l330 507l1375 1047q236 -71 257 -333l-1379 -1047zM1534 1268q151 -80 188 -254l257 195q-35 184 -190 251zM526 502q17 4 28 4q40 0 40 -38l-1 -10l829 635q-33 25 -65 39zM622 420q46 -11 46 -59l833 638q-15 33 -42 59zM697 322q19 -1 28 -9.5t9 -24.5
q0 -14 -13 -41l828 633q-12 43 -26 75zM258 157l57 -72l311 92q68 60 68 89q0 12 -6.5 17.5t-20.5 5.5q-29 0 -100 -35q60 57 60 95q0 19 -10.5 28.5t-32.5 9.5q-23 0 -94 -34q63 54 63 95q0 11 -6 16.5t-19 5.5q-45 0 -96 -39z" />
    <glyph glyph-name="scissors" unicode="&#x22;" horiz-adv-x="2344" 
d="M944 871l-141 -86l-75 45q-20 60 -137 111l-208 91q-235 103 -235 255q0 81 60.5 137t146.5 56q123 0 216 -83q92 -83 92 -193q0 -8 -4 -55l-1 -23q-2 -22 -2 -33q0 -72 114 -124q20 -10 39 -21zM738 683l1130 705q29 4 55 4q138 0 273 -55l-1201 -697q-56 -33 -77 -41
l-22 -8q-86 -32 -86 -115v-9l2 -25l3 -49q7 -136 -147 -264q-154 -129 -324 -129q-86 0 -141 43.5t-55 110.5q0 87 171 194l317 198q104 65 104 117q0 6 -2 20zM1063 620l154 92l979 -562q-123 -50 -235 -50q-45 0 -97 8zM355 1132l49 -24q66 -31 107 -31q80 0 80 112
q0 82 -74 151t-163 69q-53 0 -91.5 -37t-38.5 -88q0 -85 131 -152zM558 411l-229 -143q-105 -66 -105 -115q0 -40 32 -60t96 -20q132 0 259 103t127 210q0 72 -63 72q-38 0 -117 -47zM994 693q49 0 49 47t-49 47q-48 0 -48 -47t48 -47z" />
    <glyph glyph-name="scissorscutting" unicode="#" horiz-adv-x="2665" 
d="M1190 753l-164 -14l-48 72q3 17 3 28q0 42 -77 132l-147 174q-118 139 -118 249q0 79 56 134t137 55q105 0 190 -93t85 -208q0 -68 -51 -154l-12 -20q-27 -46 -27 -76q0 -41 59 -114q14 -17 27 -36zM922 675l1325 138q145 -47 270 -188l-1383 -101q-47 -4 -63 -4
q-14 0 -23 1l-24 2q-14 2 -27 2q-74 0 -104 -75l-10 -24q-93 -235 -407 -235q-144 0 -236 58.5t-92 148.5q0 76 53.5 110t197.5 49l372 40q87 9 113.5 23t37.5 55zM1187 476l180 15l332 -491h-221zM775 1246l34 -42q66 -83 118 -83q38 0 70 46.5t32 102.5q0 92 -59 166
t-131 74q-52 0 -89 -35t-37 -84q0 -62 62 -145zM642 510l-269 -29q-151 -16 -151 -84q0 -55 73 -93.5t177 -38.5q132 0 231.5 55t99.5 128q0 64 -100 64q-34 0 -61 -2zM1182 566q45 0 45 50q0 46 -53 46q-45 0 -45 -49q0 -47 53 -47z" />
    <glyph glyph-name="readingglasses" unicode="$" horiz-adv-x="2752" 
d="M1662 381l406 422q212 221 363 221q109 0 178 -76.5t69 -197.5q0 -104 -45 -104q-41 0 -41 42q0 10 3 20l8 24q15 44 15 68q0 72 -54.5 123t-131.5 51q-132 0 -337 -217l-433 -456q-24 -131 -124.5 -216t-230.5 -85q-152 0 -243.5 95t-113.5 276q18 23 18 44q0 30 -23 45
t-69 15q-97 0 -97 -62q0 -21 20 -42q-31 -191 -119.5 -281t-243.5 -90q-152 0 -257 110.5t-105 270.5l466 474q168 171 309 171q105 0 173.5 -77t68.5 -196q0 -104 -45 -104q-41 0 -41 41q0 10 3 20l8 25q15 44 15 68q0 71 -52 120.5t-126 49.5q-132 0 -291 -163l-417 -429
h499q89 0 89 33v19q0 90 148 90q55 0 94 -26q39 -27 39 -64v-13q0 -39 91 -39h557zM585 331h-303q-93 0 -116.5 -7t-23.5 -36q0 -81 97 -156.5t202 -75.5q103 0 187.5 65t84.5 146q0 40 -23.5 52t-104.5 12zM1482 331h-300q-95 0 -122 -12t-27 -55q0 -78 85.5 -143
t188.5 -65q102 0 199.5 76t97.5 156q0 43 -122 43z" />
    <glyph glyph-name="bell" unicode="%" horiz-adv-x="1830" 
d="M835 1431q0 86 80 86t80 -86q208 -22 319 -182q44 -63 76 -176t32 -204v-72q0 -100 34.5 -175.5t141.5 -214.5l38 -50q46 -60 46 -112q0 -123 -216.5 -202.5t-550.5 -79.5q-335 0 -551 79.5t-216 202.5q0 52 46 112l38 50q107 139 141 214.5t34 175.5v72q0 91 32.5 204
t76.5 176q111 160 319 182zM280 385q267 108 636 108q368 0 635 -108q-109 147 -144 223.5t-35 166.5l-3 92q0 195 -86 342q-107 185 -367 185t-368 -185q-85 -147 -85 -342l-3 -92q0 -90 -35 -165.5t-145 -224.5zM460 395q-263 -77 -263 -160q0 -91 212 -157t505 -66
q297 0 507.5 66t210.5 159q0 81 -217.5 144t-497.5 63q-43 0 -107 -3q8 -26 8 -47q0 -77 -51.5 -130.5t-125.5 -53.5q-78 0 -129.5 52.5t-51.5 132.5z" />
    <glyph glyph-name="book" unicode="&#x26;" horiz-adv-x="2492" 
d="M2320 -25l-878 66q-48 -26 -94 -39.5t-89 -13.5q-44 0 -94.5 13.5t-107.5 39.5l-884 -66v1390l187 11l72 141q118 31 223.5 46.5t197.5 15.5q160 0 250.5 -41.5t142.5 -139.5q47 96 142 138.5t261 42.5q85 0 186.5 -15.5t220.5 -46.5l68 -130l196 -11v-1401zM2270 28
v1304l-123 7l49 -81v-1148l-801 50q-58 -49 -148 -49q-89 0 -146 49l-805 -50v1148l37 71l-111 -6v-1295l851 63q50 -27 96 -40.5t89 -13.5q40 0 82 13.5t87 40.5zM346 1248v-1043l98 191v1032zM2048 1424v-1028l99 -186v1027zM384 160l731 58q32 -41 107 -58
q-14 126 -97.5 180.5t-262.5 54.5q-83 0 -178.5 -11.5t-203.5 -34.5zM2117 160l-96 186q-116 25 -215.5 37t-181.5 12q-353 0 -353 -235q74 12 113 59zM494 403q116 21 205.5 31t152.5 10q257 0 370 -124v931q0 140 -87 209.5t-262 69.5q-90 0 -184.5 -12.5t-194.5 -37.5
v-1077zM1999 1482q-110 24 -203 36t-169 12q-185 0 -280 -76q-76 -60 -76 -205v-933q69 73 147 100.5t215 27.5q91 0 182.5 -10.5t183.5 -32.5v1081z" />
    <glyph glyph-name="candle" unicode="'" horiz-adv-x="938" 
d="M493 932v-63q159 -15 203 -52.5t44 -155.5v-518q0 -95 -63.5 -137.5t-204.5 -42.5q-132 0 -221 48q-38 21 -46 40.5t-8 89.5v519q0 93 8.5 117t49.5 46q62 34 189 46v63q-84 5 -134.5 52t-50.5 118q0 77 65 170l25 37q67 96 67 165q0 13 -4 37q254 -144 254 -365
q0 -83 -43 -136.5t-130 -77.5zM458 1428q-11 -54 -74 -157l-22 -37q-54 -90 -54 -136q0 -51 44 -87.5t105 -36.5q66 0 112.5 46.5t46.5 112.5q0 149 -158 295zM444 765v51q-185 -14 -185 -59q0 -20 63 -37t138 -17q108 0 162 14t54 41q0 43 -183 58v-51h-49zM690 704
q-39 -25 -94.5 -37.5t-127.5 -12.5q-71 0 -126.5 12.5t-95.5 37.5v-561q0 -65 55.5 -98t166.5 -33t166.5 33t55.5 98v561z" />
    <glyph glyph-name="telephonesolid" unicode="(" horiz-adv-x="2220" 
d="M1938 1376q81 -136 110 -308q-88 -19 -174 -19q-146 0 -307 77v21q0 148 -449 148q-464 0 -464 -148v-21q-154 -90 -304 -90q-89 0 -177 32q28 162 111 308q190 71 395.5 106t426.5 35q229 0 437 -35t395 -106zM2048 1024v-48q0 -93 -39.5 -127.5t-146.5 -34.5
q-150 0 -222.5 53t-72.5 163v45q142 -76 306 -76q94 0 175 25zM654 1068v-37q0 -120 -69.5 -174.5t-222.5 -54.5q-110 0 -149.5 36.5t-39.5 138.5v43q101 -33 183 -33q154 0 298 81zM963 1012h296v135h222v-187l264 -421q58 -92 76 -150.5t18 -154.5v-234h-1456v234
q0 149 100 309l258 417v187h222v-135zM833 851v-86h123v86h-123zM1043 851v-86h123v86h-123zM1253 851v-86h123v86h-123zM833 703v-86h123v86h-123zM1043 703v-86h123v86h-123zM1253 703v-86h123v86h-123zM833 555v-86h123v86h-123zM1043 555v-86h123v86h-123zM1253 555v-86
h123v86h-123z" />
    <glyph glyph-name="telhandsetcirc" unicode=")" horiz-adv-x="1826" 
d="M173 740q0 307 217 523.5t523 216.5q307 0 523.5 -216.5t216.5 -523.5q0 -306 -216.5 -523t-523.5 -217q-306 0 -523 217t-217 523zM235 740q0 -283 197.5 -480.5t480.5 -197.5q284 0 481.5 197.5t197.5 480.5q0 284 -197.5 481.5t-481.5 197.5t-481 -197.5t-197 -481.5z
M1098 195q-88 -53 -200 -72q-13 58 -13 114q0 94 50 199h14q97 0 97 292q0 302 -97 302h-14q-58 100 -58 196q0 59 21 116q103 -17 200 -72q46 -123 69 -257t23 -279q0 -148 -23 -282.5t-69 -256.5zM869 123h-31q-60 0 -82.5 26t-22.5 95q0 192 140 192h30q-50 -92 -50 -199
q0 -60 16 -114zM898 1030h-24q-149 0 -149 189q0 72 23.5 97.5t90.5 25.5h28q-22 -65 -22 -118q0 -101 53 -194z" />
    <glyph glyph-name="envelopeback" unicode="*" horiz-adv-x="2319" 
d="M878 740l-656 656v-1312zM1407 705l-177 -176q-29 -30 -70 -30t-71 30l-176 176l-656 -656h1805zM1442 740l655 -656v1312zM257 1431l868 -868q14 -14 35 -14t35 14l868 868h-1806zM173 1480h1974v-1480h-1974v1480z" />
    <glyph glyph-name="envelopefront" unicode="+" horiz-adv-x="2319" 
d="M1900 1283v-296h-247v296h247zM765 839h641v-49h-641v49zM962 444h642v-49h-642v49zM864 641h641v-49h-641v49zM222 1431v-1382h1875v1382h-1875zM173 1480h1974v-1480h-1974v1480z" />
    <glyph glyph-name="mailboxflagdwn" unicode="," horiz-adv-x="2399" 
d="M1061 0h-888v740q0 157 95 275t254 159l1098 280q104 26 162 26q181 0 313 -132t132 -314v-738zM1012 49v691q0 166 -115 280t-281 114q-163 0 -278.5 -115.5t-115.5 -278.5v-691h790zM2178 333v701q0 164 -115.5 281.5t-276.5 117.5q-53 0 -104 -13l-965 -249
q167 -51 255.5 -162t88.5 -269v-691zM1684 305v308l-524 -131v153l913 230v-463zM778 649l-110 -44h-196l-34 44v128l34 -37h196l110 37v-128z" />
    <glyph glyph-name="mailboxflagup" unicode="-" horiz-adv-x="2399" 
d="M1061 0h-888v740q0 157 92.5 273t250.5 157l712 183v154l444 114v-157q57 14 119 14q174 0 305 -133.5t131 -310.5v-738zM1012 49v687q0 166 -116.5 280t-286.5 114q-166 0 -276.5 -112.5t-110.5 -281.5v-687h790zM2178 333v699q0 161 -117.5 281t-275.5 120
q-48 0 -113 -16v-203l-284 -78v-597l-160 -38v799l-516 -131q166 -51 257.5 -164.5t91.5 -268.5v-687zM778 649l-110 -44h-196l-34 44v128l34 -37h196l110 37v-128z" />
    <glyph glyph-name="mailbxopnflgup" unicode="." horiz-adv-x="2951" 
d="M1619 0h-894l-371 311q-181 152 -181 281q0 93 72.5 150t191.5 57q141 0 288 -84v25q0 158 92.5 273.5t250.5 156.5l712 183v154l444 114v-157q58 14 119 14q174 0 305 -133.5t131 -310.5v-738zM1479 49l-546 455q-294 244 -492 244q-97 0 -157 -41t-60 -107
q0 -121 225 -305l299 -246h731zM751 408l-35 -38h-150l-114 96l25 43l52 -40h77l32 32zM1516 930q-127 192 -353 192q-168 0 -278 -110.5t-110 -279.5v-46q114 -73 196 -146l39 -34l155 336zM1569 733q0 71 -29 150l-340 -84l-149 -326l180 -151l76 344zM1564 228v449
l-217 -54l-75 -334l127 -103zM1564 49v131l-120 -31zM2730 333v699q0 161 -117.5 281t-275.5 120q-48 0 -113 -16v-203l-284 -78v-597l-160 -38v799l-515 -131q165 -51 256.5 -164.5t91.5 -268.5v-687z" />
    <glyph glyph-name="mailbxopnflgdwn" unicode="/" horiz-adv-x="2956" 
d="M1618 0h-895l-371 308q-179 149 -179 280q0 94 71.5 151t189.5 57t295 -85v29q0 156 93 271t250 155l1101 283q106 27 174 27q174 0 305 -134.5t131 -313.5v-736zM1478 49l-548 452q-295 245 -489 245q-98 0 -158.5 -41.5t-60.5 -107.5q0 -124 224 -305l302 -243h730z
M755 408l-35 -38h-150l-114 96l26 43l51 -40h77l32 32zM1568 49v691q0 166 -114.5 280t-281.5 114q-163 0 -278 -115.5t-115 -278.5v-57q61 -39 192 -147zM2734 333v701q0 164 -115.5 281.5t-276.5 117.5q-53 0 -103 -13l-966 -249q167 -51 256 -162t89 -269v-691zM2241 305
v308l-525 -131v153l913 230v-463z" />
    <glyph glyph-name="folder" unicode="0" horiz-adv-x="2245" 
d="M173 0v1159q0 124 123 124h57q43 0 61 13.5t28 52.5l10 40q17 63 41 77t117 14h384q77 0 102.5 -14.5t39.5 -66.5l11 -43q14 -52 30.5 -62.5t84.5 -10.5h689q70 0 96 -26t26 -97v-1160h-1900zM222 53l1802 -7v1114q0 74 -74 74h-1647q-81 0 -81 -74v-1107zM480 1283h631
l-20 76q-12 48 -29 60t-74 12h-367q-67 0 -87.5 -11.5t-32.5 -57.5z" />
    <glyph glyph-name="folderopen" unicode="1" horiz-adv-x="2751" 
d="M173 0v1159q0 124 123 124h57q43 0 61 13.5t28 52.5l10 40q16 63 41 77q24 14 116 14h382q83 0 106 -13t40 -70l11 -37q17 -57 31.5 -67t80.5 -10h691q71 0 96.5 -26.5t25.5 -99.5v-96h397q108 0 111 -38q1 -8 -35 -81l-473 -942h-1900zM222 102l430 838q47 91 73 106
t135 15h1164v96q0 77 -75 77h-695q-94 0 -116 11t-36 68l-12 46q-13 49 -29.5 60.5t-73.5 11.5h-370q-64 0 -86 -12q-22 -13 -34 -56l-12 -46q-16 -57 -35.5 -70t-86.5 -13h-62q-48 0 -63.5 -14.5t-15.5 -61.5v-1056zM252 49h1789l443 888q22 48 22 54q-3 21 -62 21h-1614
q-58 0 -80 -13t-45 -59z" />
    <glyph glyph-name="filetalltext1" unicode="2" horiz-adv-x="1431" 
d="M370 247v49h691v-49h-691zM370 444v49h691v-49h-691zM864 1411v-325h325zM1259 1086v-1086h-1086v1480h691zM814 1036v395h-592v-1382h987v987h-395zM370 641v50h691v-50h-691zM370 839v49h691v-49h-691zM370 1036v50h296v-50h-296zM370 1234v49h296v-49h-296z" />
    <glyph glyph-name="filetalltext" unicode="3" horiz-adv-x="1431" 
d="M1259 1480v-1480h-1086v1480h1086zM1209 1431h-987v-1382h987v1382zM370 247v49h691v-49h-691zM370 444v49h691v-49h-691zM370 641v50h691v-50h-691zM370 839v49h691v-49h-691zM370 1036v50h691v-50h-691zM370 1234v49h691v-49h-691z" />
    <glyph glyph-name="filetalltext3" unicode="4" horiz-adv-x="1826" 
d="M1456 -197h-197v-198h-1086v1481h197v197h198v197h1085v-1480h-197v-197zM617 1431v-148h839v-1234h148v1382h-987zM420 1234v-148h839v-1234h148v1382h-987zM1209 1036h-987v-1382h987v1382zM370 -148v49h691v-49h-691zM370 49v50h691v-50h-691zM370 247v49h691v-49
h-691zM370 444v49h691v-49h-691zM370 641v50h691v-50h-691zM370 839v49h691v-49h-691z" />
    <glyph glyph-name="filecabinet" unicode="5" horiz-adv-x="1135" 
d="M963 1480v-1480h-790v1480h790zM913 1431h-691v-666h691v666zM913 716h-691v-667h691v667zM420 1332h296v-197h-296v197zM469 1283v-99h197v99h-197zM518 1012h99v-50h-99v50zM420 617h296v-198h-296v198zM469 568v-99h197v99h-197zM518 296h99v-49h-99v49z" />
    <glyph glyph-name="hourglass" unicode="6" horiz-adv-x="1233" 
d="M173 149v76q0 97 24.5 153.5t101.5 138.5l132 139q63 67 63 87q0 22 -77 100l-132 136q-67 68 -89.5 126t-22.5 160v82q0 85 111 127.5t333 42.5q444 0 444 -170v-82q0 -102 -22.5 -160t-89.5 -126l-132 -136q-76 -78 -76 -100q0 -20 62 -87l132 -139
q77 -82 101.5 -138.5t24.5 -153.5v-76q0 -92 -113 -139t-331 -47t-331 47t-113 139zM617 1283q138 0 255 31t115 67q-2 37 -107.5 62t-262.5 25q-158 0 -264 -25.5t-106 -63.5q0 -35 117.5 -65.5t252.5 -30.5zM222 1321v-96q0 -69 20 -106.5t103 -126.5l113 -120
q85 -93 85 -131q0 -39 -78 -123l-130 -139q-76 -81 -94.5 -121t-18.5 -121v-72q0 -65 47 -90q115 -63 348 -63q234 0 348 63q47 25 47 90v72q0 81 -18.5 121t-94.5 121l-130 139q-78 84 -78 127q0 34 86 127l112 120q83 89 103 126.5t20 106.5v96q-137 -87 -395 -87
q-129 0 -227.5 22t-167.5 65zM328 1123q148 -94 289 -94t290 94q-25 -40 -110 -132l-83 -91q-56 -61 -68 -84.5t-20 -89.5q-2 -20 -9 -60q-7 40 -9 60q-8 66 -20 89.5t-68 84.5l-83 91q-85 92 -109 132zM272 146q16 60 120 114l88 45q83 43 99.5 58t37.5 67q22 -52 38 -67
t99 -58l88 -45q104 -54 120 -114q-127 -64 -345 -64t-345 64z" />
    <glyph glyph-name="keyboard" unicode="7" horiz-adv-x="2196" 
d="M518 962h1259q179 0 213 -34t34 -212v-469q0 -175 -36.5 -211t-210.5 -36h-1357q-168 0 -207.5 39.5t-39.5 207.5v469q0 166 31 207t158 41l58 -2v19q0 152 92.5 255.5t229.5 103.5q65 0 144 -22l44 -13q87 -25 150 -25q182 0 248 160q31 77 63 77q46 0 46 -43
q0 -76 -82 -168q-110 -125 -271 -125q-55 0 -173 27l-53 12q-87 21 -124 21q-89 0 -152.5 -76t-63.5 -181v-22zM1777 913h-1357q-146 0 -172 -26t-26 -171v-468q0 -146 26 -172t172 -26h1357q146 0 171.5 26t25.5 172v468q0 145 -26 171t-171 26zM420 765h123v-122h123v122
h124v-122h123v122h124v-122h123v122h123v-122h124v122h123v-122h123v122h124v-123h-122v-124h122v-123h-124v122h-123v-122h-123v122h-124v-122h-123v122h-123v-122h-124v122h-123v-122h-124v122h-123v-122h-123v123h121v124h-121v123zM668 519h121v121h-121v-121zM914 519
h122v121h-122v-121zM1161 519h121v121h-121v-121zM1408 519h121v121h-121v-121zM666 197v124h864v-124h-864z" />
    <glyph glyph-name="mouse2button" unicode="8" horiz-adv-x="1941" 
d="M1429 1213h-260q-72 0 -92 -19t-20 -86v-158h372v263zM1479 1213v-263h241v158q0 70 -19 87.5t-93 17.5h-129zM1057 901v-557q0 -137 97 -234.5t234 -97.5q138 0 235 97t97 235v557h-663zM1405 1263q0 136 -51.5 195t-169.5 59q-235 0 -359 -337l-16 -45
q-146 -395 -426 -395q-112 0 -210.5 86.5t-98.5 184.5q0 50 47 50q31 0 63 -79q60 -143 200 -143q107 0 174.5 68.5t152.5 262.5l37 82q163 364 440 364q315 0 315 -353h102q105 0 134.5 -28.5t29.5 -129.5v-761q0 -158 -111.5 -269.5t-269.5 -111.5q-157 0 -268.5 111.5
t-111.5 269.5v761q0 97 31.5 127.5t132.5 30.5h233z" />
    <glyph glyph-name="ballpoint" unicode="9" horiz-adv-x="2208" 
d="M950 363q-53 -64 -116 -96.5t-136 -32.5q-117 0 -191.5 81.5t-74.5 209.5q0 89 14 174l14 84q21 138 21 185q0 66 -45.5 110.5t-112.5 44.5q-70 0 -163 -70q-23 -17 -43 -17q-43 0 -43 40q0 50 83 98t168 48q110 0 182.5 -73t72.5 -185q0 -65 -14 -154l-16 -100
q-20 -120 -20 -181q0 -86 47 -141t119 -55q80 0 143.5 52.5t110.5 157.5q18 160 58.5 247.5t131.5 164.5q153 131 353 131q224 0 383.5 -159t159.5 -384v-346q0 -144 -27 -170.5t-171 -26.5h-691q-142 0 -169.5 27.5t-27.5 169.5v166zM999 543v-346q0 -105 21.5 -126.5
t126.5 -21.5h691q114 0 131 17.5t17 130.5v346h-97q-7 155 -121 280l69 71q-162 142 -347 142q-136 0 -281 -91l58 -82q-154 -124 -165 -320h-103zM1053 592q25 164 145 280l-29 40q-138 -128 -170 -320h54zM1837 821q79 -101 97 -229h52q-17 137 -113 267zM1197 543
q0 122 86.5 209t209.5 87q122 0 209 -86.5t87 -209.5t-87 -209.5t-209 -86.5q-123 0 -209.5 86.5t-86.5 209.5zM1246 543q0 -102 72 -174.5t175 -72.5q102 0 174.5 72.5t72.5 174.5t-72.5 174.5t-174.5 72.5t-174.5 -72.5t-72.5 -174.5zM1320 543q0 71 50.5 122t122.5 51
q71 0 121.5 -51t50.5 -122q0 -72 -50.5 -122.5t-121.5 -50.5q-72 0 -122.5 50.5t-50.5 122.5z" />
    <glyph glyph-name="pc" unicode=":" horiz-adv-x="1924" 
d="M1629 1480v-962h-1333v962h1333zM1629 469l71 -148q52 -107 52 -207v-114h-1579v114q0 99 52 207l71 148h1333zM1579 1431h-1233v-863h1233v863zM1596 419h-1271l-63 -135q-40 -86 -40 -139v-96h1481v37q0 100 -46 200zM444 1229v-460q0 -69 17.5 -86t87.5 -17h824
q72 0 90 16.5t18 83.5v465q0 67 -18.5 84t-89.5 17h-824q-70 0 -87.5 -16.5t-17.5 -86.5zM401 358h123v-49h125v49h121v-49h126v49h121v-49h125v49h122v-49h125v49h123v-49h-122v-51h122v-48h-123v48h-125v-48h-122v48h-125v-48h-121v48h-126v-48h-121v48h-125v-48h-123v48
h122v51h-122v49zM649 260h121v47h-121v-47zM896 260h121v47h-121v-47zM1142 260h122v47h-122v-47zM395 768v462q0 102 25 127t129 25h827q104 0 129 -25t25 -127v-462q0 -101 -25.5 -126t-128.5 -25h-827q-103 0 -128.5 25t-25.5 126z" />
    <glyph glyph-name="harddisk" unicode=";" 
d="M173 148v395q0 106 21 127t127 21h1184q106 0 127 -21t21 -127v-395q0 -106 -21 -127t-127 -21h-1184q-106 0 -127 21t-21 127zM321 49h1184q65 0 82 17t17 82v395q0 65 -16.5 82t-82.5 17h-1184q-65 0 -82 -17t-17 -82v-395q0 -65 17 -82t82 -17zM395 247v49h1036v-49
h-1036zM395 395v49h1036v-49h-1036zM444 123v50h99v-50h-99z" />
    <glyph glyph-name="floppy3" unicode="&#x3c;" horiz-adv-x="1826" 
d="M173 197v1185q0 41 29 69.5t70 28.5h1283q41 0 69.5 -28.5t28.5 -69.5v-1283q0 -41 -28.5 -70t-69.5 -29h-1185zM864 493h-247v-444h247v444zM1259 49h296q25 0 37 12.5t12 36.5v1284q0 49 -49 49h-148v-592q0 -41 -29 -70t-70 -29h-790q-41 0 -69.5 29t-28.5 70v592
h-148q-50 0 -50 -49v-1165l168 -168h178v444q0 50 49 50h592q50 0 50 -50v-444zM1357 1431h-888v-592q0 -24 12.5 -36.5t36.5 -12.5l790 -1q49 0 49 50v592z" />
    <glyph glyph-name="floppy5" unicode="=" horiz-adv-x="1826" 
d="M1259 1382h-987v-346h987v346zM1653 1480v-296h-98v-148h98v-1036h-1480v1480h1480zM1113 740q0 80 -59.5 139t-140.5 59t-139 -58t-58 -140q0 -81 58 -139t139 -58t140.5 58.5t59.5 138.5zM987 173v197q0 74 -74 74t-74 -74v-197q0 -74 74 -74q68 0 74 74z" />
    <glyph glyph-name="tapereel" unicode="&#x3e;" 
d="M814 987v296h198v-296h-198zM913 592q-61 0 -104.5 43.5t-43.5 104.5t43.5 104.5t104.5 43.5t104.5 -43.5t43.5 -104.5t-43.5 -104.5t-104.5 -43.5zM913 0q-307 0 -523.5 216.5t-216.5 523.5t217 523.5t523 216.5q307 0 523.5 -216.5t216.5 -523.5t-216.5 -523.5
t-523.5 -216.5zM913 49q286 0 488.5 202.5t202.5 488.5t-202.5 488.5t-488.5 202.5t-488.5 -202.5t-202.5 -488.5t202.5 -488.5t488.5 -202.5zM492 383l-98 171l256 148l99 -171zM1334 383l-256 148l98 171l257 -148z" />
    <glyph glyph-name="handwrite" unicode="?" horiz-adv-x="1863" 
d="M1462 0l-157 60q-61 -31 -164 -60q-100 16 -225 52q-44 -52 -97 -52q-44 0 -80 30q-39 -30 -77 -30q-39 0 -70 24t-55 71q-82 12 -117 63l-126 -78l-220 -80l169 165l166 102q23 46 88 63q-43 2 -96 23l106 316l193 215l446 -62l54 -62l535 336q54 -19 54 -68
q0 -7 -1 -18l-525 -327l45 -63q101 -140 132.5 -169.5t107.5 -55.5q3 -47 3 -70q0 -190 -89 -325zM1440 64q59 131 59 263v34q-103 42 -195 179q-24 36 -32 47l-53 69l-223 -141l-2 -82l1 -85q-154 -21 -301 -76q-55 11 -95 11q-143 0 -143 -71q0 -73 129 -73q46 0 119 17
q315 -81 439 -97l46 15q82 26 116 39zM1157 735l-34 41l-404 53l-167 -185l-84 -260q18 -3 29 -3q88 0 145 175l33 24q62 45 122 103q64 -41 145 -83zM895 569q-17 9 -26 13q-36 17 -62 35q-47 -50 -123 -95q-19 -63 -58 -118zM947 486l-258 -162q169 53 256 68l1 68z
M730 100l-25 7q-75 -15 -111 -15q17 -20 33.5 -30t32.5 -10q44 0 70 48zM860 66l-95 25q7 -40 50 -40q26 0 45 15z" />
    <glyph glyph-name="handwriteleft" unicode="@" horiz-adv-x="1863" 
d="M401 0l157 60q61 -31 164 -60q100 16 225 52q44 -52 97 -52q44 0 80 30q39 -30 77 -30q39 0 70 24t55 71q82 12 117 63l126 -78l220 -80l-169 165l-166 102q-23 46 -88 63q43 2 96 23l-106 316l-193 215l-446 -62l-54 -62l-535 336q-54 -19 -54 -68q0 -7 1 -18l525 -327
l-45 -63q-101 -140 -132.5 -169.5t-107.5 -55.5q-3 -47 -3 -70q0 -190 89 -325zM423 64q-59 131 -59 263v34q103 42 195 179q24 36 32 47l53 69l223 -141l2 -82l-1 -85q154 -21 301 -76q55 11 95 11q143 0 143 -71q0 -73 -129 -73q-46 0 -119 17q-315 -81 -439 -97l-46 15
q-82 26 -116 39zM706 735l34 41l404 53l167 -185l84 -260q-18 -3 -29 -3q-88 0 -145 175l-33 24q-62 45 -122 103q-64 -41 -145 -83zM968 569q17 9 26 13q36 17 62 35q47 -50 123 -95q19 -63 58 -118zM916 486l258 -162q-169 53 -256 68l-1 68zM1133 100l25 7
q75 -15 111 -15q-17 -20 -33.5 -30t-32.5 -10q-44 0 -70 48zM1003 66l95 25q-7 -40 -50 -40q-26 0 -45 15z" />
    <glyph glyph-name="handv" unicode="A" horiz-adv-x="1203" 
d="M792 171v-145q-129 -51 -232 -51q-130 0 -235 51v112l-79 89q-59 143 -59 300v48q-14 42 -14 68q0 46 19.5 68.5t57.5 22.5q14 0 46 -9q-12 42 -12 65q0 55 26.5 82t78.5 27q46 0 87 -54q-1 25 -1 40q0 13 1 33l-113 421q-34 125 -34 160q0 53 28 79t83 26q86 0 128 -175
l111 -455l113 345q65 198 146 198q39 0 66.5 -27t27.5 -66q0 -41 -34 -169l-100 -381q8 -70 8 -198l1 -43q31 -86 37 -154q-49 -143 -152 -308zM637 944l-118 481q-32 133 -83 133q-29 0 -43.5 -15t-14.5 -45q0 -17 8 -47l8 -33q7 -29 11 -43l124 -466l224 -32
q63 -71 102 -148v158l97 384q30 117 30 154q0 22 -11 32.5t-34 10.5q-28 0 -43.5 -25t-49.5 -127l-129 -380zM747 191q73 104 133 258q5 13 15 37q-7 25 -10 37q-43 167 -156 310l-203 27q0 -140 177 -149q-2 -33 -2 -54q0 -64 14 -141h-48q-15 61 -15 125v21
q-70 14 -117 49l39 -96q19 -49 19 -79q0 -55 -25 -82.5t-76 -27.5q-26 0 -61 22q-6 -46 -28 -69t-59 -23q-46 0 -80 56l-22 36q13 -97 34 -169l8 -25l92 -105v-89q101 -34 190 -34q88 0 181 34v131zM500 661l-41 102q-35 88 -72 88q-26 0 -39.5 -15.5t-13.5 -46.5
q0 -41 24 -98l39 -95q50 -119 97 -119q25 0 37.5 13.5t12.5 39.5q0 31 -44 131zM359 562l-26 60q-28 66 -66 66q-22 0 -33.5 -11t-11.5 -34q0 -19 23 -74l38 -90q30 -71 67 -71q21 0 31.5 13t10.5 38q0 32 -33 103z" />
    <glyph glyph-name="handok" unicode="B" horiz-adv-x="1624" 
d="M1195 30q-242 34 -413 180l-225 24l-288 121q73 154 207 154q29 0 63 -9.5t72 -29.5q76 23 126 35q12 64 12 99q-84 62 -136 121q-61 -35 -137 -66q-18 -199 -213 -199v296l232 216l-190 161q-132 110 -132 196q0 61 60 125l328 -239l-32 71q-42 93 -42 166
q0 100 116 152l221 -392l9 71q23 198 179 198q10 0 35 -2q-9 -69 -9 -165q0 -233 37 -515l476 -627q-107 -197 -256 -244zM1011 884q-25 193 -25 426q0 47 5 123q-63 -17 -88 -66t-25 -158q0 -31 6 -101zM908 960l-324 574q-48 -32 -48 -84q0 -65 58 -190l49 -105zM885 919
l-642 464q-17 -29 -17 -54q0 -72 143 -189l190 -155zM1212 83l95 -105q119 75 183 194l-515 673l-439 98l-225 -207l1 -223q114 26 114 146q0 16 -1 36q111 36 194 94q74 -80 182 -166q0 -71 -28 -162q-44 -8 -83 -19q-59 -18 -90 -25q-30 21 -60.5 31.5t-61.5 10.5
q-80 0 -134 -81l228 -96l225 -21q180 -160 415 -178z" />
    <glyph glyph-name="thumbup" unicode="C" horiz-adv-x="1381" 
d="M1160 415h-149q-103 -118 -223 -173q-38 -3 -56 -3q-51 0 -116 18l-36 -18h-43q-147 0 -147 105q0 6 2 18q-108 9 -108 103q0 10 2 28q-40 11 -60.5 36t-20.5 63q0 31 22 66q-54 58 -54 129q0 82 89 132t236 50h25q-12 90 -55 174l-16 28q-52 99 -52 153q0 149 157 186
l29 7l50 -222l185 -197q19 -22 66 -85l28 -37q45 -61 63.5 -74.5t59.5 -13.5h117q54 -115 54 -236q0 -118 -49 -237zM1127 467q31 91 31 174q0 98 -34 193q-126 0 -158 15t-96 105l-77 99l-201 214l-40 185q-100 -34 -100 -128q0 -49 34 -106l13 -22q78 -130 78 -248l1 -28
h-36q-159 0 -239 -31.5t-80 -95.5q0 -58 41.5 -98t101.5 -40l61 -1l181 82q-41 62 -110 62q-18 0 -46 -8t-66 -24l-47 -2l-47 50l81 1q35 15 64 22t53 7q128 0 187 -130l-34 -16q63 -31 97 -108l-39 -17q46 -29 85 -99l-62 -29q51 -37 82 -105l-123 -55q30 -6 51 -6l39 1
q133 77 216 187h138zM671 612q-35 47 -84 60l-149 -67h-53q-75 0 -114 21q-13 -18 -13 -34q0 -31 30.5 -46.5t91.5 -15.5h106zM713 495q-5 6 -8 10q-24 28 -57 44l-153 -68l-162 1l-3 -13q0 -59 117 -59h75zM734 360l-11 14q-19 27 -48 49l-143 -64h-92v-6q0 -67 97 -67h33z
" />
    <glyph glyph-name="thumbdown" unicode="D" horiz-adv-x="1381" 
d="M222 1065h149q103 118 223 173q38 3 56 3q51 0 116 -18l36 18h43q147 0 147 -105q0 -6 -2 -18q108 -9 108 -103q0 -10 -2 -28q40 -11 60.5 -36t20.5 -63q0 -31 -22 -66q54 -58 54 -129q0 -82 -89 -132t-236 -50h-25q12 -90 55 -174l16 -28q52 -99 52 -153
q0 -149 -157 -186l-29 -7l-50 222l-185 197q-19 22 -66 85l-28 37q-45 61 -63.5 74.5t-59.5 13.5h-117q-54 115 -54 236q0 118 49 237zM255 1013q-31 -91 -31 -174q0 -98 34 -193q126 0 158 -15t96 -105l77 -99l201 -214l40 -185q100 34 100 128q0 49 -34 106l-13 22
q-78 130 -78 248l-1 28h36q159 0 239 31.5t80 95.5q0 58 -41.5 98t-101.5 40l-61 1l-181 -82q41 -62 110 -62q18 0 46 8t66 24l47 2l47 -50l-81 -1q-35 -15 -64 -22t-53 -7q-128 0 -187 130l34 16q-63 31 -97 108l39 17q-46 29 -85 99l62 29q-51 37 -82 105l123 55
q-30 6 -51 6l-39 -1q-133 -77 -216 -187h-138zM711 868q35 -47 84 -60l149 67h53q75 0 114 -21q13 18 13 34q0 31 -30.5 46.5t-91.5 15.5h-106zM669 985q5 -6 8 -10q24 -28 57 -44l153 68l162 -1l3 13q0 59 -117 59h-75zM648 1120l11 -14q19 -27 48 -49l143 64h92v6
q0 67 -97 67h-33z" />
    <glyph glyph-name="handptleft" unicode="E" horiz-adv-x="1929" 
d="M1708 599h-143q-115 -125 -224 -175q-41 -5 -60 -5q-55 0 -118 20l-37 -16l-35 -2q-150 0 -150 108q0 5 2 16q-56 8 -84 35.5t-28 75.5q0 21 11 49q-45 12 -67.5 38t-22.5 65q0 29 12.5 50.5t37.5 36.5l-36 8l-360 4q-116 0 -174.5 27t-58.5 80q0 62 56 87t197 25l409 9
l41 38l275 25q190 -55 338 -129h214q53 -113 53 -242q0 -114 -48 -228zM783 1086l-366 -9q-195 0 -195 -64q0 -28 60.5 -42.5t181.5 -14.5l227 -1q-10 9 -24 25zM1674 651q31 93 31 182q0 94 -35 187h-182q-254 102 -340 127l-253 -22l-157 -144q44 -39 100 -39q86 0 171 89
q91 -52 189 -52l17 1l-2 -50l-23 -1q-90 0 -171 43q-59 -46 -109 -65l90 -1q27 15 53 22t51 7q115 0 183 -133l-70 -30q66 -21 121 -115l-62 -28q56 -46 81 -105l-125 -53q51 -7 66 -7q10 0 35 4q116 68 206 183h135zM1218 822q-38 65 -114 65q-22 0 -44.5 -8t-45.5 -24
h-129q-41 0 -61.5 -11.5t-20.5 -34.5q0 -32 30 -48.5t89 -16.5l106 1zM1265 678q-35 53 -117 64l-104 -46l-146 1q-15 -24 -15 -42q0 -31 24.5 -47t73.5 -16l90 2zM1287 548q-22 29 -65 56l-134 -59h-97q0 -75 93 -75l39 1z" />
    <glyph glyph-name="handptright" unicode="F" horiz-adv-x="1929" 
d="M221 599h143q115 -125 224 -175q41 -5 60 -5q55 0 118 20l37 -16l35 -2q150 0 150 108q0 5 -2 16q56 8 84 35.5t28 75.5q0 21 -11 49q45 12 67.5 38t22.5 65q0 29 -12.5 50.5t-37.5 36.5l36 8l360 4q116 0 174.5 27t58.5 80q0 62 -56 87t-197 25l-409 9l-41 38l-275 25
q-190 -55 -338 -129h-214q-53 -113 -53 -242q0 -114 48 -228zM1146 1086l366 -9q195 0 195 -64q0 -28 -60.5 -42.5t-181.5 -14.5l-227 -1q10 9 24 25zM255 651q-31 93 -31 182q0 94 35 187h182q254 102 340 127l253 -22l157 -144q-44 -39 -100 -39q-86 0 -171 89
q-91 -52 -189 -52l-17 1l2 -50l23 -1q90 0 171 43q59 -46 109 -65l-90 -1q-27 15 -53 22t-51 7q-115 0 -183 -133l70 -30q-66 -21 -121 -115l62 -28q-56 -46 -81 -105l125 -53q-51 -7 -66 -7q-10 0 -35 4q-116 68 -206 183h-135zM711 822q38 65 114 65q22 0 44.5 -8
t45.5 -24h129q41 0 61.5 -11.5t20.5 -34.5q0 -32 -30 -48.5t-89 -16.5l-106 1zM664 678q35 53 117 64l104 -46l146 1q15 -24 15 -42q0 -31 -24.5 -47t-73.5 -16l-90 2zM642 548q22 29 65 56l134 -59h97q0 -75 -93 -75l-39 1z" />
    <glyph glyph-name="handptup" unicode="G" horiz-adv-x="1124" 
d="M353 11v143q-125 115 -175 224q-5 41 -5 60q0 55 20 118l-16 37l-2 35q0 150 108 150q5 0 16 -2q8 56 35.5 84t75.5 28q21 0 49 -11q12 45 38 67.5t65 22.5q29 0 50.5 -12.5t36.5 -37.5l8 36l4 360q0 116 27 174.5t80 58.5q62 0 87 -56t25 -197l9 -409l38 -41l25 -275
q-55 -190 -129 -338v-214q-113 -53 -242 -53q-114 0 -228 48zM840 936l-9 366q0 195 -64 195q-28 0 -42.5 -60.5t-14.5 -181.5l-1 -227q9 10 25 24zM405 45q93 -31 182 -31q94 0 187 35v182q102 254 127 340l-22 253l-144 157q-39 -44 -39 -100q0 -86 89 -171
q-52 -91 -52 -189l1 -17l-50 2l-1 23q0 90 43 171q-46 59 -65 109l-1 -90q15 -27 22 -53t7 -51q0 -115 -133 -183l-30 70q-21 -66 -115 -121l-28 62q-46 -56 -105 -81l-53 125q-7 -51 -7 -66q0 -10 4 -35q68 -116 183 -206v-135zM576 501q65 38 65 114q0 22 -8 44.5
t-24 45.5v129q0 41 -11.5 61.5t-34.5 20.5q-32 0 -48.5 -30t-16.5 -89l1 -106zM432 454q53 35 64 117l-46 104l1 146q-24 15 -42 15q-31 0 -47 -24.5t-16 -73.5l2 -90zM302 432q29 22 56 65l-59 134v97q-75 0 -75 -93l1 -39z" />
    <glyph glyph-name="handptdwn" unicode="H" horiz-adv-x="1124" 
d="M772 1498v-143q125 -115 175 -224q5 -41 5 -60q0 -55 -20 -118l16 -37l2 -35q0 -150 -108 -150q-5 0 -16 2q-8 -56 -35.5 -84t-75.5 -28q-21 0 -49 11q-12 -45 -38 -67.5t-65 -22.5q-29 0 -50.5 12.5t-36.5 37.5l-8 -36l-4 -360q0 -116 -27 -174.5t-80 -58.5
q-62 0 -87 56t-25 197l-9 409l-38 41l-25 275q55 190 129 338v214q113 53 242 53q114 0 228 -48zM285 573l9 -366q0 -195 64 -195q28 0 42.5 60.5t14.5 181.5l1 227q-9 -10 -25 -24zM720 1464q-93 31 -182 31q-94 0 -187 -35v-182q-102 -254 -127 -340l22 -253l144 -157
q39 44 39 100q0 86 -89 171q52 91 52 189l-1 17l50 -2l1 -23q0 -90 -43 -171q46 -59 65 -109l1 90q-15 27 -22 53t-7 51q0 115 133 183l30 -70q21 66 115 121l28 -62q46 56 105 81l53 -125q7 51 7 66q0 10 -4 35q-68 116 -183 206v135zM549 1008q-65 -38 -65 -114
q0 -22 8 -44.5t24 -45.5v-129q0 -41 11.5 -61.5t34.5 -20.5q32 0 48.5 30t16.5 89l-1 106zM693 1055q-53 -35 -64 -117l46 -104l-1 -146q24 -15 42 -15q31 0 47 24.5t16 73.5l-2 90zM823 1077q-29 -22 -56 -65l59 -134v-97q75 0 75 93l-1 39z" />
    <glyph glyph-name="handhalt" unicode="I" horiz-adv-x="1826" 
d="M1058 170v-143q-127 -52 -241 -52q-118 0 -228 52v110l-87 100q-76 142 -106 366l11 120l-191 332q-43 75 -43 120q0 40 26.5 67.5t64.5 27.5q56 0 112 -92l173 -285l-107 408q-20 76 -20 105q0 56 24.5 83.5t73.5 27.5q84 0 121 -128l120 -419v478q0 78 28 117t84 39
q111 0 111 -176l-11 -478l125 372q55 164 135 164q46 0 69 -23t23 -70q0 -48 -16 -113l-124 -482q10 -34 17 -105q32 18 89 38q41 69 91 103.5t110 34.5q58 0 141 -71l20 -16l-216 -205l-184 -246q-109 -102 -195 -161zM1010 194q135 105 218 187l168 225l185 173
q-48 40 -91 40q-48 0 -89 -31.5t-75 -95.5q-176 -55 -296 -200l-38 30q60 90 164 146q-9 71 -26 130l126 471q20 72 20 105q0 30 -11 44.5t-33 14.5q-42 0 -77 -103l-145 -430h-86l12 491l1 32q0 131 -63 131q-31 0 -47 -22.5t-16 -68.5l1 -63v-500l-79 -14l-125 459
q-33 123 -86 123q-26 0 -39 -15.5t-13 -47.5q0 -21 18 -85l134 -487l-73 -35l-217 353q-41 68 -71 68q-20 0 -30 -11t-10 -34q0 -29 37 -93l200 -343l-12 -135q31 -206 103 -346l92 -110v-87q88 -34 186 -34q81 0 183 34v134z" />
    <glyph glyph-name="smileface" unicode="J" horiz-adv-x="1727" 
d="M863 -37q-322 0 -549.5 227.5t-227.5 549.5t227.5 549.5t549.5 227.5t549.5 -227.5t227.5 -549.5t-227.5 -549.5t-549.5 -227.5zM863 62q281 0 479.5 198.5t198.5 479.5t-198.5 480t-479.5 199t-479.5 -199t-198.5 -480t198.5 -479.5t479.5 -198.5zM407 697h61
q73 -321 395 -321t395 321h62q-23 -208 -144.5 -326t-312.5 -118t-312 118t-144 326zM616 864q-51 0 -87 36t-36 87t36 87t87 36q52 0 88 -36t36 -87t-36.5 -87t-87.5 -36zM1110 864q-51 0 -87.5 36t-36.5 87t36.5 87t87.5 36t87 -36t36 -87t-36 -87t-87 -36z" />
    <glyph glyph-name="neutralface" unicode="K" horiz-adv-x="1727" 
d="M863 -37q-322 0 -549.5 227.5t-227.5 549.5t227.5 549.5t549.5 227.5t549.5 -227.5t227.5 -549.5t-227.5 -549.5t-549.5 -227.5zM863 62q281 0 479.5 198.5t198.5 479.5t-198.5 480t-479.5 199t-479.5 -199t-198.5 -480t198.5 -479.5t479.5 -198.5zM419 475v99h888v-99
h-888zM616 864q-51 0 -87 36t-36 87t36 87t87 36q52 0 88 -36t36 -87t-36.5 -87t-87.5 -36zM1110 864q-51 0 -87.5 36t-36.5 87t36.5 87t87.5 36t87 -36t36 -87t-36 -87t-87 -36z" />
    <glyph glyph-name="frownface" unicode="L" horiz-adv-x="1727" 
d="M863 -37q-322 0 -549.5 227.5t-227.5 549.5t227.5 549.5t549.5 227.5t549.5 -227.5t227.5 -549.5t-227.5 -549.5t-549.5 -227.5zM863 62q281 0 479.5 198.5t198.5 479.5t-198.5 480t-479.5 199t-479.5 -199t-198.5 -480t198.5 -479.5t479.5 -198.5zM468 339h-61
q22 208 143.5 326t312.5 118t312.5 -118t144.5 -326h-62q-72 321 -395 321q-322 0 -395 -321zM616 864q-51 0 -87 36t-36 87t36 87t87 36q52 0 88 -36t36 -87t-36.5 -87t-87.5 -36zM1110 864q-51 0 -87.5 36t-36.5 87t36.5 87t87.5 36t87 -36t36 -87t-36 -87t-87 -36z" />
    <glyph glyph-name="bomb" unicode="M" horiz-adv-x="2275" 
d="M876 1128v-136q358 -146 358 -499q0 -220 -155.5 -375t-375.5 -155q-219 0 -374.5 155t-155.5 373q0 344 358 501v136q50 26 124 38v21q0 103 67 173.5t164 70.5q131 0 316 -159l53 -46q192 -165 313 -165q41 0 102 32q9 5 24 5q46 0 46 -37q0 -39 -54.5 -69t-124.5 -30
q-149 0 -370 186l-57 48q-162 136 -250 136q-130 0 -130 -166q65 -14 122 -38zM1350 1484l40 33l246 -324zM1696 1517h51l-24 -293zM2051 1517l41 -31l-280 -294zM2143 1186l8 -47l-294 -27zM2201 838l-24 -41l-337 225zM1891 696l-48 -17l-74 284zM1553 576l-47 17l167 372
z" />
    <glyph glyph-name="skullcrossbones" unicode="N" horiz-adv-x="1352" 
d="M800 805l-20 -51q-38 -13 -103 -13q-32 0 -58 3.5t-45 9.5l-20 51l-140 67l-13 84q-3 24 -43 94q-31 52 -31 167q0 134 97 217t253 83t253 -83t97 -217q0 -115 -64 -225q-6 -12 -10 -36l-13 -84zM866 782l-25 -99l-61 -53q-16 -31 -42.5 -46.5t-62.5 -15.5q-72 0 -105 62
l-61 53l-25 99l36 9l9 -23q23 -53 50.5 -70t91.5 -17q72 0 99.5 16t50.5 71l9 23zM681 369q65 36 228 105q8 4 42 18q58 59 96 88.5t55 29.5q21 0 31 -13t10 -40q0 -23 -7 -65q43 -54 43 -80q0 -22 -12 -33.5t-36 -11.5q-12 0 -36.5 12.5t-62.5 36.5q-92 -17 -264 -103
l32 -19q60 -34 148 -91q11 -7 50 -30q182 -21 182 -92q0 -46 -98 -62q-46 -56 -76 -56q-36 0 -70 94q-3 10 -11 29q-140 115 -252 174q-137 -77 -254 -184q-16 -113 -68 -113q-33 0 -76 64q-102 0 -102 56q0 41 38 59.5t160 36.5q91 67 216 134q-168 84 -274 103
q-25 -22 -46 -33t-39 -11q-26 0 -39.5 11t-13.5 32q0 19 44 77q-10 41 -10 62q0 30 12 44.5t35 14.5t60 -30t89 -91q115 -41 276 -123zM448 1054q0 -96 83 -96q84 0 84 103q0 85 -81 85q-43 0 -64.5 -23t-21.5 -69zM744 1054q0 -96 84 -96t84 103q0 43 -20.5 64t-61.5 21
q-86 0 -86 -92zM678 973q-18 -30 -37 -53q-24 -27 -24 -42q0 -16 9.5 -24t27.5 -8q11 0 24 8q13 -8 24 -8q37 0 37 33q0 14 -24 41q-20 24 -37 53z" />
    <glyph glyph-name="flag" unicode="O" horiz-adv-x="1739" 
d="M198 -210v1669q-25 22 -25 52q0 68 73 68q75 0 75 -68q0 -27 -25 -52v-143q190 164 407 164q309 0 309 -266v-216q314 -53 555 121v-884q-173 -136 -403 -136q-157 0 -271.5 46t-114.5 109v332q-50 6 -72 6q-230 0 -410 -173v-629h-98zM296 489q182 153 413 153
q136 0 254 -53v618q0 224 -260 224q-208 0 -407 -179v-763zM1518 1024q-182 -87 -357 -87q-84 0 -149 12v-463q0 -79 -86 -119l-27 -12q-85 -39 -85 -79q0 -50 109.5 -89t246.5 -39q192 0 348 109v767zM827 374q148 72 148 121q0 64 -148 84v-205z" />
    <glyph glyph-name="pennant" unicode="P" horiz-adv-x="2230" 
d="M458 0h-100l-185 1468l22 198l79 -198l16 -122q188 134 404 134q148 0 246 -70t98 -176q0 -38 -11 -95l-25 -129q263 -205 653 -205q244 0 428 124q-208 -285 -482 -432.5t-596 -147.5q-143 0 -232 40q-90 40 -81 100l50 360q-195 0 -370 -157zM358 801q187 148 384 148
q117 0 188 -57l37 182q13 65 13 105q0 87 -84 143t-215 56q-156 0 -379 -132zM764 635q20 11 31 16q111 56 111 108q0 62 -115 85zM983 904l-42 -196q-10 -46 -122 -101l-42 -22q-15 -17 -15 -34q0 -50 56.5 -75t168.5 -25q442 0 756 257q-75 -5 -107 -5q-395 0 -653 201z
" />
    <glyph glyph-name="airplane" unicode="Q" horiz-adv-x="1819" 
d="M272 740l-99 222h111l105 -160l574 18l-272 660h148l420 -647l97 1q86 0 156 -22l64 -21q71 -24 71 -50q0 -28 -71 -52l-64 -21q-70 -22 -159 -22l-94 2l-420 -648h-148l272 660l-574 18l-105 -160h-111z" />
    <glyph glyph-name="sunshine" unicode="R" horiz-adv-x="1803" 
d="M902 257l-253 -212l-58 325h-330l165 286l-253 213l310 113l-56 325l310 -113l165 286l166 -286l310 113l-57 -325l310 -113l-253 -213l165 -286h-330l-58 -325zM902 308q179 0 305.5 126.5t126.5 305.5t-126.5 305.5t-305.5 126.5t-305.5 -126.5t-126.5 -305.5
t127 -305.5t305 -126.5z" />
    <glyph glyph-name="droplet" unicode="S" horiz-adv-x="1332" 
d="M666 1480q48 -204 109 -325t186 -262l36 -40q163 -182 163 -364q0 -201 -145.5 -345t-348.5 -144q-202 0 -347.5 144t-145.5 345q0 182 163 364l36 40q125 141 186 262t108 325z" />
    <glyph glyph-name="snowflake" unicode="T" horiz-adv-x="1665" 
d="M796 0v233l-203 -116l-37 64l240 138v357l-309 -179v-276h-75v234l-202 -117l-37 64l202 117l-202 116l37 65l239 -138l310 178l-310 178l-239 -137l-37 64l202 116l-202 117l37 64l202 -116v233h75v-276l309 -179v358l-239 137l37 65l202 -117v233h74v-233l202 117
l37 -65l-239 -137v-358l309 179v276h74v-233l202 116l38 -64l-202 -117l202 -116l-37 -64l-240 137l-309 -178l309 -178l239 138l38 -65l-202 -116l202 -117l-37 -64l-203 117v-234h-74v276l-309 179v-357l240 -138l-37 -64l-203 116v-233h-74z" />
    <glyph glyph-name="xmarkbld" unicode="&#x2da;" horiz-adv-x="1301" 
d="M645 551l-15 -21q-156 -236 -256 -236q-115 0 -226 187q15 -1 22 -1q131 0 292 200l27 34l-35 38q-147 156 -147 265q0 89 161 210q23 -155 137 -302l30 -38l24 31q167 213 303 213q106 0 161 -161q-16 2 -23 2q-48 0 -135 -64.5t-147 -145.5l-30 -41l29 -28
q161 -156 336 -156q-94 -190 -196 -190q-92 0 -266 162z" />
    <glyph glyph-name="checkbld" unicode="&#xb8;" horiz-adv-x="1609" 
d="M1500 1568l35 -50q-214 -161 -476 -496t-400 -626l-74 -50q-92 -64 -125 -95q-13 47 -57 154l-28 65q-60 140 -111.5 207t-115.5 89q108 114 198 114q77 0 171 -209l31 -70q169 285 434 554t518 413z" />
    <glyph glyph-name="boxxmarkbld" unicode="&#x2dd;" horiz-adv-x="1826" 
d="M321 148h1184v1184h-1184v-1184zM173 0v1480h1480v-1480h-1480zM907 551l-15 -21q-156 -236 -256 -236q-115 0 -226 187q15 -1 22 -1q131 0 292 200l27 34l-35 38q-148 156 -148 265q0 89 162 210q23 -155 137 -302l30 -38l24 31q167 213 303 213q106 0 161 -161
q-16 2 -24 2q-47 0 -134 -64.5t-147 -145.5l-31 -41l30 -28q161 -156 335 -156q-93 -190 -195 -190q-92 0 -266 162z" />
    <glyph glyph-name="boxcheckbld" unicode="&#x2db;" horiz-adv-x="1826" 
d="M1653 0h-1480v1480h1427q70 47 132 81l36 -51q-52 -39 -115 -94v-1416zM1505 1267q-152 -162 -333.5 -423.5t-269.5 -446.5l-74 -50q-92 -64 -125 -96q-13 48 -57 155l-28 64q-60 141 -111.5 208t-115.5 88q108 115 199 115q76 0 170 -209l31 -70q177 298 550 666l68 65
l-1088 -1v-1184h1184v1119z" />
    <glyph glyph-name="crossoutline" unicode="U" horiz-adv-x="1529" 
d="M568 1086v394h395v-394h395v-395h-395v-691h-395v691h-395v395h395zM667 987h-395v-197h395v-691h197v691h395v197h-395v395h-197v-395z" />
    <glyph glyph-name="crossshadow" unicode="V" horiz-adv-x="1529" 
d="M518 1135v345h395l99 -98v-247h247l98 -99v-395h-345v-641h-395l-99 99v641h-345v395h345zM617 1036h-345v-197h345v-642h198v642h345v197h-345v346h-198v-346z" />
    <glyph glyph-name="crossceltic" unicode="W" horiz-adv-x="1480" 
d="M815 651q141 46 187 188h-88l-82 36q-19 -35 -53 -53l36 -82v-89zM328 839h-155v148h155q66 272 339 339v154h148v-155q272 -68 339 -338h154v-148h-154q-67 -272 -339 -339v-500h-148v500q-273 67 -339 339zM568 839h-88q43 -141 187 -188v89l36 82q-35 18 -54 53z
M649 951q19 34 54 53l-36 82v88q-143 -46 -187 -187h88zM779 1004q34 -19 53 -53l82 36h88q-36 109 -157 176l-30 10v-87z" />
    <glyph glyph-name="crossmaltese" unicode="X" horiz-adv-x="1420" 
d="M1090 1277v-35q-309 -120 -343 -465q345 34 465 343h35v-760h-35q-123 308 -465 343q34 -344 343 -464v-36h-760v36q309 118 343 464q-345 -36 -464 -343h-36v760h36q120 -309 464 -343q-34 346 -343 465v35h760z" />
    <glyph glyph-name="starofdavid" unicode="Y" horiz-adv-x="1627" 
d="M714 1110h200l-100 173zM1184 641l-99 -172h199zM543 469l-99 172l-100 -172h199zM173 370l214 370l-214 370h427l214 370l214 -370h427l-214 -370l214 -370h-427l-214 -370l-214 370h-427zM1085 1012l99 -173l100 173h-199zM914 370h-200l100 -173zM657 469h313l157 271
l-156 272h-314l-156 -272zM444 839l99 173h-199z" />
    <glyph glyph-name="crescentstar" unicode="Z" horiz-adv-x="1813" 
d="M1360 150q-100 -65 -132 -80q-149 -70 -315 -70q-307 0 -523.5 216.5t-216.5 523.5q0 309 217.5 524.5t528.5 215.5q229 0 441 -149l-248 50q-267 0 -455 -187.5t-188 -453.5q0 -264 187 -452.5t449 -188.5zM1078 825h215l67 204l66 -204h215l-174 -126l66 -205l-173 126
l-174 -126l66 205z" />
    <glyph glyph-name="yinyang" unicode="[" horiz-adv-x="1826" 
d="M913 752l1 -24q7 -143 105.5 -238t239.5 -95q146 0 245.5 102.5t99.5 253.5q0 278 -204.5 479t-486.5 201q-289 0 -481.5 -192.5t-209.5 -498.5q22 170 110 258t236 88q141 0 239 -95.5t106 -238.5zM1357 740q0 -41 -29 -70t-69 -29q-41 0 -70 29t-29 70t29 70t70 29
t69.5 -29t28.5 -70zM666 740q0 41 -28.5 70t-69.5 29t-70 -29t-29 -70t29 -70t70 -29q40 0 69 29.5t29 69.5zM1653 740q0 -307 -216.5 -523.5t-523.5 -216.5t-523.5 216.5t-216.5 523.5t216.5 523.5t523.5 216.5t523.5 -216.5t216.5 -523.5z" />
    <glyph glyph-name="om" unicode="\" horiz-adv-x="1834" 
d="M173 688l56 16q42 -271 178.5 -438t315.5 -167q94 0 158.5 67.5t64.5 165.5q0 179 -144 325q-75 -104 -178 -151l-70 166q232 68 232 222q0 59 -35 88.5t-106 29.5q-105 0 -221 -63l-68 165q96 46 199 46q136 0 220.5 -88.5t84.5 -230.5q0 -61 -24 -108l31 -29
q133 127 254 127q10 0 31 -2q47 244 248 244q131 0 196.5 -107t65.5 -321q0 -217 -82 -344.5t-221 -127.5q-97 0 -138 62t-41 208v74q0 137 -73 137q-62 0 -154 -64q129 -173 129 -333q0 -132 -86.5 -213.5t-227.5 -81.5q-229 0 -398.5 207t-196.5 519zM1202 811
q53 -27 53 -130l-1 -117v-63q0 -180 113 -180q95 0 158 88.5t63 222.5q0 130 -57.5 211.5t-148.5 81.5q-125 0 -180 -114zM669 1318l50 37q93 -121 223 -121q122 0 211 121l138 -115q-134 -142 -271 -142q-208 0 -351 220zM963 1517l105 -106l-105 -102l-104 109z" />
    <glyph glyph-name="wheel" unicode="]" 
d="M885 143q-215 10 -374 155q5 -21 5 -32q0 -71 -74 -71t-74 74t71 74q11 0 31 -5q-144 159 -154 374q-27 -46 -69 -46q-74 0 -74 74t74 74q43 0 69 -45q0 203 155 373q-21 -5 -33 -5q-70 0 -70 74t74 74t74 -71q0 -11 -5 -31q162 144 374 154q-46 25 -46 69q0 74 74 74
q73 0 73 -74q0 -44 -45 -69q212 -10 374 -154q-5 20 -5 31q0 71 74 71t74 -74t-71 -74q-11 0 -32 5q155 -170 155 -373q26 45 69 45q74 0 74 -74t-74 -74q-42 0 -69 46q-10 -215 -155 -374q20 5 31 5q72 0 72 -74t-74 -74t-74 71q0 11 5 32q-159 -145 -374 -155
q45 -26 45 -69q0 -74 -73 -74q-74 0 -74 74q0 43 46 69zM739 817q-40 22 -45 68q-66 9 -74 74q-47 7 -69 46q-60 -90 -81 -196q20 5 32 5q21 0 48 -21q28 21 53 21t52 -21q28 21 48 21q12 0 33 -5zM735 672q-20 -6 -33 -6q-19 0 -47 22q-27 -22 -52 -22q-26 0 -53 22
q-28 -22 -48 -22q-12 0 -32 6q21 -107 81 -197q23 40 68 46q8 66 74 74q6 46 46 68zM836 566q-23 -40 -69 -46q-7 -66 -74 -73q-5 -47 -45 -69q90 -60 196 -81q-6 20 -6 32q0 20 22 48q-21 28 -21 52q0 25 21 54q-21 27 -21 47q0 12 5 33zM845 917q-6 21 -6 33q0 20 22 48
q-22 27 -22 52t22 53q-22 27 -22 48q0 12 5 33q-106 -22 -196 -82q40 -22 46 -69q67 -7 74 -74q46 -5 68 -45zM913 641q41 0 69.5 29t28.5 70t-28.5 70t-69.5 29t-70 -29t-29 -70t29 -70t70 -29zM1086 817l4 -8q21 5 33 5q20 0 48 -21q27 21 52 21t53 -21q27 21 47 21
q13 0 33 -5q-21 106 -82 196q-21 -39 -68 -46q-8 -65 -74 -74q-5 -46 -46 -68zM1090 672l-3 -9q40 -22 46 -68q66 -8 74 -74q45 -6 68 -46q60 90 81 197q-20 -6 -33 -6q-19 0 -47 22q-28 -22 -51 -22q-27 0 -54 22q-28 -22 -48 -22q-12 0 -33 6zM990 566l-9 -3q6 -21 6 -33
q0 -20 -22 -47q22 -29 22 -53q0 -25 -22 -53q22 -28 22 -48q0 -12 -6 -32q107 21 197 81q-40 22 -45 69q-67 7 -75 73q-46 6 -68 46zM981 917l8 -3q23 40 69 45q7 67 74 74q6 47 46 69q-90 60 -197 82q6 -21 6 -34q0 -20 -22 -47q22 -28 22 -53t-22 -52q22 -27 22 -48
q0 -12 -6 -33z" />
    <glyph glyph-name="aries" unicode="^" horiz-adv-x="2368" 
d="M1111 -395v99q0 284 -57 632t-139 568q-179 478 -386 478q-92 0 -150 -80.5t-58 -209.5q0 -170 110 -352h-150q-108 196 -108 367q0 176 102 293.5t256 117.5q248 0 422 -334t219 -896h25q38 551 215.5 890.5t426.5 339.5q154 0 255.5 -116t101.5 -292q0 -172 -107 -370
h-151q110 196 110 360q0 132 -57 213t-151 81q-200 0 -373 -445q-88 -227 -148 -588t-60 -663v-93h-148z" />
    <glyph glyph-name="taurus" unicode="_" horiz-adv-x="2159" 
d="M799 776q-98 39 -159 99t-135 193l-59 106q-109 195 -246 195h-27v111h73q195 0 353 -274l81 -141q81 -140 169 -195.5t231 -55.5q142 0 230.5 55.5t169.5 195.5l81 141q158 274 352 274h73v-111h-26q-138 0 -247 -195l-59 -106q-74 -133 -135 -193t-159 -99
q170 -94 262.5 -241.5t92.5 -323.5q0 -254 -189.5 -442t-445.5 -188t-446 188t-190 442q0 176 92.5 323.5t262.5 241.5zM1080 -271q201 0 344 140.5t143 338.5q0 201 -142 342t-345 141t-345.5 -141t-142.5 -342q0 -198 143 -338.5t345 -140.5z" />
    <glyph glyph-name="gemini" unicode="`" horiz-adv-x="1974" 
d="M173 -99v123q206 55 382 76v1275q-190 18 -382 73v124q332 -92 814 -92q483 0 815 92v-124q-192 -55 -383 -73v-1275q176 -21 383 -76v-123q-378 99 -815 99t-814 -99zM703 109q127 14 284 14t284 -14v1256q-114 -8 -284 -8t-284 8v-1256z" />
    <glyph glyph-name="cancer" unicode="a" horiz-adv-x="2233" 
d="M173 199v161q465 -212 899 -212q284 0 462 74q-113 58 -169.5 145.5t-56.5 205.5q0 155 111.5 266t267.5 111q154 0 264 -110t110 -265q0 -247 -301.5 -411t-756.5 -164q-393 0 -830 199zM1407 572q0 -113 82.5 -194.5t197.5 -81.5t195 79.5t80 194.5q0 117 -80.5 199
t-195.5 82q-116 0 -197.5 -81.5t-81.5 -197.5zM2061 1281v-161q-465 213 -899 213q-284 0 -463 -75q114 -57 170.5 -145t56.5 -206q0 -155 -111.5 -266t-267.5 -111q-155 0 -264.5 110t-109.5 265q0 248 301.5 412t756.5 164q394 0 830 -200zM827 908q0 114 -83 195t-198 81
t-194.5 -79.5t-79.5 -194.5q0 -117 80.5 -199t195.5 -82q116 0 197.5 82t81.5 197z" />
    <glyph glyph-name="leo" unicode="b" horiz-adv-x="1927" 
d="M1755 -260q-173 -159 -332 -159q-138 0 -231.5 91.5t-93.5 225.5q0 179 188 578l96 204q111 237 111 384q0 188 -109.5 302t-289.5 114q-169 0 -273.5 -101.5t-104.5 -266.5q0 -152 98 -356l39 -81q97 -201 97 -296q0 -153 -115.5 -266t-272.5 -113q-162 0 -275.5 114
t-113.5 277q0 157 112 271.5t267 114.5q56 0 124 -21q-108 207 -108 366q0 207 149.5 344.5t375.5 137.5q248 0 398 -145.5t150 -386.5q0 -120 -25 -207t-118 -287l-69 -150q-184 -398 -184 -515q0 -86 51.5 -141.5t131.5 -55.5q105 0 240 119zM284 390q0 -118 78.5 -198.5
t193.5 -80.5q112 0 191.5 81t79.5 196q0 117 -79 197.5t-194 80.5q-112 0 -191 -81t-79 -195z" />
    <glyph glyph-name="virgo" unicode="c" horiz-adv-x="1911" 
d="M443 928v-928h-148v1075q0 223 -122 405h156q83 -114 114 -293q75 185 174 293l145 27q100 -128 126 -340q51 160 181 313l143 27q120 -167 120 -369v-282q60 170 127 266l122 45q158 -245 158 -515q0 -214 -94.5 -402t-283.5 -350q18 -130 153 -295h-174
q-63 80 -112 212q-139 -79 -340 -111v127q190 39 311 111q-15 96 -15 193v900q0 220 -64 332q-157 -169 -232 -476v-893h-149v987q0 275 -65 382q-153 -178 -231 -441zM1332 39q130 132 194.5 283.5t64.5 321.5q0 178 -78 345q-110 -136 -181 -363v-587z" />
    <glyph glyph-name="libra" unicode="d" horiz-adv-x="1937" 
d="M173 148v148h1591v-148h-1591zM802 730v-138h-629v148h441q-120 123 -120 276q0 190 140.5 327t334.5 137t334.5 -137t140.5 -327q0 -153 -120 -276h440v-148h-629v138q161 104 161 279q0 132 -97 227.5t-230 95.5q-134 0 -230.5 -95.5t-96.5 -227.5q0 -175 160 -279z
" />
    <glyph glyph-name="scorpio" unicode="e" horiz-adv-x="2099" 
d="M298 0v1056q0 264 -125 424h159q84 -128 114 -291q70 174 174 291l143 29q100 -117 127 -336q55 157 179 307l146 29q119 -162 119 -383v-921q0 -145 10 -196.5t45 -89.5q64 -67 212 -67h91v148l234 -211l-234 -204v144h-136q-194 0 -282 102t-88 326v892q0 225 -65 323
q-166 -191 -231 -478v-894h-148v996q0 269 -65 376q-159 -179 -231 -445v-927h-148z" />
    <glyph glyph-name="saggitarius" unicode="f" horiz-adv-x="1902" 
d="M1627 1415l102 -729l-146 -23l-75 531l-667 -668l314 -314l-105 -104l-314 314l-461 -459l-102 102l461 459l-314 314l104 105l314 -314l668 667l-531 75l23 146z" />
    <glyph glyph-name="capricorn" unicode="g" horiz-adv-x="2245" 
d="M536 438v52q0 144 -50.5 407t-93.5 345q-61 116 -191 116h-28v122h111q155 0 215 -122q71 -146 129 -487q84 376 280 609l195 38q73 -163 120 -489l27 -181q13 -95 18 -135q18 -162 45 -245q143 273 395 273q152 0 258.5 -104.5t106.5 -253.5q0 -160 -108 -271.5
t-263 -111.5q-211 0 -369 164q-113 -296 -199 -378t-284 -82h-134v123h63q190 0 261.5 77t182.5 403q-50 88 -65.5 146.5t-40.5 257.5l-37 283q-37 280 -86 385q-127 -149 -219 -404.5t-92 -456.5v-80h-147zM1366 289q161 -178 325 -178q111 0 185 77t74 193
q0 103 -70.5 175.5t-171.5 72.5q-218 0 -342 -340z" />
    <glyph glyph-name="aquarius" unicode="h" horiz-adv-x="2181" 
d="M173 225l555 367l122 -284l430 284l120 -284l430 284l178 -418l-115 -51l-119 284l-432 -284l-120 284l-428 -284l-121 284l-432 -284zM174 990l555 367l122 -284l430 284l120 -284l430 284l178 -418l-115 -51l-119 284l-433 -284l-120 284l-428 -284l-120 284l-432 -284
z" />
    <glyph glyph-name="pisces" unicode="i" horiz-adv-x="1597" 
d="M646 716q0 -183 -84.5 -386.5t-227.5 -366.5h-161q326 344 326 753h-315v111h315q-20 355 -326 690h153q280 -300 320 -690h306q40 390 320 690h153q-306 -335 -326 -690h315v-111h-315q0 -409 326 -753h-161q-143 163 -227.5 366.5t-84.5 386.5h-306z" />
    <glyph glyph-name="ampersanditlc" unicode="j" horiz-adv-x="2150" 
d="M1284 -210l122 614q-172 -204 -378 -317t-404 -113t-321.5 114t-123.5 297q0 271 210.5 497.5t461.5 226.5q108 0 162 -58.5t54 -175.5q62 66 124.5 99t126.5 33q86 0 261 -67l94 -35q204 -78 298 -78q59 0 88 30.5t29 91.5q0 62 -62 101l134 124q39 -69 39 -140
q0 -126 -111 -231t-245 -105q-77 0 -177 23l-168 -844zM387 486q227 17 356.5 118t129.5 259q0 80 -32.5 120t-98.5 40q-132 0 -232.5 -151.5t-122.5 -385.5zM1482 788l-28 14q-124 57 -203 57q-43 0 -96 -24.5t-117 -73.5q-155 -309 -656 -337q-1 -20 -1 -29
q0 -128 104.5 -210t268.5 -82q252 0 458.5 183t260.5 454z" />
    <glyph glyph-name="ampersandit" unicode="k" horiz-adv-x="2603" 
d="M1030 79q-219 -116 -463 -116q-188 0 -309.5 110.5t-121.5 282.5q0 164 111.5 285.5t360.5 229.5q-48 123 -48 229q0 162 131.5 289.5t298.5 127.5q113 0 185 -67.5t72 -174.5q0 -274 -435 -415q30 -88 113 -265q113 197 251 270t398 73h317q295 0 384 34q89 33 89 145
q0 100 -105 143l144 141q95 -78 95 -196q0 -169 -198 -292t-468 -123h-76q-156 -365 -559 -614q169 -189 376 -293t414 -104q186 0 300 107t114 281q0 162 -159 229l161 151q151 -71 151 -265q0 -253 -207.5 -428t-507.5 -175q-216 0 -427.5 105t-381.5 295zM790 917
q292 124 292 359q0 86 -36.5 129t-109.5 43q-86 0 -144 -71t-58 -176q0 -106 56 -284zM977 143q-204 253 -352 670q-280 -130 -280 -392q0 -150 97.5 -247t247.5 -97q124 0 287 66zM1605 790h-117q-374 0 -533 -254q94 -173 199 -312q330 182 451 566z" />
    <glyph glyph-name="quotedbllftbld" unicode="}" horiz-adv-x="1086" 
d="M1012 1579v-123q-153 0 -170 -198h170v-394h-395v283q0 216 93 317.5t302 114.5zM469 1579v-123q-152 0 -170 -198h170v-394h-395v283q0 216 93 317.5t302 114.5z" />
    <glyph glyph-name="quotedblrtbld" unicode="~" horiz-adv-x="1086" 
d="M74 864v123q153 0 170 197h-170v395h395v-284q0 -215 -93 -317t-302 -114zM617 864v123q153 0 169 197h-169v395h395v-284q0 -215 -93.5 -317t-301.5 -114z" />
    <glyph glyph-name="rosette" unicode="{" horiz-adv-x="1826" 
d="M909 144q-28 -55 -71 -83t-100 -28q-98 0 -166 106l-16 25q-33 51 -92 64l-29 6q-69 15 -113 68t-44 121q0 64 68 138q-86 18 -129.5 65.5t-43.5 125.5q0 57 44 112l24 29q47 58 47 89q0 11 -2 31l-2 37q-1 13 -1 25q0 69 57 126q56 57 124 57q46 0 107 -31q-8 32 -8 47
q0 69 56 123t128 54q34 0 74 -15l34 -12q47 -19 63 -19q23 0 61 16l28 13q39 17 77 17q73 0 130.5 -54t57.5 -123q0 -20 -5 -56q22 15 47 22t53 7q79 0 132 -60t48 -143l-2 -42q-2 -29 -2 -35q0 -33 39 -78l18 -20q53 -60 53 -123q0 -74 -41.5 -123t-125.5 -72
q57 -69 57 -135q0 -143 -148 -182l-30 -8q-74 -19 -102 -70l-17 -30q-53 -94 -164 -94q-50 0 -93 28t-80 84zM935 431q-5 -43 -5 -76q0 -136 38 -204.5t113 -68.5t126 79l20 30q42 65 123 84l32 7q112 26 112 136q0 60 -81 138q-129 16 -214 63l15 46q145 -63 242 -63
q74 0 110.5 35t36.5 105q0 45 -39 91l-24 28q-48 57 -48 119q0 11 1 23l2 34q1 11 1 24q0 58 -37 98q-38 40 -92 40q-29 0 -60.5 -11.5t-65.5 -34.5q-56 -107 -122 -178l-40 30q141 163 141 268q0 52 -40 90t-96 38q-23 0 -58 -14l-33 -13q-46 -19 -75 -19q-24 0 -78 22
l-31 12q-37 14 -64 14q-58 0 -95 -40t-37 -102q0 -28 7 -74q72 -71 135 -177l-40 -28q-138 227 -246 227q-61 0 -100 -45q-40 -46 -37 -112l2 -36q1 -13 1 -27q0 -57 -54 -121l-23 -28q-37 -44 -37 -92q0 -54 44 -92.5t131 -60.5q85 48 213 79l15 -47q-176 -51 -236 -93
t-60 -114q0 -111 112 -136l33 -8q83 -19 126 -87l19 -30q47 -75 124 -75q42 0 79.5 29.5t70.5 88.5q-15 70 -15 154q0 35 7 75h51zM914 580l-22 -53l-45 10l2 56l-67 -77l-38 29l50 89l-54 -19l-23 43l43 36l-55 2l-5 46l54 15l-95 40l16 46l99 -23l-33 48l33 34l45 -31
l-14 53l45 21l28 -47l9 101h50l8 -101l34 47l45 -21l-15 -54l45 31l32 -34l-35 -44l101 24l13 -46l-92 -41l54 -16l-6 -49l-54 -2l43 -34l-23 -43l-53 20l56 -86l-41 -30l-67 75l-1 -58l-46 -9zM914 594q62 0 105 43t43 105t-43 105t-105 43t-105 -43t-43 -105t42.5 -105
t105.5 -43zM912 680q-60 0 -60 62q0 61 60 61t60 -61q0 -62 -60 -62z" />
    <glyph glyph-name="rosettesolid" unicode="|" horiz-adv-x="1826" 
d="M914 580l21 -52l46 9l1 58l67 -75l41 30l-56 86l53 -20l23 43l-43 34l54 2l6 49l-54 16l92 41l-13 46l-101 -24l35 44l-32 34l-45 -31l15 54l-45 21l-34 -47l-8 101h-50l-9 -101l-28 47l-45 -21l14 -53l-45 31l-33 -34l33 -48l-99 23l-16 -46l95 -40l-54 -15l5 -46l55 -2
l-43 -36l23 -43l54 19l-50 -89l38 -29l67 77l-2 -56l45 -10zM914 594q-63 0 -105.5 43t-42.5 105t43 105t105 43t105 -43t43 -105t-43 -105t-105 -43zM912 680q30 0 45 15.5t15 46.5t-15 46t-45 15t-45 -15t-15 -46t15 -46.5t45 -15.5zM914 312q-35 -259 -196 -259
q-93 0 -139 84l-15 28q-31 57 -101 75l-32 8q-141 34 -141 157q0 134 201 218q-76 -12 -122 -12q-84 0 -140 47t-56 117q0 56 47 108l24 27q42 46 42 87q0 9 -3 43l-3 26v19q0 165 162 165q101 0 216 -130q-64 108 -64 194q0 67 43.5 112.5t107.5 45.5q36 0 68 -14l25 -12
q52 -23 78 -23q21 0 62 16l29 12q49 20 81 20q66 0 113 -51t47 -122q0 -80 -69 -180q116 132 217 132q67 0 110 -46t43 -119q0 -15 -2 -27l-4 -24q-2 -15 -2 -31q0 -52 44 -101l19 -22q50 -56 50 -111q0 -73 -52.5 -122t-130.5 -49q-50 0 -132 16q198 -84 198 -215
q0 -117 -124 -147l-29 -8q-84 -20 -118 -78l-13 -23q-54 -90 -145 -90q-175 0 -194 259z" />
    <glyph glyph-name="budleafne" unicode="&#xf1;" horiz-adv-x="2048" 
d="M1974 1086v-62q-78 0 -145 -177l-19 -49q-37 -98 -74 -137.5t-121 -72.5q142 -17 219.5 -91.5t77.5 -193.5q0 -128 -102 -215.5t-252 -87.5q-219 0 -354 191l54 42q88 -111 213 -111q99 0 170.5 64.5t71.5 155.5q0 72 -54 120.5t-134 48.5q-130 0 -280 -132l-41 -35
q-129 -113 -295 -182.5t-307 -69.5q-226 0 -377 137t-151 341q0 219 166.5 367.5t412.5 148.5h19v-62q-188 -13 -294.5 -119.5t-106.5 -281.5q0 -189 123 -314t309 -125q183 0 333.5 118t150.5 262q0 76 -50.5 133t-117.5 57q-62 0 -104.5 -47t-42.5 -116q0 -22 7 -52
l-60 -19q-20 65 -20 124q0 121 67 199t170 78q69 0 124.5 -36t97.5 -108q117 309 568 309h148zM1294 509q147 81 215.5 146t112.5 169l14 32q47 113 116 167q-459 -24 -459 -456z" />
    <glyph glyph-name="budleafnw" unicode="&#xf3;" horiz-adv-x="2048" 
d="M74 1086v-62q78 0 145 -177l19 -49q37 -98 74 -137.5t121 -72.5q-142 -17 -219.5 -91.5t-77.5 -193.5q0 -128 102 -215.5t252 -87.5q219 0 354 191l-54 42q-88 -111 -213 -111q-99 0 -170.5 64.5t-71.5 155.5q0 72 54 120.5t134 48.5q130 0 280 -132l41 -35
q129 -113 295 -182.5t307 -69.5q226 0 377 137t151 341q0 219 -166.5 367.5t-412.5 148.5h-19v-62q188 -13 294.5 -119.5t106.5 -281.5q0 -189 -123 -314t-309 -125q-183 0 -333.5 118t-150.5 262q0 76 50.5 133t117.5 57q62 0 104.5 -47t42.5 -116q0 -22 -7 -52l60 -19
q20 65 20 124q0 121 -67 199t-170 78q-69 0 -124.5 -36t-97.5 -108q-117 309 -568 309h-148zM754 509q-147 81 -215.5 146t-112.5 169l-14 32q-47 113 -116 167q459 -24 459 -456z" />
    <glyph glyph-name="budleafsw" unicode="&#xf2;" horiz-adv-x="2048" 
d="M74 0v62q77 0 145 177l19 48q37 98 74 138t121 73q-142 16 -220 91t-78 194q0 128 102.5 215.5t252.5 87.5q219 0 354 -192l-54 -41q-88 111 -214 111q-98 0 -169.5 -65t-71.5 -155q0 -72 54 -120.5t134 -48.5q130 0 280 131l41 36q288 251 601 251q227 0 378 -136.5
t151 -340.5q0 -220 -166.5 -368t-413.5 -148h-19v62q189 13 295.5 119.5t106.5 281.5q0 189 -123 313.5t-309 124.5q-183 0 -333.5 -118t-150.5 -261q0 -76 50 -133.5t118 -57.5q62 0 104 47.5t42 116.5q0 21 -6 52l60 18q20 -64 20 -124q0 -120 -67 -198t-170 -78
q-68 0 -123.5 36t-98.5 108q-117 -309 -569 -309h-147zM754 577q-148 -81 -216 -146.5t-112 -168.5l-14 -32q-47 -114 -116 -167q459 23 459 459z" />
    <glyph glyph-name="budleafse" unicode="&#xf4;" horiz-adv-x="2048" 
d="M1974 0v62q-77 0 -145 177l-19 48q-37 98 -74 138t-121 73q142 16 220 91t78 194q0 128 -102.5 215.5t-252.5 87.5q-219 0 -354 -192l54 -41q88 111 214 111q98 0 169.5 -65t71.5 -155q0 -72 -54 -120.5t-134 -48.5q-130 0 -280 131l-41 36q-288 251 -601 251
q-227 0 -378 -136.5t-151 -340.5q0 -220 166.5 -368t413.5 -148h19v62q-189 13 -295.5 119.5t-106.5 281.5q0 189 123 313.5t309 124.5q183 0 333.5 -118t150.5 -261q0 -76 -50 -133.5t-118 -57.5q-62 0 -104 47.5t-42 116.5q0 21 6 52l-60 18q-20 -64 -20 -124
q0 -120 67 -198t170 -78q68 0 123.5 36t98.5 108q117 -309 569 -309h147zM1294 577q148 -81 216 -146.5t112 -168.5l14 -32q47 -114 116 -167q-459 23 -459 459z" />
    <glyph glyph-name="vineleafboldne" unicode="&#xf6;" horiz-adv-x="2048" 
d="M1536 341l-66 -68q-266 -273 -495 -273q-143 0 -243 88.5t-100 215.5q0 76 53.5 132.5t126.5 56.5q109 0 180 -152q-43 15 -74 15q-64 0 -110.5 -35t-46.5 -83q0 -42 23 -63.5t68 -21.5q98 0 351 259l72 74q-247 121 -437 121q-199 0 -330.5 -106t-131.5 -267
q0 -95 53 -158q-171 0 -272 64t-101 173q0 172 188.5 298t444.5 126q185 0 385 -72l-51 49q-221 211 -349 211q-46 0 -69.5 -19t-23.5 -58q0 -19 15 -51q-193 27 -193 157q0 66 47.5 99t141.5 33q215 0 500 -295l50 -52q116 -120 208 -186q201 193 373 193q116 0 193 -71
t77 -178q0 -89 -65 -151t-159 -62q-101 0 -233 57zM1614 419q71 -28 131 -28q53 0 79 19.5t26 58.5q0 29 -16.5 43.5t-49.5 14.5q-52 0 -170 -108z" />
    <glyph glyph-name="vineleafboldnw" unicode="&#xf5;" horiz-adv-x="2048" 
d="M513 341l66 -68q266 -273 495 -273q143 0 243 88.5t100 215.5q0 76 -53.5 132.5t-126.5 56.5q-109 0 -180 -152q43 15 74 15q64 0 110.5 -35t46.5 -83q0 -42 -23 -63.5t-68 -21.5q-98 0 -351 259l-72 74q247 121 437 121q199 0 330.5 -106t131.5 -267q0 -95 -53 -158
q171 0 272 64t101 173q0 172 -188.5 298t-444.5 126q-185 0 -385 -72l51 49q221 211 349 211q46 0 69.5 -19t23.5 -58q0 -19 -15 -51q193 27 193 157q0 66 -47.5 99t-141.5 33q-215 0 -500 -295l-50 -52q-116 -120 -208 -186q-201 193 -373 193q-116 0 -193 -71t-77 -178
q0 -89 65 -151t159 -62q101 0 233 57zM435 419q-71 -28 -131 -28q-53 0 -79 19.5t-26 58.5q0 29 16.5 43.5t49.5 14.5q52 0 170 -108z" />
    <glyph glyph-name="vineleafboldsw" unicode="&#xfa;" horiz-adv-x="2048" 
d="M513 745l66 68q265 273 495 273q142 0 242.5 -89t100.5 -215q0 -77 -53.5 -133t-126.5 -56q-110 0 -180 152q43 -16 74 -16q64 0 110.5 35t46.5 84q0 43 -22.5 64t-68.5 21q-98 0 -351 -259l-72 -74q247 -121 437 -121q199 0 330.5 106t131.5 266q0 95 -53 159
q171 0 272 -64.5t101 -173.5q0 -171 -188.5 -297t-445.5 -126q-186 0 -384 72l51 -50q220 -211 349 -211q47 0 70 19.5t23 58.5q0 18 -16 50q194 -26 194 -157q0 -65 -47 -98t-142 -33q-215 0 -500 295l-50 52q-116 120 -209 186q-200 -193 -372 -193q-116 0 -193 70.5
t-77 177.5q0 90 65 152t159 62q101 0 233 -57zM435 667q-71 28 -131 28q-52 0 -78.5 -19.5t-26.5 -59.5q0 -28 16.5 -42.5t49.5 -14.5q52 0 170 108z" />
    <glyph glyph-name="vineleafboldse" unicode="&#xf9;" horiz-adv-x="2048" 
d="M1536 745l-66 68q-265 273 -495 273q-142 0 -242.5 -89t-100.5 -215q0 -77 53.5 -133t126.5 -56q110 0 180 152q-43 -16 -74 -16q-64 0 -110.5 35t-46.5 84q0 43 22.5 64t68.5 21q98 0 351 -259l72 -74q-247 -121 -437 -121q-199 0 -330.5 106t-131.5 266q0 95 53 159
q-171 0 -272 -64.5t-101 -173.5q0 -171 188.5 -297t445.5 -126q186 0 384 72l-51 -50q-220 -211 -349 -211q-47 0 -70 19.5t-23 58.5q0 18 16 50q-194 -26 -194 -157q0 -65 47 -98t142 -33q215 0 500 295l50 52q116 120 209 186q200 -193 372 -193q116 0 193 70.5t77 177.5
q0 90 -65 152t-159 62q-101 0 -233 -57zM1614 667q71 28 131 28q52 0 78.5 -19.5t26.5 -59.5q0 -28 -16.5 -42.5t-49.5 -14.5q-52 0 -170 108z" />
    <glyph glyph-name="clear" unicode="x" horiz-adv-x="2171" 
d="M173 0v1480h1826v-1480h-1826zM321 148h1530v1184h-1530v-1184zM1086 845l366 366l105 -105l-367 -366l367 -366l-105 -105l-366 366l-367 -366l-104 105l366 366l-366 366l104 105z" />
    <glyph glyph-name="escape" unicode="y" horiz-adv-x="2171" 
d="M173 0v1480h1826v-1480h-1826zM321 148h1530v1184h-1530v-1184zM1086 1184l641 -641l-104 -105l-537 537l-537 -537l-105 105z" />
    <glyph glyph-name="command" unicode="z" 
d="M1209 592h148q122 0 209 -87.5t87 -208.5t-87 -208.5t-209 -87.5q-121 0 -208.5 87t-87.5 209v148h-296v-148q0 -120 -87 -208t-209 -88q-120 0 -208 86.5t-88 209.5q0 122 87.5 209t208.5 87h148v296h-148q-121 0 -208.5 87t-87.5 209t87.5 209t208.5 87t208.5 -87
t87.5 -209v-148h296v148q0 122 87.5 209t208.5 87t208.5 -87t87.5 -209q0 -121 -87 -208.5t-209 -87.5h-148v-296zM1209 1036h148q61 0 104.5 44t43.5 104t-43.5 104t-104.5 44t-104.5 -43.5t-43.5 -104.5v-148zM617 444h-148q-61 0 -104.5 -44t-43.5 -104t43.5 -104
t104.5 -44t104.5 44t43.5 104v148zM617 1036v148q0 60 -44 104t-104 44q-59 0 -103.5 -43t-44.5 -105q0 -61 43.5 -104.5t104.5 -43.5h148zM1209 444v-148q0 -61 44 -104.5t104 -43.5t104 43.5t44 104.5t-43.5 104.5t-104.5 43.5h-148zM1061 592v296h-296v-296h296z" />
    <glyph glyph-name="zerosans" unicode="&#xc4;" horiz-adv-x="1826" 
d="M173 740q0 307 216.5 523.5t523.5 216.5t523.5 -216.5t216.5 -523.5t-216.5 -523.5t-523.5 -216.5t-523.5 216.5t-216.5 523.5zM272 740q0 -266 187.5 -453.5t453.5 -187.5t454 187.5t188 453.5t-188 454t-454 188t-453.5 -188t-187.5 -454zM913 251q-147 0 -236.5 134.5
t-89.5 355.5q0 220 89.5 355t236.5 135t237 -135t90 -355q0 -221 -90 -355.5t-237 -134.5zM913 344q98 0 146.5 99.5t48.5 297.5t-48.5 297t-146.5 99q-97 0 -145.5 -99t-48.5 -297t48.5 -297.5t145.5 -99.5z" />
    <glyph glyph-name="onesans" unicode="&#xc5;" horiz-adv-x="1826" 
d="M173 740q0 307 216.5 523.5t523.5 216.5t523.5 -216.5t216.5 -523.5t-216.5 -523.5t-523.5 -216.5t-523.5 216.5t-216.5 523.5zM272 740q0 -266 187.5 -453.5t453.5 -187.5t454 187.5t188 453.5t-188 454t-454 188t-453.5 -188t-187.5 -454zM864 271v840h-148v78l272 23
v-941h-124z" />
    <glyph glyph-name="twosans" unicode="&#xc7;" horiz-adv-x="1826" 
d="M173 740q0 307 216.5 523.5t523.5 216.5t523.5 -216.5t216.5 -523.5t-216.5 -523.5t-523.5 -216.5t-523.5 216.5t-216.5 523.5zM272 740q0 -266 187.5 -453.5t453.5 -187.5t454 187.5t188 453.5t-188 454t-454 188t-453.5 -188t-187.5 -454zM642 284v109q53 126 219 275
l71 65q137 123 137 246q0 84 -44 125.5t-132 41.5q-95 0 -228 -75v110q124 59 247 59q131 0 210 -71t79 -187q0 -84 -40 -148.5t-149 -157.5l-48 -41q-148 -127 -172 -242h405v-109h-555z" />
    <glyph glyph-name="threesans" unicode="&#xc9;" horiz-adv-x="1826" 
d="M173 740q0 307 216.5 523.5t523.5 216.5t523.5 -216.5t216.5 -523.5t-216.5 -523.5t-523.5 -216.5t-523.5 216.5t-216.5 523.5zM272 740q0 -266 187.5 -453.5t453.5 -187.5t454 187.5t188 453.5t-188 454t-454 188t-453.5 -188t-187.5 -454zM674 281v116q134 -53 210 -53
q89 0 145 52t56 135q0 99 -68.5 148t-206.5 49h-49v83l43 1q130 0 194.5 45.5t64.5 136.5q0 72 -43 107.5t-129 35.5q-92 0 -204 -52v108q110 38 214 38q143 0 214.5 -54t71.5 -163q0 -82 -48.5 -140.5t-145.5 -93.5q113 -26 169 -88t56 -159q0 -131 -87 -206.5t-238 -75.5
q-87 0 -219 30z" />
    <glyph glyph-name="foursans" unicode="&#xd1;" horiz-adv-x="1826" 
d="M173 740q0 307 216.5 523.5t523.5 216.5t523.5 -216.5t216.5 -523.5t-216.5 -523.5t-523.5 -216.5t-523.5 216.5t-216.5 523.5zM272 740q0 -266 187.5 -453.5t453.5 -187.5t454 187.5t188 453.5t-188 454t-454 188t-453.5 -188t-187.5 -454zM938 284v264h-420v93l420 575
h116v-567h125v-101h-125v-264h-116zM640 649h306v415z" />
    <glyph glyph-name="fivesans" unicode="&#xd6;" horiz-adv-x="1826" 
d="M173 740q0 307 216.5 523.5t523.5 216.5t523.5 -216.5t216.5 -523.5t-216.5 -523.5t-523.5 -216.5t-523.5 216.5t-216.5 523.5zM272 740q0 -266 187.5 -453.5t453.5 -187.5t454 187.5t188 453.5t-188 454t-454 188t-453.5 -188t-187.5 -454zM683 268v110q92 -37 176 -37
q99 0 148.5 51t49.5 152q0 106 -72 158.5t-216 52.5q-33 0 -70 -5v454h472v-109h-363v-245q179 0 280 -82.5t101 -229.5q0 -136 -91.5 -213t-252.5 -77q-74 0 -162 20z" />
    <glyph glyph-name="sixsans" unicode="&#xdc;" horiz-adv-x="1826" 
d="M173 740q0 307 216.5 523.5t523.5 216.5t523.5 -216.5t216.5 -523.5t-216.5 -523.5t-523.5 -216.5t-523.5 216.5t-216.5 523.5zM272 740q0 -266 187.5 -453.5t453.5 -187.5t454 187.5t188 453.5t-188 454t-454 188t-453.5 -188t-187.5 -454zM719 754q44 58 100 87t124 29
q122 0 199.5 -81t77.5 -208q0 -145 -87 -239t-222 -94q-154 0 -241 124.5t-87 344.5q0 242 100 376.5t280 134.5q85 0 209 -35v-109q-132 50 -217 50q-118 0 -177 -95t-59 -285zM1096 557q0 112 -44.5 167.5t-134.5 55.5q-80 0 -136.5 -52.5t-56.5 -127.5q0 -117 54 -188
t142 -71t132 54t44 162z" />
    <glyph glyph-name="sevensans" unicode="&#xe1;" horiz-adv-x="1826" 
d="M173 740q0 307 216.5 523.5t523.5 216.5t523.5 -216.5t216.5 -523.5t-216.5 -523.5t-523.5 -216.5t-523.5 216.5t-216.5 523.5zM272 740q0 -266 187.5 -453.5t453.5 -187.5t454 187.5t188 453.5t-188 454t-454 188t-453.5 -188t-187.5 -454zM687 234q30 180 171 407
l254 409h-480v117h599v-117q-359 -527 -402 -816h-142z" />
    <glyph glyph-name="eightsans" unicode="&#xe0;" horiz-adv-x="1826" 
d="M173 740q0 307 216.5 523.5t523.5 216.5t523.5 -216.5t216.5 -523.5t-216.5 -523.5t-523.5 -216.5t-523.5 216.5t-216.5 523.5zM272 740q0 -266 187.5 -453.5t453.5 -187.5t454 187.5t188 453.5t-188 454t-454 188t-453.5 -188t-187.5 -454zM777 779q-136 95 -136 211
q0 106 77.5 171.5t202.5 65.5q115 0 186.5 -55.5t71.5 -145.5q0 -135 -174 -247q212 -103 212 -266q0 -117 -88.5 -191t-227.5 -74t-224 69.5t-85 183.5q0 167 185 278zM936 818q130 86 130 191q0 56 -43.5 90.5t-113.5 34.5q-69 0 -112.5 -33.5t-43.5 -87.5q0 -91 183 -195
zM845 729q-128 -99 -128 -208q0 -81 51.5 -130.5t135.5 -49.5q81 0 132.5 42.5t51.5 109.5q0 92 -154 183z" />
    <glyph glyph-name="ninesans" unicode="&#xe2;" horiz-adv-x="1826" 
d="M173 740q0 307 216.5 523.5t523.5 216.5t523.5 -216.5t216.5 -523.5t-216.5 -523.5t-523.5 -216.5t-523.5 216.5t-216.5 523.5zM272 740q0 -266 187.5 -453.5t453.5 -187.5t454 187.5t188 453.5t-188 454t-454 188t-453.5 -188t-187.5 -454zM656 277v105q120 -41 202 -41
q123 0 184.5 93.5t61.5 279.5q-47 -58 -100.5 -87t-114.5 -29q-118 0 -199.5 86.5t-81.5 211.5q0 143 87 237t219 94q153 0 240.5 -121.5t87.5 -333.5q0 -241 -107 -382.5t-289 -141.5q-73 0 -190 29zM732 916q0 -114 45 -171.5t135 -57.5q79 0 134.5 53.5t55.5 129.5
q0 119 -53.5 191.5t-141.5 72.5q-87 0 -131 -54.5t-44 -163.5z" />
    <glyph glyph-name="tensans" unicode="&#xe4;" horiz-adv-x="1826" 
d="M173 740q0 307 216.5 523.5t523.5 216.5t523.5 -216.5t216.5 -523.5t-216.5 -523.5t-523.5 -216.5t-523.5 216.5t-216.5 523.5zM272 740q0 -266 187.5 -453.5t453.5 -187.5t454 187.5t188 453.5t-188 454t-454 188t-453.5 -188t-187.5 -454zM605 271v840h-99v78l223 23
v-941h-124zM1111 248q-125 0 -201 134.5t-76 355.5q0 220 76 354.5t201 134.5t201 -134.5t76 -354.5q0 -221 -76 -355.5t-201 -134.5zM1111 341q73 0 109 99.5t36 298.5q0 198 -36 296.5t-109 98.5q-72 0 -108.5 -99t-36.5 -297t36.5 -297.5t108.5 -99.5z" />
    <glyph glyph-name="zerosansinv" unicode="&#xe3;" horiz-adv-x="1826" 
d="M173 740q0 307 216.5 523.5t523.5 216.5t523.5 -216.5t216.5 -523.5t-216.5 -523.5t-523.5 -216.5t-523.5 216.5t-216.5 523.5zM552 740q0 -219 99.5 -354t261.5 -135t262 135t100 354q0 220 -100 355t-262 135t-261.5 -135t-99.5 -355zM750 740q0 373 163 373
q164 0 164 -360q0 -386 -164 -386q-163 0 -163 373z" />
    <glyph glyph-name="onesansinv" unicode="&#xe5;" horiz-adv-x="1826" 
d="M173 740q0 307 216.5 523.5t523.5 216.5t523.5 -216.5t216.5 -523.5t-216.5 -523.5t-523.5 -216.5t-523.5 216.5t-216.5 523.5zM835 278h187v944l-315 -27l4 -94h124v-823z" />
    <glyph glyph-name="twosansinv" unicode="&#xe7;" horiz-adv-x="1826" 
d="M173 740q0 307 216.5 523.5t523.5 216.5t523.5 -216.5t216.5 -523.5t-216.5 -523.5t-523.5 -216.5t-523.5 216.5t-216.5 523.5zM621 284h623v147h-412q25 92 156 197l63 50q197 157 197 303q0 118 -89.5 188.5t-238.5 70.5q-66 0 -135 -13t-140 -40v-137q135 69 237 69
q167 0 167 -146q0 -126 -188 -292l-77 -67q-80 -71 -163 -183v-147z" />
    <glyph glyph-name="threesansinv" unicode="&#xe9;" horiz-adv-x="1826" 
d="M173 740q0 307 216.5 523.5t523.5 216.5t523.5 -216.5t216.5 -523.5t-216.5 -523.5t-523.5 -216.5t-523.5 216.5t-216.5 523.5zM658 279q60 -15 123.5 -23t130.5 -8q166 0 260 72.5t94 199.5q0 198 -235 252q206 68 206 233q0 112 -76.5 167.5t-229.5 55.5
q-69 0 -134 -10.5t-126 -31.5v-128q116 53 218 53q157 0 157 -127q0 -93 -66.5 -129.5t-235.5 -36.5v-112q183 0 255.5 -40.5t72.5 -143.5q0 -71 -50.5 -114t-133.5 -43q-91 0 -230 53v-139z" />
    <glyph glyph-name="foursansinv" unicode="&#xe8;" horiz-adv-x="1826" 
d="M173 740q0 307 216.5 523.5t523.5 216.5t523.5 -216.5t216.5 -523.5t-216.5 -523.5t-523.5 -216.5t-523.5 216.5t-216.5 523.5zM933 278h163v248h109v140h-109v544h-171l-428 -544v-140h436v-248zM647 666l289 365v-365h-289z" />
    <glyph glyph-name="fivesansinv" unicode="&#xea;" horiz-adv-x="1826" 
d="M173 740q0 307 216.5 523.5t523.5 216.5t523.5 -216.5t216.5 -523.5t-216.5 -523.5t-523.5 -216.5t-523.5 216.5t-216.5 523.5zM658 275q63 -13 114 -20t89 -7q170 0 269 79t99 216q0 145 -112 229t-307 84v200h399v148h-535v-468q33 5 67 5q289 0 289 -200
q0 -176 -173 -176q-80 0 -199 45v-135z" />
    <glyph glyph-name="sixsansinv" unicode="&#xeb;" horiz-adv-x="1826" 
d="M173 740q0 307 216.5 523.5t523.5 216.5t523.5 -216.5t216.5 -523.5t-216.5 -523.5t-523.5 -216.5t-523.5 216.5t-216.5 523.5zM741 766q0 164 62 254.5t173 90.5q101 0 229 -53v136q-70 17 -128.5 25t-106.5 8q-201 0 -312 -134t-111 -376q0 -221 97.5 -345t271.5 -124
q149 0 243.5 93.5t94.5 240.5q0 126 -82 208t-207 82q-137 0 -224 -106zM1067 554q0 -189 -152 -189q-74 0 -120 60t-46 157q0 74 47 124.5t116 50.5q155 0 155 -203z" />
    <glyph glyph-name="sevensansinv" unicode="&#xed;" horiz-adv-x="1826" 
d="M173 740q0 307 216.5 523.5t523.5 216.5t523.5 -216.5t216.5 -523.5t-216.5 -523.5t-523.5 -216.5t-523.5 216.5t-216.5 523.5zM661 234h206q0 135 104 342.5t287 439.5v151h-637v-151h485l-219 -320q-135 -196 -174 -276.5t-52 -185.5z" />
    <glyph glyph-name="eightsansinv" unicode="&#xec;" horiz-adv-x="1826" 
d="M173 740q0 307 216.5 523.5t523.5 216.5t523.5 -216.5t216.5 -523.5t-216.5 -523.5t-523.5 -216.5t-523.5 216.5t-216.5 523.5zM758 771q-186 -107 -186 -271q0 -114 92.5 -183t244.5 -69q156 0 253 76t97 198q0 157 -200 262q157 110 157 233q0 96 -77.5 153t-207.5 57
q-138 0 -223 -67t-85 -175q0 -125 135 -214zM962 837q-178 95 -178 171q0 103 131 103q140 0 140 -120q0 -81 -93 -154zM850 709l87 -49q152 -87 152 -167q0 -56 -46 -93t-115 -37q-78 0 -129 47.5t-51 120.5q0 93 102 178z" />
    <glyph glyph-name="ninesansinv" unicode="&#xee;" horiz-adv-x="1826" 
d="M173 740q0 307 216.5 523.5t523.5 216.5t523.5 -216.5t216.5 -523.5t-216.5 -523.5t-523.5 -216.5t-523.5 216.5t-216.5 523.5zM1094 706q0 -158 -64 -249.5t-175 -91.5q-103 0 -222 48v-134q69 -15 125 -23t99 -8q202 0 317 137.5t115 379.5q0 216 -98 339t-270 123
q-148 0 -242.5 -93.5t-94.5 -238.5q0 -125 83.5 -210t206.5 -85q130 0 220 106zM770 921q0 190 152 190q74 0 120 -61t46 -160q0 -74 -47 -125t-115 -51q-156 0 -156 207z" />
    <glyph glyph-name="tensansinv" unicode="&#xef;" horiz-adv-x="1826" 
d="M173 740q0 307 216.5 523.5t523.5 216.5t523.5 -216.5t216.5 -523.5t-216.5 -523.5t-523.5 -216.5t-523.5 216.5t-216.5 523.5zM525 278h186v944l-315 -27l4 -94h125v-823zM1154 253q137 0 225.5 137.5t88.5 349.5t-88.5 350t-225.5 138t-226 -138t-89 -350
q0 -211 89 -349t226 -138zM1154 370q-124 0 -124 370t124 370q123 0 123 -370t-123 -370z" />
    <glyph glyph-name="circle2" unicode="&#xfb;" horiz-adv-x="641" 
d="M173 740q0 61 43 104.5t105 43.5q61 0 104.5 -43.5t43.5 -104.5t-43.5 -104.5t-104.5 -43.5q-62 0 -105 43t-43 105z" />
    <glyph glyph-name="circle4" unicode="&#xfc;" horiz-adv-x="937" 
d="M173 740q0 122 86.5 209t208.5 87q123 0 210 -86.5t87 -209.5t-87 -209.5t-209 -86.5q-123 0 -209.5 86.5t-86.5 209.5z" />
    <glyph glyph-name="circle6" unicode="l" horiz-adv-x="1529" 
d="M173 740q0 245 173.5 418.5t418.5 173.5t419 -173.5t174 -418.5t-174 -418.5t-419 -173.5t-418.5 173.5t-173.5 418.5z" />
    <glyph glyph-name="ring2" unicode="&#xb0;" 
d="M173 740q0 307 216.5 523.5t523.5 216.5t523.5 -216.5t216.5 -523.5t-216.5 -523.5t-523.5 -216.5t-523.5 216.5t-216.5 523.5zM321 740q0 -245 173.5 -418.5t418.5 -173.5t418.5 173.5t173.5 418.5t-173.5 418.5t-418.5 173.5t-418.5 -173.5t-173.5 -418.5z" />
    <glyph glyph-name="ring4" unicode="&#xa2;" 
d="M173 740q0 307 216.5 523.5t523.5 216.5t523.5 -216.5t216.5 -523.5t-216.5 -523.5t-523.5 -216.5t-523.5 216.5t-216.5 523.5zM469 740q0 -184 130 -314t314 -130t314 130t130 314t-130 314t-314 130t-314 -130t-130 -314z" />
    <glyph glyph-name="ring6" unicode="&#xa3;" 
d="M173 740q0 307 216.5 523.5t523.5 216.5t523.5 -216.5t216.5 -523.5t-216.5 -523.5t-523.5 -216.5t-523.5 216.5t-216.5 523.5zM617 740q0 -123 86.5 -209.5t209.5 -86.5t209.5 86.5t86.5 209.5t-86.5 209.5t-209.5 86.5t-209.5 -86.5t-86.5 -209.5z" />
    <glyph glyph-name="ringbutton2" unicode="&#xa7;" 
d="M173 740q0 307 216.5 523.5t523.5 216.5t523.5 -216.5t216.5 -523.5t-216.5 -523.5t-523.5 -216.5t-523.5 216.5t-216.5 523.5zM321 740q0 -245 173.5 -418.5t418.5 -173.5t418.5 173.5t173.5 418.5t-173.5 418.5t-418.5 173.5t-418.5 -173.5t-173.5 -418.5zM666 740
q0 102 72 174.5t175 72.5q102 0 174.5 -72.5t72.5 -174.5t-72.5 -174.5t-174.5 -72.5t-174.5 72.5t-72.5 174.5z" />
    <glyph glyph-name="target" unicode="&#x2022;" 
d="M173 740q0 307 216.5 523.5t523.5 216.5t523.5 -216.5t216.5 -523.5t-216.5 -523.5t-523.5 -216.5t-523.5 216.5t-216.5 523.5zM321 740q0 -245 173.5 -418.5t418.5 -173.5t418.5 173.5t173.5 418.5t-173.5 418.5t-418.5 173.5t-418.5 -173.5t-173.5 -418.5zM469 740
q0 184 130 314t314 130t314 -130t130 -314t-130 -314t-314 -130t-314 130t-130 314zM617 740q0 -123 86.5 -209.5t209.5 -86.5t209.5 86.5t86.5 209.5t-86.5 209.5t-209.5 86.5t-209.5 -86.5t-86.5 -209.5zM765 740q0 61 43.5 104.5t104.5 43.5t104.5 -43.5t43.5 -104.5
t-43.5 -104.5t-104.5 -43.5t-104.5 43.5t-43.5 104.5z" />
    <glyph glyph-name="circleshadowup" unicode="&#xb6;" horiz-adv-x="1951" 
d="M602 1339l215 88q128 53 266 53q288 0 492 -204t204 -492q0 -211 -117.5 -386.5t-312.5 -255.5l-214 -89q-128 -53 -265 -53q-290 0 -493.5 203.5t-203.5 492.5q0 213 112.5 381.5t316.5 261.5zM868 93q250 0 427 176t177 426t-176.5 426.5t-426.5 176.5
q-248 0 -425.5 -175.5t-177.5 -419.5q0 -256 175 -433t427 -177z" />
    <glyph glyph-name="circleshadowdwn" unicode="m" horiz-adv-x="1951" 
d="M1135 1427l214 -88q195 -81 312.5 -256.5t117.5 -386.5q0 -289 -204 -492.5t-493 -203.5q-136 0 -265 53l-214 89q-195 80 -312.5 255.5t-117.5 386.5q0 288 203.5 492t491.5 204q128 0 267 -53zM266 776q0 -244 178 -419.5t425 -175.5q249 0 426 177t177 427
q0 249 -177 426t-426 177q-253 0 -428 -178t-175 -434z" />
    <glyph glyph-name="square2" unicode="&#x2020;" horiz-adv-x="641" 
d="M173 592v296h296v-296h-296z" />
    <glyph glyph-name="square4" unicode="&#xdf;" horiz-adv-x="937" 
d="M173 444v592h592v-592h-592z" />
    <glyph glyph-name="square6" unicode="n" horiz-adv-x="1529" 
d="M173 148v1184h1184v-1184h-1184z" />
    <glyph glyph-name="box2" unicode="&#xae;" 
d="M321 148h1184v1184h-1184v-1184zM173 0v1480h1480v-1480h-1480z" />
    <glyph glyph-name="box3" unicode="o" 
d="M370 197h1086v1086h-1086v-1086zM173 0v1480h1480v-1480h-1480z" />
    <glyph glyph-name="box4" unicode="p" 
d="M469 296h888v888h-888v-888zM173 0v1480h1480v-1480h-1480z" />
    <glyph glyph-name="boxshadowup" unicode="r" 
d="M1357 99v1085h-1086l1 -1086zM173 0v1283l197 197h1283v-1283l-197 -197h-1283z" />
    <glyph glyph-name="boxshadowdwn" unicode="q" 
d="M272 296h1085v1086h-1085v-1086zM173 1480h1283l197 -197v-1283h-1283l-197 197v1283z" />
    <glyph glyph-name="rhombus4" unicode="w" horiz-adv-x="1183" 
d="M173 740l419 419l418 -419l-418 -419z" />
    <glyph glyph-name="rhombus6" unicode="u" horiz-adv-x="2020" 
d="M173 740l837 838l838 -838l-838 -837z" />
    <glyph glyph-name="lozenge4" unicode="s" horiz-adv-x="937" 
d="M173 740l296 419l296 -419l-296 -419z" />
    <glyph glyph-name="lozenge6" unicode="t" horiz-adv-x="1529" 
d="M173 740l592 838l592 -838l-592 -837z" />
    <glyph glyph-name="tristar2" unicode="&#xa9;" 
d="M913 556l-641 -185l481 462l160 647l160 -647l480 -462z" />
    <glyph glyph-name="crosstar2" unicode="&#x2122;" 
d="M173 740l555 185l185 555l185 -555l555 -185l-555 -185l-185 -555l-185 555z" />
    <glyph glyph-name="pentastar2" unicode="&#xb4;" 
d="M209 969h537l166 511l166 -511h537l-434 -316l166 -511l-435 316l-435 -316l166 511z" />
    <glyph glyph-name="hexstar2" unicode="&#xa8;" 
d="M762 1001l151 479l150 -479l491 109l-339 -370l339 -370l-491 108l-150 -478l-151 478l-491 -108l339 370l-339 370z" />
    <glyph glyph-name="octastar2" unicode="&#x2260;" 
d="M1066 1110l370 153l-154 -370l371 -153l-371 -153l154 -370l-370 153l-153 -370l-153 370l-370 -153l153 370l-370 153l370 153l-153 370l369 -153l154 370z" />
    <glyph glyph-name="dodecastar3" unicode="&#xc6;" 
d="M407 876l-135 234h271v272l234 -136l136 234l136 -234l234 136v-272h272l-136 -234l234 -136l-234 -136l136 -234h-272v-271l-234 135l-136 -234l-136 234l-234 -135v271h-271l135 234l-234 136z" />
    <glyph glyph-name="octastar4" unicode="&#xd8;" 
d="M1066 1110l370 153l-154 -370l371 -153l-371 -153l154 -370l-370 153l-153 -370l-153 370l-370 -153l153 370l-370 153l370 153l-153 370l369 -153l154 370zM1039 1046l-126 -306l432 432zM1218 866l-305 -126h611zM1218 614l-305 126l432 -432zM1039 435l-126 305v-612z
M786 434l127 306l-432 -432zM607 613l306 127h-612zM607 867l306 -127l-432 432zM786 1046l127 -306v611z" />
    <glyph glyph-name="registersquare" unicode="&#x221e;" 
d="M938 691v-346h370v370h-346v50h346v370h-370v-346h-50v346h-370l1 -370h345v-50h-346v-370h370v346h50zM938 0h-50v296h-419v419h-296v50h296v419h419v296h50v-296h419v-419h296v-50h-296v-419h-419v-296z" />
    <glyph glyph-name="registercircle" unicode="&#xb1;" 
d="M938 691v-346q159 18 255 114t115 256h-346v50h346q-39 327 -370 370v-346h-50v346q-160 -19 -255.5 -114t-114.5 -256h346v-50h-344q14 -157 111 -254.5t257 -115.5v346h50zM938 0h-50v296q-182 19 -290.5 127.5t-127.5 291.5h-297v50h297q15 177 126.5 289t291.5 130
v296h50v-296q180 -18 292.5 -131t126.5 -288h296v-50h-296q-14 -175 -127 -288.5t-292 -130.5v-296z" />
    <glyph glyph-name="cuspopen" unicode="&#x2264;" 
d="M173 790q267 12 448 166q226 192 243 524h99q21 -336 243 -524q179 -153 447 -166v-99q-268 -13 -448 -166q-226 -193 -243 -525h-98q-12 267 -167 448q-193 227 -524 243v99zM1382 740q-340 129 -469 469q-121 -339 -469 -469q165 -59 286.5 -181t182.5 -288
q61 167 183 289t286 180z" />
    <glyph glyph-name="cuspopen1" unicode="&#x2265;" 
d="M424 1298q221 -201 489 -201q264 0 488 201l70 -70q-202 -227 -202 -487q0 -267 202 -490l-70 -69q-222 201 -489 201q-266 0 -488 -201l-70 69q201 222 201 489t-201 489zM1244 409q-73 159 -73 331t73 332q-158 -74 -332 -74q-173 0 -331 74q73 -156 73 -331t-73 -332
q156 73 331 73q176 0 332 -73z" />
    <glyph glyph-name="xrhombus" unicode="v" 
d="M473 440l-300 300l300 300l301 -300zM613 1180l300 300l301 -300l-301 -301zM1353 1040l300 -300l-300 -300l-300 300zM1213 300l-300 -300l-300 300l300 300z" />
    <glyph glyph-name="query" unicode="&#xa5;" 
d="M173 740l740 740l740 -740l-740 -740zM313 740l600 -600l600 600l-600 600zM845 335v111h134v-111h-134zM979 568h-134v6q0 72 67 146l32 36q65 72 65 127q0 43 -26.5 64t-80.5 21q-67 0 -155 -40v102q91 27 176 27q107 0 169 -41t62 -112q0 -65 -74 -136l-31 -29
q-70 -66 -70 -140v-31z" />
    <glyph glyph-name="circlestar" unicode="&#xb5;" 
d="M1080 969l-167 511q243 0 432 -137.5t272 -373.5h-537zM1182 652l435 316q36 -128 36 -231q0 -365 -305 -596zM913 457l435 -316q-206 -141 -435 -141q-228 0 -435 141zM644 652l-166 -511q-305 241 -305 598q0 104 37 229zM747 969h-537q81 235 271 373t432 138z" />
    <glyph glyph-name="starshadow" unicode="&#x2202;" 
d="M286 920l341 -248l-130 -401l341 248l341 -248l-130 401l340 248h-421l-130 400l-130 -400h-422zM986 1480l166 -511h538l-435 -316l166 -511h-148l-435 316l-435 -316l166 511l-434 316h537l166 511h148z" />
    <glyph glyph-name="oneoclock" unicode="&#x2211;" 
d="M913 0q-307 0 -523.5 216.5t-216.5 523.5t216.5 523.5t523.5 216.5t523.5 -216.5t216.5 -523.5q0 -306 -216.5 -523t-523.5 -217zM913 49q286 0 488.5 202.5t202.5 488.5t-202.5 488.5t-488.5 202.5t-488.5 -202.5t-202.5 -488.5t202.5 -488.5t488.5 -202.5zM913 1382
l86 -173h-49v-330l66 113l-43 25l161 106l-11 -192l-43 24l-130 -225v-102h-74l-49 31l49 87v463h-49zM350 706h-68v68h68v-68zM1475 706v68h68v-68h-68zM879 179h68v-68h-68v68zM409 992l-59 34l34 59l59 -34zM1382 430l34 59l59 -34l-34 -59zM1165 1245l34 58l59 -34
l-34 -59zM603 271l59 -34l-34 -59l-59 34zM602 1211l-34 58l59 34l34 -58zM1165 237l58 34l34 -59l-58 -34zM1384 1051l58 34l34 -59l-58 -34zM410 489l34 -59l-59 -34l-34 59z" />
    <glyph glyph-name="twooclock" unicode="&#x220f;" 
d="M913 0q-307 0 -523.5 216.5t-216.5 523.5t216.5 523.5t523.5 216.5t523.5 -216.5t216.5 -523.5q0 -306 -216.5 -523t-523.5 -217zM913 49q286 0 488.5 202.5t202.5 488.5t-202.5 488.5t-488.5 202.5t-488.5 -202.5t-202.5 -488.5t202.5 -488.5t488.5 -202.5zM913 1382
l87 -173h-50v-405l178 103l-24 43l192 11l-106 -161l-25 43l-215 -124v-90h-74v47l-38 -22l-37 64l75 43v448h-49zM350 706h-68v68h68v-68zM1475 706v68h68v-68h-68zM879 179h68v-68h-68v68zM409 992l-59 34l34 59l59 -34zM1382 430l34 59l59 -34l-34 -59zM1165 1245l34 58
l59 -34l-34 -59zM603 271l59 -34l-34 -59l-59 34zM602 1211l-34 58l59 34l34 -58zM1165 237l58 34l34 -59l-58 -34zM1384 1051l58 34l34 -59l-58 -34zM410 489l34 -59l-59 -34l-34 59z" />
    <glyph glyph-name="threeoclock" unicode="&#x3c0;" 
d="M913 0q-307 0 -523.5 216.5t-216.5 523.5t216.5 523.5t523.5 216.5t523.5 -216.5t216.5 -523.5q0 -306 -216.5 -523t-523.5 -217zM913 49q286 0 488.5 202.5t202.5 488.5t-202.5 488.5t-488.5 202.5t-488.5 -202.5t-202.5 -488.5t202.5 -488.5t488.5 -202.5zM913 1382
l87 -173h-50v-432h233v50l173 -87l-173 -86v49h-233v-74h-74v74h-74v74h74v432h-49zM350 706h-68v68h68v-68zM1475 706v68h68v-68h-68zM879 179h68v-68h-68v68zM409 992l-59 34l34 59l59 -34zM1382 430l34 59l59 -34l-34 -59zM1165 1245l34 58l59 -34l-34 -59zM603 271
l59 -34l-34 -59l-59 34zM602 1211l-34 58l59 34l34 -58zM1165 237l58 34l34 -59l-58 -34zM1384 1051l58 34l34 -59l-58 -34zM410 489l34 -59l-59 -34l-34 59z" />
    <glyph glyph-name="fouroclock" unicode="&#x222b;" 
d="M913 0q-307 0 -523.5 216.5t-216.5 523.5t216.5 523.5t523.5 216.5t523.5 -216.5t216.5 -523.5q0 -306 -216.5 -523t-523.5 -217zM913 49q286 0 488.5 202.5t202.5 488.5t-202.5 488.5t-488.5 202.5t-488.5 -202.5t-202.5 -488.5t202.5 -488.5t488.5 -202.5zM913 1382
l86 -173h-49v-447l215 -125l25 43l106 -161l-192 12l24 42l-178 103v-47h-74v90l-77 44l37 64l40 -24v406h-49zM350 706h-68v68h68v-68zM1475 706v68h68v-68h-68zM879 179h68v-68h-68v68zM409 992l-59 34l34 59l59 -34zM1382 430l34 59l59 -34l-34 -59zM1165 1245l34 58
l59 -34l-34 -59zM603 271l59 -34l-34 -59l-59 34zM602 1211l-34 58l59 34l34 -58zM1165 237l58 34l34 -59l-58 -34zM1384 1051l58 34l34 -59l-58 -34zM410 489l34 -59l-59 -34l-34 59z" />
    <glyph glyph-name="fiveoclock" unicode="&#xaa;" 
d="M913 0q-307 0 -523.5 216.5t-216.5 523.5t216.5 523.5t523.5 216.5t523.5 -216.5t216.5 -523.5q0 -306 -216.5 -523t-523.5 -217zM913 49q286 0 488.5 202.5t202.5 488.5t-202.5 488.5t-488.5 202.5t-488.5 -202.5t-202.5 -488.5t202.5 -488.5t488.5 -202.5zM913 1382
l87 -173h-50v-459l130 -225l43 25l11 -193l-161 106l43 25l-81 140h-59v102l-51 89l51 29v361h-49zM350 706h-68v68h68v-68zM1475 706v68h68v-68h-68zM879 179h68v-68h-68v68zM409 992l-59 34l34 59l59 -34zM1382 430l34 59l59 -34l-34 -59zM1165 1245l34 58l59 -34l-34 -59
zM603 271l59 -34l-34 -59l-59 34zM602 1211l-34 58l59 34l34 -58zM1165 237l58 34l34 -59l-58 -34zM1384 1051l58 34l34 -59l-58 -34zM410 489l34 -59l-59 -34l-34 59z" />
    <glyph glyph-name="sixoclock" unicode="&#xba;" 
d="M913 0q-307 0 -523.5 216.5t-216.5 523.5t216.5 523.5t523.5 216.5t523.5 -216.5t216.5 -523.5q0 -306 -216.5 -523t-523.5 -217zM913 49q286 0 488.5 202.5t202.5 488.5t-202.5 488.5t-488.5 202.5t-488.5 -202.5t-202.5 -488.5t202.5 -488.5t488.5 -202.5zM913 298
l-86 172h49v739h-49l86 173l87 -173h-50v-739h50zM350 706h-68v68h68v-68zM879 111v68h68v-68h-68zM409 992l-59 34l34 59l59 -34zM603 271l59 -34l-34 -59l-59 34zM602 1211l-34 58l59 34l34 -58zM410 489l34 -59l-59 -34l-34 59zM1476 706v68h68v-68h-68zM1418 992l-34 59
l58 34l34 -59zM1223 271l34 -59l-58 -34l-34 59zM1224 1211l-59 34l34 58l59 -34zM1417 489l58 -34l-33 -59l-59 34z" />
    <glyph glyph-name="sevenoclock" unicode="&#x3a9;" 
d="M913 0q307 0 523.5 216.5t216.5 523.5t-216.5 523.5t-523.5 216.5t-523.5 -216.5t-216.5 -523.5q0 -306 216.5 -523t523.5 -217zM913 49q-286 0 -488.5 202.5t-202.5 488.5t202.5 488.5t488.5 202.5t488.5 -202.5t202.5 -488.5t-202.5 -488.5t-488.5 -202.5zM913 1382
l-87 -173h50v-459l-130 -225l-43 25l-11 -193l161 106l-43 25l81 140h59v102l51 89l-51 29v361h49zM1476 706h68v68h-68v-68zM351 706v68h-68v-68h68zM947 179h-68v-68h68v68zM1417 992l59 34l-34 59l-59 -34zM444 430l-34 59l-59 -34l34 -59zM661 1245l-34 58l-59 -34
l34 -59zM1223 271l-59 -34l34 -59l59 34zM1224 1211l34 58l-59 34l-34 -58zM661 237l-58 34l-34 -59l58 -34zM442 1051l-58 34l-34 -59l58 -34zM1416 489l-34 -59l59 -34l34 59z" />
    <glyph glyph-name="eightoclock" unicode="&#xe6;" 
d="M913 0q307 0 523.5 216.5t216.5 523.5t-216.5 523.5t-523.5 216.5t-523.5 -216.5t-216.5 -523.5q0 -306 216.5 -523t523.5 -217zM913 49q-286 0 -488.5 202.5t-202.5 488.5t202.5 488.5t488.5 202.5t488.5 -202.5t202.5 -488.5t-202.5 -488.5t-488.5 -202.5zM913 1382
l-86 -173h49v-447l-215 -125l-25 43l-106 -161l192 12l-24 42l178 103v-47h74v90l77 44l-37 64l-40 -24v406h49zM1476 706h68v68h-68v-68zM351 706v68h-68v-68h68zM947 179h-68v-68h68v68zM1417 992l59 34l-34 59l-59 -34zM444 430l-34 59l-59 -34l34 -59zM661 1245l-34 58
l-59 -34l34 -59zM1223 271l-59 -34l34 -59l59 34zM1224 1211l34 58l-59 34l-34 -58zM661 237l-58 34l-34 -59l58 -34zM442 1051l-58 34l-34 -59l58 -34zM1416 489l-34 -59l59 -34l34 59z" />
    <glyph glyph-name="nineoclock" unicode="&#xf8;" 
d="M913 0q307 0 523.5 216.5t216.5 523.5t-216.5 523.5t-523.5 216.5t-523.5 -216.5t-216.5 -523.5q0 -306 216.5 -523t523.5 -217zM913 49q-286 0 -488.5 202.5t-202.5 488.5t202.5 488.5t488.5 202.5t488.5 -202.5t202.5 -488.5t-202.5 -488.5t-488.5 -202.5zM913 1382
l-87 -173h50v-432h-233v50l-173 -87l173 -86v49h233v-74h74v74h74v74h-74v432h49zM1476 706h68v68h-68v-68zM351 706v68h-68v-68h68zM947 179h-68v-68h68v68zM1417 992l59 34l-34 59l-59 -34zM444 430l-34 59l-59 -34l34 -59zM661 1245l-34 58l-59 -34l34 -59zM1223 271
l-59 -34l34 -59l59 34zM1224 1211l34 58l-59 34l-34 -58zM661 237l-58 34l-34 -59l58 -34zM442 1051l-58 34l-34 -59l58 -34zM1416 489l-34 -59l59 -34l34 59z" />
    <glyph glyph-name="tenoclock" unicode="&#xbf;" 
d="M913 0q307 0 523.5 216.5t216.5 523.5t-216.5 523.5t-523.5 216.5t-523.5 -216.5t-216.5 -523.5q0 -306 216.5 -523t523.5 -217zM913 49q-286 0 -488.5 202.5t-202.5 488.5t202.5 488.5t488.5 202.5t488.5 -202.5t202.5 -488.5t-202.5 -488.5t-488.5 -202.5zM913 1382
l-87 -173h50v-405l-178 103l24 43l-192 11l106 -161l25 43l215 -124v-90h74v47l38 -22l37 64l-75 43v448h49zM1476 706h68v68h-68v-68zM351 706v68h-68v-68h68zM947 179h-68v-68h68v68zM1417 992l59 34l-34 59l-59 -34zM444 430l-34 59l-59 -34l34 -59zM661 1245l-34 58
l-59 -34l34 -59zM1223 271l-59 -34l34 -59l59 34zM1224 1211l34 58l-59 34l-34 -58zM661 237l-58 34l-34 -59l58 -34zM442 1051l-58 34l-34 -59l58 -34zM1416 489l-34 -59l59 -34l34 59z" />
    <glyph glyph-name="elevenoclock" unicode="&#xa1;" 
d="M913 0q307 0 523.5 216.5t216.5 523.5t-216.5 523.5t-523.5 216.5t-523.5 -216.5t-216.5 -523.5q0 -306 216.5 -523t523.5 -217zM913 49q-286 0 -488.5 202.5t-202.5 488.5t202.5 488.5t488.5 202.5t488.5 -202.5t202.5 -488.5t-202.5 -488.5t-488.5 -202.5zM913 1382
l-86 -173h49v-330l-66 113l43 25l-161 106l11 -192l43 24l130 -225v-102h74l49 31l-49 87v463h49zM1476 706h68v68h-68v-68zM351 706v68h-68v-68h68zM947 179h-68v-68h68v68zM1417 992l59 34l-34 59l-59 -34zM444 430l-34 59l-59 -34l34 -59zM661 1245l-34 58l-59 -34
l34 -59zM1223 271l-59 -34l34 -59l59 34zM1224 1211l34 58l-59 34l-34 -58zM661 237l-58 34l-34 -59l58 -34zM442 1051l-58 34l-34 -59l58 -34zM1416 489l-34 -59l59 -34l34 59z" />
    <glyph glyph-name="twelveoclock" unicode="&#xac;" 
d="M913 0q-307 0 -523.5 216.5t-216.5 523.5t216.5 523.5t523.5 216.5t523.5 -216.5t216.5 -523.5q0 -306 -216.5 -523t-523.5 -217zM913 49q286 0 488.5 202.5t202.5 488.5t-202.5 488.5t-488.5 202.5t-488.5 -202.5t-202.5 -488.5t202.5 -488.5t488.5 -202.5zM950 1109
l50 -99h-50v-381h-74v381h-49l49 99v100h-49l86 173l87 -173h-50v-100zM880 108v68h67v-68h-67zM656 235l-33 -59l-57 35l34 58zM442 431l-57 -34l-37 55l60 36zM348 709h-66v67h66v-67zM407 994l-59 32l32 56l58 -30zM600 1212l-33 58l55 34l35 -57zM1170 235l56 34l34 -58
l-57 -35zM1384 431l35 57l60 -36l-38 -55zM1479 709v67h65v-67h-65zM1420 994l-31 58l57 30l33 -56zM1226 1212l-56 35l34 57l56 -34z" />
    <glyph glyph-name="arrowdwnleft1" unicode="&#x221a;" 
d="M173 444l629 629v-333h259v876l296 -296l296 296v-529q0 -184 -31.5 -260.5t-160.5 -206.5l-318 -318q-93 -93 -154.5 -123.5t-156.5 -30.5h-30v-333zM318 444l385 -386v189h99q81 0 132 20t103 72l301 302l-635 1v188zM1160 1382v-642h79q175 0 245.5 60.5t70.5 209.5
v372l-198 -198z" />
    <glyph glyph-name="arrowdwnrt1" unicode="&#x192;" 
d="M1653 444l-629 -629v333h-29q-95 0 -156.5 30.5t-154.5 123.5l-318 318q-130 130 -161.5 206.5t-31.5 260.5v529l296 -296l296 296v-876h259v333zM1509 444l-386 386v-188l-635 -1l302 -302q51 -52 102.5 -72t131.5 -20h99v-189zM666 1382l-197 -198l-197 198v-373
q0 -148 70.5 -208.5t244.5 -60.5h80z" />
    <glyph glyph-name="arrowupleft1" unicode="&#x2248;" 
d="M173 987l629 629v-333h29q95 0 156.5 -30.5t154.5 -123.5l318 -318q130 -130 161.5 -206.5t31.5 -260.5v-529l-296 296l-296 -296v876h-259v-333zM317 987l386 -386v188l635 1l-302 302q-51 52 -102.5 72t-131.5 20h-99v189zM1160 49l197 198l197 -198v373
q0 148 -70.5 208.5t-244.5 60.5h-80z" />
    <glyph glyph-name="arrowuprt1" unicode="&#x2206;" 
d="M1653 987l-629 -629v333h-259v-876l-296 296l-296 -296v529q0 184 31.5 260.5t160.5 206.5l318 318q93 93 154.5 123.5t156.5 30.5h30v333zM1508 987l-385 386v-189h-99q-81 0 -132 -20t-103 -72l-301 -302l635 -1v-188zM666 49v642h-79q-175 0 -245.5 -60.5
t-70.5 -209.5v-372l198 198z" />
    <glyph glyph-name="arrowuprt1" unicode="&#x394;" 
d="M1653 987l-629 -629v333h-259v-876l-296 296l-296 -296v529q0 184 31.5 260.5t160.5 206.5l318 318q93 93 154.5 123.5t156.5 30.5h30v333zM1508 987l-385 386v-189h-99q-81 0 -132 -20t-103 -72l-301 -302l635 -1v-188zM666 49v642h-79q-175 0 -245.5 -60.5
t-70.5 -209.5v-372l198 198z" />
    <glyph glyph-name="arrowleftup1" unicode="&#xab;" horiz-adv-x="2146" 
d="M802 1480l629 -629h-333v-259h876l-296 -296l296 -296h-529q-184 0 -260.5 31.5t-206.5 160.5l-318 318q-93 93 -123.5 154.5t-30.5 156.5v30h-333zM802 1335l-386 -385h189v-99q0 -81 20 -132t72 -103l302 -301l1 635h188zM1740 493h-642v-79q0 -175 60.5 -245.5
t209.5 -70.5h372l-198 198z" />
    <glyph glyph-name="arrowrtup1" unicode="&#xbb;" horiz-adv-x="2146" 
d="M1345 1480l629 -629h-333v-29q0 -95 -30.5 -156.5t-123.5 -154.5l-318 -318q-130 -130 -206.5 -161.5t-260.5 -31.5h-529l296 296l-296 296h876v259h-333zM1345 1336l-386 -386h188l1 -635l302 302q52 51 72 102.5t20 131.5v99h189zM407 493l198 -197l-198 -197h373
q148 0 208.5 70.5t60.5 244.5v80z" />
    <glyph glyph-name="arrowleftdwn1" unicode="&#x2026;" horiz-adv-x="2146" 
d="M802 0l-629 629h333v29q0 95 30.5 156.5t123.5 154.5l318 318q130 130 206.5 161.5t260.5 31.5h529l-296 -296l296 -296h-876v-259h333zM802 144l386 386h-188l-1 635l-302 -302q-52 -51 -72 -102.5t-20 -131.5v-99h-189zM1740 987l-198 197l198 197h-373
q-148 0 -208.5 -70.5t-60.5 -244.5v-80z" />
    <glyph glyph-name="arrowrtdwn1" unicode="&#xa0;" horiz-adv-x="2146" 
d="M1345 0l-629 629h333v259h-876l296 296l-296 296h529q184 0 260.5 -31.5t206.5 -160.5l318 -318q93 -93 123.5 -154.5t30.5 -156.5v-30h333zM1345 145l386 385h-189v99q0 81 -20 132t-72 103l-302 301l-1 -635h-188zM407 987h642v79q0 175 -60.5 245.5t-209.5 70.5h-372
l198 -198z" />
    <glyph glyph-name="quiltsquare2" unicode="&#xc0;" horiz-adv-x="2048" 
d="M49 1567h185q37 -494 453 -700q39 -99 50 -225q-297 101 -478.5 345t-209.5 580zM974 642h-190q-37 489 -456 703q-38 109 -45 222q308 -111 487 -350.5t204 -574.5zM1998 1567v-185q-460 -27 -704 -458q-99 -40 -221 -45q91 291 346.5 481.5t578.5 206.5zM1073 642v188
q235 16 416.5 133.5t286.5 322.5q123 41 222 48q-87 -291 -341.5 -481t-583.5 -211zM1998 -382h-190q0 183 -107 374q-110 196 -342 326q-43 114 -48 225q300 -101 481.5 -345.5t205.5 -579.5zM1073 543h197q33 -477 445 -706q7 -24 10 -36q31 -101 38 -196
q-357 140 -534 431q-156 257 -156 507zM49 -382v185q208 0 409.5 130t294.5 325q125 40 221 47q-106 -301 -351.5 -483.5t-573.5 -203.5zM974 543v-185q-227 -11 -409.5 -132t-293.5 -334q-136 -44 -222 -44q107 305 353 490t572 205z" />
    <glyph glyph-name="quiltsquare2inv" unicode="&#xc3;" horiz-adv-x="2048" 
d="M0 -432v2048h2048v-2048h-2048zM49 1567q29 -338 210 -581.5t479 -343.5q-13 127 -50 225q-417 206 -454 700h-185zM975 642q-26 335 -205 574.5t-486 350.5q6 -112 44 -222q422 -215 457 -703h190zM1999 1567q-323 -16 -579 -206.5t-347 -481.5q122 5 221 45
q244 431 705 458v185zM1073 642q329 21 583.5 211t342.5 481q-100 -7 -222 -48q-106 -205 -287 -322.5t-417 -133.5v-188zM1999 -382q-23 333 -205.5 578.5t-482.5 346.5q6 -111 49 -225q231 -130 341 -326q107 -190 107 -374h191zM1073 543q0 -250 156 -507
q178 -291 534 -431q-6 93 -37 196q-4 12 -11 36q-412 228 -444 706h-198zM49 -382q328 21 573.5 203.5t352.5 483.5q-96 -7 -222 -47q-93 -195 -294.5 -325t-409.5 -130v-185zM975 543q-327 -20 -572 -204t-354 -491q86 0 223 44q110 212 293 333.5t410 132.5v185z" />
    <glyph glyph-name="leafccwsw" unicode="&#xd5;" horiz-adv-x="2048" 
d="M1759 1567l239 -199q-519 -177 -864 -415t-739 -690q33 -95 49.5 -175.5t16.5 -146.5q0 -144 -65 -233.5t-169 -89.5q-80 0 -129 58t-49 153t45.5 206.5t135.5 240.5q-47 130 -71 272t-24 296q0 326 164 524.5t433 198.5q283 0 535 -304q272 212 492 304zM1123 762
l199 134q317 -175 317 -452q0 -182 -134.5 -293.5t-352.5 -111.5q-312 0 -595 185l105 114q198 -127 442 -127q154 0 243 60.5t89 165.5q0 99 -85.5 188t-227.5 137zM1146 1174q-160 176 -380 176q-212 0 -344 -160.5t-132 -417.5q0 -81 13.5 -168.5t39.5 -181.5
q382 491 803 752z" />
    <glyph glyph-name="leafccwnw" unicode="&#x152;" horiz-adv-x="2048" 
d="M1998 -143l-199 -239q-177 519 -415 864t-690 739q-95 -33 -175.5 -49.5t-146.5 -16.5q-144 0 -233.5 65t-89.5 169q0 80 58 129t153 49t206.5 -45.5t240.5 -135.5q130 47 272 71t296 24q326 0 524.5 -164t198.5 -433q0 -283 -304 -535q212 -272 304 -492zM1193 493
l134 -199q-175 -317 -452 -317q-182 0 -293.5 134.5t-111.5 352.5q0 312 185 595l114 -105q-127 -198 -127 -442q0 -154 60.5 -243t165.5 -89q99 0 188 85.5t137 227.5zM1605 470q176 160 176 380q0 212 -160.5 344t-417.5 132q-81 0 -168.5 -13.5t-181.5 -39.5
q491 -382 752 -803z" />
    <glyph glyph-name="leafccwse" unicode="&#x153;" horiz-adv-x="2048" 
d="M49 1328l199 239q177 -519 415 -864t690 -739q95 33 175.5 49.5t146.5 16.5q144 0 233.5 -65t89.5 -169q0 -80 -58 -129t-153 -49t-206.5 45.5t-240.5 135.5q-130 -47 -272 -71t-296 -24q-326 0 -524.5 164t-198.5 433q0 283 304 535q-212 272 -304 492zM854 692
l-134 199q175 317 452 317q182 0 293.5 -134.5t111.5 -352.5q0 -312 -185 -595l-114 105q127 198 127 442q0 154 -60.5 243t-165.5 89q-99 0 -188 -85.5t-137 -227.5zM442 715q-176 -160 -176 -380q0 -212 160.5 -344t417.5 -132q81 0 168.5 13.5t181.5 39.5
q-491 382 -752 803z" />
    <glyph glyph-name="leafccwne" unicode="&#x2013;" horiz-adv-x="2048" 
d="M288 -382l-239 199q519 177 864 415t739 690q-33 95 -49.5 175.5t-16.5 146.5q0 144 65 233.5t169 89.5q80 0 129 -58t49 -153t-45.5 -206.5t-135.5 -240.5q47 -130 71 -272t24 -296q0 -326 -164 -524.5t-433 -198.5q-283 0 -535 304q-272 -212 -492 -304zM924 423
l-199 -134q-317 175 -317 452q0 182 134.5 293.5t352.5 111.5q312 0 595 -185l-105 -114q-198 127 -442 127q-154 0 -243 -60.5t-89 -165.5q0 -99 85.5 -188t227.5 -137zM901 11q160 -176 380 -176q212 0 344 160.5t132 417.5q0 81 -13.5 168.5t-39.5 181.5
q-382 -491 -803 -752z" />
    <glyph glyph-name="leafnw" unicode="&#x2014;" horiz-adv-x="2048" 
d="M1759 -382q-221 92 -492 304q-252 -305 -535 -305q-270 0 -433.5 199.5t-163.5 526.5q0 153 24 294.5t71 271.5q-90 129 -135.5 240.5t-45.5 205.5q0 95 49 153.5t129 58.5q104 0 169 -90t65 -233q0 -66 -16.5 -146.5t-49.5 -175.5q394 -453 739.5 -691t863.5 -415z
M1123 422q143 49 228 137.5t85 188.5q0 104 -89.5 164.5t-242.5 60.5q-244 0 -442 -126l-105 113q283 186 595 186q218 0 352.5 -112t134.5 -294q0 -277 -317 -451zM1146 10q-420 262 -803 752q-26 -93 -39.5 -181t-13.5 -171q0 -256 132 -415.5t344 -159.5q221 0 380 175z
" />
    <glyph glyph-name="leafsw" unicode="&#x201c;" horiz-adv-x="2048" 
d="M1998 1328q-92 -221 -304 -492q305 -252 305 -535q0 -270 -199.5 -433.5t-526.5 -163.5q-153 0 -294.5 24t-271.5 71q-129 -90 -240.5 -135.5t-205.5 -45.5q-95 0 -153.5 49t-58.5 129q0 104 90 169t233 65q66 0 146.5 -16.5t175.5 -49.5q453 394 691 739.5t415 863.5z
M1194 692q-49 143 -137.5 228t-188.5 85q-104 0 -164.5 -89.5t-60.5 -242.5q0 -244 126 -442l-113 -105q-186 283 -186 595q0 218 112 352.5t294 134.5q277 0 451 -317zM1606 715q-262 -420 -752 -803q93 -26 181 -39.5t171 -13.5q256 0 415.5 132t159.5 344q0 221 -175 380
z" />
    <glyph glyph-name="leafne" unicode="&#x201d;" horiz-adv-x="2048" 
d="M50 -143q92 221 304 492q-305 252 -305 535q0 270 199.5 433.5t526.5 163.5q153 0 294.5 -24t271.5 -71q129 90 240.5 135.5t205.5 45.5q95 0 153.5 -49t58.5 -129q0 -104 -90 -169t-233 -65q-66 0 -146.5 16.5t-175.5 49.5q-453 -394 -691 -739.5t-415 -863.5zM854 493
q49 -143 137.5 -228t188.5 -85q104 0 164.5 89.5t60.5 242.5q0 244 -126 442l113 105q186 -283 186 -595q0 -218 -112 -352.5t-294 -134.5q-277 0 -451 317zM442 470q262 420 752 803q-93 26 -181 39.5t-171 13.5q-256 0 -415.5 -132t-159.5 -344q0 -221 175 -380z" />
    <glyph glyph-name="leafse" unicode="&#x2018;" horiz-adv-x="2048" 
d="M288 1567q221 -92 492 -304q252 305 535 305q270 0 433.5 -199.5t163.5 -526.5q0 -153 -24 -294.5t-71 -271.5q90 -129 135.5 -240.5t45.5 -205.5q0 -95 -49 -153.5t-129 -58.5q-104 0 -169 90t-65 233q0 66 16.5 146.5t49.5 175.5q-394 453 -739.5 691t-863.5 415z
M924 763q-143 -49 -228 -137.5t-85 -188.5q0 -104 89.5 -164.5t242.5 -60.5q244 0 442 126l105 -113q-283 -186 -595 -186q-218 0 -352.5 112t-134.5 294q0 277 317 451zM901 1175q420 -262 803 -752q26 93 39.5 181t13.5 171q0 256 -132 415.5t-344 159.5q-221 0 -380 -175
z" />
    <glyph glyph-name="deleteleft" unicode="&#x2019;" horiz-adv-x="2566" 
d="M2393 0h-1480l-740 740l740 740h1480v-1480zM2245 148v1184h-1271l-592 -592l592 -592h1271zM1871 1211l105 -105l-366 -366l366 -366l-105 -105l-366 366l-366 -366l-105 105l367 366l-367 366l105 105l366 -366z" />
    <glyph glyph-name="deleteright" unicode="&#xf7;" horiz-adv-x="2566" 
d="M173 0h1480l740 740l-740 740h-1480v-1480zM321 148v1184h1271l592 -592l-592 -592h-1271zM695 1211l-105 -105l366 -366l-366 -366l105 -105l366 366l366 -366l105 105l-367 366l367 366l-105 105l-366 -366z" />
    <glyph glyph-name="head2left" unicode="&#x25ca;" horiz-adv-x="1627" 
d="M1455 0l-1282 740l1282 740l-428 -740zM271 740h699l350 606z" />
    <glyph glyph-name="head2right" unicode="&#xff;" horiz-adv-x="1627" 
d="M173 0l1282 740l-1282 740l428 -740zM1357 740h-699l-350 606z" />
    <glyph glyph-name="head2up" unicode="&#x178;" 
d="M173 198l740 1282l740 -1282l-740 428zM913 1382v-699l606 -350z" />
    <glyph glyph-name="head2down" unicode="&#x2044;" 
d="M1653 1282l-740 -1282l-740 1282l740 -428zM913 98v699l-606 350z" />
    <glyph glyph-name="circleleft" unicode="&#x20ac;" 
d="M716 493h895q-82 -225 -271.5 -359t-426.5 -134q-307 0 -523.5 216.5t-216.5 523.5t216.5 523.5t523.5 216.5q237 0 426.5 -134t271.5 -359h-895v246l-494 -493l494 -493v246z" />
    <glyph glyph-name="circleright" unicode="&#x2039;" 
d="M1110 493h-895q82 -225 271.5 -359t426.5 -134q307 0 523.5 216.5t216.5 523.5t-216.5 523.5t-523.5 216.5q-237 0 -426.5 -134t-271.5 -359h895v246l494 -493l-494 -493v246z" />
    <glyph glyph-name="circleup" unicode="&#x203a;" 
d="M666 937v-895q-225 82 -359 271.5t-134 426.5q0 307 216.5 523.5t523.5 216.5t523.5 -216.5t216.5 -523.5q0 -237 -134 -426.5t-359 -271.5v895h246l-493 494l-493 -494h246z" />
    <glyph glyph-name="circledown" unicode="&#xfb01;" 
d="M1160 543v895q225 -82 359 -271.5t134 -426.5q0 -307 -216.5 -523.5t-523.5 -216.5t-523.5 216.5t-216.5 523.5q0 237 134 426.5t359 271.5v-895h-246l493 -494l493 494h-246z" />
    <glyph glyph-name="barb2left" unicode="&#xfb02;" horiz-adv-x="2006" 
d="M173 740l740 740h279l-641 -641h1283v-198h-1283l641 -641h-279z" />
    <glyph glyph-name="barb2right" unicode="&#x2021;" horiz-adv-x="2006" 
d="M1834 740l-740 740h-279l641 -641h-1283v-198h1283l-641 -641h279z" />
    <glyph glyph-name="barb2up" unicode="&#xb7;" 
d="M913 1480l740 -740v-279l-641 641v-1283h-198v1283l-641 -641v279z" />
    <glyph glyph-name="barb2down" unicode="&#x201a;" 
d="M913 0l-740 740v279l641 -641v1283h198v-1283l641 641v-279z" />
    <glyph glyph-name="barb2nw" unicode="&#x201e;" horiz-adv-x="1589" 
d="M173 1362h1047l197 -197h-907l907 -907l-139 -140l-908 907v-907l-197 198v1046z" />
    <glyph glyph-name="barb2ne" unicode="&#x2030;" horiz-adv-x="1589" 
d="M1417 1362h-1047l-197 -197h907l-907 -907l139 -140l908 907v-907l197 198v1046z" />
    <glyph glyph-name="barb2sw" unicode="&#xc2;" horiz-adv-x="1589" 
d="M173 118v1047l197 197l1 -907l907 907l139 -139l-907 -907h907l-197 -198h-1047z" />
    <glyph glyph-name="barb2se" unicode="&#xca;" horiz-adv-x="1589" 
d="M1417 118v1047l-197 197l-1 -907l-907 907l-139 -139l907 -907h-907l197 -198h1047z" />
    <glyph glyph-name="barb4left" unicode="&#xc1;" horiz-adv-x="2186" 
d="M173 740l740 740h558l-543 -543h1086v-394h-1086l543 -543h-558z" />
    <glyph glyph-name="barb4right" unicode="&#xcb;" horiz-adv-x="2186" 
d="M2014 740l-740 740h-558l543 -543h-1086v-394h1086l-543 -543h558z" />
    <glyph glyph-name="barb4up" unicode="&#xc8;" 
d="M913 1480l740 -740v-558l-543 543v-1086h-394v1086l-543 -543v558z" />
    <glyph glyph-name="barb4down" unicode="&#xcd;" 
d="M913 0l-740 740v558l543 -543v1086h394v-1086l543 543v-558z" />
    <glyph glyph-name="barb4nw" unicode="&#xce;" horiz-adv-x="1787" 
d="M173 1461h1047l395 -395h-768l768 -768l-280 -279l-767 768v-768l-395 395v1047z" />
    <glyph glyph-name="barb4ne" unicode="&#xcf;" horiz-adv-x="1787" 
d="M1615 1461h-1047l-395 -395h768l-768 -768l280 -279l767 768v-768l395 395v1047z" />
    <glyph glyph-name="barb4sw" unicode="&#xcc;" horiz-adv-x="1787" 
d="M173 19v1047l395 395v-768l767 768l280 -279l-768 -768h768l-395 -395h-1047z" />
    <glyph glyph-name="barb4se" unicode="&#xd3;" horiz-adv-x="1787" 
d="M1615 19v1047l-395 395v-768l-767 768l-280 -279l768 -768h-768l395 -395h1047z" />
    <glyph glyph-name="bleft" unicode="&#xd4;" 
d="M1653 1036v-592h-847v-337l-633 633l633 633v-337h847zM313 740l394 -395v198h848v394h-848v198z" />
    <glyph glyph-name="bright" unicode="&#xf8ff;" 
d="M173 1036v-592h847v-337l633 633l-633 633v-337h-847zM1513 740l-394 -395v198h-848v394h848v198z" />
    <glyph glyph-name="bright" unicode="&#xe01e;" 
d="M173 1036v-592h847v-337l633 633l-633 633v-337h-847zM1513 740l-394 -395v198h-848v394h848v198z" />
    <glyph glyph-name="bup" unicode="&#xd2;" horiz-adv-x="1660" 
d="M1126 0h-592v847h-337l633 633l633 -633h-337v-847zM830 1340l-395 -394h198v-848h394v848h198z" />
    <glyph glyph-name="bdown" unicode="&#xda;" horiz-adv-x="1660" 
d="M534 1480h592v-847h337l-633 -633l-633 633h337v847zM830 140l395 394h-198v848h-394v-848h-198z" />
    <glyph glyph-name="bleftright" unicode="&#xdb;" horiz-adv-x="2171" 
d="M806 444v-337l-633 633l633 633v-337h560v337l633 -633l-633 -633v337h-560zM707 543h757v-198l395 395l-395 395v-198h-757v198l-394 -395l394 -395v198z" />
    <glyph glyph-name="bupdown" unicode="&#xd9;" horiz-adv-x="1660" 
d="M534 847h-337l633 633l633 -633h-337v-560h337l-633 -633l-633 633h337v560zM633 946v-757h-198l395 -395l395 395h-198v757h198l-395 394l-395 -394h198z" />
    <glyph glyph-name="bnw" unicode="&#x131;" horiz-adv-x="1601" 
d="M1010 224l-599 599l-238 -238v895h895l-238 -238l599 -599zM271 1382v-559l140 140l599 -599l279 279l-599 599l140 140h-559z" />
    <glyph glyph-name="bne" unicode="&#x2c6;" horiz-adv-x="1601" 
d="M592 224l599 599l238 -238v895h-895l238 -238l-599 -599zM1331 1382v-559l-140 140l-599 -599l-279 279l599 599l-140 140h559z" />
    <glyph glyph-name="bsw" unicode="&#x2dc;" horiz-adv-x="1601" 
d="M1429 837l-599 -599l238 -238h-895v895l238 -238l599 599zM272 99h558l-140 139l599 599l-279 279l-599 -599l-139 140v-558z" />
    <glyph glyph-name="bse" unicode="&#xaf;" horiz-adv-x="1601" 
d="M173 837l599 -599l-238 -238h895v895l-238 -238l-599 599zM1330 99h-558l140 139l-599 599l279 279l599 -599l139 140v-558z" />
    <glyph glyph-name="bdash1" unicode="&#x2d8;" horiz-adv-x="987" 
d="M99 1036h789v-592h-789v592zM198 937v-394h592v394h-592z" />
    <glyph glyph-name="bdash2" unicode="&#x2d9;" horiz-adv-x="789" 
d="M99 1036h592v-592h-592v592zM198 937v-394h394v394h-394z" />
    <glyph glyph-name="windowslogo" unicode="&#x2c7;" horiz-adv-x="2119" 
d="M168 1415v-59l-68 -28v58zM161 1224v-53l-55 -25v52zM161 1032v-52l-55 -25v52zM168 843v-59l-68 -28v57zM161 644v-51l-55 -25v52zM161 450v-52l-55 -25v51zM168 263v-60l-68 -28v57zM340 1382v-69l-92 -35v68zM335 1182v-63l-74 -29v63zM335 989v-62l-74 -29v64z
M340 803v-68l-92 -36v68zM335 603v-62l-74 -30v64zM335 408v-62l-74 -30v63zM340 221v-68l-92 -38v68zM512 1339v-82l-119 -47v81zM506 1138v-73l-100 -39v71zM506 945v-72l-100 -40v72zM512 760v-82l-119 -47v81zM506 559v-72l-100 -41v72zM506 372v-74l-100 -40v72z
M512 185v-82l-119 -48v82zM700 1344v-108l-149 -60v107zM692 1143v-99l-125 -51v99zM692 950v-98l-125 -51v99zM700 764v-108l-149 -59v108zM692 563v-99l-125 -50v99zM692 376v-99l-125 -50v98zM700 190v-108l-149 -60v107zM897 1362v-141l-166 -68v141zM889 1150v-118
l-142 -57v119zM889 966v-119l-142 -56v118zM897 783v-141l-166 -67v141zM889 572v-120l-142 -55v118zM889 384v-119l-142 -57v119zM897 208v-141l-166 -67v141zM1098 1433v-193l-177 -74v180q92 53 177 87zM1098 1220v-167l-177 -75v168zM1098 1032v-169l-177 -75v169z
M1098 842v-167l-177 -75v168zM1098 654v-172l-177 -76v173zM1098 461v-168l-177 -77v170zM1098 272v-180q-104 -40 -177 -77v181zM2018 1426v-1351q-171 112 -427 112q-212 0 -474 -88v180q139 55 306 79v440q-141 -18 -306 -98v129q143 66 306 90v427q-147 -28 -306 -95
v190q233 95 457 95q241 0 444 -110zM1841 1305q-111 56 -266 56q-18 0 -36 -2v-432l40 1q133 0 262 -42v419zM1841 758q-119 52 -264 52q-18 0 -38 -2v-440h40q145 0 262 -36v426zM1957 20v29h-12v5h29v-5h-12v-29h-5zM1978 20v34h8l12 -26l12 26h8v-34h-5v28l-12 -26h-6
l-12 26v-28h-5z" />
  </font>
</defs>
</svg>
